<svg width="240" height="324" viewBox="0 0 240 324" fill="none" xmlns="http://www.w3.org/2000/svg">
<path fill-rule="evenodd" clip-rule="evenodd" d="M170.479 181.122C168.644 180.468 166.876 179.712 165.265 178.6C160.62 175.142 157.592 169.937 154.731 165.006C150.7 157.835 147.829 150.193 145.844 142.221C144.991 138.795 144.701 134.824 142.764 131.787C138.371 125.429 125.49 126.253 118.65 127.369C114.07 128.18 113.123 133.308 112.083 137.102C111.217 140.255 110.65 143.443 110.174 146.674C109.041 147.419 107.763 148.024 106.544 148.551C93.2644 152.625 90.9303 160.177 85.858 171.843C77.2908 188.799 54.044 195.439 50.5325 215.506C48.2701 228.755 54.7038 241.219 61.337 252.232C67.5144 264.263 76.1386 270.037 89.8729 267.195C102.755 264.304 115.135 259.468 127.791 255.731C133.92 254.223 140.04 250.302 146.488 251.669C159.773 254.654 173.423 256.057 187.039 255.67C206.155 256.443 206.152 238.089 204.19 223.875C202.816 201.755 191.663 187.551 170.479 181.122V181.122Z" fill="white"/>
<path fill-rule="evenodd" clip-rule="evenodd" d="M171.757 213.13C173.354 214.187 174.698 215.789 175.776 217.475C171.274 217.007 166.779 216.466 162.294 215.851C162.881 215.476 163.474 215.109 164.08 214.762C166.291 213.516 169.287 211.497 171.757 213.13ZM96.9498 226.445C96.1248 226.122 95.8055 224.863 95.484 224.142C94.4758 221.88 93.5557 219.579 92.5985 217.295C96.2331 216.259 99.7677 215.109 103.533 214.556C107.581 213.963 111.69 213.819 115.776 213.952C124.052 214.222 132.251 215.576 140.388 217.026C148.515 218.476 156.642 219.868 164.826 220.961C172.844 222.031 180.888 222.815 188.946 223.502C190.512 223.636 193.123 224.199 194.382 222.967C195.379 221.991 195.411 220.19 194.164 219.397C193.387 218.902 192.261 218.895 191.373 218.78C190.255 218.637 189.133 218.541 188.008 218.466C187.55 218.436 187.091 218.408 186.633 218.38C190.313 216.992 194.156 216.235 198.145 216.446C198.37 217.817 199.387 219.228 199.943 220.359C200.915 222.333 201.672 224.331 202.169 226.477C203.208 230.964 203.253 235.62 202.96 240.196C202.69 244.011 202.111 248.231 199.119 250.934C196.854 252.979 193.659 253.737 190.694 253.975C187.248 254.252 183.749 253.956 180.332 253.494C175.54 252.846 170.725 251.989 166.027 250.84C156.928 248.615 148.206 245.074 140.159 240.274C136.234 237.933 132.49 235.3 128.512 233.048C124.458 230.753 120.145 228.973 115.616 227.868C110.547 226.631 105.249 226.103 100.039 226.408C99.1351 226.461 97.8291 226.789 96.9498 226.445ZM91.0763 224.148C91.6089 225.877 92.0165 227.851 93.1533 229.304C94.2793 230.743 95.9781 231.252 97.738 231.38C99.86 231.534 102.007 231.435 104.133 231.514C108.495 231.676 112.797 232.385 116.967 233.685C120.852 234.897 124.459 236.786 127.934 238.883C131.147 240.822 134.265 242.904 137.479 244.837C136.624 245.229 135.778 245.653 134.928 246.023C133.144 246.797 131.35 247.545 129.547 248.274C125.993 249.711 122.423 251.113 118.817 252.416C111.546 255.043 104.155 257.338 96.6747 259.293C93.1072 260.226 89.4891 261.315 85.7828 261.47C82.4963 261.607 79.4522 260.678 76.8016 258.723C71.304 254.669 66.9301 248.816 63.3943 243.044C61.2937 239.614 59.4605 236.011 57.9443 232.285C57.1774 230.4 56.4819 228.487 55.8559 226.552C55.5622 225.643 55.2838 224.729 55.0201 223.811C54.9041 223.407 54.793 223.002 54.6829 222.597C60.3046 220.881 65.9929 219.332 71.8148 218.472C74.9232 218.012 78.073 217.78 81.2154 217.814C82.7752 217.83 84.3341 217.915 85.8857 218.076C86.7208 218.162 87.5526 218.274 88.3808 218.412C88.723 218.469 89.0748 218.553 89.4276 218.615C89.9665 220.463 90.5099 222.308 91.0763 224.148ZM207.282 216.802C207.585 216.189 207.713 215.586 207.822 214.919C207.904 214.409 208.124 213.693 207.932 213.032C207.716 212.291 207.129 211.629 206.708 210.998C206.242 210.3 205.777 209.601 205.313 208.903C204.384 207.506 203.457 206.107 202.532 204.707C198.753 198.992 195 193.261 191.24 187.533C187.905 182.45 184.625 177.321 181.187 172.306C178.248 168.017 175.044 163.8 171.021 160.465C165.934 156.248 159.876 154.262 153.549 152.711C152.858 151.994 151.935 151.602 150.948 151.682C149.554 150.1 148.446 148.995 147.944 146.984C147.703 146.021 147.779 143.314 146.841 142.744C145.727 142.067 145.145 142.963 144.838 143.973C143.81 147.353 144.99 151.896 147.705 155.282C146.561 159.236 145.044 164.856 142.339 168.024C139.442 171.417 135.436 172.473 131.113 172.542C122.87 172.675 114.636 169.61 108.348 164.299C106.437 162.684 104.662 160.881 103.056 158.964C101.852 157.525 100.427 155.305 99.4848 153.627C99.4848 152.973 98.713 152.289 106.571 151.76C114.428 151.232 115.024 140.469 115.199 139.004C115.341 137.814 115.945 135.968 115.107 134.998C114.751 134.586 114.022 134.52 113.571 134.8C112.721 135.328 112.441 136.678 112.174 137.595C111.8 138.88 110.576 146.854 108.257 147.777C107.171 148.209 105.926 148.217 104.778 148.297C103.359 148.396 101.938 148.469 100.526 148.634C100.005 148.695 99.4362 148.863 98.9222 148.868C98.5878 148.871 98.2428 148.709 97.9195 148.595C96.8286 148.209 95.7384 148.498 94.6145 148.649C84.6773 149.985 74.4454 153.034 65.9693 158.521C58.4985 163.357 53.2352 170.311 49.7622 178.442C46.2186 186.74 44.1874 195.713 42.4853 204.547C41.915 207.507 41.4171 210.48 40.9893 213.464C40.5758 216.347 40.0586 219.294 39.9348 222.207C39.8858 223.359 40.1611 224.429 40.5847 225.482C41.0617 226.667 42.1893 227.134 43.2707 227.687C45.6448 228.902 48.1491 229.844 50.7293 230.511C52.3056 233.38 53.6322 236.36 54.6982 239.454C54.3027 240.238 54.2945 241.408 54.2184 242.17C54.0298 244.068 53.9491 245.975 53.9322 247.881C53.8981 251.701 54.1278 255.517 54.3078 259.332C54.4903 263.2 55.0971 278.464 55.196 280.328C55.2729 281.775 55.1693 283.801 55.9318 285.086C57.1035 287.062 59.9953 286.996 61.3348 285.394C94.6145 292.551 157.171 290.395 182.366 286.794C185.644 286.325 184.614 286.845 185.448 286.017C186.073 285.394 186.606 284.329 186.779 283.473C187.01 282.33 186.637 281.295 185.983 280.371C185.295 279.398 185.17 277.824 184.914 276.668C184.31 273.935 184.01 261.932 183.728 260.602C183.64 260.188 183.555 259.75 183.452 259.311C188.074 259.749 192.889 259.749 197.286 258.203C199.779 257.326 202.104 255.949 203.894 253.982C206.061 251.601 207.267 248.603 207.887 245.474C208.687 241.439 208.857 237.26 208.7 233.158C208.481 228.31 207.678 223.395 205.683 218.944C206.339 218.334 206.889 217.598 207.282 216.802Z" fill="black"/>
<path fill-rule="evenodd" clip-rule="evenodd" d="M92.9526 59.6854C94.0483 58.5092 95.4496 57.633 96.9815 57.3529C95.5812 58.0527 94.2124 58.7821 92.9526 59.6854ZM90.8064 69.8268C90.6126 68.9305 90.4825 68.0255 90.4415 67.1207C90.6864 67.4931 91.0774 67.7419 91.5167 67.8704C91.2329 68.5059 90.9917 69.1607 90.8064 69.8268ZM164.121 83.8802C162.856 78.614 156.956 68.4846 155.561 66.535C154.047 61.7075 162.306 57.8361 157.814 54.0612C155.781 52.3579 153.093 51.7551 150.572 51.1511C133.115 46.9571 114.359 49.0722 98.168 56.7846C95.7053 56.2662 93.1394 57.2794 91.3485 59.059C82.9348 67.5189 94.4011 82.783 96.9084 92.3204C101.21 102.955 92.3488 104.744 93.2991 113.742C94.0375 118.39 98.7439 119.619 102.716 120.321C103.352 120.47 104.203 120.493 104.408 121.166C105.052 125.095 107.258 128.839 110.22 131.381C109.961 132.148 110.158 133.08 111.072 133.754C119.347 139.906 129.781 142.985 140.101 142.431C152.401 141.772 158.762 134.719 160.297 132.903C168.783 121.438 167.769 106.311 166.038 92.6476C164.832 83.1293 166.361 93.2093 164.121 83.8802Z" fill="white"/>
<path fill-rule="evenodd" clip-rule="evenodd" d="M126.195 40.0593C126.582 38.8504 127.676 38.1234 128.929 38.2734C130.038 38.4045 131.225 39.5056 131.09 40.7209C131.065 40.9555 131.031 41.1753 130.991 41.3824L130.996 41.3842V41.3842L131.001 41.3845L130.974 41.4648C130.891 41.8516 130.777 42.1982 130.608 42.5258C130.393 43.1535 130.186 43.7833 129.981 44.4153C130.277 44.4026 130.579 44.4195 130.885 44.4765C131.202 43.665 131.521 42.8555 131.838 42.0418C132.178 41.1731 132.417 40.0572 133.089 39.3851C133.948 38.527 135.44 38.3495 136.488 38.9624C137.595 39.6091 137.99 40.7589 137.749 41.9911C137.627 42.6196 137.207 43.057 136.688 43.3318L136.632 43.3606L136.232 44.3075C136.355 44.2546 136.482 44.206 136.619 44.1659C136.834 44.1025 137.046 44.0623 137.253 44.0454C137.823 43.0119 138.451 42.008 139.099 41.0231C139.845 39.8902 141.303 39.4084 142.526 40.1248C143.62 40.7652 144.208 42.4476 143.424 43.5529C142.828 44.392 142.264 45.248 141.708 46.1124C141.803 46.1293 141.898 46.1504 141.989 46.1779C142.032 46.1209 142.076 46.0638 142.122 46.0067C142.729 45.2543 143.434 44.69 144.159 44.0644C144.837 43.4769 145.15 42.5533 146.041 42.1073C147.163 41.5472 148.515 41.8156 149.183 42.9316C150.615 45.3219 148.211 47.0677 146.673 48.5155C148.01 47.6806 149.403 46.9176 150.831 46.2582C151.634 45.8884 152.449 45.5312 153.277 45.2226C154.505 44.7661 155.498 44.9121 156.506 45.7616C156.956 46.142 157.179 46.9728 156.972 47.5263C156.571 48.5873 155.937 49.2319 154.826 49.5384C154.044 49.754 153.244 49.8998 152.462 50.1259C151.152 50.5021 149.88 50.9608 148.646 51.5335C148.735 51.5885 148.82 51.6477 148.898 51.7153C149.819 51.4173 150.757 51.1594 151.699 50.9396C153.262 50.5731 154.852 50.3254 156.45 50.1705L156.981 50.1211C158.896 49.9372 161.199 49.5979 162.375 51.4321C162.761 52.0365 162.803 53.0341 162.375 53.6322C161.555 54.782 160.739 55.0102 159.383 55.0314C160.718 55.173 162.051 55.3484 163.378 55.5534C164.293 55.6929 165.207 55.851 166.118 56.0265L166.572 56.1156C167.682 56.3375 168.92 56.4664 169.872 57.109C171.951 58.5123 170.975 61.2451 168.672 61.5367C167.559 61.6762 166.323 61.2049 165.231 60.9851C164.17 60.7717 163.106 60.5836 162.036 60.4187C161.483 60.332 160.929 60.256 160.374 60.1862C161.504 60.349 162.626 60.5793 163.718 60.9048L164.022 60.9964C166.133 61.6402 168.983 62.6655 169.642 64.9226C170.041 66.2942 168.949 67.4905 167.627 67.5708C166.397 67.6448 165.372 66.9114 164.329 66.3703C163.568 65.9772 162.795 65.6834 161.975 65.4319C161.128 65.172 160.264 64.9564 159.394 64.781C160.129 65.1864 160.846 65.632 161.533 66.1304L161.849 66.364C163.677 67.7264 166.464 69.8358 165.82 72.3896C165.617 73.1948 164.72 73.9641 163.858 73.8817C161.614 73.6725 160.376 71.2821 158.684 70.0013C158.242 69.6674 157.758 69.3377 157.251 69.0164C159.816 72.0768 161.857 75.6148 163.41 79.269C166.822 87.3083 167.869 94.7534 167.894 103.397L167.895 103.665C167.899 108.433 167.791 113.288 167.327 118.035C166.896 122.42 166.106 126.749 164.117 130.72C160.786 137.38 154.294 142.566 147.134 144.54C139.167 146.738 130.262 145.02 123.736 139.948C122.071 138.654 124.279 135.846 125.979 137.04C132.772 141.805 141.556 143.315 149.352 140.089C155.536 137.532 160.515 132.031 162.626 125.696C163.969 121.667 164.36 117.37 164.84 113.17L164.872 112.891C165.379 108.499 165.672 104.077 165.668 99.6559C165.662 91.4449 164.483 84.6859 160.872 77.238C159.174 73.7295 156.97 70.4855 154.338 67.6384C153.539 67.8012 152.69 67.5729 151.883 67.4863C151.471 67.4419 151.059 67.3996 150.647 67.3616C151.068 67.6338 151.481 67.9168 151.886 68.2065L152.418 68.5903C154.084 69.7833 156.196 71.1421 155.768 73.4484C155.652 74.0719 155.031 74.6447 154.429 74.7863C152.246 75.3062 150.746 73.1843 149.272 71.9246C147.989 70.8298 146.648 69.8492 145.281 68.8664C144.97 68.6445 144.658 68.4225 144.343 68.2027C144.639 68.5477 144.926 68.898 145.207 69.2516L145.622 69.7776C146.877 71.3491 148.687 73.3917 147.569 75.4288C147.252 76.0037 146.576 76.3862 145.921 76.3735C143.669 76.327 142.773 73.7697 141.717 72.155C140.808 70.7706 139.822 69.4666 138.801 68.1626C138.52 67.8054 138.237 67.4482 137.95 67.091C133.22 67.3362 128.506 67.9618 123.875 68.9615C120.694 69.6484 117.565 70.5384 114.459 71.5125L114.201 71.5946C112.52 72.136 110.788 72.8288 109.577 74.017C109.404 74.8356 109.536 75.6989 109.702 76.5164L109.831 77.1422C110.362 79.7588 110.724 82.3271 110.453 85.0135C110.172 87.7843 109.338 90.2762 108.32 92.8504C107.838 94.0635 107.339 93.8437 107.168 95.1457C107.037 96.1373 107.118 97.161 107.208 98.161L107.283 99.0087C107.47 101.229 107.565 103.651 106.11 105.483C105.884 105.764 105.4 105.652 105.239 105.371C105.176 105.259 105.108 105.151 105.034 105.047C104.333 104.031 103.258 103.452 102.028 103.228C101.872 103.2 101.933 102.991 102.064 102.974C103.103 102.851 104.088 103.111 104.925 103.648C104.528 102.276 101.456 102.943 100.447 103.21L100.412 103.219C99.1527 103.557 97.9611 104.107 96.9111 104.885C94.7985 106.449 93.5773 108.888 93.6386 111.515C93.6999 114.097 95.033 116.484 97.3231 117.72C98.4281 118.316 99.6851 118.603 100.936 118.591C102.241 118.578 103.403 118.005 104.711 118.086C105.467 118.132 106.046 118.944 105.609 119.652C105.317 120.125 104.937 120.497 104.498 120.782C105.569 123.253 106.936 125.61 108.512 127.784C109.384 128.991 110.373 130.105 111.461 131.122C112.31 131.916 114.151 132.836 114.047 134.161C114.011 134.639 113.764 134.93 113.329 135.108C111.976 135.661 110.33 133.756 109.425 132.837L109.353 132.764C108.225 131.64 107.196 130.397 106.3 129.078C104.711 126.736 103.725 124.096 103.317 121.324C101.147 121.977 98.2738 121.364 96.5034 120.563C90.9386 118.048 89.1196 110.551 92.502 105.559C93.1569 104.593 93.9766 103.767 94.9104 103.099C94.7055 102.987 94.5133 102.843 94.3421 102.661C93.3955 101.655 92.7262 100.343 92.062 99.1327L91.9823 98.988C91.3926 97.9228 90.8363 96.8409 90.3149 95.7423L90.121 95.3295C88.9569 92.825 87.9365 91.7302 87.1062 89.0968C86.3076 86.5564 85.6781 83.9673 85.2703 81.3339L85.162 80.6369C84.9261 79.1088 84.7031 77.4748 84.8752 75.9234C83.69 76.3101 82.4985 76.549 81.3259 75.9677C80.5527 75.5852 80.1259 74.4693 80.39 73.6682C80.5823 73.0786 80.9034 72.6157 81.3112 72.2522C81.0682 72.1296 80.84 71.9732 80.6393 71.7999L80.464 71.648V71.648C79.7541 71.0306 79.7034 69.8576 80.1344 69.0841C80.1766 69.0101 80.2189 68.934 80.259 68.86C80.6689 68.1266 81.5161 67.6469 82.3527 67.6596C82.4879 67.6617 82.6231 67.6617 82.7604 67.6596C82.3696 67.5729 81.9872 67.4398 81.6238 67.2157C79.9844 66.2076 80.1914 63.4748 82.1752 62.9929C83.0076 62.7922 83.9266 62.8746 84.8435 63.0902C84.8097 63.0711 84.7759 63.0521 84.7421 63.031C84.0492 62.6062 83.4682 61.7756 83.5337 60.9238C83.6055 59.9812 83.9097 59.3091 84.7421 58.8146C85.4647 58.3876 86.4872 58.3475 87.2055 58.8146C87.8288 59.2225 88.4393 59.6726 89.0266 60.1566C88.4372 59.4317 87.9259 58.6434 87.7189 57.8064C87.4633 56.7645 87.89 55.6295 88.8281 55.08C89.5759 54.6425 90.3661 54.6911 91.0717 55.0293C91.0337 54.4819 91.1668 53.9239 91.5302 53.4293C92.2738 52.4151 93.6259 51.8315 94.8027 52.5713C94.9569 52.6685 95.164 52.8355 95.3647 53.0405C94.9738 51.7956 95.3266 50.4895 96.6597 49.9273C97.4731 49.5828 98.5738 49.7561 99.2795 50.35C98.8316 47.9258 102.408 46.1441 103.798 48.6486C104.114 49.216 104.426 49.8134 104.705 50.4245L104.808 50.6543L104.819 50.6501L104.748 50.4821V50.4821L104.675 50.314C104.289 49.4158 103.796 48.4816 103.661 47.5073C103.463 46.0659 104.105 44.6985 105.672 44.4871C106.482 44.3772 107.382 44.745 107.925 45.3877C107.631 43.1514 110.128 41.5261 111.926 43.1958C112.777 43.9862 113.232 45.1423 113.772 46.1568C114.079 46.7295 114.391 47.3002 114.698 47.8751C114.776 47.7821 114.86 47.6891 114.949 47.5982C114.495 46.2371 114.142 44.8422 113.844 43.4388C113.561 42.1158 114.222 40.742 115.587 40.3681C116.827 40.0255 118.38 40.7908 118.657 42.1117C118.851 43.0415 119.082 43.9611 119.335 44.876C119.508 44.8337 119.679 44.8041 119.848 44.783C119.863 44.6111 119.879 44.4383 119.896 44.2664L119.963 43.655C120.111 42.2581 120.26 40.6635 120.989 39.476C122.234 37.447 125.424 38.2882 125.458 40.687C125.477 41.9277 124.972 43.1577 124.796 44.3857C124.72 44.9204 124.676 45.4614 124.651 46.0025C124.991 44.206 125.458 42.4328 125.998 40.687C126.062 40.4778 126.129 40.2686 126.195 40.0593ZM98.6717 109.336C101.471 108.903 104.029 110.464 105.688 112.652C105.99 113.051 105.791 113.616 105.519 113.952C105.322 114.199 105.058 114.229 104.76 114.267C104.418 114.311 103.985 114.034 103.835 113.736C102.768 111.606 100.865 110.259 98.6717 109.431C98.6315 109.416 98.6189 109.344 98.6717 109.336ZM102.551 71.165L102.636 71.0739C103.202 70.4861 102.307 69.5883 101.739 70.1774C101.142 70.7975 100.744 71.5507 100.362 72.3141C99.9984 73.042 101.091 73.6849 101.457 72.9543L101.623 72.6222C101.885 72.1058 102.163 71.5957 102.551 71.165V71.165ZM94.6905 69.9586C95.4933 69.8234 95.1529 68.6011 94.3535 68.736C93.3179 68.9106 92.2862 69.109 91.2504 69.2838C90.4478 69.4191 90.7881 70.6413 91.5876 70.5067C92.6232 70.3319 93.6548 70.1334 94.6905 69.9586ZM142.514 61.6143C141.739 61.3554 141.406 62.5798 142.177 62.8372C143.243 63.1929 144.3 63.5575 145.312 64.0514C146.042 64.4082 146.685 63.3148 145.951 62.9564C144.842 62.4143 143.684 62.0049 142.514 61.6143ZM94.5073 59.9708C93.7499 59.6678 93.421 60.8938 94.1704 61.1937L96.9084 62.2891V62.2891C97.6658 62.5922 97.9947 61.3664 97.2454 61.0665L94.5073 59.9708V59.9708ZM152.075 56.9934L151.975 56.9304C151.288 56.4853 150.652 57.5826 151.335 58.0254C151.736 58.2852 152.223 58.4614 152.59 58.7709L152.667 58.8393C153.26 59.3994 154.158 58.5045 153.563 57.9425C153.128 57.5318 152.578 57.3031 152.075 56.9934V56.9934Z" fill="black"/>
<path fill-rule="evenodd" clip-rule="evenodd" d="M131.046 122.856C133.633 119.849 137.99 119.639 141.6 120.391C143.916 120.874 146.171 121.678 148.524 121.976C149.623 122.115 150.733 122.157 151.84 122.137C152.927 122.116 154.016 121.897 155.1 121.938C155.266 121.944 155.329 122.163 155.185 122.252C153.698 123.165 151.696 123.458 149.941 123.637C149.946 123.767 149.954 123.894 149.972 124.001C150.02 124.288 150.064 124.573 150.099 124.862C150.179 125.513 150.268 126.162 150.357 126.812C150.532 128.091 150.587 129.41 150.895 130.667L150.949 130.876C151.021 131.14 151.037 131.378 151.013 131.593L151.084 131.561L151.31 131.451L151.458 131.382C151.997 131.131 152.512 130.949 153.147 131.01C153.63 131.056 154.035 131.385 154.038 131.901C154.05 134.217 150.931 134.961 149.147 135.405L148.624 135.533C146.352 136.088 144.034 136.573 141.698 136.69C137.95 136.876 133.738 135.841 131.286 132.8C128.998 129.962 128.579 125.724 131.046 122.856ZM148.067 132.584C147.674 129.099 143.392 128.907 142.16 131.117C141.613 128.036 133.527 130.851 134.159 131.464C136.556 133.786 140.193 133.995 143.319 133.565C144.912 133.346 146.505 132.99 148.067 132.584ZM143.315 123.448L142.239 123.293L141.815 123.234C139.146 122.877 136.145 122.692 133.95 124.404C133.149 125.029 132.698 125.844 132.53 126.719C134.606 126.411 136.69 126.176 138.78 125.981L139.35 125.928C140.658 125.81 141.965 125.686 143.272 125.556L144.2 125.462L145.128 125.365C145.455 125.331 147.656 125.218 148.07 125.294C148.114 124.922 148.172 124.117 148.265 123.755C146.701 123.808 145.144 123.692 143.59 123.485L143.315 123.448ZM148.271 107.867C149.866 108.837 152.297 111.099 150.581 113.504C148.561 115.625 145.652 113.193 144.219 112.094C142.89 111.241 141.397 113.433 142.63 114.428C152.987 122.099 157.19 108.121 149.078 106.726C148.185 106.573 147.853 107.567 148.271 107.867ZM151.126 111.954L151.203 111.912L151.228 111.896C151.273 111.867 151.245 111.87 151.143 111.906L151.066 111.933V111.987C151.086 111.975 151.107 111.966 151.126 111.954ZM130.694 103.335L130.694 103.287C130.697 101.94 131.481 98.8624 133.421 98.8624C134.632 98.8624 135.368 100.957 135.495 103.115L135.5 103.203C135.556 104.546 135.188 107.479 133.421 107.479C131.635 107.479 130.712 104.701 130.694 103.335V103.335ZM159.248 102.912L159.248 102.865C159.245 101.517 158.461 98.4397 156.521 98.4397C155.34 98.4397 154.611 100.431 154.457 102.531L154.447 102.693C154.37 103.99 154.714 107.057 156.521 107.057C158.307 107.057 159.23 104.278 159.248 102.912V102.912ZM131.8 89.6734C133.383 89.4327 135.479 89.89 136.217 91.5001C136.546 92.2174 136.157 93.0106 135.328 93.0503C133.325 93.1463 131.528 92.7003 129.77 94.0033C129.014 94.5642 128.377 95.3407 127.844 96.1153L127.642 96.41L127.474 96.6529C127.112 97.186 126.769 97.7653 126.822 98.4085C126.838 98.5989 126.643 98.7796 126.459 98.772C125.306 98.7247 125.182 97.2795 125.334 96.4114C125.616 94.8005 126.395 93.2883 127.475 92.0703C128.61 90.7912 130.107 89.931 131.8 89.6734ZM153.601 91.6285C154.693 90.9266 156.089 90.6569 157.367 90.7603C159.888 90.9634 164.118 93.1073 163.561 96.1878C163.389 97.1378 162.068 97.6391 161.29 97.112C160.453 96.5454 160.25 95.6647 159.627 94.9241C159.13 94.3325 158.5 93.9045 157.826 93.54C157.161 93.1803 156.392 92.9624 155.638 92.883L155.512 92.871C155.058 92.8324 152.765 92.8427 153.102 93.6989C153.168 93.8665 152.919 93.9992 152.804 93.8724C152.101 93.0946 152.897 92.0812 153.601 91.6285Z" fill="black"/>
</svg>
