<svg width="64" height="64" viewBox="0 0 64 64" fill="none" xmlns="http://www.w3.org/2000/svg">
<path d="M47.2101 29.032C47.4081 30.09 47.5161 31.2 47.5161 32.356C47.5161 41.4 41.4601 47.834 32.3161 47.834C23.5681 47.834 16.4821 40.748 16.4821 32C16.4821 23.252 23.5681 16.166 32.3161 16.166C36.5921 16.166 40.1641 17.74 42.9041 20.292L38.4401 24.756V24.746C36.7781 23.162 34.6701 22.352 32.3161 22.352C27.0921 22.352 22.8461 26.766 22.8461 31.99C22.8461 37.214 27.0921 41.638 32.3161 41.638C37.0561 41.638 40.2821 38.926 40.9461 35.206H32.3161V29.03L47.2101 29.032Z" fill="#414752"/>
<path d="M32 2C48.542 2 62 15.458 62 32C62 48.542 48.542 62 32 62C15.458 62 2 48.542 2 32C2 15.458 15.458 2 32 2ZM32 0C14.328 0 0 14.326 0 32C0 49.674 14.328 64 32 64C49.672 64 64 49.674 64 32C64 14.326 49.674 0 32 0Z" fill="#414752"/>
</svg>
