<svg width="619" height="486" viewBox="0 0 619 486" fill="none" xmlns="http://www.w3.org/2000/svg">
<path d="M300.506 352.406C298.957 352.54 297.397 352.433 295.881 352.088C294.349 351.703 292.885 351.087 291.539 350.262C290.2 349.401 288.993 348.35 287.957 347.142C286.942 345.91 286.129 344.525 285.55 343.038C285.027 341.545 284.717 339.986 284.631 338.406C284.595 336.849 284.737 335.294 285.055 333.77C285.398 332.261 285.917 330.798 286.601 329.41C287.317 328.027 288.2 326.736 289.23 325.568C290.301 324.406 291.534 323.406 292.89 322.596C294.277 321.807 295.773 321.227 297.33 320.875C298.902 320.555 300.509 320.448 302.109 320.555C303.713 320.707 305.286 321.093 306.778 321.702C308.248 322.351 309.619 323.205 310.85 324.239C312.045 325.297 313.083 326.52 313.933 327.87C314.737 329.228 315.342 330.695 315.73 332.225C316.076 333.738 316.19 335.295 316.069 336.843H315.898C315.737 335.353 315.403 333.887 314.902 332.475C314.375 331.105 313.674 329.809 312.814 328.619C311.94 327.466 310.927 326.425 309.798 325.52C308.654 324.653 307.404 323.937 306.079 323.387C304.747 322.864 303.356 322.508 301.936 322.329C300.506 322.18 299.062 322.222 297.642 322.454C296.221 322.726 294.84 323.175 293.53 323.792C292.223 324.453 291.001 325.272 289.892 326.23C288.804 327.241 287.868 328.405 287.112 329.685C286.391 330.994 285.881 332.409 285.599 333.877C285.365 335.346 285.358 336.843 285.578 338.314C285.821 339.757 286.254 341.163 286.865 342.493C287.483 343.8 288.242 345.037 289.127 346.18C290.969 348.462 293.394 350.202 296.145 351.217C297.555 351.72 299.018 352.062 300.506 352.235V352.406Z" fill="#272727"/>
<path d="M206.682 352.321C215.231 352.321 222.16 345.391 222.16 336.843C222.16 328.295 215.231 321.365 206.682 321.365C198.134 321.365 191.205 328.295 191.205 336.843C191.205 345.391 198.134 352.321 206.682 352.321Z" fill="#272727"/>
<path d="M412.574 358.236C418.482 358.236 423.271 353.447 423.271 347.54C423.271 341.632 418.482 336.843 412.574 336.843C406.666 336.843 401.877 341.632 401.877 347.54C401.877 353.447 406.666 358.236 412.574 358.236Z" fill="#272727"/>
<path d="M301.279 206.864C296.593 211.224 291.954 215.608 287.36 220.018C282.769 224.435 278.299 228.956 273.871 233.513C271.635 235.772 269.47 238.099 267.376 240.493C265.266 242.872 263.332 245.402 261.59 248.062C259.827 250.695 258.41 253.544 257.372 256.538C256.395 259.5 255.979 262.743 256.933 265.566L256.892 265.462C259.943 270.74 263.297 275.836 266.938 280.725C267.823 281.968 268.768 283.169 269.7 284.378C270.62 285.596 271.578 286.785 272.552 287.962C274.437 290.364 276.447 292.664 278.394 295.018C280.408 297.314 282.39 299.641 284.47 301.884C285.504 303.01 286.518 304.156 287.569 305.268L290.738 308.591L292.315 310.262L293.936 311.891L297.181 315.154C299.364 317.311 301.603 319.413 303.779 321.598C303.791 321.61 303.801 321.624 303.808 321.639C303.815 321.655 303.819 321.671 303.82 321.688C303.82 321.705 303.817 321.722 303.811 321.738C303.805 321.753 303.796 321.768 303.785 321.78C303.763 321.802 303.733 321.816 303.702 321.819C303.671 321.821 303.64 321.813 303.614 321.795C302.38 320.874 301.162 319.93 299.945 318.983C298.737 318.026 297.478 317.123 296.32 316.106L292.802 313.098L291.041 311.592L289.34 310.02L285.952 306.857C284.841 305.783 283.771 304.668 282.678 303.575C280.461 301.417 278.445 299.067 276.339 296.8C274.331 294.446 272.314 292.098 270.435 289.636C269.482 288.417 268.545 287.185 267.646 285.924C266.735 284.673 265.813 283.43 264.949 282.145C263.176 279.606 261.476 277.016 259.907 274.342C258.293 271.683 256.831 268.935 255.527 266.111L255.511 266.076C255.501 266.054 255.493 266.03 255.487 266.007C255.084 264.361 255.001 262.654 255.242 260.977C255.492 259.355 255.916 257.765 256.507 256.234C257.693 253.231 259.164 250.349 260.902 247.627C264.316 242.171 268.134 236.98 272.324 232.095C276.579 227.281 281.148 222.754 286.003 218.544C290.802 214.289 295.851 210.321 301.12 206.663C301.148 206.643 301.183 206.636 301.216 206.642C301.25 206.648 301.28 206.668 301.299 206.696C301.316 206.722 301.324 206.753 301.32 206.784C301.316 206.815 301.302 206.843 301.279 206.864V206.864Z" fill="#272727"/>
<path d="M373.125 200.094C374.592 202.137 375.486 204.536 375.713 207.04C375.86 209.611 375.266 212.169 374.003 214.412C371.528 218.916 367.572 222.236 363.5 225.025C359.387 227.774 355.008 230.104 350.43 231.981C345.877 233.845 341.211 235.418 336.459 236.692L336.91 236.216C335.392 242.436 334.841 248.853 335.277 255.24C335.447 258.44 335.778 261.629 336.269 264.795C336.493 266.38 336.784 267.956 337.057 269.532C337.379 271.101 337.657 272.676 338.021 274.235C338.698 277.36 339.429 280.475 340.275 283.55L340.927 285.845C341.176 286.632 341.335 287.42 341.532 288.2L342.668 292.894L344.938 302.286L347.112 311.702L347.115 311.713C347.185 312.016 347.148 312.334 347.011 312.613C346.873 312.893 346.644 313.116 346.361 313.246L340.331 316.012C339.319 316.46 338.337 316.966 337.337 317.436L334.348 318.869L334.901 317.278L337.667 323.528L337.696 323.595C337.749 323.715 337.776 323.844 337.777 323.975C337.777 324.106 337.751 324.236 337.699 324.356C337.44 324.915 337.053 325.404 336.569 325.784C336.191 326.094 335.791 326.377 335.372 326.631C334.588 327.108 333.775 327.536 332.938 327.913C331.295 328.657 329.633 329.292 327.961 329.888C326.289 330.48 324.607 331.03 322.919 331.55C321.222 332.049 319.524 332.524 317.81 332.965L317.781 332.972C317.735 332.984 317.687 332.985 317.641 332.975C317.595 332.965 317.551 332.944 317.514 332.915C316.482 332.082 315.463 331.233 314.446 330.385C314.42 330.363 314.403 330.332 314.4 330.298C314.397 330.264 314.408 330.23 314.429 330.204C314.45 330.18 314.479 330.164 314.51 330.16C314.542 330.156 314.574 330.163 314.6 330.18C315.709 330.906 316.817 331.63 317.911 332.371L317.616 332.321C319.266 331.73 320.91 331.103 322.54 330.455C324.178 329.826 325.803 329.172 327.407 328.479C329.009 327.784 330.593 327.052 332.106 326.239C332.857 325.827 333.6 325.409 334.274 324.945C334.599 324.727 334.908 324.486 335.199 324.225C335.402 324.051 335.571 323.841 335.696 323.604L335.728 324.432L332.712 318.3C332.576 318.022 332.553 317.701 332.65 317.407C332.747 317.113 332.956 316.869 333.231 316.727L333.266 316.709C335.24 315.691 337.191 314.618 339.195 313.661L345.197 310.77L344.446 312.314L342.302 302.923L340.254 293.508L339.23 288.799C339.051 288.015 338.909 287.221 338.689 286.469C338.473 285.68 338.297 284.89 338.107 284.1C337.388 280.938 336.726 277.769 336.24 274.569C335.231 268.182 334.632 261.738 334.446 255.275C334.168 248.8 334.571 242.315 335.647 235.924C335.666 235.82 335.713 235.722 335.782 235.642C335.851 235.561 335.941 235.501 336.042 235.466L336.098 235.447C340.676 233.863 345.168 232.039 349.554 229.983C351.746 228.965 353.927 227.93 356.051 226.796C358.19 225.702 360.271 224.5 362.288 223.195C366.278 220.599 370.132 217.587 372.616 213.618C373.884 211.662 374.598 209.398 374.682 207.069C374.663 204.677 374.053 202.328 372.907 200.229C372.899 200.214 372.894 200.198 372.892 200.181C372.89 200.164 372.892 200.147 372.896 200.131C372.901 200.115 372.909 200.1 372.92 200.087C372.93 200.074 372.944 200.063 372.958 200.055C372.986 200.041 373.018 200.037 373.049 200.044C373.08 200.051 373.107 200.069 373.125 200.094V200.094Z" fill="#272727"/>
<path d="M301.131 206.871C299.14 205.767 297.206 204.56 295.34 203.256C293.48 201.922 291.71 200.467 290.042 198.9C286.769 195.723 283.675 192.367 280.774 188.848C277.837 185.37 275.006 181.801 272.341 178.096C269.557 174.417 267.127 170.482 265.085 166.345L266.675 166.876C261.366 169.964 256.124 173.163 250.948 176.473C245.779 179.789 240.634 183.156 235.621 186.718C230.608 190.278 225.653 193.934 220.877 197.817C216.089 201.685 211.454 205.743 206.957 209.947C206.896 210.005 206.817 210.042 206.733 210.053C206.649 210.063 206.564 210.047 206.489 210.007C206.415 209.967 206.355 209.904 206.318 209.827C206.281 209.751 206.27 209.665 206.285 209.582L206.287 209.571C206.822 206.82 206.322 203.969 204.882 201.566C204.154 200.397 203.187 199.395 202.044 198.627C200.906 197.86 199.632 197.316 198.291 197.022C198.201 197.002 198.117 196.961 198.045 196.903C197.973 196.844 197.917 196.769 197.879 196.685C197.842 196.6 197.825 196.508 197.831 196.415C197.836 196.323 197.862 196.233 197.909 196.153L197.919 196.136C203.3 186.845 209.274 177.911 215.803 169.388C222.363 160.872 229.455 152.778 237.036 145.156C240.817 141.334 244.761 137.676 248.793 134.12C250.806 132.338 252.87 130.615 254.951 128.914C257.018 127.207 259.185 125.524 261.393 123.984C265.821 120.886 270.325 118.045 274.85 115.142C277.127 113.714 279.424 112.314 281.789 111.001C282.973 110.345 284.174 109.712 285.425 109.135C286.061 108.84 286.714 108.58 287.38 108.356C287.736 108.237 288.1 108.14 288.469 108.066C288.949 107.958 289.449 107.969 289.924 108.098C290.059 108.137 290.181 108.212 290.276 108.316L290.29 108.332L293.724 112.116L293.438 111.923L305.512 116.93L317.549 122.032C317.58 122.045 317.604 122.069 317.617 122.1C317.63 122.131 317.63 122.165 317.618 122.196C317.606 122.227 317.582 122.252 317.552 122.266C317.522 122.28 317.487 122.282 317.456 122.271L305.141 117.88L292.864 113.393C292.766 113.357 292.676 113.3 292.602 113.226L292.577 113.2L288.995 109.555L289.361 109.789C289.182 109.79 289.004 109.811 288.831 109.852C288.546 109.922 288.267 110.01 287.993 110.114C287.416 110.327 286.833 110.604 286.251 110.884C285.086 111.456 283.934 112.098 282.795 112.767C280.516 114.106 278.278 115.545 276.059 117.014C271.646 119.984 267.194 122.999 262.9 126.091C260.737 127.637 258.696 129.26 256.658 130.981C254.61 132.679 252.609 134.433 250.605 136.182C246.596 139.68 242.733 143.341 238.921 147.053C231.326 154.518 224.179 162.426 217.519 170.736C210.824 179.039 204.62 187.725 198.937 196.751L198.564 195.865C200.034 196.235 201.42 196.879 202.649 197.765C203.873 198.653 204.904 199.78 205.68 201.078C206.45 202.369 206.956 203.799 207.17 205.287C207.383 206.764 207.352 208.265 207.078 209.732L206.408 209.355C210.95 205.178 215.578 201.095 220.29 197.108C225.01 193.133 229.773 189.197 234.686 185.448C239.603 181.708 244.586 178.039 249.747 174.629C254.891 171.196 260.176 167.974 265.558 164.927C265.818 164.779 266.127 164.741 266.415 164.821C266.704 164.901 266.949 165.092 267.097 165.353C267.116 165.387 267.133 165.422 267.149 165.458C268.068 167.468 269.125 169.413 270.314 171.278C271.491 173.182 272.724 175.061 274.013 176.915C276.588 180.612 279.268 184.244 282.051 187.81C284.839 191.366 287.715 194.856 290.82 198.112C292.368 199.743 294.022 201.27 295.772 202.683C297.531 204.087 299.391 205.379 301.267 206.653C301.295 206.672 301.314 206.7 301.321 206.733C301.328 206.765 301.322 206.799 301.304 206.827C301.286 206.856 301.259 206.876 301.226 206.884C301.194 206.892 301.16 206.887 301.131 206.871L301.131 206.871Z" fill="#272727"/>
<path d="M293.564 130.406C287.579 126.485 266.783 121.898 266.783 121.898L258.275 127.929C258.275 127.929 284.942 132.469 293.609 141.756L293.564 130.406" fill="#272727"/>
<path d="M271.895 133.914C273.1 134.353 274.159 135.117 274.957 136.122C275.782 137.113 276.415 138.249 276.823 139.473C277.21 140.69 277.393 141.963 277.364 143.24C277.357 144.5 277.112 145.747 276.641 146.915C276.49 146.292 276.43 145.691 276.337 145.097C276.215 144.505 276.157 143.918 276.034 143.346C275.821 142.218 275.542 141.103 275.199 140.007C274.478 137.792 273.358 135.727 271.895 133.914Z" fill="#272727"/>
<path d="M277.673 119.675C278.808 118.795 280.01 118.006 281.268 117.315C282.506 116.616 283.77 115.974 285.059 115.388C286.347 114.799 287.665 114.276 289.006 113.804C290.355 113.313 291.741 112.93 293.151 112.658C292.017 113.539 290.816 114.329 289.557 115.02C288.318 115.718 287.057 116.364 285.765 116.945C284.476 117.531 283.16 118.058 281.817 118.526C280.468 119.017 279.082 119.401 277.673 119.675V119.675Z" fill="#272727"/>
<path d="M266.117 165.901C267.049 164.585 268.072 163.336 269.179 162.163C270.266 160.988 271.394 159.858 272.564 158.773C273.733 157.686 274.95 156.653 276.206 155.66C277.461 154.648 278.787 153.725 280.173 152.9C279.243 154.217 278.22 155.467 277.112 156.64C276.025 157.815 274.9 158.948 273.725 160.028C272.555 161.113 271.34 162.149 270.082 163.139C268.826 164.151 267.501 165.074 266.117 165.901V165.901Z" fill="#272727"/>
<path d="M333.396 121.898C324.725 119.17 293.358 124.42 290.878 133.913C288.406 143.405 312.958 176.012 312.958 176.012L321.424 185.71C328.274 196.502 358.435 183.982 368.492 179.407C369.519 178.954 370.386 178.203 370.982 177.252C371.578 176.301 371.875 175.193 371.836 174.071C370.647 150.443 341.614 124.489 333.396 121.898ZM350.525 142.994C349.268 143.525 348.002 144.029 346.728 144.525C345.463 145.021 344.205 145.534 342.931 146.013C340.708 146.86 338.467 147.672 336.235 148.485C337.262 149.759 338.274 151.041 339.271 152.333C340.46 153.889 341.64 155.463 342.794 157.053C343.949 158.652 345.069 160.269 346.147 161.928C346.694 162.757 347.207 163.604 347.695 164.485C347.934 164.929 348.191 165.348 348.396 165.836C348.507 166.075 348.627 166.297 348.721 166.554L348.772 166.734C349.978 166.614 351.201 166.46 352.415 166.255C353.817 166.007 355.22 165.742 356.597 165.374C357.976 165.027 359.321 164.558 360.616 163.971C361.939 163.42 363.086 162.518 363.934 161.363C363.243 162.671 362.177 163.743 360.873 164.442C359.612 165.2 358.273 165.819 356.879 166.289C355.496 166.775 354.086 167.178 352.655 167.495C351.226 167.811 349.798 168.093 348.319 168.273L347.763 168.333L347.524 167.666L347.327 167.11C347.241 166.922 347.122 166.708 347.019 166.503C346.831 166.092 346.566 165.682 346.326 165.271C345.83 164.459 345.3 163.647 344.761 162.834C343.692 161.218 342.555 159.636 341.418 158.054C340.289 156.463 339.126 154.881 337.963 153.316C336.808 151.734 335.654 150.161 334.474 148.596L333.85 147.766L334.816 147.467C337.416 146.68 340.024 145.885 342.641 145.141C343.94 144.756 345.257 144.414 346.574 144.046C347.883 143.679 349.2 143.319 350.525 142.994V142.994ZM339.536 138.787C340.715 138.632 341.907 138.589 343.094 138.659C342.054 139.235 340.964 139.713 339.836 140.087C338.733 140.464 337.611 140.783 336.475 141.045C335.335 141.303 334.182 141.497 333.02 141.626C331.844 141.781 330.655 141.824 329.471 141.754C330.511 141.181 331.601 140.706 332.729 140.335C333.831 139.954 334.953 139.635 336.09 139.377C337.227 139.116 338.377 138.919 339.536 138.787L339.536 138.787ZM319.799 134.888C321.287 134.203 322.795 133.576 324.323 133.006C325.854 132.442 327.407 131.934 328.984 131.484C330.564 131.01 332.175 130.65 333.807 130.407C332.408 131.28 330.95 132.057 329.445 132.733C327.957 133.417 326.452 134.05 324.922 134.614C323.391 135.178 321.835 135.683 320.261 136.136C318.681 136.609 317.069 136.969 315.438 137.214C316.837 136.34 318.294 135.563 319.799 134.887L319.799 134.888ZM331.25 183.905C329.787 183.045 328.408 182.052 327.128 180.938C324.633 178.652 322.344 176.151 320.287 173.464C316.217 168.096 312.58 162.415 309.409 156.472C307.819 153.504 306.305 150.494 304.902 147.441C304.21 145.902 303.534 144.363 302.91 142.789C302.593 142.002 302.286 141.216 302.012 140.412C301.867 140.01 301.747 139.599 301.61 139.189C301.483 138.76 301.383 138.323 301.311 137.881C301.004 136.074 301.356 134.216 302.303 132.647C303.231 131.162 304.468 129.894 305.929 128.927C307.339 127.979 308.847 127.185 310.427 126.558C311.98 125.908 313.588 125.398 315.233 125.036C312.066 126.061 309.09 127.601 306.425 129.594C305.137 130.559 304.065 131.782 303.278 133.186C302.537 134.549 302.304 136.131 302.619 137.65C302.703 138.028 302.806 138.402 302.927 138.77C303.072 139.155 303.192 139.54 303.355 139.924C303.654 140.686 303.962 141.455 304.287 142.216C304.937 143.747 305.646 145.252 306.365 146.757C307.801 149.759 309.307 152.735 310.906 155.651C312.488 158.593 314.147 161.483 315.883 164.322C317.602 167.178 319.44 169.949 321.356 172.66C323.274 175.371 325.395 177.932 327.701 180.322C328.859 181.504 330.128 182.572 331.489 183.512C332.844 184.481 334.42 185.095 336.073 185.299C334.37 185.274 332.704 184.792 331.25 183.905L331.25 183.905ZM363.583 175.26C361.232 176.668 358.579 177.497 355.844 177.68C353.12 177.904 350.378 177.658 347.737 176.953C346.402 176.604 345.109 176.111 343.881 175.482C343.249 175.158 342.648 174.777 342.085 174.345C341.465 173.896 340.934 173.337 340.52 172.694C340.404 172.518 340.309 172.328 340.238 172.13C340.139 171.933 340.073 171.723 340.041 171.505L339.947 170.958C339.936 170.822 339.913 170.688 339.878 170.556C339.727 169.964 339.524 169.386 339.271 168.829C338.747 167.648 338.162 166.495 337.518 165.374C336.253 163.091 334.824 160.876 333.413 158.652C330.54 154.24 327.59 149.853 324.622 145.474C328.111 149.451 331.429 153.59 334.517 157.908C336.073 160.063 337.538 162.284 338.912 164.57C339.616 165.727 340.247 166.926 340.802 168.162C341.098 168.807 341.338 169.477 341.52 170.163C341.568 170.352 341.605 170.543 341.631 170.736L341.674 171.018L341.708 171.163C341.72 171.275 341.755 171.383 341.811 171.48C341.851 171.594 341.909 171.7 341.982 171.796C342.68 172.74 343.599 173.497 344.659 174.002C345.78 174.585 346.958 175.052 348.173 175.396C350.639 176.112 353.201 176.435 355.767 176.354C358.338 176.299 360.865 175.674 363.164 174.524C364.319 173.946 365.378 173.193 366.303 172.292C367.224 171.356 368.023 170.308 368.68 169.171C367.666 171.687 365.882 173.819 363.583 175.259L363.583 175.26Z" fill="#272727"/>
<path d="M269.979 162.329C269.979 162.329 292.119 171.886 312.962 176.013L319.79 183.84C319.79 183.84 292.032 179.384 266.117 165.901L269.979 162.329Z" fill="#272727"/>
<path d="M300.641 126.152C300.424 124.555 300.742 122.931 301.548 121.535C301.983 120.772 302.578 120.113 303.29 119.6C304.003 119.087 304.817 118.733 305.678 118.562C307.296 118.262 308.967 118.477 310.455 119.178C311.944 119.878 313.176 121.028 313.976 122.465C312.701 121.794 311.35 121.278 309.953 120.928C308.699 120.617 307.393 120.578 306.123 120.811C304.921 121.062 303.828 121.686 303 122.593C302.053 123.664 301.259 124.862 300.641 126.152V126.152Z" fill="#272727"/>
<path d="M250.788 103.38L251.759 106.871C251.93 107.447 252.082 108.026 252.267 108.589C252.424 109.119 252.628 109.634 252.877 110.128C252.938 110.233 252.964 110.354 252.952 110.475C252.94 110.596 252.889 110.709 252.808 110.799L252.782 110.828C252.212 111.456 251.655 112.116 251.11 112.764C250.577 113.393 250.09 114.061 249.653 114.76C249.564 114.905 249.488 115.058 249.426 115.217C249.413 115.256 249.402 115.295 249.394 115.335C249.401 115.328 249.409 115.237 249.294 115.076C249.258 115.031 249.211 114.995 249.159 114.971L249.296 115.025L249.568 115.134C249.749 115.188 249.932 115.26 250.111 115.295C250.443 115.386 250.787 115.423 251.131 115.405C251.275 115.396 251.416 115.366 251.55 115.315C251.607 115.294 251.661 115.267 251.713 115.236C251.75 115.222 251.823 115.143 251.778 115.2L253.129 115.656C253.155 116.691 253.251 117.723 253.416 118.745C253.58 119.774 253.829 120.788 254.16 121.776C254.485 122.765 254.94 123.706 255.512 124.575C256.106 125.458 256.868 126.215 257.754 126.804C256.701 126.434 255.755 125.811 254.999 124.991C254.234 124.161 253.608 123.215 253.142 122.188C252.675 121.169 252.317 120.103 252.075 119.008C251.818 117.912 251.665 116.793 251.62 115.668L252.971 116.123C252.849 116.272 252.704 116.401 252.54 116.504C252.41 116.591 252.271 116.664 252.126 116.723C251.858 116.834 251.574 116.904 251.285 116.932C250.763 116.983 250.236 116.937 249.731 116.795C249.485 116.738 249.263 116.648 249.032 116.571L248.703 116.433L248.538 116.363C248.388 116.294 248.253 116.194 248.143 116.07C248.043 115.95 247.969 115.811 247.925 115.662C247.881 115.512 247.867 115.355 247.886 115.2C247.907 115.025 247.949 114.854 248.013 114.69C248.111 114.445 248.231 114.21 248.372 113.987C248.876 113.229 249.448 112.518 250.082 111.863C250.681 111.208 251.311 110.604 251.968 110.005L251.872 110.704C251.614 110.102 251.433 109.47 251.334 108.823C251.225 108.217 251.128 107.616 251.059 107.011C250.918 105.803 250.815 104.595 250.788 103.38Z" fill="#272727"/>
<path d="M277.153 82.6544C263.975 82.3979 261.161 84.9548 250.42 100.057C250.42 100.057 238.337 105.556 238.944 107.856C239.56 110.156 250.874 103.956 250.874 103.956L290.707 104.213C290.707 104.213 290.339 82.911 277.153 82.6544ZM277.153 100.433C278.896 99.845 280.696 99.438 282.523 99.2188C284.344 98.959 286.187 98.8959 288.022 99.0307C284.519 100.178 280.832 100.654 277.153 100.433V100.433Z" fill="#272727"/>
<path d="M257.754 104C258.463 105.004 259.257 105.945 260.129 106.811C260.876 107.631 261.837 108.225 262.904 108.528C263.373 108.598 263.853 108.547 264.296 108.379C264.74 108.212 265.134 107.934 265.441 107.572C266.47 106.526 267.817 105.849 269.271 105.646C269.695 105.601 270.124 105.627 270.541 105.722C271.005 105.832 271.434 106.054 271.793 106.369C272.403 106.954 272.799 107.729 272.915 108.567C273.096 109.911 273.02 111.277 272.691 112.593C272.626 112.918 272.542 113.238 272.44 113.553L272.298 114.031L272.089 114.505C271.818 115.184 271.366 115.776 270.781 116.216C270.464 116.424 270.098 116.545 269.719 116.567C269.34 116.588 268.962 116.51 268.624 116.339C268.037 116.05 267.529 115.622 267.145 115.092C267.646 115.432 268.208 115.67 268.801 115.793C269.04 115.856 269.292 115.854 269.53 115.787C269.768 115.721 269.984 115.592 270.156 115.414C270.492 115.019 270.72 114.543 270.815 114.034L270.92 113.632L270.986 113.203C271.04 112.918 271.076 112.63 271.094 112.34C271.234 111.216 271.201 110.078 270.995 108.964C270.929 108.565 270.739 108.198 270.451 107.914C270.313 107.814 270.156 107.745 269.99 107.709C269.823 107.673 269.651 107.672 269.485 107.706C268.464 107.865 267.514 108.322 266.754 109.021C266.187 109.517 265.524 109.892 264.807 110.121C264.047 110.355 263.232 110.341 262.48 110.081C261.18 109.571 260.081 108.65 259.351 107.458C258.642 106.396 258.103 105.229 257.754 104V104Z" fill="#272727"/>
<path d="M263.901 167.532C264.155 168.6 264.342 169.683 264.461 170.775C264.587 171.856 264.661 172.937 264.711 174.018L264.271 173.298C265.901 174.052 267.48 174.913 268.996 175.875C269.763 176.355 270.504 176.872 271.218 177.427C271.581 177.699 271.927 178.001 272.268 178.308C272.634 178.6 272.932 178.967 273.145 179.384C272.779 179.131 272.38 178.93 271.958 178.789L270.722 178.271C269.895 177.93 269.083 177.565 268.276 177.187C266.659 176.443 265.079 175.615 263.532 174.738L263.471 174.704C263.35 174.635 263.251 174.535 263.185 174.414C263.118 174.293 263.086 174.156 263.092 174.018C263.142 172.937 263.216 171.856 263.341 170.775C263.461 169.683 263.648 168.6 263.901 167.532Z" fill="#272727"/>
<path d="M251.213 187.711C251.112 186.576 250.923 185.233 250.829 183.84C250.826 183.784 250.834 183.728 250.855 183.677C250.876 183.625 250.909 183.579 250.95 183.541L250.995 183.501C252.99 181.72 255.033 180 257.123 178.341C258.16 177.502 259.21 176.679 260.284 175.886C261.354 175.088 262.467 174.347 263.564 173.585L263.613 173.551C263.696 173.493 263.794 173.462 263.894 173.461C263.995 173.459 264.093 173.488 264.177 173.543C265.668 174.523 267.143 175.531 268.663 176.46C270.187 177.383 271.734 178.266 273.304 179.109C273.373 179.146 273.426 179.208 273.45 179.283C273.475 179.357 273.47 179.438 273.437 179.509L273.428 179.529C272.809 180.846 272.08 182.108 271.25 183.304C270.816 183.923 270.319 184.497 269.769 185.016C269.126 185.654 268.258 186.013 267.352 186.015L268.124 185.488C267.907 186.378 267.631 187.251 267.296 188.103C266.965 188.978 266.554 189.821 266.068 190.62C265.806 191.052 265.496 191.452 265.145 191.814C264.735 192.251 264.218 192.574 263.646 192.75C263.318 192.836 262.977 192.856 262.642 192.809C262.306 192.762 261.984 192.648 261.693 192.475C261.221 192.183 260.802 191.812 260.454 191.38C260.333 191.24 260.259 191.066 260.243 190.881C260.227 190.697 260.271 190.512 260.367 190.354L260.402 190.297C260.766 189.714 261.062 189.091 261.285 188.441C261.502 187.848 261.575 187.212 261.5 186.586C261.459 186.307 261.356 186.042 261.199 185.809C261.041 185.577 260.834 185.382 260.591 185.241C260.323 185.06 260.035 184.91 259.734 184.794C259.409 184.686 259.061 184.607 258.723 184.508L259.128 184.444C257.754 185.07 256.358 185.624 255.022 186.173C253.683 186.713 252.407 187.205 251.213 187.711ZM251.303 187.566C252.632 186.806 253.878 186.032 255.06 185.306C256.247 184.588 257.374 183.877 258.522 183.237C258.643 183.169 258.784 183.146 258.921 183.171L258.927 183.172C259.341 183.25 259.758 183.31 260.176 183.411C260.611 183.533 261.028 183.71 261.417 183.939C261.839 184.183 262.213 184.501 262.52 184.879C262.655 185.091 262.786 185.309 262.911 185.53C263.007 185.759 263.076 186 263.152 186.239C263.326 187.146 263.268 188.082 262.984 188.961C262.745 189.79 262.388 190.581 261.926 191.309L261.874 190.226C262.079 190.483 262.322 190.708 262.595 190.891C262.682 190.949 262.78 190.989 262.883 191.007C262.986 191.025 263.091 191.022 263.193 190.998C263.808 190.734 264.319 190.273 264.646 189.688C265.106 188.995 265.5 188.261 265.825 187.496C266.158 186.72 266.473 185.903 266.735 185.111L266.762 185.028C266.812 184.877 266.915 184.749 267.052 184.668C267.188 184.586 267.35 184.557 267.506 184.584C268.043 184.581 268.561 184.38 268.958 184.019C269.49 183.61 269.981 183.151 270.425 182.648C271.342 181.59 272.158 180.449 272.862 179.239L272.985 179.658C271.474 178.713 269.94 177.808 268.383 176.942C266.822 176.083 265.216 175.302 263.626 174.493L264.238 174.452C263.228 175.327 262.235 176.222 261.197 177.061C260.164 177.906 259.106 178.719 258.037 179.517C255.908 181.127 253.736 182.681 251.521 184.178L251.687 183.84C251.593 184.98 251.404 186.169 251.303 187.566V187.566Z" fill="#272727"/>
<path d="M198.434 196.529C195.632 197.096 192.909 197.999 190.323 199.218C187.843 200.456 185.713 202.36 185.324 205C185.172 206.375 185.35 207.768 185.842 209.061L186.198 210.074C186.338 210.402 186.506 210.715 186.665 211.034C186.98 211.67 187.367 212.267 187.818 212.813L188.549 213.566L189.393 214.163C189.986 214.48 190.643 214.658 191.314 214.686C192.638 214.683 193.916 214.195 194.906 213.316L195.023 214.42C193.924 213.883 192.897 213.209 191.967 212.414C190.931 211.585 190.15 210.481 189.714 209.228C189.606 208.873 189.552 208.503 189.553 208.132C189.569 207.752 189.625 207.376 189.72 207.008C189.861 206.669 190.022 206.339 190.201 206.019L190.842 205.23C191.809 204.26 193.071 203.639 194.429 203.465C195.069 203.365 195.719 203.345 196.363 203.407L196.838 203.46C197.006 203.489 197.186 203.537 197.359 203.578C197.7 203.669 198.03 203.796 198.342 203.96C199.385 204.641 200.304 205.494 201.061 206.483C201.739 207.36 202.557 208.121 203.481 208.734C204.445 209.307 205.551 209.596 206.673 209.566L206.692 209.736C205.501 210.019 204.251 209.921 203.118 209.457C202.022 208.924 201.021 208.215 200.156 207.357C199.415 206.573 198.565 205.899 197.631 205.358C197.423 205.269 197.204 205.203 196.981 205.161L196.651 205.106L196.259 205.09C195.746 205.07 195.232 205.107 194.728 205.2C193.776 205.368 192.893 205.808 192.185 206.466C191.849 206.74 191.595 207.102 191.453 207.513C191.311 207.923 191.287 208.365 191.382 208.788C191.693 209.743 192.26 210.595 193.022 211.25C193.829 211.995 194.706 212.661 195.641 213.237L196.53 213.793L195.759 214.342C195.101 214.806 194.368 215.151 193.591 215.36C192.828 215.586 192.025 215.644 191.237 215.532C189.699 215.269 188.325 214.416 187.408 213.154C187.17 212.867 186.981 212.544 186.766 212.242C186.544 211.944 186.351 211.627 186.189 211.294L185.658 210.319L185.211 209.308C184.497 207.948 184.118 206.437 184.107 204.9C184.145 203.273 184.789 201.718 185.914 200.541C186.447 199.965 187.053 199.461 187.717 199.043C188.353 198.619 189.029 198.258 189.734 197.965C192.485 196.824 195.445 196.277 198.422 196.358L198.434 196.529Z" fill="#272727"/>
<path d="M301.199 206.762C307.736 206.839 314.256 206.892 320.769 206.827C324.025 206.811 327.279 206.756 330.53 206.662C333.78 206.586 337.028 206.466 340.267 206.272C343.508 206.106 346.745 205.888 349.962 205.548C353.18 205.218 356.396 204.863 359.561 204.284C362.716 203.758 365.828 203.002 368.873 202.022C371.842 200.985 374.782 199.654 376.851 197.494L376.63 198.114C376.596 196.334 376.446 194.559 376.18 192.799C375.916 191.03 375.509 189.285 374.961 187.583C374.421 185.881 373.628 184.271 372.608 182.805C371.574 181.319 370.152 180.145 368.496 179.411C370.288 179.945 371.886 180.986 373.099 182.41C374.322 183.832 375.307 185.445 376.013 187.183C376.734 188.905 377.292 190.692 377.679 192.518C378.092 194.347 378.361 196.205 378.481 198.075L378.501 198.419L378.26 198.695C375.883 201.201 372.919 203.075 369.636 204.148C366.506 205.281 363.283 206.145 360.005 206.729C353.521 207.871 346.961 208.539 340.379 208.728C333.822 208.953 327.269 208.872 320.733 208.552C314.2 208.205 307.676 207.677 301.199 206.762Z" fill="#272727"/>
<path d="M336.282 236.066C333.007 239.679 329.538 243.112 325.892 246.349C324.092 247.993 322.221 249.555 320.356 251.126C318.472 252.673 316.546 254.172 314.609 255.659C312.642 257.105 310.658 258.532 308.628 259.897C306.574 261.227 304.512 262.551 302.359 263.73C300.215 264.937 297.992 265.998 295.706 266.905C293.429 267.856 291.006 268.408 288.542 268.535C290.883 267.951 293.136 267.058 295.241 265.879C297.367 264.764 299.415 263.501 301.437 262.197C305.459 259.552 309.377 256.735 313.234 253.826C317.109 250.939 320.917 247.953 324.747 244.982C328.569 242 332.385 239.002 336.282 236.066Z" fill="#272727"/>
<path d="M327.339 210.202C328.771 211.396 329.864 212.668 331.037 213.812C331.591 214.387 332.189 214.919 332.826 215.401C333.487 215.915 334.239 216.298 335.044 216.53C334.602 216.739 334.121 216.852 333.632 216.864C333.144 216.875 332.658 216.783 332.207 216.595C331.308 216.255 330.497 215.719 329.832 215.026C329.179 214.374 328.628 213.628 328.198 212.812C327.754 212.002 327.463 211.117 327.339 210.202Z" fill="#272727"/>
<path d="M319.79 210.202C319.79 210.202 268.946 255.878 268.976 265.233C269.006 274.588 324.622 330.334 324.622 330.334" stroke="#272727" stroke-width="1.71031" stroke-linecap="round" stroke-linejoin="round" stroke-dasharray="2.57 2.57"/>
<path d="M293.609 267.182C297.93 270.473 301.958 274.132 305.648 278.118C309.395 282.046 312.876 286.216 316.23 290.478C319.544 294.772 322.694 299.19 325.634 303.744C327.129 306.003 328.497 308.345 329.904 310.658C331.246 313.012 332.563 315.38 333.805 317.788C332.131 315.65 330.564 313.45 328.963 311.276L324.163 304.763C322.525 302.621 320.984 300.414 319.321 298.296C317.72 296.133 316.077 294.003 314.421 291.884C311.13 287.63 307.762 283.436 304.318 279.304C300.847 275.193 297.345 271.104 293.609 267.182Z" fill="#272727"/>
<path d="M341.922 348.754C341.922 348.754 339.724 345.581 330.369 353.56C321.014 361.539 298.172 365.113 293.606 364.84C289.048 364.566 289.364 355.758 293.606 355.758C296.163 355.758 304.663 350.678 310.495 345.855L313.711 349.156L311.855 344.837L313.309 343.674L318.26 345.308L314.292 342.298C315.087 341.408 315.806 340.758 315.806 340.758L319.911 340.767L316.233 339.116C316.269 338.951 316.272 338.781 316.241 338.615C316.21 338.449 316.147 338.291 316.054 338.15C313.582 334.575 317.713 332.643 317.713 332.643C333.944 340.348 338.348 325.767 338.348 325.767L349.354 336.226C348.835 337.358 348.048 338.348 347.062 339.108C346.103 339.885 345.094 340.599 344.043 341.246C341.939 342.597 339.707 343.803 337.518 345.308C338.841 345.193 340.142 344.897 341.384 344.427C342.634 343.979 343.833 343.397 344.958 342.691C346.119 341.984 347.154 341.088 348.019 340.04C348.491 339.529 348.853 338.928 349.083 338.271C349.312 337.615 349.404 336.919 349.354 336.226C350.73 336.226 353.758 337.603 353.758 337.603C358.153 341.998 341.922 348.754 341.922 348.754Z" fill="#272727"/>
<path d="M270.321 340.076C270.3 344.242 269.874 348.397 269.05 352.48C268.244 356.567 267.048 360.567 265.478 364.425C262.334 372.189 257.743 379.285 251.95 385.334C246.116 391.44 239.133 396.333 231.403 399.733C223.583 403.149 215.158 404.964 206.625 405.074C198.092 405.183 189.623 403.583 181.718 400.369C169.681 395.504 159.356 387.18 152.05 376.448C144.743 365.716 140.783 353.059 140.67 340.076C140.481 326.922 144.23 314.012 151.436 303.005C158.642 291.999 168.975 283.399 181.107 278.311C185.154 276.636 189.359 275.373 193.66 274.541C202.257 272.868 211.107 272.979 219.66 274.869C232.398 277.694 243.95 284.387 252.736 294.032C258.466 300.294 262.951 307.59 265.952 315.53C267.444 319.447 268.559 323.497 269.284 327.625C270.032 331.732 270.379 335.902 270.321 340.076V340.076ZM269.636 340.076C269.571 335.959 269.106 331.858 268.247 327.831C265.6 315.8 259.275 304.892 250.148 296.62C241.259 288.549 230.253 283.178 218.421 281.137C214.55 280.449 210.622 280.138 206.692 280.21C190.85 280.396 175.685 286.665 164.337 297.72C158.652 303.225 154.116 309.804 150.993 317.074C147.87 324.345 146.221 332.163 146.142 340.076C146.056 348.062 147.546 355.987 150.527 363.396C153.508 370.805 157.921 377.553 163.514 383.254C169.148 389.01 175.861 393.597 183.27 396.754C190.68 399.911 198.639 401.576 206.692 401.652C223.141 401.895 239.029 395.671 250.934 384.318C259.937 375.732 266.066 364.572 268.481 352.368C269.264 348.318 269.651 344.201 269.636 340.076V340.076Z" fill="#272727"/>
<path d="M475.482 340.076C475.54 344.25 475.193 348.42 474.445 352.527C473.72 356.655 472.605 360.705 471.113 364.622C468.112 372.562 463.627 379.858 457.897 386.12C449.111 395.765 437.559 402.458 424.821 405.283C416.268 407.173 407.418 407.284 398.821 405.611C394.52 404.779 390.315 403.516 386.268 401.841C376.226 397.624 367.382 390.991 360.521 382.532C353.661 374.073 348.997 364.049 346.945 353.353C344.893 342.656 345.516 331.618 348.758 321.221C352.001 310.823 357.762 301.388 365.531 293.754C371.645 287.748 378.883 283.007 386.832 279.802C394.781 276.598 403.283 274.993 411.853 275.079C420.361 275.221 428.757 277.035 436.564 280.419C444.294 283.819 451.277 288.712 457.111 294.818C462.904 300.868 467.495 307.963 470.639 315.727C472.209 319.585 473.405 323.585 474.211 327.672C475.035 331.756 475.461 335.91 475.482 340.076ZM474.797 340.076C474.812 335.951 474.425 331.834 473.642 327.784C471.227 315.58 465.098 304.421 456.095 295.834C444.19 284.481 428.302 278.257 411.853 278.5C399.749 278.611 387.95 282.309 377.949 289.128C367.948 295.946 360.194 305.578 355.668 316.805C352.699 324.181 351.215 332.07 351.303 340.021C351.39 347.972 353.048 355.827 356.179 363.135C359.309 370.379 363.834 376.936 369.498 382.432C380.846 393.487 396.011 399.757 411.853 399.942C415.783 400.014 419.711 399.703 423.581 399.015C435.414 396.974 446.42 391.604 455.309 383.532C464.436 375.26 470.761 364.352 473.408 352.322C474.267 348.294 474.732 344.193 474.797 340.076Z" fill="#272727"/>
<path d="M295.696 321.365L244.792 267.182V250.206H259.836L266.053 241.078L247.543 239.368L247.819 232.764C251.12 229.738 250.845 225.61 249.529 224.51C248.212 223.409 249.469 220.107 249.529 216.562C249.588 213.016 244.792 211.027 238.738 207.77C232.685 204.512 261.164 190.803 261.164 190.803C264.673 184.437 258.825 183.84 258.825 183.84L251.258 187.639C235.161 191.491 230.484 202.222 230.484 202.222L215.147 203.421L207.822 208.812C202.321 211.938 201.214 206.713 198.428 204.923C195.641 203.133 192.051 205.37 192.051 205.37C187.299 209.466 195.332 213.829 195.332 213.829C195.332 213.829 243.122 210.202 238.67 222.24C238.67 222.24 233.717 226.161 238.463 232.764L234.749 267.182C234.749 267.182 223.249 266.826 224.046 279.203C224.843 291.579 218.102 325.218 200.216 336.224C200.216 336.224 195.539 347.23 207.921 338.7C220.303 330.17 232.961 295.086 230.071 281.26L239.902 274.864L290.705 325.768L295.696 321.365Z" fill="#272727"/>
<path d="M365.368 222.387C365.368 222.387 377.143 230.563 362.835 237.993L353.204 242.417L345.775 312.01V323.003C345.775 323.003 357.056 325.27 359.533 330.334L404.658 345.311L402.732 352.321L339.541 333.386L336.695 323.979L343.436 254.902H313.707L327.339 243.96L344.949 245.422V241.078L332.575 239.412C365.368 222.387 353.12 229.852 365.368 222.387Z" fill="#272727"/>
<path d="M368.923 367.526C369.473 369.008 369.979 370.372 370.533 371.692C371.069 372.98 371.687 374.233 372.383 375.442C372.702 376.053 373.111 376.599 373.47 377.189C373.896 377.722 374.262 378.32 374.735 378.835C375.595 379.964 376.654 380.917 377.729 382.11C376.142 381.898 374.635 381.285 373.35 380.33C372.693 379.856 372.088 379.315 371.543 378.715C371.016 378.1 370.546 377.437 370.139 376.737C369.335 375.344 368.803 373.811 368.572 372.22C368.321 370.649 368.441 369.042 368.923 367.526Z" fill="#272727"/>
<path d="M446.758 306.644C448.468 306.595 450.156 307.037 451.622 307.92C453.136 308.786 454.428 309.994 455.393 311.447C455.632 311.811 455.851 312.187 456.05 312.574L456.349 313.152C456.43 313.353 456.51 313.554 456.582 313.758C456.723 314.167 456.887 314.566 456.997 314.98C457.09 315.399 457.17 315.82 457.244 316.238C457.33 316.654 457.372 317.077 457.37 317.501C457.382 317.924 457.384 318.344 457.377 318.761C457.304 319.594 457.157 320.42 456.939 321.228C456.584 320.442 456.385 319.674 456.116 318.932C455.968 318.564 455.828 318.201 455.7 317.84L455.513 317.299L455.28 316.779C455.126 316.434 454.979 316.092 454.844 315.747L454.339 314.765L454.099 314.273L453.809 313.812C453.615 313.507 453.464 313.174 453.241 312.889C452.433 311.675 451.488 310.558 450.424 309.56C449.288 308.484 448.062 307.509 446.758 306.644Z" fill="#272727"/>
<path d="M409.887 344.116L373.326 274.864" stroke="#272727" stroke-width="5.98611" stroke-miterlimit="10"/>
<path d="M414.839 344.116L436.577 274.864" stroke="#272727" stroke-width="5.98611" stroke-miterlimit="10"/>
<path d="M365.527 274.098H445.047" stroke="#272727" stroke-width="5.98611" stroke-miterlimit="10"/>
<path d="M179.029 309.49C179.164 308.201 179.549 306.95 180.164 305.809C180.757 304.651 181.535 303.598 182.467 302.689C183.42 301.746 184.561 301.012 185.815 300.537C187.084 300.067 188.473 300.037 189.76 300.453C188.658 300.903 187.607 301.471 186.627 302.147C185.723 302.816 184.866 303.547 184.064 304.334C182.411 305.917 180.924 307.711 179.029 309.49Z" fill="#272727"/>
<path d="M221.541 386.715C224.424 385.155 227.236 383.93 229.82 382.396C231.096 381.663 232.29 380.797 233.383 379.811C234.508 378.785 235.397 377.526 235.987 376.122C236.237 377.838 235.796 379.583 234.76 380.975C233.76 382.363 232.474 383.52 230.988 384.368C229.558 385.201 228.018 385.829 226.413 386.233C224.826 386.657 223.181 386.82 221.541 386.715Z" fill="#272727"/>
<path d="M253.191 106.834C253.297 106.55 253.484 106.304 253.731 106.128C253.967 105.952 254.241 105.834 254.531 105.784C254.863 105.724 255.207 105.785 255.499 105.955C255.653 106.038 255.776 106.168 255.851 106.326C255.926 106.484 255.948 106.662 255.915 106.834C255.702 106.731 255.465 106.69 255.23 106.717C255.063 106.745 254.893 106.762 254.691 106.806C254.196 106.897 253.689 106.907 253.191 106.834Z" fill="#272727"/>
<path d="M254.553 111.651C254.956 111.637 255.337 111.467 255.617 111.177C255.897 110.888 256.054 110.5 256.054 110.097C256.054 109.694 255.897 109.307 255.617 109.017C255.337 108.728 254.956 108.558 254.553 108.544C254.15 108.558 253.769 108.728 253.489 109.017C253.209 109.307 253.052 109.694 253.052 110.097C253.052 110.5 253.209 110.888 253.489 111.177C253.769 111.467 254.15 111.637 254.553 111.651V111.651Z" fill="#272727"/>
<path d="M252.958 119.829C253.428 119.562 253.917 119.332 254.422 119.139C254.644 119.065 254.852 118.973 255.088 118.89C255.33 118.808 255.568 118.699 255.915 118.601C255.922 118.939 255.805 119.268 255.587 119.526C255.38 119.786 255.107 119.985 254.798 120.104C254.494 120.219 254.168 120.261 253.845 120.225C253.514 120.195 253.202 120.056 252.958 119.829V119.829Z" fill="#272727"/>
<path d="M288.02 104.194C288.341 104.516 288.59 104.903 288.748 105.33C288.916 105.753 289.015 106.199 289.043 106.653C289.063 107.118 288.993 107.583 288.839 108.022C288.682 108.462 288.397 108.846 288.02 109.124C288.094 108.662 288.161 108.272 288.188 107.874C288.202 107.477 288.213 107.09 288.189 106.694C288.154 105.899 288.045 105.106 288.02 104.194Z" fill="black"/>
</svg>
