<svg width="240" height="324" viewBox="0 0 240 324" fill="none" xmlns="http://www.w3.org/2000/svg">
<path fill-rule="evenodd" clip-rule="evenodd" d="M181.079 176.597C179.237 169.454 177.544 166.425 174.273 163.942C171.213 161.62 166.746 159.669 160.229 158.244C153.441 157.057 153.249 153.528 151.547 147.857C151.05 146.152 148.59 145.698 147.528 146.927C147.378 146.766 147.222 146.618 147.061 146.484C147.205 145.671 146.022 143.34 146.061 142.562C146.474 134.444 143.819 130.367 137.192 128.852C135.751 128.522 125.963 128.328 124.558 128.716C118.415 130.415 112.368 135.808 113.293 142.305C111.365 144.826 109.478 146.364 106.503 147.176C99.8825 148.017 93.2628 148.765 86.6407 149.405C73.6781 151.438 61.5246 158.301 53.218 168.309C52.4518 169.233 52.2305 170.487 52.9067 171.472C52.377 173.742 49.3953 179.246 51.7414 180.802C47.8835 190.03 39.0069 207.868 38.9903 212.965C38.9203 234.373 41.2325 262.24 62.3543 274.087C63.2 274.919 63.321 275.839 63.6872 277.076C64.6158 280.974 67.9883 283.759 71.6795 283.532C89.8634 283.936 107.476 281.717 125.66 281.61C133.679 281.563 143.323 282.76 150.289 283.557C157.256 284.355 164.288 283.65 170.973 281.61C171.537 282.498 172.676 283.015 173.833 282.76C180.763 281.383 186.367 277.111 191.249 272.442C192.74 269.728 198.566 261.995 196.25 259.304C198.349 250.428 198.24 240.892 194.51 232.441C195.039 230.892 194.075 229.189 194.51 227.59C194.825 226.432 195.631 225.953 196.037 224.807C196.608 223.194 195.987 221.029 195.344 219.383C195.08 218.563 195.829 217.68 196.037 216.843C197.023 212.894 194.764 213.242 193.136 210.602C193.16 210.594 193.584 208.71 193.582 208.719C193.831 207.374 193.207 205.65 192.662 204.527C192.293 203.768 191.505 203.293 190.721 203.38C191.51 200.7 192.508 198.47 193.582 195.887C195.48 191.336 197.883 186.977 200.609 182.857C201.726 181.17 200.226 179.216 198.42 179.101C192.572 178.729 186.789 177.887 181.079 176.597Z" fill="white"/>
<path fill-rule="evenodd" clip-rule="evenodd" d="M164.013 211.018C161.675 210.1 159.156 209.593 156.625 209.397C157.988 209.158 159.355 208.927 160.732 208.809C161.694 208.727 162.585 208.735 163.307 209.464C163.789 209.95 164.015 210.576 164.332 211.151C164.229 211.104 164.121 211.06 164.013 211.018ZM189.116 202.441C185.286 202.636 181.451 203.547 177.986 205.197C176.569 205.873 175.284 206.85 174.908 208.456C174.718 209.276 174.764 210.124 174.866 210.952C174.942 211.58 174.961 212.381 175.506 212.806C175.599 212.878 175.698 212.933 175.802 212.973C174.524 213.55 173.307 214.243 172.225 214.957C171.236 215.61 170.22 216.616 169.764 217.751C169.726 217.622 169.688 217.502 169.65 217.388C168.872 215.089 167.674 213.205 165.788 211.939C166.122 211.789 166.352 211.434 166.244 210.944C165.796 208.896 163.905 207.116 161.769 207.243C159.431 207.38 156.919 208.232 154.804 209.308C154.033 209.291 153.264 209.302 152.503 209.335C152.372 209.34 152.379 209.517 152.503 209.532C153.12 209.61 153.737 209.697 154.354 209.798C155.82 210.033 157.282 210.331 158.712 210.701C160.428 211.145 162.202 211.59 163.806 212.366C166.916 213.873 168.841 217.813 168.445 221.241C168.38 221.803 168.162 223.502 167.383 223.327C166.724 223.179 166.462 221.803 166.231 221.294C165.614 219.941 164.503 219.057 163.17 218.459C161.605 217.756 159.929 217.28 158.307 216.727C157.388 216.412 156.469 216.096 155.548 215.784C154.605 215.461 153.71 215.014 152.706 215.241C152.1 215.378 152.03 216.101 152.37 216.515C152.888 217.147 153.657 217.333 154.403 217.593C155.387 217.935 156.369 218.278 157.352 218.62C158.871 219.148 160.462 219.594 161.942 220.241L161.896 220.347C161.776 220.313 161.634 220.433 161.657 220.581C161.879 221.949 162.188 223.53 161.845 224.899C161.575 225.986 160.622 227.188 159.384 226.869C159.579 226.691 159.65 226.385 159.519 226.102C159.029 225.054 152.607 220.915 152.034 222.452C152.015 222.507 152.074 222.547 152.121 222.539C152.609 222.437 153.426 223.27 153.817 223.534C154.381 223.915 154.954 224.286 155.512 224.677C156.122 225.104 156.718 225.553 157.299 226.015C157.755 226.379 158.1 226.757 158.623 226.941C158.349 227.072 158.131 227.315 158.038 227.626C157.802 228.435 157.345 229.122 156.553 229.479C155.723 229.851 154.787 229.617 153.912 229.708C152.721 229.828 151.681 230.395 150.813 231.204C148.99 232.907 148.075 235.909 145.525 236.714C144.002 237.194 142.312 236.891 140.769 236.674C139.048 236.43 137.37 236.238 135.636 236.492C133.975 236.735 132.405 237.31 130.888 238.011C129.467 238.669 127.895 239.413 126.633 240.393C126.374 239.592 126.112 238.8 125.913 237.982C125.444 236.048 125.191 234.078 125.129 232.091C125.072 230.2 125.178 228.3 125.34 226.417C125.421 225.476 125.548 224.54 125.628 223.599C125.649 223.363 125.691 223.109 125.723 222.856C127.975 221.526 130.341 220.508 132.726 219.459C132.733 219.457 132.739 219.453 132.745 219.451C132.819 219.417 132.891 219.385 132.965 219.354C132.963 219.349 132.961 219.345 132.957 219.341C133.229 219.174 133.419 218.952 133.533 218.702C136.971 216.422 139.844 213.309 141.986 209.678C142.884 208.156 143.748 206.577 144.923 205.244C146.174 203.821 147.659 202.976 149.497 202.536C151.645 202.021 153.86 201.712 156.061 201.537C157.263 201.442 158.607 201.294 159.917 201.3C160.829 201.306 161.723 201.384 162.543 201.611C163.757 201.944 164.467 202.868 165.23 203.802C165.959 204.699 166.683 205.597 167.364 206.531C168.008 207.416 168.617 208.331 169.145 209.291C169.462 209.866 169.755 210.458 170.002 211.068C170.089 211.284 170.203 211.529 170.256 211.753C170.309 211.979 170.212 212.218 170.465 212.218C169.419 212.233 169.43 213.905 170.469 213.843C174.538 213.607 168.71 205.66 167.858 204.553C166.652 202.984 165.407 200.938 163.476 200.209C163.449 200.199 163.419 200.188 163.392 200.18C163.954 199.647 164.398 199.009 164.822 198.36C165.26 197.692 165.781 196.927 165.925 196.134C166.016 195.63 165.388 195.342 165.091 195.784C164.657 196.428 164.448 197.244 164.125 197.952C163.795 198.671 163.394 199.349 163.077 200.074C162.314 199.839 161.491 199.732 160.652 199.696C161.71 198.263 163.518 195.498 163.736 195.143C164.738 193.499 165.691 191.804 166.601 190.107C167.585 188.268 168.429 186.353 169.371 184.493C169.905 183.439 170.444 182.376 171.038 181.353C171.243 181.002 171.462 180.651 171.712 180.332C171.76 180.269 171.822 180.216 171.879 180.156C171.944 180.12 172.012 180.08 172.05 180.059C172.392 179.863 172.512 179.406 172.753 179.117C173.138 178.65 173.59 178.595 174.169 178.588C175.402 178.575 176.641 178.624 177.872 178.658C179.683 178.709 181.491 178.78 183.3 178.876C183.847 178.905 184.392 178.935 184.939 178.969C187.569 179.125 190.198 179.33 192.819 179.582C195.139 179.803 197.459 180.165 199.781 180.338C196.637 187.81 193.151 195.146 189.204 202.226C189.164 202.297 189.135 202.369 189.116 202.441ZM171.674 221.689C171.167 221.921 170.674 222.211 170.216 222.541C170.292 222.027 170.311 221.486 170.29 220.943C170.668 221.348 171.152 221.581 171.674 221.689ZM193.318 208.837C193.282 208.841 193.249 208.86 193.232 208.896C192.53 210.343 192.824 211.96 193.969 213.095C194.569 213.687 195.877 214.355 195.834 215.327C195.798 216.113 194.943 216.773 194.577 217.422C194.237 218.026 194.111 218.69 194.383 219.345C194.732 220.184 195.706 220.518 196.039 221.342C196.462 222.388 195.775 223.65 195.294 224.561C194.846 225.404 194.267 226.248 193.882 227.139C191.307 228.473 189.002 230.519 187.02 232.597C184.851 234.869 182.989 237.542 179.544 237.475C179.199 237.468 178.937 237.65 178.781 237.901C177.822 237.946 176.861 237.965 175.901 237.969C174.215 237.977 172.53 237.961 170.846 237.908C170.727 237.5 170.814 236.946 170.808 236.602C170.787 235.492 170.776 234.385 170.73 233.275C170.717 232.967 170.704 232.656 170.692 232.347C171.298 233.444 172.481 233.943 173.829 233.867C175.996 233.74 178.177 233.385 180.323 233.066C181.453 232.899 182.582 232.709 183.708 232.506C184.633 232.341 185.939 232.383 186.585 231.641C186.737 231.468 186.746 231.151 186.507 231.035C185.867 230.72 185.463 230.895 184.76 231.031C183.902 231.197 183.042 231.356 182.18 231.504C180.526 231.791 178.868 232.058 177.205 232.292C176.258 232.425 175.31 232.556 174.361 232.66C173.533 232.749 172.599 232.869 171.932 232.246C170.586 230.986 171.34 228.875 172.192 227.602C172.208 227.577 172.208 227.554 172.202 227.533C173.005 227.344 173.806 227.125 174.604 226.97C176.14 226.674 177.687 226.425 179.235 226.203C182.417 225.749 185.62 225.449 188.818 225.147C189.61 225.07 189.619 223.824 188.818 223.898C184.223 224.318 179.605 224.717 175.071 225.603C173.934 225.823 172.806 226.072 171.684 226.353C171.154 226.484 170.586 226.689 170.03 226.696C169.996 226.696 169.962 226.696 169.929 226.693C168.841 226.66 168.682 225.728 169.28 224.952C169.354 224.857 169.43 224.762 169.508 224.671C170.565 223.411 171.881 222.57 173.237 221.699C174.756 221.492 176.271 221.031 177.758 220.693C181.43 219.856 185.102 219.019 188.776 218.185C189.496 218.02 189.19 216.912 188.47 217.075C185.681 217.707 182.892 218.339 180.103 218.971L176.022 219.897C175.206 220.08 174.188 220.45 173.229 220.584C172.756 220.649 172.297 220.657 171.883 220.56C170.546 220.243 170.478 218.571 171.055 217.578C171.701 216.462 172.923 215.765 174.006 215.133C175.884 214.036 177.883 213.247 179.835 212.339C180.182 212.262 180.528 212.186 180.875 212.11C182.89 211.666 185.193 211.449 187.09 210.635C187.658 210.394 187.348 209.498 186.786 209.511C185.313 209.543 183.773 210.067 182.334 210.377C180.777 210.715 179.218 211.051 177.661 211.387C177.505 211.421 176.58 211.717 176.44 211.652C176.351 211.609 176.32 211.301 176.29 211.098C176.195 210.43 176.125 209.729 176.229 209.058C176.457 207.556 177.71 206.85 178.977 206.273C181.8 204.99 184.895 204.187 187.975 203.866C188.685 203.792 189.395 203.745 190.109 203.722C190.948 203.696 191.639 203.549 192.063 204.375C192.731 205.677 193.099 207.351 193.318 208.837ZM189.398 256.041C188.783 253.913 188.95 251.641 188.529 249.47C188.312 248.351 188.015 247.24 187.691 246.147C187.429 245.264 186.993 244.324 186.944 243.403C186.941 243.341 187.013 243.306 187.063 243.334C187.931 243.831 188.597 244.906 189.092 245.749C189.684 246.758 190.137 247.815 190.501 248.926C191.229 251.14 191.826 253.81 190.888 256.041C190.609 256.705 189.628 256.838 189.398 256.041ZM170.392 227.856C170.911 227.805 171.431 227.706 171.951 227.59C171.37 228.156 170.833 228.839 170.535 229.596C170.489 229.014 170.429 228.435 170.351 227.858C170.364 227.858 170.379 227.858 170.392 227.856ZM165.397 272.149C164.48 271.509 163.812 270.615 163.035 269.825C162.271 269.049 163.466 267.853 164.23 268.63C164.893 269.303 165.469 270.144 166.25 270.689C166.625 270.951 166.799 271.424 166.553 271.846C166.335 272.217 165.771 272.41 165.397 272.149ZM160.286 247.559C161.959 246.835 163.604 246.047 165.355 245.526C166.401 245.214 166.844 246.846 165.804 247.156C164.192 247.636 162.679 248.352 161.139 249.019C160.15 249.446 159.29 247.989 160.286 247.559ZM142.617 247.052C142.208 246.043 143.844 245.607 144.247 246.603C144.711 247.749 145.243 248.866 145.707 250.012C146.116 251.021 144.481 251.457 144.077 250.461C143.613 249.315 143.081 248.199 142.617 247.052ZM125.178 267.219C124.906 267.583 124.451 267.78 124.022 267.523C123.662 267.307 123.443 266.734 123.719 266.366C124.524 265.292 125.34 264.231 126.285 263.273C127.05 262.497 128.245 263.693 127.48 264.469C126.637 265.324 125.898 266.26 125.178 267.219ZM122.685 154.064C123.46 154.594 124.14 155.238 124.803 155.901C125.573 156.671 124.378 157.867 123.607 157.096C123.049 156.538 122.486 155.971 121.832 155.524C121.454 155.266 121.284 154.786 121.528 154.367C121.747 153.993 122.308 153.807 122.685 154.064ZM148.056 181.273C147.617 182.151 147.223 183.013 147.198 184.011C147.171 185.099 145.481 185.1 145.508 184.011C145.54 182.704 146.022 181.571 146.597 180.419C147.083 179.444 148.54 180.302 148.056 181.273ZM157.365 159.421C158.274 158.815 159.119 160.28 158.218 160.881C157.488 161.367 156.758 161.855 156.028 162.342C155.119 162.947 154.274 161.482 155.175 160.882C155.905 160.395 156.635 159.908 157.365 159.421ZM116.989 197.627C116.833 198.702 115.205 198.242 115.359 197.178C115.596 195.533 115.886 193.91 116.332 192.308C116.624 191.26 118.254 191.708 117.962 192.758C117.516 194.36 117.226 195.983 116.989 197.627ZM111.063 216.995C109.975 216.972 109.975 215.281 111.063 215.305C112.047 215.325 113.015 215.585 113.965 215.822C115.021 216.086 114.571 217.716 113.515 217.452C112.713 217.251 111.895 217.013 111.063 216.995ZM108.875 256.011C108.502 256.193 108.118 256.356 107.74 256.529C106.984 256.875 106.228 257.222 105.472 257.569C103.897 258.292 102.323 259.018 100.751 259.746C97.6027 261.204 94.4305 262.61 91.275 264.052C88.0572 265.522 84.8478 267.012 81.6424 268.51C80.1323 269.215 78.6108 269.895 77.0922 270.582C75.7937 271.169 74.1887 272.195 72.7633 272.292C72.69 272.297 72.6655 272.204 72.7073 272.157C73.2458 271.544 74.1048 271.188 74.8126 270.789C75.5355 270.382 76.272 270 77.0051 269.611C78.5334 268.801 80.0636 267.998 81.6067 267.216C84.6934 265.654 87.7859 264.102 90.8791 262.553C94.0337 260.973 97.1844 259.382 100.367 257.858C101.865 257.14 103.365 256.424 104.865 255.711C105.678 255.325 106.492 254.939 107.305 254.554C107.656 254.388 108.004 254.208 108.363 254.059C108.841 253.862 109.203 253.902 109.696 253.78C110.498 253.582 110.846 254.603 110.23 255.048C109.722 255.414 109.455 255.728 108.875 256.011ZM97.5919 273.348C97.4185 272.926 97.7816 272.413 98.1822 272.308C98.662 272.181 99.0467 272.473 99.2218 272.898C99.6852 274.026 100.345 275.06 101.195 275.934C101.954 276.715 100.759 277.911 99.9995 277.13C98.9349 276.034 98.1702 274.755 97.5919 273.348ZM89.2911 246.208C88.5206 245.437 89.7159 244.242 90.4862 245.013L92.6766 247.204C93.4471 247.975 92.2515 249.17 91.4815 248.399L89.2911 246.208ZM66.8185 242.636C65.2437 243.098 63.4069 243.523 62.3332 244.866C62.2809 244.932 62.1928 244.848 62.2242 244.782C63.5987 241.932 67.5406 240.932 70.2697 239.933C72.2001 239.227 74.1807 238.641 76.178 238.117C75.9784 235.838 76.529 233.395 76.7204 231.127C76.9247 228.705 77.0909 226.277 77.1763 223.848C77.2635 221.37 77.2847 218.875 77.2031 216.396C77.122 213.927 76.8015 211.487 76.6612 209.026C76.6477 208.788 76.979 208.777 77.0504 208.973C77.8798 211.257 78.2341 213.787 78.5041 216.196C78.7821 218.677 78.8744 221.151 78.839 223.646C78.8022 226.212 78.653 228.772 78.4483 231.329C78.3513 232.541 78.2387 233.752 78.1325 234.963C78.0513 235.888 78.0137 236.805 77.8253 237.7C79.0299 237.404 80.2373 237.125 81.4409 236.853C85.2788 235.986 89.1328 235.182 92.9546 234.245C94.8306 233.786 96.6799 233.235 98.5475 232.746C100.306 232.285 102.162 231.727 103.968 231.521C104.612 231.448 104.694 232.33 104.268 232.629C102.8 233.66 100.851 234.377 99.1561 234.954C97.455 235.533 95.6867 235.95 93.9431 236.379C90.307 237.273 86.6364 238.005 82.9713 238.767C79.3113 239.528 75.6444 240.283 72.0256 241.222C70.2828 241.674 68.546 242.128 66.8185 242.636ZM58.1889 197.402C57.2479 197.955 56.3984 196.493 57.336 195.942C58.5629 195.222 59.8704 194.68 61.1885 194.152C62.2001 193.747 62.6353 195.383 61.6379 195.783C60.4533 196.257 59.2913 196.755 58.1889 197.402ZM54.7814 260.218C53.8379 260.766 52.9877 259.304 53.9285 258.759C55.2498 257.992 56.6967 257.481 58.066 256.811C59.0401 256.333 59.8958 257.792 58.9189 258.271C57.5498 258.941 56.1027 259.452 54.7814 260.218ZM53.2489 224.561C54.1612 225.428 55.3787 225.836 56.5268 226.291C57.5278 226.688 57.0887 228.322 56.0774 227.922C54.6471 227.354 53.1902 226.836 52.0538 225.756C51.2632 225.005 52.4605 223.811 53.2489 224.561ZM63.3414 176.135C64.3443 176.529 63.9051 178.163 62.8921 177.766C61.7685 177.325 60.6083 176.989 59.4847 176.548C58.4821 176.155 58.9211 174.52 59.9341 174.918C61.0576 175.359 62.2179 175.694 63.3414 176.135ZM81.1455 156.901C82.2111 156.721 82.6649 158.35 81.5949 158.531C80.2673 158.755 78.9599 159.018 77.7008 159.505C76.6839 159.899 76.2477 158.263 77.2514 157.875C78.5108 157.387 79.8181 157.125 81.1455 156.901ZM87.0283 203.732C86.0512 203.252 86.9085 201.794 87.8812 202.272C88.9063 202.776 89.9683 203.166 91.0868 203.404C92.1518 203.631 91.6982 205.261 90.6374 205.035C89.3787 204.767 88.181 204.299 87.0283 203.732ZM92.5846 177.353C93.6367 177.064 94.0817 178.696 93.034 178.983C91.1907 179.488 89.2929 179.751 87.436 180.2C86.3778 180.457 85.9301 178.826 86.9867 178.57C88.8435 178.12 90.7415 177.858 92.5846 177.353ZM116.155 169.074C117.225 169.272 116.769 170.902 115.706 170.705C114.574 170.495 113.427 170.492 112.279 170.491C111.19 170.491 111.192 168.8 112.279 168.801C113.583 168.801 114.87 168.837 116.155 169.074ZM193.027 177.908C190.265 177.644 187.5 177.432 184.73 177.274C184.601 177.267 184.474 177.259 184.345 177.252C184.331 177.223 184.312 177.195 184.293 177.166C183.389 175.838 182.723 174.511 182.146 173.011C181.595 171.582 181.06 170.109 180.211 168.82C179.242 167.351 177.935 166.201 176.501 165.205C175.632 165.79 174.825 166.475 174.087 167.201C173.31 167.964 172.115 166.769 172.892 166.005C173.548 165.36 174.248 164.764 174.988 164.226C174.134 163.706 173.262 163.218 172.411 162.733C169.223 160.913 165.959 159.23 162.627 157.692C161.079 156.975 159.511 156.339 157.933 155.695C157.083 155.348 156.245 154.902 155.396 154.501C155.457 153.9 155.277 153.228 154.817 152.833C154.477 152.543 154.213 152.436 153.807 152.231C153.716 152.199 153.661 152.18 153.636 152.169C153.655 152.174 153.71 152.19 153.8 152.22C154.016 152.32 154.033 152.29 153.851 152.133C153.841 151.791 153.167 151.068 153.013 150.715C152.476 149.504 152.309 148.223 151.517 147.12C150.424 145.601 148.591 145.026 146.881 145.541C146.704 143.713 146.658 141.805 145.969 140.173C145.95 140.129 145.889 140.11 145.861 140.158C145.143 141.382 145.082 142.745 145.027 144.157C144.974 145.482 145.024 146.837 145.198 148.154C145.088 148.238 144.976 148.319 144.86 148.397C144.315 148.756 143.727 149.033 143.11 149.238C141.936 149.627 140.704 149.796 139.472 149.855C136.293 150.007 133.016 149.686 129.889 149.141C126.727 148.589 121.878 147.761 119.064 146.177C117.207 145.134 115.494 143.859 113.757 142.625C114.386 140.596 114.547 138.415 113.913 136.701C113.837 136.496 113.516 136.457 113.455 136.701C113.058 138.336 112.941 139.981 112.413 141.598C112.405 141.621 112.396 141.646 112.388 141.669C112.223 141.558 112.058 141.447 111.894 141.338C111.513 141.086 110.996 141.274 110.767 141.633C107.119 147.384 101.341 147.714 95.2731 148.741C88.6327 149.866 81.959 151.079 75.5745 153.279C69.4689 155.384 63.6336 158.449 59.0111 163.027C57.9647 164.063 56.9861 165.167 56.0624 166.32C56.9561 166.433 57.8424 166.608 58.7172 166.883C59.7531 167.209 59.3079 168.841 58.2679 168.514C57.1435 168.16 56.0067 167.985 54.8582 167.898C51.7173 172.197 49.2683 177.071 47.1505 181.868C43.0885 191.066 40.4445 200.862 39.2278 210.835C39.8958 210.435 40.5759 210.053 41.2729 209.698C42.2413 209.206 43.0955 210.665 42.126 211.158C41.0494 211.706 40.0036 212.31 38.9903 212.965C38.5477 217.33 38.3762 221.724 38.4801 226.11C38.7273 236.568 40.1386 247.332 43.3308 257.31C44.8963 262.207 46.971 267.064 50.0618 271.202C51.4604 273.076 53.0491 274.767 54.921 276.177C55.8273 276.862 56.7865 277.473 57.7984 277.988C59.102 278.656 60.8005 278.876 61.9245 279.821C62.2942 280.132 62.5794 280.541 62.7949 281.004C62.6703 281.883 62.6555 282.765 62.8963 283.644C62.9724 283.919 63.1794 284.143 63.4351 284.251C63.4393 284.327 63.4393 284.401 63.4393 284.472C63.4393 284.506 63.49 284.515 63.4963 284.481C63.5069 284.415 63.5174 284.35 63.528 284.282C63.6104 284.31 63.697 284.323 63.7858 284.323C66.9949 284.335 70.2081 284.256 73.4215 284.147C73.173 283.386 72.9039 282.631 72.6455 281.869C72.2946 280.835 73.9274 280.395 74.2752 281.42C74.5775 282.31 74.8936 283.193 75.1748 284.086C78.6178 283.958 82.0598 283.804 85.4956 283.691C92.8034 283.447 100.109 283.367 107.419 283.213C118.77 282.972 130.204 282.479 141.574 282.961C141.967 282.127 142.407 281.311 142.824 280.488C143.316 279.516 144.774 280.372 144.284 281.341C143.993 281.913 143.693 282.478 143.408 283.049C145.71 283.169 148.011 283.327 150.306 283.543C154.223 283.91 158.102 284.563 162.015 284.969C165.993 285.383 169.884 285.31 173.831 284.652C174.541 284.534 174.959 284.105 175.132 283.572C175.138 283.57 175.143 283.566 175.147 283.559C175.35 283.323 175.54 283.126 175.736 282.955C175.971 282.803 176.224 282.674 176.522 282.56C177.078 282.348 177.657 282.219 178.244 282.133C178.891 282.036 179.546 282.027 180.192 281.947C180.737 281.877 181.27 281.773 181.802 281.647C182.759 281.419 183.667 281.121 184.572 280.725C185.36 280.381 186.071 279.886 186.743 279.347C188.134 278.331 189.338 277.033 190.39 275.684C191.003 274.896 191.579 274.078 192.103 273.227C193.016 271.751 193.793 270.219 194.579 268.674C194.865 268.216 195.125 267.747 195.363 267.269C193.827 266.816 192.276 266.447 190.648 266.421C189.559 266.403 189.56 264.712 190.648 264.73C192.515 264.76 194.282 265.196 196.037 265.716C196.122 265.489 196.204 265.26 196.28 265.028C196.489 264.544 196.663 264.048 196.806 263.545C196.89 263.316 196.975 263.088 197.06 262.86C197.25 262.069 197.44 261.277 197.632 260.484C198.015 259.216 198.317 257.929 198.539 256.625C198.724 255.767 198.868 254.902 198.965 254.027C199.261 251.908 199.502 249.792 199.519 247.649C199.493 246.328 199.409 245.009 199.265 243.697C199.204 242.805 199.101 241.917 198.961 241.036C198.779 239.725 198.6 238.428 198.298 237.134C198.072 236.259 197.846 235.384 197.62 234.509C197.055 232.685 196.39 230.897 195.623 229.149C195.581 229.04 195.367 228.799 195.239 228.796C195.141 228.794 195.006 228.883 195.05 229.002C195.055 229.012 195.059 229.025 195.063 229.035C195.019 228.936 194.977 228.834 194.932 228.735C194.894 228.642 194.746 228.456 194.632 228.458C194.626 228.458 194.619 228.458 194.611 228.46C194.641 228.439 194.668 228.412 194.696 228.38C195.454 227.482 195.946 226.3 196.489 225.261C196.939 224.402 197.364 223.498 197.486 222.528C197.594 221.676 197.448 220.837 196.914 220.148C196.305 219.364 195.16 218.996 195.796 217.863C196.519 216.574 197.582 215.456 196.523 213.991C195.984 213.245 195.131 212.835 194.497 212.186C193.768 211.436 193.421 210.432 193.441 209.407C193.485 209.433 193.544 209.42 193.565 209.356C194.178 207.505 193.734 205.472 193.107 203.669C192.765 202.691 192.04 202.422 191.197 202.374C194.848 195.241 198.264 187.993 201.308 180.579C201.41 180.336 201.509 180.093 201.608 179.85C201.756 179.486 201.443 179.003 201.082 178.922C198.45 178.345 195.708 178.161 193.027 177.908Z" fill="black"/>
<path fill-rule="evenodd" clip-rule="evenodd" d="M164.897 96.1525C163.447 78.4678 159.032 62.8046 138.284 62.1367C128.921 62.2204 119.364 64.2103 110.754 67.892C89.8264 78.3889 83.1865 116.745 101.624 132.185C101.514 132.247 101.488 132.428 101.617 132.515C105.427 135.078 109.661 137.188 113.901 138.96C125.197 143.737 138.494 145.812 150.014 140.63C167.594 133.147 167.858 112.324 164.897 96.1525V96.1525Z" fill="white"/>
<path fill-rule="evenodd" clip-rule="evenodd" d="M199.501 87.9094C200.224 87.2584 200.762 86.4046 201.035 85.4472C201.284 84.5743 201.301 83.6211 201.037 82.7503C200.754 81.8162 200.143 81.0722 200.281 80.1C200.296 80.0049 200.315 79.9056 200.344 79.8062C200.872 77.9759 202.172 76.655 201.707 74.626C201.576 74.0533 201.329 73.5376 200.984 73.1318C201.022 72.6922 201.056 72.2484 201.084 71.8045C201.846 70.0186 201.819 67.8966 201.005 66.1382C200.906 65.2379 200.756 64.346 200.545 63.4689C200.642 62.6932 200.507 61.8393 200.258 61.1609C199.82 59.9672 199.278 58.7908 198.691 57.6339C198.76 57.3175 198.729 56.9832 198.555 56.6858C198.237 56.1454 197.818 55.6702 197.389 55.2059C197.086 54.6642 196.781 54.127 196.478 53.5967C196.338 53.353 196.183 53.0827 196.012 52.7963C196.477 51.9327 196.726 51.0911 196.234 50.0756C196.049 49.6941 195.541 49.4128 195.122 49.4377C194.665 49.465 194.203 49.4855 193.739 49.503C192.871 48.4552 191.888 47.5144 190.835 46.973C189.768 46.0684 188.686 45.1807 187.634 44.274C187.336 44.0162 187.036 43.7583 186.739 43.5005C186.736 43.4941 186.734 43.4857 186.732 43.4793C186.512 42.6783 186.265 41.8879 186.018 41.0932C185.864 40.6008 185.817 40.0851 185.338 39.8166C184.336 39.2566 182.796 39.1678 181.647 39.0727C181.533 38.9712 181.419 38.8719 181.305 38.7705C181.827 37.3798 181.734 35.9024 181.077 34.5096C180.853 34.0362 180.075 33.8227 179.648 34.1355C178.664 34.8584 177.496 35.1141 176.34 35.0084C174.641 33.7023 167.79 27.7959 166.731 27.1724C166.718 27.15 166.708 27.1276 166.694 27.1054C166.099 26.1547 165.376 25.3913 164.563 24.7793C164.447 24.6582 164.331 24.5369 164.215 24.4155C164.317 23.6908 164.586 22.991 165.018 22.4056C165.065 22.338 165.117 22.2725 165.17 22.209C165.927 21.3087 165.003 20.1505 163.947 20.6218C163.871 20.6556 163.795 20.6894 163.719 20.7254C162.907 21.0876 162.008 21.4814 161.072 21.8136C160.73 21.6853 160.381 21.5691 160.063 21.441L156.654 20.07C156.092 19.8442 155.499 19.653 154.956 19.3877C154.767 18.1283 153.505 17.3023 152.195 17.3455C152.271 17.1037 152.384 16.8689 152.543 16.6463C152.589 16.5808 152.64 16.5174 152.693 16.4561C153.367 15.672 152.467 14.2179 151.503 14.9153C151.436 14.964 151.366 15.0126 151.298 15.0612C151.031 15.2491 150.757 15.4253 150.48 15.5961C150.036 15.4025 149.537 15.3583 149.014 15.5631C147.857 16.0165 146.79 16.4774 145.771 17.188C145.73 17.217 145.687 17.2413 145.645 17.2685C145.139 16.6573 144.336 16.2485 143.613 16.253C143.598 16.253 143.587 16.2528 143.574 16.2526C143.033 15.4285 142.042 14.9496 141.085 15.066C141.15 13.8835 139.966 12.8283 138.889 12.7C137.63 12.5503 136.496 13.2814 136.118 14.5098C136.013 14.8517 135.908 15.1939 135.803 15.5361C134.825 15.0426 133.794 14.6645 132.716 14.4757C130.263 14.0459 127.864 14.5036 125.5 15.185C125.263 15.2531 125.027 15.323 124.791 15.3928C124.454 15.002 124.138 14.6019 123.836 14.2285C123.314 13.5838 122.061 14.0995 122.146 14.928C122.204 15.4997 121.972 15.911 121.598 16.2033C121.188 16.2633 120.791 16.2815 120.193 16.2695C119.402 16.2534 119.042 16.2287 118.215 15.9062C117.83 15.7561 117.35 15.3615 117.126 15.0073C116.265 13.6489 114.078 13.2831 113.036 14.5782C111.94 14.0983 110.556 14.7602 109.948 15.6935C109.63 16.1815 108.965 16.4544 108.129 16.689C107.502 16.8648 106.86 16.998 106.215 17.1144C105.928 16.7245 105.323 16.4631 104.879 16.79C104.578 17.0122 104.286 17.2402 103.998 17.474C101.778 17.78 99.5689 17.791 97.4518 16.9249C95.6594 16.1915 94.0136 18.1944 94.3094 19.876C93.7903 20.1463 93.2271 20.3261 92.7143 20.6093C91.5956 21.2277 90.6771 22.2052 90.1172 23.3537C90.0168 23.5594 89.9262 23.7682 89.8398 23.9781C89.4217 24.3185 89.0082 24.6681 88.6047 25.0369C87.9329 24.6924 87.2632 24.3479 86.5913 24.0034C86.0885 23.7456 85.2413 23.9252 85.142 24.5931C84.9794 25.6921 84.5843 26.603 84.0202 27.366C82.1864 28.3298 80.4223 29.4119 78.7343 30.6144C76.7928 31.2231 74.7287 31.5782 73.0322 31.9777C72.4512 32.115 72.1343 32.8738 72.4618 33.3789C72.8082 33.9136 73.1547 34.4483 73.4991 34.9831C72.5336 35.9257 71.6273 36.9106 70.7716 37.9293C68.3906 40.7614 66.3984 43.8661 64.6153 47.1547C63.9097 47.44 63.204 47.7233 62.4984 48.0086C61.8181 48.2833 61.5118 49.0738 62.0632 49.655C62.3251 49.9319 62.5597 50.2235 62.7604 50.53C61.7611 52.1849 60.5843 53.6939 58.9385 54.683C58.4378 54.9831 58.0618 55.4545 57.8611 55.9892C57.6899 56.1033 57.5209 56.2259 57.354 56.3506C56.8892 56.7014 56.6082 57.4665 57.1533 57.9209C57.5357 58.2422 57.8949 58.6226 58.1991 59.0432C58.2646 59.282 58.3322 59.5229 58.3998 59.7618C56.8702 61.1694 55.5984 62.8052 54.6435 64.6397C54.4174 64.6038 54.185 64.6271 53.997 64.7665C52.2899 66.0283 52.2392 68.0383 52.9259 69.8347C52.5118 72.5421 52.778 75.3172 53.5766 77.94C52.5266 78.9883 51.8949 80.5016 51.6371 81.9599C51.1829 84.5215 51.1512 88.461 51.0329 91.0754C49.8878 92.1808 49.0723 93.6116 48.6181 95.1503C48.2357 95.3405 47.8533 95.5307 47.4709 95.7209C47.1308 95.89 46.8815 96.3359 46.9026 96.7121C46.9998 98.5319 47.7498 99.9691 48.7449 101.271C49.0977 102.275 49.6195 103.201 50.304 104.088C50.7773 104.697 51.2399 105.28 51.6477 105.938C51.6899 106.003 51.7153 106.064 51.7343 106.107C51.5737 106.28 51.4406 106.567 51.3244 106.772C50.3484 108.493 50.3336 110.509 51.7195 112.008C51.1977 112.435 51.1808 113.297 51.6413 113.825C54.6392 117.251 57.1385 121.417 61.2984 123.237C61.3174 123.268 61.3343 123.3 61.3491 123.332C60.5061 125.361 60.3921 126.415 61.0808 128.512C61.085 128.531 61.0913 128.548 61.0977 128.567C61.4653 129.666 62.1413 131.426 63.3604 131.769C63.7449 131.877 64.123 131.925 64.497 131.923C65.4646 132.855 66.4301 133.789 67.3956 134.724C67.4801 135.186 67.5329 135.653 67.5498 136.125C67.5773 136.913 68.3188 137.551 69.1174 137.319C69.3984 137.236 70.9533 135.725 71.2385 135.734C71.3822 135.877 71.5216 136.021 71.6611 136.167C72.1744 136.706 72.8864 137.556 72.9456 138.12C73.0597 139.183 73.7568 140.4 74.8829 140.616C75.3054 141.045 75.9815 141.174 76.4991 140.614C76.5329 140.578 76.5667 140.542 76.6026 140.51C76.6575 140.504 76.7104 140.498 76.7653 140.491C77.0146 141.235 77.2639 141.979 77.5153 142.721C78.0075 144.184 79.8878 145.124 81.223 144.27C81.4385 144.399 81.6498 144.537 81.8611 144.674C82.1822 144.879 82.5075 145.088 82.8413 145.285C82.8604 145.34 82.8794 145.395 82.8963 145.447C83.1118 146.105 84.0075 146.458 84.559 146.079C84.7301 146.134 84.9054 146.179 85.0829 146.215C86.0146 146.398 86.9526 146.348 87.8526 146.037C88.497 145.817 89.1118 145.397 89.8047 145.34C89.848 145.336 89.8926 145.339 89.9366 145.338C90.5019 146.496 91.7938 147.495 92.8119 147.834C94.1454 148.278 95.5102 148.12 96.7246 147.575C97.0523 148.231 97.4638 148.851 97.9554 149.425C98.228 149.742 98.7202 149.674 99.0012 149.425C99.5349 148.952 100.065 148.476 100.595 148C100.978 147.852 101.365 147.675 101.768 147.51C103.03 146.995 104.414 146.781 105.581 146.036C106.135 145.682 106.656 145.23 107.086 144.707C107.895 144.24 108.638 143.658 109.307 142.992C109.641 142.994 109.989 142.915 110.327 142.744C111.741 142.026 112.484 140.563 112.55 139.067C113.695 136.372 114.371 133.498 114.557 130.556C114.616 129.59 114.627 128.615 114.553 127.65C114.502 126.969 114.331 126.515 114.073 125.9C113.986 125.699 113.908 125.515 113.847 125.312C113.862 124.661 113.87 124.01 113.879 123.361C114.054 122.814 114.367 122.305 114.802 121.876C115.476 121.212 115.784 119.834 115.172 119.014C114.772 118.483 114.375 117.953 113.976 117.422C114.088 115.146 114.633 111.524 113.424 111.143C113.473 110.805 113.577 110.471 113.636 110.135C113.919 108.52 113.75 107.077 112.892 105.665C112.712 105.371 112.56 105.111 112.436 104.858C112.358 104.393 112.279 103.928 112.201 103.463C112.081 102.746 111.962 102.023 111.861 101.296C111.808 100.371 111.76 99.4449 111.707 98.5171C111.658 97.6632 111.603 96.8094 111.546 95.9534C111.57 95.5709 111.603 95.1883 111.652 94.8058C111.941 92.5253 112.873 91.682 114.487 90.0969C114.741 90.0567 114.992 90.0123 115.239 89.9616C116.391 89.7228 117.595 89.3529 118.78 89.4861C120.067 89.6298 121.218 90.1857 122.469 89.4755C122.836 89.2642 123.646 88.6808 123.715 88.218C123.72 88.1884 123.726 88.163 123.734 88.144C123.821 88.1313 123.933 88.1208 124.003 88.1186C124.996 88.0848 125.944 88.4758 126.946 88.368C128.131 88.2412 129.191 87.715 129.889 86.9351C130.782 87.1549 131.695 87.2542 132.622 87.1316C133.4 87.0302 134.097 86.7766 134.786 86.4004C135.286 86.1298 135.128 86.0516 135.673 86.2714C136.913 86.7745 138.035 87.4381 139.431 87.0936C140.156 86.9161 140.781 86.5251 141.308 85.9988C141.432 85.8762 141.643 85.6923 141.785 85.519C142.448 85.8551 144.117 86.6138 144.392 86.6815C145.17 86.8717 145.993 86.8421 146.75 86.5885C147.305 86.4025 147.986 85.8952 148.474 85.7917C149.105 85.6564 150.508 86.5356 151.262 86.8379C152.585 87.3683 153.986 87.4994 155.325 86.952C155.786 86.7639 156.681 86.0136 157.026 86.0199C157.586 86.7111 159.149 90.4921 159.618 91.8722C161.517 97.4519 162.01 114.873 161.133 119.318C161.099 119.449 161.063 119.578 161.027 119.709C159.95 123.575 158.828 127.506 157.026 131.107C155.325 134.502 152.974 137.558 149.6 139.411C146.101 141.335 141.994 141.84 138.06 141.58C135.527 141.415 133.036 140.905 130.586 140.267C129.305 139.935 128.036 139.566 126.772 139.181C126.221 139.014 125.661 138.858 125.12 138.663C124.165 138.319 123.665 138.291 122.75 138.733C121.917 139.134 121.704 140.32 122.137 141.066C122.843 142.284 124.136 142.368 125.384 142.723C126.656 143.085 127.932 143.431 129.217 143.742C131.678 144.334 134.179 144.788 136.702 144.997C141.219 145.376 145.873 144.792 149.984 142.82C150.449 142.596 150.897 142.357 151.33 142.1C151.17 142.324 151.007 142.548 150.842 142.77C150.386 143.385 150.724 144.431 151.364 144.767C151.567 144.873 151.77 144.974 151.974 145.073C152.002 145.139 152.031 145.204 152.065 145.27C152.65 146.445 153.876 147.138 155.124 147.438C156.608 147.793 158.268 147.542 159.777 147.498C161.175 147.455 162.574 147.413 163.97 147.371C164.3 147.362 164.629 147.352 164.959 147.341C166.62 147.29 168.278 147.242 169.936 147.191C171.415 147.147 171.346 147.261 172.734 146.669C173.353 146.403 173.86 146.027 174.286 145.526C174.553 145.407 174.81 145.272 175.058 145.118C175.852 144.623 176.558 143.96 177.208 143.228C178.313 143.577 179.862 143.254 180.077 141.865C180.424 139.644 183.31 138.695 184.658 137.089C185.746 135.793 186.523 134.096 186.483 132.466C189.225 131.139 190.717 127.641 191.065 124.674C191.228 123.298 191.203 121.825 191.437 120.426C191.541 120.314 191.634 120.195 191.712 120.068C192.4 118.955 193 117.807 193.529 116.632C194.247 116.114 195.111 115.795 196.015 115.742C198.238 115.613 198.656 112.614 196.537 111.891C196.527 111.887 196.518 111.885 196.508 111.881C197.082 110.444 197.034 108.742 196.336 107.381C196.366 107.233 196.393 107.087 196.421 106.939C197.61 105.661 198.293 103.883 198.217 102.152C198.76 101.77 199.368 101.474 200.034 101.29C201.062 101.007 201.069 99.7514 200.308 99.1892C200.002 98.963 199.748 98.6988 199.537 98.4072C200.063 96.8263 199.856 94.9981 198.781 93.7004C199.463 92.8254 200.146 91.9504 200.828 91.0754C201.28 90.4963 201.519 89.5136 200.828 88.964C200.386 88.6111 199.945 88.2602 199.501 87.9094Z" fill="black"/>
<path fill-rule="evenodd" clip-rule="evenodd" d="M149.69 120.753C150.415 119.473 152.578 119.681 152.908 121.173C153.579 124.199 149.973 126.992 147.234 127.062C144.512 127.131 141.458 124.814 141.852 121.886C141.95 121.162 142.916 121.25 143.246 121.704L143.374 121.878C144.269 123.081 145.45 124.327 147.112 124.033C147.8 123.912 148.425 123.482 148.842 122.928C149.344 122.259 149.289 121.461 149.69 120.753ZM132.383 98.6199C132.752 98.5182 133.124 98.5575 133.451 98.6966C134.181 98.8304 134.79 99.439 135.005 100.134C135.021 100.194 135.04 100.254 135.061 100.312L135.094 100.4L135.006 100.177C135.047 100.397 135.225 100.627 135.289 100.847C135.368 101.118 135.388 101.426 135.361 101.724C135.593 101.726 135.825 101.734 136.056 101.754L136.28 101.774C137.532 101.89 138.905 102.104 139.647 103.185C140.064 103.793 139.673 104.888 138.907 105.005C137.729 105.185 136.714 104.533 135.54 104.402C134.43 104.279 133.268 104.349 132.173 104.55C129.911 104.964 127.832 105.881 125.628 106.456L125.328 106.533V106.533L125.328 106.531C124.95 106.622 124.521 106.097 124.895 105.79C126.661 104.338 128.922 103.162 131.15 102.446C130.825 101.93 130.725 101.249 130.947 100.695C130.981 100.58 131.024 100.469 131.068 100.357L131.162 100.128V100.128C131.171 100.02 131.192 99.9133 131.222 99.8087L131.227 99.7768V99.7768L131.23 99.7787V99.7787C131.395 99.2395 131.829 98.7729 132.383 98.6199ZM154.913 98.7033C155.396 98.2199 156.075 98.2914 156.579 98.6718L156.646 98.7242V98.7242C157.121 98.9354 157.514 99.3968 157.773 99.8243C158.041 100.268 158.219 100.721 158.226 101.21C159.395 101.213 160.515 101.564 161.373 102.508C161.65 102.813 161.84 103.283 161.687 103.696L161.596 103.942V103.942C161.308 104.723 160.012 105.172 159.572 104.254L159.551 104.209C159.083 103.12 157.287 103.234 156.332 103.345C155.667 103.423 155.01 103.589 154.367 103.774C154.14 103.84 153.916 103.91 153.692 103.983L153.468 104.056C153.348 104.094 152.725 104.433 153.113 104.352C153.217 104.331 153.295 104.483 153.189 104.534C152.727 104.754 152.235 104.315 152.265 103.818C152.319 102.957 153.686 102.485 154.344 102.188L154.384 102.17C154.636 102.053 154.9 101.941 155.173 101.837C155.02 101.609 154.893 101.356 154.787 101.083C154.688 100.826 154.621 100.577 154.585 100.303C154.549 100.17 154.549 100.036 154.585 99.9023L154.59 99.8641V99.8641C154.571 99.7757 154.563 99.6844 154.564 99.5925L154.56 99.5568H154.564C154.577 99.2349 154.705 98.9123 154.913 98.7033ZM147.197 107.877C149.052 108.451 152.113 110.013 151.146 112.425C149.796 114.64 146.216 113.012 144.48 112.296C142.921 111.78 142.11 113.965 143.617 114.624C156.073 119.554 156.027 106.543 147.648 106.734C146.726 106.755 146.697 107.686 147.197 107.877ZM130.717 90.9124L131.033 90.82C132.678 90.3434 134.357 89.5204 135.817 90.8046C136.391 91.3089 136.509 92.3567 136.098 92.9857C135.164 94.4189 133.778 94.1999 132.268 94.3221C131.119 94.4151 129.987 94.7528 128.914 95.1749C128.037 95.52 127.224 96.0059 126.456 96.5478C125.702 97.0806 125.187 97.9136 124.413 98.3931C124.129 98.569 123.802 98.3881 123.7 98.1029C123.339 97.0916 123.949 95.8318 124.465 94.9701C125.095 93.9188 126.051 93.0591 127.08 92.4085C128.206 91.696 129.452 91.2847 130.717 90.9124V90.9124ZM154.682 89.8242C157.462 89.8234 160.137 91.3702 161.692 93.6378C162.221 94.4082 161.833 95.5495 161.075 95.9931C160.224 96.491 159.314 96.1325 158.753 95.419L158.72 95.3758C157.828 94.1878 156.679 93.2521 155.316 92.643C154.651 92.3456 153.916 92.1045 153.197 91.9821L152.965 91.9423C152.639 91.8877 152.261 91.8355 151.966 91.8866C151.809 91.9073 151.664 91.9595 151.53 92.039C151.594 92.1793 151.429 92.3484 151.275 92.2643C150.585 91.8847 150.669 91.2075 151.24 90.6812C152.047 89.9367 153.639 89.8244 154.682 89.8242Z" fill="black"/>
<path fill-rule="evenodd" clip-rule="evenodd" d="M148.503 116.101C146.153 115.042 141.934 115.966 140.403 116.333C136.842 117.187 133.259 119.033 132.152 121.926C130.905 125.185 133.394 126.212 133.76 126.044C136.225 126.218 139.161 124.667 141.744 124.267C143.841 123.94 146.053 123.654 148.018 122.539C149.452 123.328 152.692 123.755 155.307 124.445C157.534 125.033 158.499 126.307 160.564 126.036C163.038 125.712 162.025 120.505 159.268 118.396C156.249 116.088 151.145 115.152 148.503 116.101ZM153.155 138.361C151.099 138.862 150.961 134.355 150.731 132.763C150.551 131.519 149.537 128.311 146.964 128.449C144.392 128.588 143.425 131.276 143.555 132.947C143.64 134.031 144.639 139.523 141.451 140.217C139.419 140.21 137.068 140.073 134.931 139.679C132.416 139.109 129.146 137.114 128.282 141.043C127.971 142.457 139.05 146.658 143.966 147.038C148.951 148.049 154.784 146.494 158.334 142.679C159.142 141.811 161.416 138.208 161.578 137.325C161.918 135.471 161.13 134.277 158.836 134.931C157.216 135.797 154.477 138.039 153.155 138.361Z" fill="black"/>
<path fill-rule="evenodd" clip-rule="evenodd" d="M167.178 109.153C164.613 111.805 160.331 112.565 156.919 111.143C148.156 107.481 152.445 96.0575 159.203 92.9898C160.047 92.7793 161.175 92.2798 162.203 92.1666C162.296 92.1209 162.498 92.253 162.743 92.1281C170.195 92.9604 171.892 104.532 167.178 109.153M138.915 109.832C136.038 113.649 130.69 114.827 126.32 113.052C117.687 109.651 120.749 99.5213 126.656 95.5501C139.132 90.86 144.285 102.794 138.915 109.832M120.201 101.374C120.193 101.37 120.185 101.368 120.177 101.365C120.222 101.344 120.268 101.324 120.314 101.304C120.299 101.343 120.283 101.381 120.268 101.419C120.246 101.404 120.226 101.386 120.201 101.374M173.117 97.2478C172.413 97.2493 171.395 97.3651 170.812 97.854C169.374 93.0029 164.067 88.5132 159.451 91.787C155.816 92.9564 153.119 95.5498 151.586 98.9978C148.822 97.3531 144.476 98.0554 142.079 100.23C140.509 95.0416 136.646 93.2246 132.048 92.9564C127.029 92.134 122.027 97.0101 120.466 100.922C119.168 100.774 117.229 100.361 116.008 101.162C108.084 99.0832 94.2299 97.9371 92.619 99.0921C91.471 99.5327 90.841 102.244 92.4445 102.39C93.8418 102.191 92.2814 100.404 93.6899 100.208C101.195 99.743 108.48 101.255 115.906 101.89C116.569 102.782 118.711 103.08 119.854 102.722C118.054 109.357 121.939 113.872 127.76 115.224C136.775 117.295 144.617 109.228 142.26 100.838C144.991 99.4789 148.132 99.5372 151.106 100.253C146.135 118.554 175.598 117.733 170.997 98.4811C174.059 100.005 174.724 97.5554 173.117 97.2478" fill="black"/>
</svg>
