<svg width="32" height="33" viewBox="0 0 32 33" fill="none" xmlns="http://www.w3.org/2000/svg">
<path d="M0.698463 20.4868L0.309111 20.1109L0.157246 20.2682V20.4868H0.698463ZM19.9398 0.558228L20.3292 0.182301C20.2272 0.0766694 20.0867 0.0170102 19.9398 0.0170102C19.793 0.0170102 19.6525 0.0766694 19.5505 0.182301L19.9398 0.558228ZM30.6295 11.6297L31.0189 12.0056C31.2213 11.7959 31.2213 11.4634 31.0189 11.2537L30.6295 11.6297ZM11.3881 31.5582V32.0994H11.6179L11.7775 31.9342L11.3881 31.5582ZM0.698463 31.5582H0.157246C0.157246 31.8571 0.399557 32.0994 0.698463 32.0994L0.698463 31.5582ZM1.08782 20.8627L20.3292 0.934154L19.5505 0.182301L0.309111 20.1109L1.08782 20.8627ZM19.5505 0.934154L30.2401 12.0056L31.0189 11.2537L20.3292 0.182301L19.5505 0.934154ZM30.2401 11.2537L10.9988 31.1823L11.7775 31.9342L31.0189 12.0056L30.2401 11.2537ZM11.3881 31.017H0.698463V32.0994H11.3881V31.017ZM1.23968 31.5582V20.4868H0.157246V31.5582H1.23968ZM13.1367 7.57701L23.8264 18.6484L24.6051 17.8966L13.9154 6.82516L13.1367 7.57701ZM16.7329 32.0994H31.6985V31.017H16.7329V32.0994Z" fill="black"/>
</svg>
