<svg width="240" height="324" viewBox="0 0 240 324" fill="none" xmlns="http://www.w3.org/2000/svg">
<path fill-rule="evenodd" clip-rule="evenodd" d="M140.038 286.761C122.893 286.809 112.625 286.608 93.2321 286.328C70.7868 285.734 64.7378 286.802 52.1636 284.332C50.241 283.924 48.7784 283.305 47.2949 282.442C46.7632 283.043 45.8617 283.937 45.0056 283.345C43.4287 282.303 44.1517 278.661 43.7606 276.604C43.1133 258.495 42.0779 239.845 45.6174 221.955C43.4716 221.257 30.8978 216.083 30.2112 214.349C41.5818 184.606 66.5253 149.8 99.3434 151.11C100.003 151.924 100.591 153.129 101.323 153.958C105.785 152.287 111.979 150.612 112.284 144.176C113.057 139.881 113.614 135.872 113.986 131.924C114.053 131.473 114.594 131.318 114.927 131.125C115.068 130.105 115.393 129.062 116.097 128.362C121.849 127.845 134.978 130.218 138.423 131.195C143.124 132 142.635 137.046 143.51 140.872C144.898 145.601 145.864 150.509 147.927 155.129C148.394 155.193 149.701 155.421 150.183 155.505C150.208 154.981 149.963 153.428 150.443 153.111C151.332 152.217 151.537 153.917 151.734 154.472C171.157 150.803 183.857 167.29 188.113 185.707C191.196 194.969 195.28 204.343 200.612 214.395C203.955 220.637 194.349 221.797 190.323 224.288C194.478 240.461 194.978 256.933 195.66 273.234C195.84 275.742 196.085 279.151 195.197 280.399C194.776 280.727 194.483 280.718 194.056 280.742C193.231 281.631 191.818 281.572 190.628 281.826C186.865 282.511 183.01 282.968 179.388 283.037C169.221 289.332 153.546 285.812 140.038 286.761" fill="white"/>
<path fill-rule="evenodd" clip-rule="evenodd" d="M112.572 131.912C113.106 129.238 117.519 129.857 117.318 132.555C115.09 142.594 116.447 154.815 102.366 153.827C111.304 169.555 138.905 179.12 147.827 158.471C143.431 157.946 142.561 147.55 142.03 143.913L142.008 143.588C141.89 141.717 141.93 139.983 143.054 138.383C144.176 139.223 144.627 140.745 145.007 142.132L145.285 143.243C146.215 146.947 147.188 150.633 148.663 154.167L148.716 154.176V154.176C148.642 151.779 151.718 150.683 152.481 153.251C173.294 150.383 184.68 167.566 189.172 185.536C192.449 195.373 196.72 204.837 201.572 213.985C205.234 221.132 196.342 222.768 191.638 225.146C195.256 239.645 195.966 254.666 196.636 269.537C196.414 272.711 197.848 279.221 195.933 281.497C193.096 283.717 191.568 279.911 192.004 277.471C192.412 260.215 190.615 243.037 190.1 225.809C186.548 227.31 182.954 228.693 179.319 229.977C179.504 246.143 181.426 262.31 182.111 278.393C183.01 279.102 183.507 280.331 182.739 281.402C178.627 287.139 171.193 287.996 164.652 288.078C149.085 288.273 133.502 288.213 117.934 288.166C102.642 287.82 87.2167 288.8 72.0054 287.046C69.0244 289.286 68.4147 284.458 68.814 282.398L68.9656 278.273C69.0676 275.523 69.1757 272.773 69.3147 270.024L69.6613 263.323C70.2416 252.154 70.8567 240.992 71.8324 229.845C62.9963 228.637 54.2872 226.492 45.8557 223.597C46.5498 242.947 45.126 262.505 47.5 281.756C49.0666 283.883 45.9248 285.88 44.0908 284.548C41.8163 282.813 42.7917 279.418 42.3375 276.921L42.2792 275.306C41.6426 257.892 40.7728 240.111 44.0175 222.936L42.6218 222.394C38.3674 220.733 27.4264 216.289 28.8612 214.097C40.2833 184.156 65.8343 148.345 99.6745 150.047C100.532 150.642 100.97 151.802 101.605 152.633L102.612 152.267C106.511 150.839 110.745 149.029 110.861 144.228C111.599 140.137 112.184 136.046 112.572 131.912ZM168.339 206.541C173.187 199.758 139.566 210.478 137.176 211.186L136.275 211.514C121.55 216.869 105.675 222.047 93.9334 232.722C93.6867 232.992 93.9939 233.366 94.3131 233.214L94.354 233.19C94.8212 232.93 96.8437 232.208 95.4108 232.481C112.377 221.778 132.087 215.898 151.347 210.756C154.146 210.079 156.958 209.457 159.781 208.89C162.629 208.198 165.843 208.205 168.339 206.541ZM115.213 204.333C115.627 202.643 118.414 187.104 113.786 191.367C112.552 193.603 112.079 196.194 111.857 198.711C111.26 201.646 112.766 204.81 111.301 207.516C109.99 211.05 105.17 215.179 104.848 208.612C112.734 208.343 110.366 198.348 104.998 201.438C102.058 203.955 101.55 208.694 103.021 212.167C100.645 209.579 96.7913 209.57 94.0406 207.617C89.073 202.246 97.4166 196.656 101.96 194.721C102.216 194.439 105.94 193.141 105.151 192.984C101.584 193.017 98.0103 193.776 94.9323 195.652C88.5617 198.762 86.3935 208.388 93.681 211.761C95.2568 212.521 96.9814 212.929 98.5416 213.714C102.473 215.752 101.203 218.315 97.1441 218.39C95.4746 218.755 89.9654 217.226 90.5823 220.153C91.5789 221.983 93.749 222.255 95.6502 222.307C100.732 222.655 107.05 219.784 104.178 213.804C107.645 216.758 111.974 212.628 113.459 209.418C115.27 212.97 119.82 211.9 122.388 209.799C126.313 212.89 131.236 209.454 132.984 205.616C133.02 206.415 133.056 207.213 133.094 208.012C133.173 209.648 135.709 210.173 136.083 208.416C136.653 205.745 137.439 203.103 138.52 200.592C141.007 193.991 142.528 196.967 142.615 202.14C142.921 204.082 143.893 205.823 146.039 205.953C146.637 205.99 147.418 205.458 147.511 204.833L147.634 204.005C147.896 202.272 148.199 200.487 148.853 198.859C149.483 204.25 156.54 204.224 158.508 199.754C162.59 202.205 166.873 198.781 168.777 195.24L168.834 195.132C169.499 193.921 167.809 192.457 166.843 193.596L166.507 193.945C164.685 195.832 161.786 198.567 159.391 196.237C159.47 195.187 159.438 194.113 159.373 193.08C159.296 191.847 157.595 190.751 156.628 191.853C155.265 190.695 153.572 190.861 152.147 191.669C148.454 192.713 146.127 196.31 145.326 199.884C145.241 197.028 144.307 193.929 141.171 193.661C137.958 193.634 136.728 197.227 135.632 199.646C135.568 198.562 135.507 197.479 135.452 196.396C135.357 194.532 132.773 194.552 132.561 196.341L132.555 196.396C132.148 200.263 130.007 209.527 124.604 207.714C126.882 205.204 131.004 197.553 127.086 195.17C121.056 193.652 117.963 203.167 120.534 207.595L120.401 207.689C118.932 208.703 116.504 209.831 115.684 207.559L115.591 207.349C115.17 206.388 114.798 205.348 115.213 204.333ZM106.587 203.261C107.729 202.594 108.135 204.802 107.844 205.543C107.377 206.732 106.103 207.394 104.834 207.847L104.838 207.713C104.894 206.355 105.347 203.986 106.587 203.261ZM125.805 197.75C125.831 197.909 125.789 198.103 125.784 198.251C125.588 200.853 124.431 203.352 122.821 205.383C121.895 202.624 123.089 198.978 125.805 197.75ZM153.253 194.495C153.993 194.3 154.777 194.355 155.54 194.561C155.485 195.429 155.673 196.296 156.05 197.092C154.082 203.007 149.453 198.454 153.253 194.495Z" fill="black"/>
<path fill-rule="evenodd" clip-rule="evenodd" d="M130.31 50.4502C139.769 50.4502 151.117 55.0375 152.082 55.1292L152.108 55.1306C152.616 55.1306 154.6 56.6424 158.059 59.6661L154.312 66.9776L154.615 67.2672C156.067 68.659 157.305 69.9276 158.283 70.9277C166.267 79.0931 167.702 111.153 165.821 122.333C163.939 133.513 160.454 144.453 144.229 144.453C128.004 144.453 109.953 134.694 107.173 131.654C105.319 129.628 103.237 128.658 100.926 128.742C100.831 128.622 100.737 128.503 100.643 128.384L100.303 128.336C97.1055 127.872 94.814 127.249 93.4293 126.465C90.7244 124.934 87.7514 116.886 87.7514 115.113C87.7514 113.358 83.312 100.59 83.2233 99.2384L83.2219 99.201C83.2219 98.0715 77.4224 92.8791 77.4224 91.2301C77.4224 89.5812 76.2534 89.6812 77.4224 83.8704L77.762 82.1634C79.006 75.9766 81.4408 65.7322 90.7244 61.2807C100.926 56.3889 120.756 50.4502 130.31 50.4502Z" fill="white"/>
<path fill-rule="evenodd" clip-rule="evenodd" d="M89.1499 61.0507C94.2378 55.6483 123.123 47.2919 137.736 49.0632L138.175 49.12C139.341 49.268 140.49 49.492 141.625 49.7963C145.291 50.6529 149.078 51.95 152.107 54.1166C154.637 55.8889 162.615 58.7834 160.263 63.42C161.135 65.0725 161.46 67.1142 160.871 68.7418C160.797 69.304 160.624 69.8218 160.402 70.3586C162.265 73.1085 163.74 76.2183 164.934 79.1761C167.02 86.6201 168.318 94.367 168.508 101.962C169.141 116.391 167.559 133.627 154.997 142.958C147.408 148.87 135.52 149.069 126.992 141.738C126.508 141.165 124.232 139.619 124.992 139.348C125.218 139.586 125.45 139.819 125.687 140.047C125.676 140.022 125.674 139.996 125.678 139.969L125.456 139.767C125.037 139.379 124.494 138.817 125.112 138.927C125.139 138.959 125.169 138.986 125.198 139.018C125.329 139.096 125.428 139.165 125.505 139.225L125.545 139.256L125.533 139.244C125.177 138.864 124.963 138.476 125.496 138.724L125.566 138.758C125.803 139.007 126.044 139.246 126.289 139.479C126.285 139.451 126.289 139.424 126.304 139.394L126.075 139.173C125.852 138.955 125.886 138.954 125.995 138.777C125.521 138.112 126.406 138.507 126.468 138.766C127.022 138.635 127.508 139.675 127.865 139.802C143.498 151.826 166.186 141.157 165.818 107.653L165.813 106.997C165.705 96.2839 164.804 85.2727 160.375 75.5747C159.944 74.6406 159.462 73.7318 158.932 72.8525C158.566 72.1931 158.175 71.5506 157.755 70.925C156.578 70.8299 155.416 70.6143 154.271 70.2804C153.878 70.1811 153.489 70.0712 153.101 69.9423C147.422 70.2521 141.87 70.5892 136.175 70.9088L134.396 71.0196C129.572 71.3298 124.583 71.8268 120.69 74.8118C116.87 77.5293 116.853 82.8881 113.583 85.8717C108.921 89.0375 108.887 91.8922 107.989 96.5576C108.055 100.074 110.493 105.184 106.02 106.664C106.774 107.741 105.722 107.224 105.64 106.846C105.631 106.848 105.623 106.85 105.616 106.85C106.289 108.101 105.3 107.313 105.213 106.912C105.16 106.897 105.107 106.859 105.054 106.806C105.732 107.902 104.637 107.134 104.702 106.935C103.392 104.922 100.698 104.609 98.7985 105.143C98.7753 105.215 98.691 105.221 98.6381 105.183C90.562 106.934 92.6457 123.659 100.922 122.042C101.276 121.97 101.268 122.14 101.338 122.156C101.147 121.654 101.686 121.859 101.68 121.964L101.713 121.962C101.739 121.96 101.728 121.957 101.748 121.964C101.563 120.937 102.603 122.425 102.521 122.486C102.553 122.467 102.589 122.456 102.621 122.452L102.585 122.355C102.412 121.895 102.427 122.086 102.428 121.822C102.298 121.497 102.289 121.639 102.319 121.427C102.775 121.074 102.91 122.146 103.062 122.224C102.801 121.86 103.008 121.564 103.254 121.761C105.118 125.683 107.526 129.368 110.638 132.272C110.978 132.54 111.323 132.804 111.679 133.054C113.003 134.207 115.033 134.949 116.272 135.97C116.272 135.987 116.264 136.008 116.252 136.029L116.28 136.055V136.055L116.309 136.082L116.74 136.289C116.866 136.397 116.98 136.518 117.082 136.651C117.19 136.775 117.284 136.913 117.365 137.059C117.405 137.236 117.316 137.31 117.147 137.234C117.073 137.209 116.999 137.179 116.925 137.152C116.93 137.158 116.932 137.162 116.936 137.166C116.96 137.203 117.124 137.584 116.935 137.522L116.913 137.513C116.809 137.475 116.706 137.433 116.604 137.393C116.725 137.543 116.834 137.705 116.932 137.843C117.035 137.951 117.098 138.077 117.124 138.221C117.12 138.301 117.075 138.335 116.995 138.325C116.873 138.284 116.752 138.242 116.632 138.198L116.666 138.263C116.751 138.431 116.872 138.712 116.657 138.618C116.473 138.561 116.296 138.496 116.118 138.424C116.103 138.454 116.074 138.464 116.015 138.437C115.451 138.236 114.906 137.991 114.384 137.701C113.925 137.367 113.463 137.04 113.002 136.708C112.569 136.448 112.151 136.158 111.752 135.833C109.08 134.107 106.741 131.914 104.885 129.471C101.782 132.16 95.5773 129.591 91.7392 127.487C88.3443 125.606 87.01 122.128 86.665 118.378C85.9477 113.33 81.8238 111.602 82.1107 100.525C82.1043 100.527 82.0978 100.527 82.0893 100.527C81.9393 100.482 81.7938 100.423 81.6564 100.347C81.5149 100.279 81.3818 100.199 81.2569 100.102L81.1027 99.8885V99.8885C81.0226 99.8441 80.9508 99.7976 80.8959 99.7511L80.8674 99.7878C80.7772 99.8967 80.8378 99.7329 80.8431 99.7004L80.5752 99.3359C79.9399 98.4682 79.243 97.4947 78.6753 96.7161L78.6574 96.7477C78.6445 96.7716 78.6377 96.7889 78.6438 96.7964C77.2927 94.8545 76.0222 92.509 75.6691 90.2382C75.2523 88.4891 75.4152 86.6867 75.7788 85.0665C77.3377 79.3928 82.4445 66.5537 89.1499 61.0507ZM125.815 139.515L125.73 139.44L125.805 139.533C125.844 139.581 125.884 139.625 125.949 139.669C125.944 139.654 125.944 139.639 125.946 139.622C125.903 139.589 125.859 139.553 125.815 139.515ZM137.672 51.9141C127.762 51.0617 118.014 53.2458 108.558 55.8896L107.905 56.0771C102.528 57.6121 96.8422 58.9933 92.298 62.2787C85.9492 67.1433 82.6708 74.8821 79.8098 82.0272C77.3116 87.3359 78.5887 93.322 82.3535 97.0289C82.7452 93.3453 83.413 89.7694 84.4566 86.2223C84.6744 85.6682 84.5097 85.4866 84.9791 85.4143C85.6881 94.9733 82.1961 102.036 89.1066 113.365C92.1052 118.71 88.634 122.621 97.1016 125.434L97.3308 125.522C99.0949 126.188 101.021 126.713 102.749 126.341L102.594 126.089C102.437 125.83 102.389 125.704 102.618 125.593C102.612 125.58 102.604 125.568 102.595 125.553C102.409 125.202 102.23 124.847 102.058 124.488C101.989 124.511 101.919 124.528 101.847 124.547C101.894 124.633 101.9 124.72 101.769 124.75C101.304 124.909 100.826 124.973 100.336 124.943L100.231 124.936C99.6782 124.902 99.3299 124.801 99.0182 124.707C98.9149 124.69 98.8114 124.674 98.7098 124.652C97.7073 124.43 96.6461 123.864 95.9593 123.304C88.1302 118.855 88.9393 103.712 98.5896 102.281C98.7875 92.7465 103.321 76.6611 110.844 67.5758C117.644 59.2188 136.209 55.5966 149.125 56.8738C149.313 56.9362 149.502 56.9991 149.69 57.0628C151.683 57.2399 153.582 58.128 155.576 58.5405C154.144 57.4671 152.52 56.7521 150.847 56.1444C147.513 54.1047 143.692 53.001 140 52.2226C139.235 52.0345 138.46 51.931 137.672 51.9141ZM98.1477 109.94C98.6665 109.658 98.6072 109.931 98.7265 109.852C102.459 109.547 106.483 112.816 108.569 115.541C108.405 115.712 107.959 115.205 107.881 115.125C107.87 115.135 107.858 115.144 107.845 115.148L107.903 115.23C108.749 116.444 107.072 115.015 106.915 114.721C106.888 114.736 106.86 114.744 106.829 114.738C106.962 114.868 107.367 115.208 107.437 115.45L107.545 115.54C108.559 116.409 108.475 117.063 107.323 115.828C107.35 115.886 107.361 115.938 107.342 115.981L107.382 116.007C107.948 116.403 108.414 117.507 107.23 116.374C107.353 117.201 106.057 115.602 106.015 115.613C103.772 113.851 100.469 112.138 97.6554 111.908L97.5586 111.897C97.0422 111.83 96.7981 111.677 96.9794 111.339C96.3434 111.188 96.4924 110.875 96.7934 110.885C96.3449 110.59 96.7486 110.308 97.0089 110.418C96.83 109.922 97.5477 110.252 97.6132 110.183C97.9856 109.609 98.086 110.088 98.1477 109.94ZM90.3245 79.2205C92.1171 78.5636 97.4121 80.53 96.9885 83.1343C96.7362 83.7322 95.9051 84.0748 95.3209 83.7373L94.5585 83.225C93.2317 82.3361 92.035 81.5566 90.6105 80.7813C89.8352 80.3965 89.5014 79.5794 90.3245 79.2205ZM100.523 75.3504L99.8311 74.8997C96.0951 72.4536 90.8136 68.7472 100.18 72.582C101.248 73.04 102.666 73.3109 103.249 74.3279C104.164 76.2024 101.756 76.3284 100.523 75.3504ZM100.943 64.3752C100.643 63.2371 104.374 64.5726 105.46 64.9248L105.625 64.9872C106.681 65.381 107.892 65.7463 108.524 66.6582C109.264 67.9183 107.766 68.1793 106.838 67.6102C104.935 66.3662 102.849 65.4276 100.943 64.3752ZM110.429 59.0735C108.33 56.7797 113.949 58.9771 114.791 59.5871L114.815 59.6051C115.443 60.0474 115.316 61.0002 114.726 61.28C113.047 61.312 111.811 59.912 110.429 59.0735ZM119.984 56.5603C116.646 54.1604 121.043 55.3019 122.571 56.2425C123.612 57.1608 122.539 58.711 119.984 56.5603Z" fill="black"/>
<path fill-rule="evenodd" clip-rule="evenodd" d="M152.125 125.777C153.46 125.466 154.509 126.597 154.246 127.9C153.969 129.279 152.487 129.751 151.244 129.708C149.835 129.659 148.427 129.368 147.011 129.31C145.557 129.25 144.096 129.239 142.641 129.278C141.295 129.314 139.913 129.552 138.578 129.339C138.057 129.255 138.107 128.569 138.445 128.324C139.45 127.6 140.752 127.304 141.936 127C143.144 126.69 144.379 126.452 145.617 126.307C146.873 126.16 148.138 126.087 149.402 126.072C149.978 126.066 150.683 126.194 151.244 126.09C151.53 126.037 151.821 125.848 152.125 125.777ZM148.271 107.867C149.866 108.837 152.297 111.099 150.581 113.504C148.561 115.625 145.652 113.193 144.219 112.094C142.89 111.241 141.396 113.433 142.63 114.428C152.987 122.099 157.19 108.12 149.078 106.726C148.185 106.572 147.853 107.567 148.271 107.867ZM136.702 100.623C138.836 100.268 139.21 103.311 137.095 103.524C136.651 103.568 136.209 103.607 135.769 103.646C135.812 103.784 135.84 103.925 135.856 104.071C135.876 104.195 135.891 104.327 135.904 104.477C135.971 105.226 135.441 106.004 134.82 106.367C134.176 106.745 133.251 106.795 132.611 106.367C132.281 106.147 131.952 105.898 131.77 105.533C131.526 105.158 131.393 104.725 131.379 104.28C130.406 104.532 129.416 104.874 128.433 105.055C128.469 105.091 128.505 105.129 128.539 105.17C128.565 105.202 128.529 105.262 128.491 105.233L127.998 105.123V105.123C127.847 105.143 127.695 105.159 127.544 105.169L127.547 105.156V105.156C127.294 105.151 127.087 104.852 127.314 104.613C128.182 103.695 129.536 103.085 130.771 102.575L131.961 102.087C133.483 101.468 135.089 100.891 136.702 100.623ZM153.871 101.564C155.268 101.405 156.652 101.468 158.052 101.553C160.409 101.697 159.42 105.134 157.529 104.341C157.549 104.466 157.554 104.592 157.539 104.71C157.465 105.314 157.268 105.825 156.714 106.149C156.199 106.451 155.546 106.45 155.031 106.149C154.48 105.827 154.231 105.374 154.091 104.785C153.982 104.328 154.025 103.946 154.088 103.494C154.109 103.344 154.175 103.204 154.265 103.079C154.133 103.046 154.001 103.014 153.869 102.984C152.693 102.717 151.533 102.77 150.36 102.601C150.235 102.583 150.215 102.381 150.325 102.329C151.378 101.834 152.718 101.696 153.871 101.564ZM136.487 90.9478C137.294 90.6399 138.307 91.152 138.719 91.8564C139.186 92.6557 138.986 93.5785 138.41 94.2521C137.525 95.2853 135.84 95.9219 134.598 96.5115L134.498 96.5592C133.223 97.1746 131.913 97.7398 130.585 98.2322C129.279 98.7168 127.921 99.0964 126.567 99.4223C125.853 99.5942 125.124 99.7362 124.395 99.8258C123.819 99.8964 123.375 99.7383 122.824 99.7383C122.743 99.7385 122.718 99.6318 122.784 99.5908C123.299 99.267 123.681 98.8407 124.242 98.5408C124.827 98.2286 125.414 97.9217 126.003 97.6178C127.194 97.0036 128.341 96.3201 129.49 95.6322C130.701 94.907 131.884 94.1434 133.035 93.3259C134.161 92.526 135.199 91.4392 136.487 90.9478ZM150.861 90.2901C151.868 90.0946 152.866 90.5714 153.164 91.5983C153.45 92.5822 153.151 92.7931 153.914 93.4971C154.521 94.0582 155.177 94.5589 155.838 95.0521L156.811 95.776C158.575 97.0816 160.352 98.3161 162.379 99.197C162.551 99.2714 162.452 99.5261 162.289 99.5295C159.067 99.5916 155.976 99.1552 153.067 97.7119C151.709 97.0377 150.343 96.1849 149.556 94.839C148.644 93.2805 148.67 90.7149 150.861 90.2901Z" fill="black"/>
</svg>
