<svg width="31" height="31" viewBox="0 0 31 31" fill="none" xmlns="http://www.w3.org/2000/svg">
<path d="M21.7001 1.03345L1.03345 21.7001V29.9668H9.30011L29.9668 9.30011L21.7001 1.03345Z" fill="black"/>
<path d="M1.03345 21.7001L0.650749 21.3174L0.49223 21.4759V21.7001H1.03345ZM21.7001 1.03345L22.0828 0.650749C21.8715 0.43939 21.5288 0.43939 21.3174 0.650749L21.7001 1.03345ZM29.9668 9.30011L30.3495 9.68281C30.5608 9.47145 30.5608 9.12877 30.3495 8.91742L29.9668 9.30011ZM9.30011 29.9668V30.508H9.52429L9.68281 30.3495L9.30011 29.9668ZM1.03345 29.9668H0.49223C0.49223 30.2657 0.734541 30.508 1.03345 30.508L1.03345 29.9668ZM1.41615 22.0828L22.0828 1.41615L21.3174 0.650749L0.650749 21.3174L1.41615 22.0828ZM21.3174 1.41615L29.5841 9.68281L30.3495 8.91742L22.0828 0.650749L21.3174 1.41615ZM29.5841 8.91742L8.91742 29.5841L9.68281 30.3495L30.3495 9.68281L29.5841 8.91742ZM9.30011 29.4256H1.03345V30.508H9.30011V29.4256ZM1.57466 29.9668V21.7001H0.49223V29.9668H1.57466Z" fill="black"/>
</svg>
