<svg width="32" height="33" viewBox="0 0 32 33" fill="none" xmlns="http://www.w3.org/2000/svg">
<path d="M20.2414 1L1 20.9286V32H11.6897L30.931 12.0714L20.2414 1Z" fill="black"/>
<path d="M1 20.9286L0.610647 20.5526L0.458783 20.7099V20.9286H1ZM20.2414 1L20.6307 0.624073C20.5287 0.518442 20.3882 0.458783 20.2414 0.458783C20.0945 0.458783 19.954 0.518442 19.852 0.624073L20.2414 1ZM30.931 12.0714L31.3204 12.4474C31.5229 12.2376 31.5229 11.9052 31.3204 11.6955L30.931 12.0714ZM11.6897 32V32.5412H11.9194L12.079 32.3759L11.6897 32ZM1 32H0.458783C0.458783 32.2989 0.701094 32.5412 1 32.5412L1 32ZM1.38935 21.3045L20.6307 1.37593L19.852 0.624073L0.610647 20.5526L1.38935 21.3045ZM19.852 1.37593L30.5417 12.4474L31.3204 11.6955L20.6307 0.624073L19.852 1.37593ZM30.5417 11.6955L11.3003 31.6241L12.079 32.3759L31.3204 12.4474L30.5417 11.6955ZM11.6897 31.4588H1V32.5412H11.6897V31.4588ZM1.54122 32V20.9286H0.458783V32H1.54122ZM13.4382 8.01878L24.1279 19.0902L24.9066 18.3384L14.2169 7.26693L13.4382 8.01878ZM17.0345 32.5412H32V31.4588H17.0345V32.5412Z" fill="#272727"/>
</svg>
