<svg id="Layer_1" data-name="Layer 1" xmlns="http://www.w3.org/2000/svg" viewBox="0 0 700 550"><title>playing tennis</title><path d="M335.91987,195.21186l9.83008-25.86c-13.77-10.88-29.97-14.91-47.37012-12.01-14.25,2.38-16.33984,4.75-16.62988,5.53.2-.05.32007-.09.32007-.09,0,5.07,7.98,16.67,7.98,16.67s4.34985,7.25,1.45,12.32c-2.8999,5.08-10.1499,0-10.1499,0l-16.67017-15.94c-.73.72-8.7,0-8.7,0a5.12456,5.12456,0,0,1-1.81006-.9l-3.61987,2.71s-17.40015,18.84-23.92017,41.31l19.93018,11.96s14.49-19.57,23.18994-19.57c0,0,9.98,17.11,31.37012,9.62a.49918.49918,0,0,1,.2-.59.47471.47471,0,0,1,.09985-.05h.01a19.43575,19.43575,0,0,0,2.11011-.91,7.48738,7.48738,0,0,0,.99-.57,1.90413,1.90413,0,0,0,.78-.81,2.09461,2.09461,0,0,1-.61011,1,8.347,8.347,0,0,1-.88989.8,17.82361,17.82361,0,0,1-1.59009,1.15c3.92017,1.44,26.87012,9.68,33.49,7.03,0,0,19.57007-7.97,23.91992-26.09Zm-34-20.62a19.018,19.018,0,0,1-1.2998-2.16,20.95225,20.95225,0,0,1-1.82007-4.72,21.28958,21.28958,0,0,1-.67993-5.02,16.06773,16.06773,0,0,1,.62988-4.98,33.10077,33.10077,0,0,0,1.02,9.75,31.82816,31.82816,0,0,0,1.55,4.63c.61987,1.52,1.37988,2.98,2.15991,4.46C302.93989,175.92188,302.39985,175.27186,301.91987,174.59187Zm21.03,22.96a14.33646,14.33646,0,0,1-1.60986,4.54,11.84974,11.84974,0,0,1-3.26,3.57,9.51242,9.51242,0,0,1-4.41992,1.76,13.67947,13.67947,0,0,0,6.81982-5.83,15.34771,15.34771,0,0,0,.97-2.05,17.14765,17.14765,0,0,0,.74-2.16c.21-.73.32007-1.5.51-2.25.13013-.77.2-1.54.36011-2.33.06982.79.08984,1.58.12988,2.37C323.10981,195.96186,323.10005,196.77186,322.9499,197.55189Zm4.53-3.37a52.05347,52.05347,0,0,1-6.90991-2.75,39.1448,39.1448,0,0,1-6.39014-3.85c-.51-.35-.98-.76-1.46-1.15a16.54863,16.54863,0,0,1-1.40991-1.23,28.26626,28.26626,0,0,1-2.53-2.72c.48.4.95.8,1.3999,1.21.45.42.97.76,1.45,1.14.47022.39.96021.75,1.47022,1.1.5.34.99.71,1.52,1.02a57.93774,57.93774,0,0,0,6.38989,3.58c2.18994,1.08,4.43994,2.03,6.73,2.93,1.13013.45,2.29.87,3.45,1.26,1.16016.43,2.33008.8,3.51,1.18A45.95476,45.95476,0,0,1,327.47993,194.18189Z"/><path d="M274.8738,158.377a3.91854,3.91854,0,0,0,1.15063.66493,1.28164,1.28164,0,0,0,1.18384-.12176,3.78609,3.78609,0,0,0,1.16992-2.2486,25.763,25.763,0,0,0,.44458-5.38339,10.38828,10.38828,0,0,0-.05175-1.30881,3.18319,3.18319,0,0,0-.40406-1.13393,2.53879,2.53879,0,0,0-1.83545-1.26208,1.99539,1.99539,0,0,0-1.04223.23,3.97427,3.97427,0,0,0-.92774.75282,8.4125,8.4125,0,0,0-1.39843,2.12029l-.01343.02852a.52675.52675,0,0,1-.46973.30261,23.326,23.326,0,0,1-6.80127-.67438,21.9307,21.9307,0,0,1-6.30029-2.65454,28.59448,28.59448,0,0,1-5.31787-4.264,27.83176,27.83176,0,0,1-4.1521-5.40212l.8772-.00742a33.5741,33.5741,0,0,0-1.70508,3.69406,36.348,36.348,0,0,0-1.28,3.88708,25.5854,25.5854,0,0,0-.762,4.01926,23.41917,23.41917,0,0,0-.073,4.08286l-.01148-.05523c.53955,2.14148.15186,4.223.59668,6.24752a44.27407,44.27407,0,0,0,1.51148,6.0184,28.22627,28.22627,0,0,0,2.54394,5.6145,12.89259,12.89259,0,0,0,1.8418,2.39346,10.06958,10.06958,0,0,0,1.14917.90906,4.36933,4.36933,0,0,0,1.29834.54372l-.07153-.01213c1.44482.09877,2.90087.1685,4.34619.205.7229.02151,1.44458.02594,2.15649.00752.35718-.00786.70654-.03094,1.04883-.061.157-.02582.33984-.0392.47485-.07286l.19507-.04874c.033-.01843-.01269-.00827.009.01554l.83985-.00925,8.40527,7.9c2.79224,2.64333,5.60327,5.26683,8.37988,7.92646l-.09008-.07389a13.39757,13.39757,0,0,0,4.606,2.00867,3.89089,3.89089,0,0,0,4.11182-1.25772,7.15546,7.15546,0,0,0,1.2478-4.60536,15.44373,15.44373,0,0,0-1.07971-5.00722,20.67107,20.67107,0,0,0-1.07629-2.36771l-1.42066-2.24363c-.948-1.53426-1.86719-3.08652-2.71216-4.68235a51.88328,51.88328,0,0,1-2.333-4.897,15.15855,15.15855,0,0,1-1.3357-5.31292l.36963.26159a3.66388,3.66388,0,0,1-3.51343-.71154,6.21861,6.21861,0,0,1-1.709-3.10269l.00464.01216-.01294-.05133-.00659-.02586a.07087.07087,0,0,1,.13623-.039l.01587.05.00488.01254a5.98024,5.98024,0,0,0,1.79053,2.873,3.20971,3.20971,0,0,0,3.10522.45941.27261.27261,0,0,1,.35108.15929.28072.28072,0,0,1,.0166.0733l.00219.02913a15.66181,15.66181,0,0,0,1.51685,4.9967,50.98816,50.98816,0,0,0,2.48389,4.71791c.90649,1.53376,1.83911,3.05426,2.81591,4.54605l1.51087,2.26589a21.86066,21.86066,0,0,1,1.21081,2.49724,16.79164,16.79164,0,0,1,1.30176,5.43179,8.49309,8.49309,0,0,1-1.51782,5.56313,4.67513,4.67513,0,0,1-2.55371,1.75738,6.72355,6.72355,0,0,1-3.00147.0762,14.81636,14.81636,0,0,1-5.20874-2.23176.53576.53576,0,0,1-.07348-.058l-.01685-.01617c-2.78027-2.65572-5.52612-5.34753-8.29077-8.01953l-8.26562-8.046.8396-.00927a1.904,1.904,0,0,1-.4751.26654l-.33692.0805c-.22046.0456-.404.05263-.60791.07953-.385.02516-.76416.04025-1.13672.03964-.74682.00147-1.48461-.02121-2.21923-.06056-1.47071-.07693-2.92676-.20988-4.38916-.36029l-.01294-.00134-.05909-.01085a5.28387,5.28387,0,0,1-1.54711-.712,10.724,10.724,0,0,1-1.261-1.07155,14.00863,14.00863,0,0,1-1.8772-2.607,29.6098,29.6098,0,0,1-2.43042-5.82073,44.73464,44.73464,0,0,1-1.45923-6.10882c-.07666-.51938-.14941-1.03977-.19433-1.56714-.04444-.53934-.02564-1.061-.0481-1.57364a14.55857,14.55857,0,0,0-.36133-3.02641l-.0061-.02324-.00562-.03238a23.91738,23.91738,0,0,1,.00928-4.18144,32.822,32.822,0,0,1,.65137-4.12754,37.12253,37.12253,0,0,1,1.15088-4.01906,33.85826,33.85826,0,0,1,1.6167-3.88056.491.491,0,0,1,.85351-.04546l.02393.038a30.70177,30.70177,0,0,0,4.13965,5.04232,27.34341,27.34341,0,0,0,5.13037,4.01428c.47485.26114.92431.57059,1.41113.807l1.46143.71066c.49072.22891,1.0105.38554,1.51465.58287l.76171.28233.78663.19852a22.15462,22.15462,0,0,0,6.43676.73566l-.48266.331a9.01885,9.01885,0,0,1,1.65283-2.40934,4.99187,4.99187,0,0,1,1.23315-.91651,2.98623,2.98623,0,0,1,1.61206-.28468,3.43959,3.43959,0,0,1,2.48291,1.79647,4.02783,4.02783,0,0,1,.45923,1.45157,10.8147,10.8147,0,0,1,.00928,1.43057,23.10216,23.10216,0,0,1-.73047,5.49956,4.12862,4.12862,0,0,1-1.47436,2.41339,1.549,1.549,0,0,1-1.44727.06227,4.10266,4.10266,0,0,1-1.15918-.78755.07246.07246,0,0,1-.00513-.10242A.074.074,0,0,1,274.8738,158.377Z"/><path d="M270.47805,171.48228a20.44692,20.44692,0,0,0,1.34912-2.37489,21.26146,21.26146,0,0,0,1.033-2.486,22.66242,22.66242,0,0,0,.73388-2.59253c.20484-.88075.34668-1.77728.50806-2.69413a10.94216,10.94216,0,0,1,.05,2.78586,12.20565,12.20565,0,0,1-.60767,2.7388A10.37834,10.37834,0,0,1,270.47805,171.48228Z"/><path d="M246.83986,150.92628a4.3929,4.3929,0,0,1,2.95923-.62513,3.88083,3.88083,0,0,1,1.47827.51567,3.01257,3.01257,0,0,1,1.08008,1.09523,9.52449,9.52449,0,0,0-1.322-.584,6.922,6.922,0,0,0-1.33594-.30936A18.2299,18.2299,0,0,0,246.83986,150.92628Z"/><path d="M255.98146,151.18723a3.241,3.241,0,0,1,1.56666-1.43419,8.20818,8.20818,0,0,1,2.0249-.67925,11.71932,11.71932,0,0,1,2.10156-.20445,10.66047,10.66047,0,0,1,2.09546.19c-1.37891.30464-2.73169.45436-4.05542.7249a17.6171,17.6171,0,0,0-1.94824.48833A4.89558,4.89558,0,0,0,255.98146,151.18723Z"/><path d="M249.77709,156.71038a1.08789,1.08789,0,0,0,0-2.17447,1.08789,1.08789,0,0,0,0,2.17447Z"/><path d="M259.69268,155.27523a1.08789,1.08789,0,0,0,0-2.17448,1.08789,1.08789,0,0,0,0,2.17448Z"/><path d="M250.90773,158.43546l-.2351,1.26a3.06559,3.06559,0,0,0-.01587,1.11563,1.11141,1.11141,0,0,0,.56128.76239,5.88467,5.88467,0,0,0,1.1394.48608,4.56387,4.56387,0,0,1-.66919.12816,2.09052,2.09052,0,0,1-.70532-.09978,1.48981,1.48981,0,0,1-1.03394-1.122,2.40758,2.40758,0,0,1,.18238-1.42761A3.07878,3.07878,0,0,1,250.90773,158.43546Z"/><path d="M252.35744,164.95886c.6167.22719,1.22583.42209,1.823.61745a13.57173,13.57173,0,0,0,1.80347.45325,7.8342,7.8342,0,0,0,1.81152.11764,6.31064,6.31064,0,0,0,1.8103-.46351,3.49067,3.49067,0,0,1-1.71728,1.02143,5.19155,5.19155,0,0,1-2.03076.03777A6.86218,6.86218,0,0,1,252.35744,164.95886Z"/><path d="M278.40007,157.452c5.72713-9.45994,3.39074-17.54738.7074-22.40695a12.57651,12.57651,0,0,0-8.941-6.30622c-14.18639-2.33777-19.98349,8.67671-19.98349,8.67671l.362.35909s7.61065,13.40923,22.10712,12.68441c0,0,2.15273-4.83457,5.05927-2.93554a3.43874,3.43874,0,0,1,1.50039,2.8848"/><path d="M276.50221,131.77986s-1.3128-8.49835,4.48579-10.67282c3.48048-1.30518,5.91642-1.30468,8.24826-.312a9.04447,9.04447,0,0,1,5.1746,6.68852c.82728,4.224,3.47459,10.2038,11.946,5.22064,0,0,.72482,18.12059-13.77165,16.67094,0,0-7.97306.72482-8.69788-11.59718,0,0-.06231-3.22181-4.3801-1.97331"/><path d="M344.93154,171.53537c4.28955,1.684,8.59888,3.31874,12.87451,5.04417q6.3393,2.79044,12.41223,6.12037c4.04981,2.2124,7.99707,4.60873,11.87354,7.10955q2.90442,1.88137,5.76269,3.83205l5.64368,3.99275.02551.02008a130.19894,130.19894,0,0,0,12.18,9.52532c1.0658.73459,2.16236,1.37288,3.27234,2.06814l.82947.54314a3.047,3.047,0,0,0,.798.41675,12.9539,12.9539,0,0,0,1.83923.49554,62.38775,62.38775,0,0,0,7.67139.89626l-.01673-.00014a17.1332,17.1332,0,0,1,3.35462.22485,6.33394,6.33394,0,0,1,1.62756.49041,2.87434,2.87434,0,0,1,.71936.49554c.19482.18906.40234.372.61035.55461,1.68054,1.44727,3.42554,2.82831,5.18543,4.1837,1.76342,1.34987,3.53027,2.7045,5.36084,3.95073a3.48688,3.48688,0,0,1,1.64648,2.90675,2.59556,2.59556,0,0,1-.57312,1.64319,3.50851,3.50851,0,0,1-1.42212.98923l.09424-.21977a4.66094,4.66094,0,0,1,.27307,1.432,3.62,3.62,0,0,1-.23889,1.4443,2.99719,2.99719,0,0,1-.84778,1.20345,4.457,4.457,0,0,1-1.2456.76239l.10681-.24422a5.0304,5.0304,0,0,1,.09619,3.335,3.35538,3.35538,0,0,1-2.63135,2.02824,4.04563,4.04563,0,0,1-3.15832-1.08058,29.31625,29.31625,0,0,0-2.50892-2.02466l.35047-.35268,1.96728,3.111.49182.77776a1.65884,1.65884,0,0,1,.239,1.05214,2.30389,2.30389,0,0,1-1.03418,1.74629,2.9553,2.9553,0,0,1-1.95935.39249,6.77546,6.77546,0,0,1-1.85938-.49509,10.17649,10.17649,0,0,1-3.19458-2.03275,8.61656,8.61656,0,0,1-1.8258-3.31251,7.61715,7.61715,0,0,0-2.344-2.53743,9.36476,9.36476,0,0,0-3.14612-1.57942,3.03121,3.03121,0,0,0-3.06762.63318l-.02832.02693a3.65757,3.65757,0,0,0-.99634,2.4046,5.91662,5.91662,0,0,0,.5791,2.69511,14.368,14.368,0,0,1,1.10535,2.82047,3.92,3.92,0,0,1,.05566,1.63156,2.49974,2.49974,0,0,1-.91406,1.4375,5.05625,5.05625,0,0,1-1.40662.75238l-.36242.12619c-.068.02086-.104.0403-.19837.0623a.9305.9305,0,0,1-.29822.029,1.6264,1.6264,0,0,1-.87951-.37286,6.83908,6.83908,0,0,1-1.76721-2.57321,15.8743,15.8743,0,0,0-1.17957-2.65553,9.25266,9.25266,0,0,0-1.82239-2.17031l-.27368-.22937a1.84418,1.84418,0,0,1-.31311-.34382,4.26941,4.26941,0,0,1-.40259-.70429,7.28555,7.28555,0,0,1-.48681-1.47943,14.65694,14.65694,0,0,0-.69593-2.82042,12.58254,12.58254,0,0,0-1.31115-2.56079q-.78259-1.23976-1.66272-2.41386a22.7409,22.7409,0,0,0-8.81421-7.46425.34948.34948,0,0,1-.042-.02187c-4.68287-2.95418-9.455-5.78514-14.32129-8.43335-2.43335-1.32471-4.89466-2.59827-7.395-3.78953a51.33348,51.33348,0,0,0-7.71045-3.07081.03633.03633,0,0,1-.02551-.04444.03673.03673,0,0,1,.04418-.02559,51.47385,51.47385,0,0,1,7.79395,2.9192c2.53479,1.13413,5.02148,2.3734,7.47,3.68077,4.90637,2.60037,9.71143,5.37947,14.44275,8.29172l-.04175-.02168a23.3439,23.3439,0,0,1,9.14819,7.56289q.90985,1.18626,1.72242,2.44222a13.11,13.11,0,0,1,1.38684,2.69543,15.27857,15.27857,0,0,1,.72986,2.91622,6.57329,6.57329,0,0,0,.43823,1.32686,3.5622,3.5622,0,0,0,.33044.579,1.16227,1.16227,0,0,0,.18128.20429l.29406.24553a9.99345,9.99345,0,0,1,1.97461,2.34249,16.38122,16.38122,0,0,1,1.23059,2.7416,6.20183,6.20183,0,0,0,1.53919,2.27319.93546.93546,0,0,0,.45215.21573c.03137.009.04687-.00549.06787-.00421a1.55844,1.55844,0,0,0,.154-.04933l.33631-.11767a4.32781,4.32781,0,0,0,1.19421-.63424,2.08851,2.08851,0,0,0,.58716-2.309,14.33164,14.33164,0,0,0-1.04956-2.68059,6.65371,6.65371,0,0,1-.628-3.042,4.34339,4.34339,0,0,1,1.26538-2.91911l-.028.02667a3.33639,3.33639,0,0,1,1.80359-.94526,4.59454,4.59454,0,0,1,1.96985.12289,10.04575,10.04575,0,0,1,3.38574,1.71275,11.7609,11.7609,0,0,1,1.42395,1.24988,5.25548,5.25548,0,0,1,1.13684,1.6012,8.0003,8.0003,0,0,0,1.6648,3.095,9.78974,9.78974,0,0,0,2.967,1.91548,6.17626,6.17626,0,0,0,1.67761.46881,2.37019,2.37019,0,0,0,1.57886-.2818,1.72547,1.72547,0,0,0,.78686-1.30018,1.076,1.076,0,0,0-.14636-.70768l-.48352-.78289-1.93433-3.13164-.003-.0049a.25431.25431,0,0,1,.35352-.34782,28.96345,28.96345,0,0,1,2.53784,2.08708,3.59435,3.59435,0,0,0,2.79309,1.01645,2.93109,2.93109,0,0,0,2.32007-1.73932,4.63012,4.63012,0,0,0-.07153-3.05161.2005.2005,0,0,1,.10693-.24449,4.084,4.084,0,0,0,1.14124-.6858,2.63227,2.63227,0,0,0,.75952-1.05993,3.81866,3.81866,0,0,0-.01453-2.618l-.00269-.00777a.17024.17024,0,0,1,.09693-.21226,3.1814,3.1814,0,0,0,1.29577-.8817,2.27347,2.27347,0,0,0,.5116-1.44113,3.18561,3.18561,0,0,0-1.49414-2.66249c-1.83606-1.2701-3.58984-2.63608-5.34643-4.00138-1.7439-1.38159-3.49646-2.74833-5.2035-4.18148-.21142-.18218-.42273-.36471-.62866-.56092a2.6084,2.6084,0,0,0-.65271-.43886,6.07219,6.07219,0,0,0-1.56079-.4524,16.85484,16.85484,0,0,0-3.29065-.18927l-.01721-.00016a62.6856,62.6856,0,0,1-7.72827-.83,13.30887,13.30887,0,0,1-1.90442-.49513,3.43972,3.43972,0,0,1-.91553-.47283l-.79809-.5095c-1.08594-.666-2.23023-1.31912-3.2992-2.04379a130.69194,130.69194,0,0,1-12.31653-9.46328l.02527.01982c-3.78882-2.62445-7.54541-5.28446-11.39-7.81306-3.84522-2.52751-7.76038-4.95044-11.77954-7.1909-4.01221-2.25006-8.13062-4.3197-12.32276-6.20806l-12.76086-5.305a.03625.03625,0,0,1,.0271-.06725Z"/><path d="M424.04982,216.36c1.129.79576,2.22083,1.62821,3.31958,2.44719,1.10535.80809,2.19153,1.64282,3.31922,2.384.28247.17893.56311.36513.85046.5154.28064.15861.55054.245.93311.4254a6.84631,6.84631,0,0,1,1.66308,1.36441,16.547,16.547,0,0,1,2.40857,3.38489,34.79124,34.79124,0,0,0-2.79968-2.98748,7.722,7.722,0,0,0-1.58325-1.15014l-.43982-.17888a4.22548,4.22548,0,0,1-.50952-.23018c-.32422-.164-.61988-.352-.9198-.53735a31.25138,31.25138,0,0,1-3.272-2.559A39.06093,39.06093,0,0,1,424.04982,216.36Z"/><path d="M421.23537,219.786c1.07849,1.05743,2.15222,2.10629,3.2721,3.09468a24.13974,24.13974,0,0,0,3.52685,2.67964,8.24269,8.24269,0,0,0,.95715.49806l1.04859.40056a7.18394,7.18394,0,0,1,1.97485,1.262,9.443,9.443,0,0,1,2.55628,3.76338,12.46222,12.46222,0,0,0-1.32068-1.81149,9.59815,9.59815,0,0,0-1.59009-1.52146,7.83571,7.83571,0,0,0-1.87537-1.05528l-1.06726-.38451a8.71259,8.71259,0,0,1-1.05029-.52664,17.63319,17.63319,0,0,1-3.54285-2.90249A26.16967,26.16967,0,0,1,421.23537,219.786Z"/><path d="M417.92116,225.05324a11.51246,11.51246,0,0,1,2.67029,1.53822,21.52754,21.52754,0,0,1,2.3269,2.02,25.7041,25.7041,0,0,1,2.0387,2.30175,21.56707,21.56707,0,0,1,1.72315,2.5439c-1.47168-1.43226-2.84046-2.91345-4.2732-4.33267q-1.064-1.07318-2.17419-2.09845C419.48269,226.354,418.74147,225.66675,417.92116,225.05324Z"/><path d="M335.71218,228.01852l1.65368,2.15607a.05629.05629,0,0,1-.01062.07665l-11.67981,9.411-.11853-.52595a23.59711,23.59711,0,0,1,7.93848,3.98835,30.19459,30.19459,0,0,1,6.23218,6.33277,36.73717,36.73717,0,0,1,4.3905,7.72734,42.32916,42.32916,0,0,1,1.55542,4.15864,23.36912,23.36912,0,0,0,1.71472,3.92087,31.75863,31.75863,0,0,0,11.7312,12.31534,33.16366,33.16366,0,0,0,7.95435,3.21152,33.656,33.656,0,0,0,25.07556-2.86051,62.99588,62.99588,0,0,0,7.47388-4.429c1.19055-.82562,2.38257-1.70529,3.63952-2.50265q1.88215-1.19856,3.85853-2.21106a58.174,58.174,0,0,1,8.17785-3.4139,35.05449,35.05449,0,0,0,4.04663-1.55472,24.56305,24.56305,0,0,0,3.70923-2.194,33.64169,33.64169,0,0,0,6.30017-5.94227,52.19079,52.19079,0,0,0,5.01819-7.14453l-.00708.20337L429.171,237.44257l5.58984,11.10936a.21167.21167,0,0,1-.00317.19673l-.00391.007c-2.83569,5.12249-6.37671,10.0245-11.184,13.581a25.47664,25.47664,0,0,1-3.80285,2.34554,35.9845,35.9845,0,0,1-4.12061,1.67462,57.026,57.026,0,0,0-7.96423,3.49944c-1.27588.68933-2.53674,1.40321-3.74585,2.18957-1.213.77963-2.37476,1.64789-3.58582,2.49938a64.24162,64.24162,0,0,1-7.60742,4.57153,43.21529,43.21529,0,0,1-8.308,3.22626,32.67078,32.67078,0,0,1-8.88428,1.10534,36.61909,36.61909,0,0,1-17.12122-4.701,33.05766,33.05766,0,0,1-12.1427-12.89546,24.10215,24.10215,0,0,1-1.77136-4.13267,41.25711,41.25711,0,0,0-1.44507-4.09546,35.68125,35.68125,0,0,0-4.12793-7.5921,26.92325,26.92325,0,0,0-13.51489-10.31337l-.03088-.00985a.29482.29482,0,0,1-.08777-.51628l11.97815-9.02824-.0105.07635Z"/><path d="M337.32131,230.20747c1.9956-1.53494,4.03589-3.00416,6.083-4.46341,2.046-1.46064,4.12878-2.86738,6.19128-4.30371,2.09558-1.38778,4.17358-2.80145,6.28565-4.16494,2.1123-1.36293,4.23107-2.7165,6.39526-4.00313-1.995,1.5359-4.0354,3.00488-6.08228,4.46448-2.04712,1.459-4.12841,2.8679-6.192,4.30265-2.09668,1.3862-4.17322,2.802-6.28626,4.16388C341.60378,227.56659,339.48488,228.91991,337.32131,230.20747Z"/><path d="M325.49221,239.42723A130.33813,130.33813,0,0,0,309.12087,252.413a77.32292,77.32292,0,0,0-13.42212,15.831,38.60035,38.60035,0,0,0-4.24292,9.36178,26.34412,26.34412,0,0,0-.96277,5.01182c-.1084,1.72338-.17969,3.4616-.26282,5.19244-.15417,6.9577-.01355,13.93548.15284,20.90823.28845,13.9516.92431,27.90039,1.50854,41.85022l1.85327,41.85446c-.61535-6.95755-1.10461-13.924-1.63086-20.88855L290.778,350.62506q-1.22277-20.91761-1.84253-41.87216c-.1228-6.98856-.22045-13.97809-.02136-20.98309.095-1.75525.17761-3.50663.29993-5.26535a27.615,27.615,0,0,1,1.04077-5.24961,37.148,37.148,0,0,1,4.50147-9.5973,77.75874,77.75874,0,0,1,13.88891-15.76691q3.94245-3.4731,8.16309-6.59644C319.61293,243.20694,322.499,241.22771,325.49221,239.42723Z"/><path d="M356.024,276.335a111.63012,111.63012,0,0,0-14.87281,7.41608,62.51543,62.51543,0,0,0-6.83813,4.65234,30.11465,30.11465,0,0,0-5.76123,5.78284,14.8293,14.8293,0,0,0-1.89,3.50964,9.72848,9.72848,0,0,0-.52783,3.84265c.19226,2.7468.53931,5.49878.85571,8.257.66138,5.51328,1.243,11.07337,1.38294,16.66245a99.12649,99.12649,0,0,1-1.09961,16.72333c-.18836,1.38589-.49292,2.75305-.73389,4.13-.26465,1.37283-.61792,2.72711-.92285,4.09113-.65991,2.69973-1.339,5.37677-1.94214,8.08215-1.21081,5.40445-2.1897,10.863-2.89282,16.36072-.36877,2.74676-.65906,5.50464-.89636,8.27011-.11707,1.38226-.22217,2.76578-.29346,4.15072a28.241,28.241,0,0,0-.01379,4.1568,51.07646,51.07646,0,0,1-.076-8.33279c.1289-2.77646.31164-5.55408.57373-8.32562.56274-5.53873,1.423-11.04749,2.50781-16.51084.53052-2.7323,1.16272-5.45349,1.8158-8.14993.28967-1.34824.62817-2.68628.87817-4.042.22644-1.36.51672-2.70938.69128-4.07715a98.29511,98.29511,0,0,0,.95655-16.4957c-.09485-5.52026-.62574-11.02759-1.24378-16.54535-.29455-2.76141-.62182-5.5253-.79577-8.3218a10.72944,10.72944,0,0,1,.6405-4.34009,15.96619,15.96619,0,0,1,2.1322-3.75385,31.08992,31.08992,0,0,1,6.09729-5.84582,61.46944,61.46944,0,0,1,7.04187-4.54236c2.44092-1.35037,4.9419-2.57974,7.48218-3.71463C350.81728,278.28561,353.39711,277.241,356.024,276.335Z"/><path d="M376.47219,282.73886a156.45507,156.45507,0,0,0,13.843,16.0773,112.51935,112.51935,0,0,0,16.04687,13.754c5.78918,3.95889,12.103,7.32471,18.92712,8.78375a29.50328,29.50328,0,0,0,10.32508.4238l2.541-.49155c.8451-.21817,1.68763-.44775,2.52381-.70446,1.67224-.51273,3.32373-1.10315,4.95605-1.74662a126.86034,126.86034,0,0,0,18.8263-9.55255c6.057-3.63391,11.8966-7.62811,17.687-11.69119,5.77917-4.08167,11.44006-8.33566,17.04956-12.65909l8.42517-6.47787,4.23047-3.22025c.71374-.5256,1.4303-1.04791,2.16015-1.55188.36609-.25034.73255-.50035,1.11133-.73175a3.69591,3.69591,0,0,1,1.19861-.55824,3.67506,3.67506,0,0,0-1.16895.60429c-.36743.24576-.72253.5101-1.077.77458-.70667.53231-1.4,1.08278-2.09058,1.63652l-4.12512,3.34751-8.22461,6.7355c-5.52539,4.44049-11.11987,8.80133-16.837,13.00531q-8.55908,6.32895-17.655,11.91477a127.63256,127.63256,0,0,1-18.98182,9.77246c-1.66723.64538-3.35766,1.23822-5.07568,1.75335-.85913.25794-1.72693.48886-2.59851.70792l-2.6792.50168a30.85013,30.85013,0,0,1-10.79529-.5043,44.87967,44.87967,0,0,1-10.12671-3.62,61.98674,61.98674,0,0,1-9.1643-5.54346C394.18312,305.06714,384.56386,294.35071,376.47219,282.73886Z"/><path d="M420.02517,264.01685a37.55841,37.55841,0,0,0,7.40222,9.35293c2.91638,2.64722,6.51721,4.68491,10.39367,4.95038a13.42572,13.42572,0,0,0,2.87586-.12833,9.59389,9.59389,0,0,0,2.72851-.75247,13.35372,13.35372,0,0,0,2.48694-1.45355c.82923-.57739,1.66992-1.13637,2.5149-1.68893a99.10981,99.10981,0,0,1,10.53015-5.99775,59.83657,59.83657,0,0,1,11.41687-4.161c3.87378-.9737,7.68286-2.18532,11.47741-3.44469a220.21506,220.21506,0,0,0,22.208-9.17615c-3.51221,1.946-7.07507,3.80587-10.70508,5.54222q-5.46936,2.54674-11.12793,4.68409a119.82275,119.82275,0,0,1-11.519,3.67109,58.80742,58.80742,0,0,0-11.1239,4.1899,97.74788,97.74788,0,0,0-10.44446,5.8c-.84033.53659-1.67688,1.07981-2.50061,1.6402a14.63962,14.63962,0,0,1-2.72,1.54452,12.81483,12.81483,0,0,1-6.1925.83683,18.54069,18.54069,0,0,1-10.78186-5.54071,35.91633,35.91633,0,0,1-6.91919-9.86856Z"/><path d="M210.84816,380.03949a56.68724,56.68724,0,0,1-5.133,16.16141,52.684,52.684,0,0,1-9.93555,14.10769,39.609,39.609,0,0,1-6.91186,5.513c-.63282.39258-1.26563.78815-1.93018,1.13358-.65332.3652-1.31567.717-2.00195,1.02634-.67823.32467-1.37378.61364-2.08228.87677a22.58677,22.58677,0,0,1-2.1438.74261,30.5389,30.5389,0,0,1-9.01684,1.35413,29.8643,29.8643,0,0,1-8.91773-1.45121,46.25547,46.25547,0,0,1-15.66015-7.77121c-.57081-.46035-1.1814-.86245-1.71314-1.36892l-1.60278-1.49973a32.698,32.698,0,0,1-2.96631-3.20678,17.53492,17.53492,0,0,1-1.32691-1.7259l-1.2666-1.767c-.73877-1.24451-1.4624-2.49994-2.13086-3.77372a47.19173,47.19173,0,0,1-4.53222-16.51181l-.2041-2.13992c-.03516-.71414-.033-1.42911-.051-2.14453l-.0647-2.149c-.00586-.71606.04663-1.42877.06739-2.14456a40.68091,40.68091,0,0,1,1.00659-8.6459,45.66164,45.66164,0,0,1,7.22876-15.9314,60.4684,60.4684,0,0,1,12.12622-12.63315,65.81745,65.81745,0,0,1,15.13965-8.93448,50.57579,50.57579,0,0,1,8.48681-2.71161,43.26043,43.26043,0,0,1,8.9751-1.117,24.13417,24.13417,0,0,1,9.384,1.66772,23.48721,23.48721,0,0,1,7.90064,5.29053c.57275.53879,1.05347,1.15,1.57934,1.7226.49414.59555.9524,1.2146,1.42017,1.82418.41284.64368.84351,1.27659,1.22949,1.92911.36377.66348.76221,1.30957,1.09009,1.98441a41.29092,41.29092,0,0,1,3.10986,8.29907,70.53392,70.53392,0,0,1,2.04517,17.08878A109.84843,109.84843,0,0,1,210.84816,380.03949Zm-.57373-.08478a63.027,63.027,0,0,0-3.92724-32.68338,35.65269,35.65269,0,0,0-8.624-12.93963,19.92433,19.92433,0,0,0-6.1936-3.75251,19.1125,19.1125,0,0,0-7.14087-1.05993,46.1608,46.1608,0,0,0-15.3125,3.26129,63.40286,63.40286,0,0,0-14.08569,7.68164,62.64357,62.64357,0,0,0-11.71143,11.05762,44.50489,44.50489,0,0,0-7.88891,13.9804,34.25475,34.25475,0,0,0-1.61255,7.96878c-.06934.68573-.1709,1.372-.2146,2.05954l-.08106,2.06559c-.01391.68911-.04834,1.38009-.04614,2.06933l.10352,2.06342A37.50408,37.50408,0,0,0,137.7654,397.523a31.06016,31.06016,0,0,0,11.17944,11.58524,47.69533,47.69533,0,0,0,15.01734,5.71746c10.2539,2.72956,20.81079-.727,29.38159-7.29437a46.19407,46.19407,0,0,0,11.072-12.05417A39.92,39.92,0,0,0,210.27443,379.95471Z"/><path d="M204.16011,319.74189c-.02.48-.04.95-.06006,1.43-.1001,2.61-.15015,5.25-.2002,7.91-.05981,2.66-.09985,5.35-.22,8.09a38.91892,38.91892,0,0,1-1.53-3.81c-.47-1.28-.86987-2.58-1.23-3.9a63.34369,63.34369,0,0,1-1.7-8.01,59.86433,59.86433,0,0,1-.61011-6.58,68.726,68.726,0,0,1-7.68994,5.3,85.77151,85.77151,0,0,1-8.31006,4.41,65.40251,65.40251,0,0,1-8.7998,3.41c2.28-2.21,4.62988-4.24,6.98-6.26,2.3501-2,4.71-3.97,7.05-5.91,2.32983-1.95,4.6499-3.89,6.82007-5.86,1.07983-.99,2.11987-2,3.0498-3,.41016-.45.8-.92,1.14014-1.36a6.426,6.426,0,0,1,1.73-.54,3.7211,3.7211,0,0,1,4.21,3.77,54.49261,54.49261,0,0,1-.72,8.62A4.93358,4.93358,0,0,0,204.16011,319.74189Z"/><path d="M144.68752,408.2207a.36218.36218,0,0,1-.36231-.3623V346.15918a.36231.36231,0,0,1,.72461,0V407.8584A.36218.36218,0,0,1,144.68752,408.2207Z"/><path d="M163.147,417.61426a.36218.36218,0,0,1-.3623-.36231V332.14551a.36231.36231,0,1,1,.72461,0V417.252A.36218.36218,0,0,1,163.147,417.61426Z"/><path d="M180.99025,417.61426a.36218.36218,0,0,1-.3623-.36231V326.62109a.36231.36231,0,0,1,.72461,0V417.252A.36218.36218,0,0,1,180.99025,417.61426Z"/><path d="M199.48781,404.26758a.36218.36218,0,0,1-.3623-.36231V332.14551a.36231.36231,0,1,1,.72461,0v71.75976A.36218.36218,0,0,1,199.48781,404.26758Z"/><path d="M208.59377,348.30566H143.13723a.36231.36231,0,1,1,0-.72461h65.45654a.36231.36231,0,0,1,0,.72461Z"/><path d="M211.3926,366.50684H133.56691a.36231.36231,0,0,1,0-.72461H211.3926a.36231.36231,0,0,1,0,.72461Z"/><path d="M208.86037,385.75293h-75.9375a.36231.36231,0,0,1,0-.72461h75.9375a.36231.36231,0,1,1,0,.72461Z"/><path d="M200.4048,403.15234H139.97756a.36231.36231,0,1,1,0-.72461H200.4048a.36231.36231,0,1,1,0,.72461Z"/><path d="M285.45363,397.5322a17.04949,17.04949,0,0,1,1.13526-3.59876,7.36721,7.36721,0,0,1,2.27685-3.0379l.40515-.274.458-.18109a2.87719,2.87719,0,0,1,.96155-.20212,4.09262,4.09262,0,0,1,1.9043.3902,5.75544,5.75544,0,0,1,2.78942,2.62012,14.18194,14.18194,0,0,0,4.594,5.77615,9.64081,9.64081,0,0,0,13.20154-1.98856c1.46216-1.978,3.16882-4.17227,5.77148-4.97363a4.41816,4.41816,0,0,1,3.85706.65122,5.14043,5.14043,0,0,1,1.86,3.42407,17.68044,17.68044,0,0,1-.864,7.58044l.00989-.04266a20.108,20.108,0,0,0,.2539,6.55289,10.33118,10.33118,0,0,0,1.183,3.04022,12.51,12.51,0,0,1,1.27966,3.11835,10.48036,10.48036,0,0,1-.37061,6.63565,8.18908,8.18908,0,0,1-4.54736,4.74652,10.13909,10.13909,0,0,1-3.306.60745,15.90585,15.90585,0,0,1-3.33728-.36588,14.3906,14.3906,0,0,1-1.62744-.40609,16.19417,16.19417,0,0,1-1.59741-.51514c-.53479-.179-1.04944-.39294-1.56116-.56155a15.75741,15.75741,0,0,0-1.59778-.40055,42.31431,42.31431,0,0,0-13.21423.00025c-1.09619.15921-2.19422.30414-3.282.51761-1.09252.18426-2.17858.40246-3.25952.64776-2.16333.4639-4.342.98465-6.53247,1.38184a93.79585,93.79585,0,0,1-13.28418,1.56113A38.32695,38.32695,0,0,1,255.69,428.7886a17.21879,17.21879,0,0,1-3.10449-1.40551,11.788,11.788,0,0,1-2.64575-2.19867,9.3104,9.3104,0,0,1-1.69654-3.0094,11.37092,11.37092,0,0,1-.5271-3.39731l.03516.15622a3.93452,3.93452,0,0,1,.23682-3.02118,7.8713,7.8713,0,0,1,1.77783-2.3056,19.39867,19.39867,0,0,1,4.78564-3.04026c3.44165-1.50543,6.84156-2.90869,10.27027-4.3688Q275.07973,401.84233,285.45363,397.5322Zm.05664.04513Q275.356,402.1016,265.065,406.60345c-3.40942,1.5066-6.8811,2.9936-10.25024,4.51764a18.79116,18.79116,0,0,0-4.58008,2.98377,7.19378,7.19378,0,0,0-1.594,2.11,3.34,3.34,0,0,0-.23,2.40622l.00806.02192a.44483.44483,0,0,1,.0271.13467,10.64927,10.64927,0,0,0,.49609,3.16351,8.56877,8.56877,0,0,0,1.56226,2.75833,11.0406,11.0406,0,0,0,2.46753,2.03931,16.479,16.479,0,0,0,2.96265,1.33191,28.51073,28.51073,0,0,0,6.4392,1.26663,52.59021,52.59021,0,0,0,6.61426.17252,93.12309,93.12309,0,0,0,13.19287-1.47693c2.18946-.37073,4.342-.85779,6.53089-1.3,1.09021-.23355,2.18567-.43994,3.28772-.61227,1.0968-.20142,2.205-.33432,3.3103-.4812a43.4292,43.4292,0,0,1,13.3468.14438,16.08188,16.08188,0,0,1,1.63074.42382c.54224.18445,1.05249.40259,1.57092.5799a15.90636,15.90636,0,0,0,1.57007.5209,14.12287,14.12287,0,0,0,1.60205.41425,15.62922,15.62922,0,0,0,3.27393.38779,9.89186,9.89186,0,0,0,3.22253-.56315,7.70342,7.70342,0,0,0,4.38941-4.623,10.18081,10.18081,0,0,0,.29089-6.45157,12.15844,12.15844,0,0,0-1.27661-3.01788,10.734,10.734,0,0,1-1.25855-3.13428,20.42388,20.42388,0,0,1-.32873-6.70969l.00488-.02523.00525-.01783a17.21929,17.21929,0,0,0,.77344-7.33835,4.58077,4.58077,0,0,0-1.66309-3.04174,3.81017,3.81017,0,0,0-3.34106-.52631,7.83907,7.83907,0,0,0-3.04114,1.91861,21.91742,21.91742,0,0,0-2.43042,2.84,10.17434,10.17434,0,0,1-13.93689,1.98141,14.59032,14.59032,0,0,1-4.66919-5.96805,5.388,5.388,0,0,0-2.59168-2.48553,3.91859,3.91859,0,0,0-1.74877-.40048,2.58711,2.58711,0,0,0-.88074.16263l-.42627.15438-.384.24756a7.16384,7.16384,0,0,0-2.27283,2.89221A17.627,17.627,0,0,0,285.51027,397.57733Z"/><path d="M296.44118,405.20889a22.42316,22.42316,0,0,0-4.89-4.6484,20.1393,20.1393,0,0,0-2.879-1.65281c-1.009-.50351-2.08032-.87439-3.19019-1.35293a9.49664,9.49664,0,0,1,3.57862.29046,10.63385,10.63385,0,0,1,5.91919,4.07642A7.97667,7.97667,0,0,1,296.44118,405.20889Z"/><path d="M277.8445,400.89859a13.75859,13.75859,0,0,1,3.33252,1.19012,17.08463,17.08463,0,0,1,3.01074,1.87784,11.008,11.008,0,0,1,2.47583,2.64206,5.591,5.591,0,0,1,.75953,1.70362,2.98926,2.98926,0,0,1-.09473,1.82986,5.20743,5.20743,0,0,0-1.5625-2.84528,23.4647,23.4647,0,0,0-2.47559-2.19238C281.53542,403.70575,279.65651,402.43356,277.8445,400.89859Z"/><path d="M269.82009,404.3811a11.3211,11.3211,0,0,1,3.48486.95057,13.27244,13.27244,0,0,1,3.12647,1.87738,10.38738,10.38738,0,0,1,2.427,2.79681,6.58773,6.58773,0,0,1,.88281,3.553,14.24382,14.24382,0,0,0-1.81543-2.91281,19.45524,19.45524,0,0,0-2.40845-2.31238C273.7737,406.90524,271.82424,405.71851,269.82009,404.3811Z"/><path d="M248.08107,418.77759a4.71814,4.71814,0,0,1,.59546-1.75662,2.53466,2.53466,0,0,1,1.45362-1.20551,3.165,3.165,0,0,1,1.91821.09775,4.98481,4.98481,0,0,1,1.70239.89355,6.116,6.116,0,0,1,1.3042,1.42887,13.22766,13.22766,0,0,1,.86182,1.67184,9.68372,9.68372,0,0,0,2.16137,2.78836,13.07444,13.07444,0,0,0,6.40357,2.892,27.777,27.777,0,0,0,7.198.17551l-.06641.00927q6.52076-1.27487,13.10449-2.09826c2.2-.25809,4.40772-.47428,6.63159-.60169l1.67322-.065,1.68555.01187c.56384.01511,1.13647.07468,1.70337.111.561.08332,1.19958.1998,1.70105.29975a32.93282,32.93282,0,0,0,6.43518.51477,62.48061,62.48061,0,0,0,6.55054-.36389,59.60733,59.60733,0,0,0,6.48181-1.05539,23.26857,23.26857,0,0,0,3.14245-.93961,9.2985,9.2985,0,0,0,2.85608-1.59088,14.066,14.066,0,0,1-5.87475,2.99054,45.35371,45.35371,0,0,1-6.50061,1.41754,63.41856,63.41856,0,0,1-6.63257.62619,29.5416,29.5416,0,0,1-6.7345-.34585,24.347,24.347,0,0,0-6.40857-.21674c-2.17712.13922-4.35754.36679-6.53454.63678-4.35352.54391-8.70606,1.22406-13.02784,1.98709l-.02026.0036-.04639.00571a27.3569,27.3569,0,0,1-7.54223-.364,14.09156,14.09156,0,0,1-6.7815-3.39164,10.50006,10.50006,0,0,1-2.22754-3.11319,16.47179,16.47179,0,0,0-.73608-1.65918,5.53612,5.53612,0,0,0-1.09644-1.36447,4.52038,4.52038,0,0,0-1.49951-.91009,2.82655,2.82655,0,0,0-1.709-.20191A3.346,3.346,0,0,0,248.08107,418.77759Z"/><path d="M315.36656,410.26914c-.53671-2.1084-4.21728-2.99144-8.2208-1.97233s-6.81391,3.55448-6.27721,5.66288,5.03971,4.60812,8.2208,1.97233C312.79325,412.863,315.90326,412.37755,315.36656,410.26914Z"/><path d="M525.64455,277.3905a17.04629,17.04629,0,0,1-3.6792.83881,7.36566,7.36566,0,0,1-3.77209-.42957l-.44117-.21112-.38769-.3038a2.87474,2.87474,0,0,1-.66028-.72757,4.0918,4.0918,0,0,1-.62561-1.84042,5.75542,5.75542,0,0,1,.85144-3.73108,14.18139,14.18139,0,0,0,2.66284-6.88321,9.64073,9.64073,0,0,0-8.38708-10.387c-2.4458-.26218-5.20166-.62608-7.20838-2.467a4.41823,4.41823,0,0,1-1.38708-3.65746,5.14042,5.14042,0,0,1,2.01477-3.33529,17.68043,17.68043,0,0,1,6.978-3.08507l-.04187.013a20.10984,20.10984,0,0,0,5.52636-3.5304,10.33224,10.33224,0,0,0,2.02564-2.55719,12.51569,12.51569,0,0,1,2.04431-2.68006,10.4805,10.4805,0,0,1,5.91333-3.03339,8.18941,8.18941,0,0,1,6.3938,1.5255,10.138,10.138,0,0,1,2.19482,2.54589,15.90537,15.90537,0,0,1,1.37073,3.06476,14.40193,14.40193,0,0,1,.472,1.60961,16.20229,16.20229,0,0,1,.36267,1.63868c.11572.552.19116,1.10419.30432,1.63094a15.754,15.754,0,0,0,.46167,1.58119,42.31176,42.31176,0,0,0,6.67786,11.40283c.69128.8655,1.37121,1.7397,2.1051,2.57055q1.06659,1.27439,2.20605,2.48539c1.49353,1.6323,3.04395,3.24933,4.49353,4.93878a93.80043,93.80043,0,0,1,8.06006,10.67437,38.32673,38.32673,0,0,1,5.4834,12.22839,17.20975,17.20975,0,0,1,.356,3.38931,11.785,11.785,0,0,1-.56031,3.394,9.31088,9.31088,0,0,1-1.73962,2.9848,11.36639,11.36639,0,0,1-2.66528,2.17157l.11706-.10932a3.93464,3.93464,0,0,1-2.72668,1.32233,7.87308,7.87308,0,0,1-2.88794-.36893,19.39876,19.39876,0,0,1-5.04187-2.59347c-3.03821-2.209-5.96729-4.43384-8.95984-6.65482Q534.606,284.16445,525.64455,277.3905Zm.01025-.07174q9.03534,6.47611,18.12049,13.08154c3.02295,2.18075,6.06042,4.42517,9.07812,6.56244a18.7916,18.7916,0,0,0,4.88916,2.44436,7.19771,7.19771,0,0,0,2.62647.30939,3.33947,3.33947,0,0,0,2.1925-1.01752l.01477-.01815a.44569.44569,0,0,1,.10254-.0914,10.64138,10.64138,0,0,0,2.47925-2.02674,8.57312,8.57312,0,0,0,1.59082-2.74182,11.04894,11.04894,0,0,0,.51282-3.15988,16.47736,16.47736,0,0,0-.34778-3.22958,28.5137,28.5137,0,0,0-2.16089-6.19657,52.57743,52.57743,0,0,0-3.19348-5.79477,93.11933,93.11933,0,0,0-7.94128-10.63813c-1.42627-1.70206-2.93433-3.31353-4.422-4.97889q-1.12866-1.23405-2.18982-2.52769c-.728-.84465-1.40259-1.73369-2.08789-2.61333a43.427,43.427,0,0,1-6.62-11.59024,16.06316,16.06316,0,0,1-.45837-1.62147c-.11487-.56107-.18445-1.11159-.29346-1.64858a15.881,15.881,0,0,0-.34387-1.61809,14.1107,14.1107,0,0,0-.452-1.59173,15.62969,15.62969,0,0,0-1.31982-3.02117,9.89213,9.89213,0,0,0-2.11438-2.49626,7.70382,7.70382,0,0,0-6.2074-1.4516A10.181,10.181,0,0,0,521.395,232.652a12.16455,12.16455,0,0,0-1.95911,2.62668,10.73409,10.73409,0,0,1-2.0686,2.66986,20.42551,20.42551,0,0,1-5.6239,3.67424l-.02417.00859-.01807.0045a17.21958,17.21958,0,0,0-6.72339,3.04078,4.581,4.581,0,0,0-1.7843,2.97224,3.81027,3.81027,0,0,0,1.23413,3.14908A7.83946,7.83946,0,0,0,507.62,252.4527a21.913,21.913,0,0,0,3.679.66211,10.17459,10.17459,0,0,1,8.75256,11.02534,14.59105,14.59105,0,0,1-2.79052,7.04492,5.38805,5.38805,0,0,0-.83521,3.49248,3.9189,3.9189,0,0,0,.53809,1.7114,2.5888,2.5888,0,0,0,.58545.67791l.34863.28977.40759.20624a7.16254,7.16254,0,0,0,3.64441.49984A17.62755,17.62755,0,0,0,525.6548,277.31876Z"/><path d="M526.71657,264.02968a22.424,22.424,0,0,0-1.54016,6.56874,20.14239,20.14239,0,0,0,.02857,3.31963c.07544,1.12513.29675,2.237.4447,3.43659a9.495,9.495,0,0,1-1.55774-3.23487,10.63269,10.63269,0,0,1,.52649-7.16776A7.97732,7.97732,0,0,1,526.71657,264.02968Z"/><path d="M532.39443,282.25534a13.76477,13.76477,0,0,1-.657-3.47711,17.09513,17.09513,0,0,1,.09912-3.54685,11.01024,11.01024,0,0,1,1.02868-3.47172,5.59216,5.59216,0,0,1,1.08643-1.51616,2.98817,2.98817,0,0,1,1.62683-.84308,5.20749,5.20749,0,0,0-1.66565,2.78619,23.46661,23.46661,0,0,0-.64087,3.24421C532.9518,277.65186,532.80349,279.9162,532.39443,282.25534Z"/><path d="M539.45473,287.42017a11.31845,11.31845,0,0,1-.94079-3.48758,13.26621,13.26621,0,0,1,.04016-3.64661,10.38611,10.38611,0,0,1,1.187-3.50772A6.58662,6.58662,0,0,1,542.361,274.221a14.24267,14.24267,0,0,0-1.59619,3.03853,19.46752,19.46752,0,0,0-.77832,3.24683C539.63491,282.73288,539.59609,285.01486,539.45473,287.42017Z"/><path d="M562.86318,298.90436a4.71933,4.71933,0,0,1-1.81677.37369,2.53467,2.53467,0,0,1-1.77491-.64521,3.16519,3.16519,0,0,1-.88488-1.7045,4.98492,4.98492,0,0,1-.08924-1.92068,6.1155,6.1155,0,0,1,.574-1.84735,13.23858,13.23858,0,0,1,1.0072-1.58869,9.68547,9.68547,0,0,0,1.314-3.274,13.07548,13.07548,0,0,0-.74047-6.98734,27.777,27.777,0,0,0-3.48584-6.3l.0415.05259q-4.39527-4.9827-8.43262-10.24775c-1.33447-1.76806-2.63659-3.564-3.87036-5.41861l-.90161-1.411-.84155-1.46053c-.27185-.4942-.50977-1.01835-.7649-1.52595-.21167-.5262-.43383-1.1361-.601-1.61931a32.934,32.934,0,0,0-2.80774-5.81328,62.47512,62.47512,0,0,0-3.62414-5.46867,59.59143,59.59143,0,0,0-4.18616-5.06,23.24919,23.24919,0,0,0-2.3988-2.23688,9.29644,9.29644,0,0,0-2.816-1.6607,14.067,14.067,0,0,1,5.54931,3.55824,45.372,45.372,0,0,1,4.50818,4.89323,63.42351,63.42351,0,0,1,3.892,5.407,29.53846,29.53846,0,0,1,3.10461,5.98613,24.3471,24.3471,0,0,0,3.05152,5.63968c1.22033,1.80833,2.51843,3.57494,3.85156,5.317,2.66931,3.48181,5.45569,6.89413,8.298,10.23788l.01343.01573.02832.03714a27.36047,27.36047,0,0,1,3.49732,6.69231,14.0925,14.0925,0,0,1,.50012,7.56592,10.49836,10.49836,0,0,1-1.56079,3.49533,16.43168,16.43168,0,0,0-1.05982,1.47366,5.53758,5.53758,0,0,0-.62341,1.63556,4.52273,4.52273,0,0,0-.02759,1.75394,2.827,2.827,0,0,0,.68933,1.57663A3.34635,3.34635,0,0,0,562.86318,298.90436Z"/><path d="M521.51965,245.14143c-1.54819,1.52857-.45029,5.15087,2.45223,8.09062s6.51052,4.08373,8.05871,2.55515,1.42975-6.67751-2.45224-8.09062C525.05835,246.05123,523.06783,243.61285,521.51965,245.14143Z"/><path d="M246.6299,230.94041a53.71585,53.71585,0,0,1-3.03442,8.12583c-1.16992,2.64856-2.50293,5.21472-3.83081,7.78354-2.70728,5.10856-5.582,10.12358-8.562,15.073-2.999,4.93707-6.00122,9.8732-9.16626,14.70471l-4.75708,7.23941-4.90308,7.144-.03-.57779a10.803,10.803,0,0,1,1.79028,4.02752,22.48888,22.48888,0,0,1,.61622,4.26474,21.5001,21.5001,0,0,1-.19874,4.29563,12.54323,12.54323,0,0,1-.50634,2.11224,7.04861,7.04861,0,0,1-.46094,1.00919,10.73225,10.73225,0,0,1-.62354.88928,6.97249,6.97249,0,0,0-1.35009,3.79526,5.86507,5.86507,0,0,0,.03881,1.01547c.03882.29968.15088.68713.20337,1.0282a20.78265,20.78265,0,0,1,.26636,2.12671,15.88852,15.88852,0,0,1-.22021,4.28436,6.74279,6.74279,0,0,1-.738,2.06631,3.32525,3.32525,0,0,1-1.77905,1.36255,4.44746,4.44746,0,0,1-4.21582-.90942,4.59567,4.59567,0,0,1-1.44922-4.08157,53.57333,53.57333,0,0,0,.65893-8.40461,4.01667,4.01667,0,0,0-.30981-1.89193,3.39069,3.39069,0,0,0-1.20606-1.39789,3.55567,3.55567,0,0,0-3.58276-.04947,16.27539,16.27539,0,0,0-6.02783,5.37643l-.00879.01187a.5977.5977,0,0,1-1.03369-.11932,43.539,43.539,0,0,1-3.5979-12.37509,16.27022,16.27022,0,0,1,.55493-6.58081,11.25462,11.25462,0,0,1,1.45532-3.04318,12.20346,12.20346,0,0,1,1.02344-1.341l.56958-.61679c.17163-.18887.34009-.35342.50415-.55343a59.92063,59.92063,0,0,0,3.68115-5.06919c1.17359-1.75424,2.3125-3.53766,3.43457-5.33276a71.48359,71.48359,0,0,0,5.8252-11.16834c.8164-1.949,1.48755-3.903,2.21777-5.93035.73438-2.00733,1.53272-3.99324,2.41943-5.94327a53.30992,53.30992,0,0,1,2.98194-5.70589,31.81785,31.81785,0,0,1,1.81787-2.68256c.615-.86874,1.25024-1.66415,1.78564-2.57406a70.71075,70.71075,0,0,0,5.489-11.37938c1.55493-3.938,2.969-7.94261,4.18872-12.00565a.07228.07228,0,0,1,.08935-.05.07375.07375,0,0,1,.05054.08774q-1.58056,6.17621-3.70142,12.204a71.51635,71.51635,0,0,1-5.23217,11.68448,31.723,31.723,0,0,1-1.77881,2.69856A30.74982,30.74982,0,0,0,214.281,248.185a52.13411,52.13411,0,0,0-2.81373,5.62542c-.83691,1.92943-1.58862,3.89913-2.27783,5.89075-.66455,1.98134-1.35083,4.05281-2.17846,6.01962a73.00825,73.00825,0,0,1-5.89429,11.40918c-1.1211,1.8089-2.2605,3.608-3.44068,5.38675a52.965,52.965,0,0,1-3.83422,5.20267c-.17481.20871-.38623.41592-.57447.617l-.51562.54788a10.71607,10.71607,0,0,0-.91724,1.17822,9.80749,9.80749,0,0,0-1.30639,2.66562,14.891,14.891,0,0,0-.55445,6.01532,31.13889,31.13889,0,0,0,1.23731,6.09988,60.59028,60.59028,0,0,0,2.09985,5.93549l-1.04248-.10745a21.68344,21.68344,0,0,1,2.92676-3.235,12.88051,12.88051,0,0,1,3.68017-2.41061,5.87618,5.87618,0,0,1,2.25318-.48987,3.97909,3.97909,0,0,1,2.25073.72659,4.284,4.284,0,0,1,1.48071,1.80914,4.887,4.887,0,0,1,.32862,2.25708,54.64749,54.64749,0,0,1-.85865,8.46708,3.8574,3.8574,0,0,0,4.89991,4.44116,2.83264,2.83264,0,0,0,1.53125-1.15137,6.347,6.347,0,0,0,.68774-1.90057,14.40275,14.40275,0,0,0,.229-4.15338,20.229,20.229,0,0,0-.28344-2.07474c-.05982-.35718-.15625-.64829-.21851-1.04834a6.34044,6.34044,0,0,1-.05493-1.09943,7.49067,7.49067,0,0,1,1.40356-4.09213,7.021,7.021,0,0,0,1.43482-3.782,20.85824,20.85824,0,0,0,.07446-4.16318,21.74716,21.74716,0,0,0-.70972-4.09583,10.03936,10.03936,0,0,0-1.7102-3.62527.48712.48712,0,0,1-.03345-.57306l.00342-.00507,9.386-14.53195c3.07666-4.87706,6.22387-9.70875,9.23925-14.62274,2.99659-4.92387,5.99073-9.84956,8.83326-14.86194,2.75366-5.049,5.61108-10.08914,7.44751-15.55261l.00195-.00516a.07227.07227,0,0,1,.13818.04225Z"/><path d="M361.23281,272.39223q3.47735-3.76741,6.76538-7.68541c2.18738-2.61585,4.33533-5.26306,6.3645-7.99982,2.07214-2.70532,3.98523-5.52409,5.84082-8.37991,1.829-2.87461,3.49365-5.84687,5.0354-8.89986a67.11546,67.11546,0,0,1-4.56055,9.192c-1.76843,2.93444-3.69946,5.76923-5.73657,8.52239-2.08825,2.7144-4.23828,5.38134-6.52429,7.9288A102.35436,102.35436,0,0,1,361.23281,272.39223Z"/><path d="M405.33107,262.85022a45.2189,45.2189,0,0,0-1.20507-6.827,42.20633,42.20633,0,0,0-2.193-6.542c-.40527-1.0778-.9403-2.09749-1.42944-3.13872-.56934-.99872-1.09717-2.02345-1.73218-2.98434a45.15708,45.15708,0,0,0-4.13867-5.55777,30.07021,30.07021,0,0,1,4.604,5.25072,33.01075,33.01075,0,0,1,3.36426,6.15089,37.17814,37.17814,0,0,1,2.06616,6.69749A30.16971,30.16971,0,0,1,405.33107,262.85022Z"/></svg>