<svg width="260" height="324" viewBox="0 0 260 324" fill="none" xmlns="http://www.w3.org/2000/svg">
<path fill-rule="evenodd" clip-rule="evenodd" d="M137.498 128.859C148.834 128.047 164.375 130.295 167.654 143.225C168.671 147.93 170.674 149.996 174.04 153.073C195.405 180.429 120.862 185.027 117.03 158.351C108.957 161.293 100.169 161.916 92.0916 164.888C87.7105 166.508 83.7378 169.062 79.931 171.733C64.4073 182.763 49.1033 194.108 33.6349 205.218C39.6207 207.975 51.0013 218.503 46.364 225.578C45.2837 226.956 43.6802 227.906 42.2617 228.913L41.5138 229.448C39.9046 230.601 37.1958 232.567 35.6979 233.636L35.4217 233.837C35.3134 233.916 35.1912 234.004 35.0808 234.082C45.8829 249.882 58.525 264.459 72.5481 277.475C73.7421 278.585 73.2531 281.068 71.5249 281.357L69.466 281.66C62.8182 282.628 56.044 283.5 49.3448 282.974C42.8202 282.264 38.8885 276.486 34.4282 272.301C25.5214 263.193 17.2302 253.478 9.6782 243.216L9.52095 242.999C7.17054 239.786 4.05081 236.502 3.82249 232.353C3.40608 231.106 4.50193 229.318 5.55489 228.468L5.91436 227.949C11.5618 219.823 17.9534 211.987 25.9612 206.103C25.9314 205.226 26.3366 204.305 27.139 203.724L60.6055 179.495V179.495C69.2405 173.55 77.2663 166.564 86.6259 161.764C96.1963 157.154 106.997 156.973 116.804 153.126C117.012 150.353 122.839 149.645 122.655 150.073C128.804 146.36 131.969 141.943 132.945 137.883C133.922 133.823 132.708 130.121 137.498 128.859ZM220.258 215.844C230.606 200.268 240.47 217.502 244.778 227.889C249.868 242.104 239.327 259.59 232.518 271.845C230.01 275.248 226.711 282.426 222.29 282.947C211.152 282.901 199.998 282.117 188.854 281.883C181.657 280.097 191.754 269.278 198.728 273.23C200.841 274.021 201.897 276.421 203.957 277.191C204.708 277.351 204.76 277.016 205.065 276.268L205.109 276.164C205.653 274.87 206.181 273.568 206.717 272.271C211.255 261.093 216.052 250.013 220.821 238.938C221.84 236.534 220.411 234.552 218.553 233.121C217.131 231.95 211.016 229.091 216.777 230.349C214.559 225.198 217.225 219.969 220.258 215.844ZM194.566 194.521C195.562 194.397 196.842 195.401 196.995 196.374C198.266 204.441 196.85 212.416 195.152 220.306L194.84 221.751C194.214 224.629 193.514 227.563 191.953 230.086C190.359 232.66 187.948 234.6 185.181 235.78C176.302 239.319 165.26 235.819 158.729 229.202C154.551 223.476 158.224 216.283 158.925 210.008C158.262 208.317 158.018 206.361 157.635 204.618L157.588 204.41L156.099 197.906C155.77 196.472 156.815 194.509 158.533 194.706C170.505 196.079 182.607 196.018 194.566 194.521Z" fill="white"/>
<path fill-rule="evenodd" clip-rule="evenodd" d="M236.38 213.807C236.344 213.646 236.536 213.524 236.661 213.644C238.767 215.675 240.255 218.271 241.888 220.676C243.443 222.967 245.135 225.169 246.295 227.697C247.372 230.047 248.067 232.431 248.274 235.014C248.481 237.578 248.213 240.148 247.761 242.673C246.871 247.648 244.97 252.359 242.883 256.935C240.853 261.383 238.56 265.705 236.139 269.948L235.271 271.463C234.212 273.308 233.142 275.148 231.996 276.935C230.57 279.159 229.269 281.454 227.388 283.31C226.053 284.63 223.537 283.31 224.145 281.422C224.409 280.6 224.617 279.826 225.026 279.063C225.337 278.482 225.688 277.918 226.017 277.345C226.676 276.2 227.329 275.05 227.988 273.904C229.372 271.497 230.83 269.134 232.201 266.719C234.58 262.53 236.826 258.262 238.812 253.871L239.045 253.352C240.873 249.285 242.604 245.073 243.407 240.674C244.252 236.039 243.495 231.67 241.85 227.314C240.998 225.061 240.041 222.859 239.046 220.665L238.855 220.246C237.894 218.152 236.875 216.07 236.38 213.807ZM134.095 133.637C134.114 133.555 134.253 133.549 134.266 133.637C134.858 137.573 133.541 141.736 131.397 145.01C130.227 146.798 128.784 148.413 127.083 149.711L126.95 149.811C125.213 151.11 122.866 152.365 120.709 151.522C120.641 151.496 120.578 151.467 120.519 151.433C120.762 151.809 120.986 152.205 121.214 152.6C121.892 153.777 122.5 154.997 123.162 156.184C124.345 158.308 125.754 160.208 127.535 161.872C134.657 168.522 144.657 170.102 154.048 170.026L154.711 170.02C158.836 169.991 164.231 170.202 167.416 167.215C169.127 165.611 170.069 163.33 170.921 161.189C171.758 159.09 172.33 156.924 173.025 154.789C171.574 153.794 170.243 152.579 169.197 151.158C168.107 149.679 167.283 148.014 166.808 146.236L166.737 145.971C166.37 144.553 166 142.678 166.592 141.339C166.66 141.185 166.913 141.195 166.985 141.339C167.304 141.98 167.365 142.702 167.562 143.387C167.79 144.184 168.048 144.976 168.388 145.731C169.045 147.194 169.913 148.584 170.955 149.802C171.815 150.81 172.746 151.735 173.811 152.513C174.439 151.429 175.894 151.283 177.113 151.64C178.747 152.118 180.359 152.731 181.934 153.379L182.249 153.509C183.806 154.155 185.566 154.749 187.024 155.631C187.909 156.053 188.758 156.478 189.557 156.854C193.536 158.724 197.456 160.709 201.359 162.731L202.195 163.165C203.83 164.017 205.45 164.877 206.872 166.065C208.32 167.274 209.443 168.927 210.5 170.476C212.915 174.018 215.19 177.662 217.577 181.223C222.398 188.409 227.219 195.595 232.068 202.764C233.241 204.499 234.563 206.192 235.615 208.001C236.623 209.73 236.596 211.505 236.399 213.435L236.362 213.789C235.986 217.329 235.338 220.728 233.353 223.764C230.228 228.536 225.305 231.507 220.098 233.553C220.734 234.027 221.331 234.538 222.09 234.864C223.256 235.363 224.5 235.621 225.762 235.724C227.108 235.832 228.624 235.496 229.715 236.411C230.152 236.776 230.165 237.656 229.715 238.021C228.667 238.877 227.312 238.632 226.035 238.488L225.958 238.48C224.773 238.349 223.605 238.129 222.491 237.694C222.217 237.586 221.944 237.465 221.68 237.332C221.689 237.356 221.693 237.383 221.689 237.413C221.498 238.869 221.086 240.246 220.651 241.637L220.374 242.519C219.812 244.32 219.246 246.116 218.663 247.912C217.554 251.332 216.345 254.72 215.132 258.103L214.085 261.023C213.01 264.018 211.921 267.009 210.717 269.954C209.974 271.772 209.226 273.589 208.48 275.405C207.751 277.178 207.145 279.093 206.241 280.782C205.497 282.172 203.469 281.177 203.794 279.748C204.221 277.874 205.026 276.014 205.641 274.19C206.266 272.338 206.879 270.485 207.515 268.637C208.62 265.428 209.845 262.262 211.077 259.099L212.297 255.963C213.494 252.891 214.705 249.821 215.999 246.788L216.141 246.456C217.485 243.284 218.874 239.717 221.317 237.259C221.348 237.225 221.393 237.208 221.437 237.203C220.837 236.878 220.275 236.483 219.781 236.016L219.757 235.991C219.561 235.784 218.754 234.764 218.494 234.154C218.156 234.274 217.818 234.39 217.48 234.504C216.891 234.703 216.403 234.559 216.058 234.244L215.402 234.651C214.701 235.079 213.947 235.485 213.172 235.506C212.196 235.532 211.429 234.993 210.908 234.198C210.439 233.488 210.16 232.721 209.566 232.084C208.982 231.459 208.307 230.931 207.616 230.428L206.802 229.835C205.31 228.745 203.863 227.644 202.662 226.205C202.058 225.478 201.248 224.615 200.881 223.742C200.809 223.574 200.765 223.415 200.756 223.261C200.676 223.806 200.593 224.353 200.511 224.899C199.358 232.573 198.426 240.3 198.128 248.06C197.982 251.888 197.917 255.72 198.088 259.549C198.172 261.462 198.312 263.373 198.504 265.279C198.599 266.234 198.698 267.188 198.815 268.139L198.841 268.359C198.875 268.65 198.897 268.932 198.872 269.2C199.801 269.658 200.336 270.817 200.708 271.721C200.991 272.41 200.771 273.08 200.315 273.564C200.86 274.061 201.346 274.644 201.753 275.312C201.836 275.447 201.658 275.553 201.553 275.468C200.883 274.936 200.162 274.498 199.41 274.162C199.015 274.312 198.584 274.352 198.187 274.243C197.756 274.124 197.384 273.837 197.116 273.471C194.98 273.12 192.76 273.549 190.837 274.887C190.438 275.166 190.077 275.481 189.732 275.823C189.673 275.883 189.612 275.959 189.55 276.033L189.97 276.194C190.144 276.26 190.286 276.311 190.341 276.322C190.707 276.397 191.079 276.437 191.45 276.469L192.008 276.515C194.148 276.692 196.281 276.751 198.272 277.647C198.69 277.835 198.544 278.48 198.149 278.588C196.696 278.982 195.254 278.952 193.774 278.846L193.457 278.822C192.081 278.717 190.605 278.723 189.263 278.343C189.584 279.222 189.147 280.37 187.805 280.549C183.777 281.086 179.722 280.833 175.689 280.477C171.616 280.118 167.545 279.778 163.461 279.565C150.251 278.869 137.021 279.003 123.8 279.192L116.328 279.3C110.369 279.384 104.41 279.449 98.4515 279.404L95.6625 279.378C94.4838 279.366 93.3045 279.352 92.1271 279.317L91.4209 279.294C90.0181 279.243 88.1611 279.454 86.942 278.624C85.9364 277.939 85.7125 276.684 86.3188 275.671C86.4941 275.38 86.735 275.12 86.9864 274.866C87.5019 270.46 87.7913 266.032 88.0871 261.606C89.1139 246.118 88.5139 230.711 86.1456 215.379C79.7906 217.322 73.5329 219.759 67.4357 222.373C64.1378 223.787 60.8568 225.254 57.6139 226.792C54.654 228.198 51.6815 229.954 48.5188 230.867C48.2313 231.122 47.8293 231.244 47.4728 231.131L47.4265 231.114H47.4244C47.0991 231.19 46.7378 231.144 46.3829 230.931C46.311 230.887 46.2392 230.843 46.1674 230.798L46.0596 230.73C44.9463 230.028 43.8265 229.164 43.0385 228.107C42.0815 228.995 41.0526 229.808 40.0406 230.633C38.942 231.529 37.8477 232.429 36.7618 233.338C36.3308 233.699 35.8554 234.044 35.4751 234.46L35.4199 234.521C35.411 234.531 35.4026 234.541 35.3949 234.551C37.0406 235.616 38.4815 237.233 39.7723 238.638C41.1584 240.147 42.4967 241.703 43.8239 243.266L45.1088 244.782C54.1946 255.515 63.3734 266.637 75.1364 274.526C76.9956 275.773 75.223 278.81 73.3765 277.535C69.8822 275.128 66.5758 272.454 63.4005 269.641C57.8357 264.715 52.8287 259.188 48.1406 253.429C45.7681 250.514 43.4653 247.528 41.2089 244.522L40.4431 243.503C39.4226 242.143 38.4075 240.779 37.4357 239.385L37.2324 239.092C36.3799 237.862 35.4734 236.479 34.9237 235.062C34.7125 235.276 34.4737 235.455 34.1251 235.591C33.5294 235.823 32.7984 235.335 32.6526 234.754C32.2977 233.344 33.523 232.505 34.5202 231.757C35.7308 230.852 36.9646 229.979 38.2005 229.111L38.642 228.799C40.1875 227.702 41.7411 226.577 43.4251 225.71C43.4758 225.643 43.5371 225.579 43.6068 225.524C43.6871 225.461 43.7653 225.399 43.8456 225.338C41.8343 222.075 39.6287 218.938 37.1674 215.975C35.3167 213.746 33.3519 211.617 31.273 209.601L30.3391 208.696C28.9265 207.332 27.4577 205.947 25.8899 204.761L25.3991 205.318C24.7438 206.059 24.0819 206.795 23.3822 207.492C22.0047 208.861 20.6463 210.259 19.2941 211.655C17.0487 213.98 14.8793 216.375 12.7167 218.774L11.6357 219.974C9.38359 222.474 6.97091 224.928 4.92373 227.599L4.82149 227.735C3.92773 228.934 3.29151 230.261 3.70682 231.784C4.10755 233.253 5.0603 234.555 5.88151 235.823L5.96316 235.95C9.31598 241.175 12.9075 246.266 16.7547 251.138C24.4596 260.896 33.2484 270.144 43.7357 276.929C45.1892 277.869 43.8308 280.207 42.3751 279.256C36.2505 275.251 30.6244 270.441 25.4484 265.275C20.697 260.534 16.3913 255.314 12.3561 249.956C10.3892 247.342 8.50471 244.673 6.69837 241.944C4.94697 239.296 2.92091 236.572 1.65119 233.651C0.98575 232.114 0.740627 230.451 1.2857 228.832C1.78557 227.344 2.77414 226.108 3.80256 224.946L3.89908 224.837C6.26316 222.181 8.6695 219.556 11.097 216.956C13.5329 214.348 16.0808 211.833 18.6815 209.392C20.7244 207.471 22.854 205.778 25.1315 204.209C24.9265 204.064 24.7216 203.924 24.5125 203.789C23.8765 203.375 23.716 202.489 24.2737 201.927C25.797 200.388 27.5526 199.05 29.2047 197.649C30.7575 196.332 32.3103 195.014 33.8632 193.695C37.0237 191.015 40.1843 188.333 43.3449 185.651C49.0216 180.834 54.6667 175.984 60.3244 171.146C62.6836 169.129 65.0647 167.138 67.4398 165.14L71.6595 161.588V161.588L73.7233 159.854C74.7807 158.968 75.8607 158.092 77.0632 157.417C79.8925 155.827 83.2941 155.139 86.4114 154.296L86.6188 154.24C90.1153 153.283 93.6308 152.382 97.1653 151.579C100.704 150.776 104.258 150.045 107.826 149.383C111.033 148.787 114.316 148.276 117.586 148.2C118.398 147.891 119.416 147.783 120.215 148.113C120.544 148.25 120.889 148.451 121.195 148.705C122.794 148.142 124.372 147.874 125.866 146.923C127.358 145.974 128.678 144.727 129.789 143.353C132.086 140.509 133.288 137.148 134.095 133.637ZM170.858 229.969C169.59 229.88 168.449 230.404 167.317 230.962C167.955 231.239 168.593 231.514 169.231 231.786L173.477 233.6V233.6C174.88 234.198 176.365 234.718 177.698 235.455C177.794 235.508 177.87 235.572 177.927 235.646C179.313 234.758 180.779 233.966 182.184 233.122C182.505 232.93 182.828 232.738 183.151 232.545C181.478 233.105 179.763 233.386 177.946 232.86C175.522 232.161 173.418 230.149 170.858 229.969ZM174.331 225.717L174.103 225.562C172.874 224.718 171.406 223.633 169.913 224.391C169.21 224.749 168.633 225.326 167.94 225.71C167.243 226.099 166.476 226.397 165.698 226.577C164.408 226.875 162.929 226.919 161.541 226.631L161.562 228.508V228.508C162.612 228.942 163.655 229.386 164.699 229.834C165.377 229.602 166.029 229.324 166.715 229.018L167.177 228.811C168.498 228.217 169.831 227.82 171.291 228.008C174.039 228.361 176.116 230.404 178.744 231.085C181.966 231.922 184.873 229.517 187.917 228.923C188.419 228.824 188.937 228.766 189.451 228.757L189.622 228.756L189.698 228.711C190.353 228.327 191.334 227.959 191.79 227.312C192.286 226.611 192.329 225.435 192.491 224.611C192.508 224.529 192.525 224.444 192.54 224.362C192.253 224.362 191.961 224.376 191.665 224.432C190.736 224.603 189.861 224.932 188.995 225.3C187.358 225.996 185.756 226.788 184.032 227.251C182.344 227.705 180.58 227.921 178.841 227.669C177.145 227.424 175.736 226.659 174.331 225.717ZM174.595 219.118L174.341 218.954C173.669 218.525 172.899 218.081 172.076 218.239C171.341 218.381 170.71 218.966 170.069 219.327C168.664 220.12 167.088 220.553 165.481 220.663C164.143 220.754 162.755 220.591 161.469 220.194L161.513 224.349V224.349C161.984 224.499 162.472 224.607 162.986 224.645C164.545 224.761 166.066 224.387 167.374 223.527L168.035 223.088C169.167 222.343 170.23 221.753 171.728 222.024C173.211 222.295 174.455 223.246 175.668 224.074L175.867 224.208C177.259 225.128 178.671 225.721 180.379 225.736C182.224 225.75 184.047 225.237 185.764 224.605C187.469 223.979 189.09 223.229 190.913 222.999C191.471 222.929 192.151 222.908 192.791 223.018C192.876 222.546 192.956 222.077 193.032 221.606C193.197 220.593 193.338 219.583 193.461 218.571C190.226 217.7 187.239 220.517 184.235 221.386C182.492 221.889 180.595 221.883 178.852 221.397C177.239 220.946 175.971 220.012 174.595 219.118ZM174.603 212.12C173.912 211.987 173.23 212.306 172.643 212.634C171.145 213.465 169.852 214.621 168.155 215.058C165.973 215.62 163.586 215.136 161.418 214.217C161.427 215.5 161.437 216.783 161.448 218.066C161.855 218.22 162.274 218.345 162.701 218.444C164.217 218.79 165.825 218.744 167.319 218.306C168.842 217.86 170.01 216.656 171.538 216.28C173.1 215.894 174.572 216.645 175.831 217.498L176.21 217.757C177.648 218.733 179.044 219.582 180.844 219.748C182.748 219.923 184.402 219.327 186.103 218.537L186.499 218.354C188.652 217.364 191.447 216.238 193.596 217.364C193.765 215.766 193.888 214.168 193.97 212.568C193.674 212.458 193.368 212.378 193.015 212.376C192.172 212.372 191.287 212.638 190.501 212.915C188.784 213.522 187.184 214.426 185.484 215.075C183.872 215.692 182.086 216.013 180.367 215.737C178.774 215.481 177.578 214.648 176.477 213.507L176.317 213.338C175.835 212.824 175.318 212.259 174.603 212.12ZM175.865 206.188C175.068 205.767 174.099 205.376 173.177 205.499C172.299 205.615 171.713 206.211 171.172 206.849L170.879 207.198C169.91 208.344 168.957 209.307 167.465 209.779C165.918 210.265 164.279 210.074 162.84 209.362C162.329 209.109 161.853 208.794 161.376 208.483L161.401 211.854V211.854C162.356 212.329 163.328 212.759 164.395 213.019C166.364 213.498 168.037 213.143 169.721 212.057L169.898 211.942C171.166 211.109 172.466 210.117 174.033 210.024C175.562 209.932 176.709 210.78 177.716 211.818L177.834 211.941C179.103 213.28 180.386 213.934 182.275 213.779C184.106 213.63 185.819 212.821 187.497 212.124L187.649 212.061C189.183 211.431 190.951 210.782 192.635 211.023C193.039 211.08 193.561 211.205 194.025 211.423C194.093 209.846 194.125 208.267 194.131 206.687C193.174 205.856 191.684 205.719 190.487 206.059C188.611 206.591 187.075 207.965 185.283 208.711C183.694 209.373 182.038 209.521 180.418 208.895C178.744 208.248 177.432 207.016 175.865 206.188ZM194.025 199.547C191.222 199.644 188.479 201.468 185.803 202.164C182.812 202.94 180.372 201.882 177.708 200.707L177.364 200.556C175.998 199.955 174.529 199.416 173.014 199.661C171.538 199.902 170.232 200.72 168.962 201.46L168.719 201.6C166.406 202.917 164.051 203.819 161.35 203.594C161.365 204.442 161.359 205.287 161.361 206.116C161.805 206.37 162.231 206.657 162.637 206.919L162.783 207.011C164.07 207.817 165.397 208.346 166.932 207.849C168.415 207.367 169.112 206.076 170.131 205.013C171.067 204.036 172.288 203.443 173.657 203.499C175.129 203.558 176.522 204.207 177.738 205C178.955 205.793 180.132 206.817 181.556 207.215C184.75 208.102 187.486 204.723 190.507 204.197C191.775 203.975 193.174 204.256 194.131 205.021C194.12 203.199 194.08 201.373 194.025 199.547ZM169.894 198.782C169.499 198.797 169.104 198.814 168.709 198.831C167.247 198.894 165.785 198.966 164.323 199.048C163.311 199.103 162.067 199.414 161.074 199.105C161.049 199.207 161.015 199.304 160.97 199.399C161.12 200.147 161.213 200.921 161.27 201.703C162.187 201.802 163.119 201.768 164.023 201.58C166.193 201.13 167.955 199.761 169.894 198.782ZM193.983 198.154C188.644 198.522 183.265 198.396 177.917 198.511L177.276 198.526C177.25 198.526 177.225 198.529 177.2 198.529C177.813 198.766 178.421 199.038 179.028 199.316L179.633 199.594C181.066 200.253 182.524 200.792 184.127 200.676C185.845 200.551 187.463 199.849 189.069 199.283C190.6 198.742 192.364 198.378 193.998 198.615C193.993 198.461 193.989 198.309 193.983 198.154Z" fill="black"/>
<path fill-rule="evenodd" clip-rule="evenodd" d="M149.727 53.9492C161.723 53.9492 179.281 61.9629 180.602 69.6728C182.158 78.7587 185.614 112.924 183.732 124.104C181.851 135.285 174.514 143.546 158.289 143.546C142.064 143.546 129.953 134.694 127.173 131.655C124.392 128.616 121.023 119.158 121.023 119.158C121.023 119.158 112.14 117.651 112.098 110.567C112.057 103.483 116.561 101.294 116.561 101.294C116.561 101.294 114.13 71.9058 119.239 64.6271C124.348 57.3483 137.731 53.9492 149.727 53.9492Z" fill="white"/>
<path fill-rule="evenodd" clip-rule="evenodd" d="M185.945 91.3745C186.602 98.516 186.849 105.719 186.976 112.888C187.098 119.681 186.501 126.765 182.632 132.573C179.25 137.654 174.099 141.342 168.363 143.333C165.099 144.468 161.484 144.888 158.037 144.992C156.256 145.045 154.47 144.969 152.7 144.785C152.477 144.762 152.253 144.742 152.029 144.722C150.53 144.588 149.043 144.455 147.95 143.322C147.606 142.965 147.61 142.232 148.12 141.999C149.089 141.558 149.746 141.511 150.809 141.657C151.69 141.777 152.573 141.872 153.46 141.934C155.362 142.067 157.276 142.071 159.177 141.925C162.672 141.657 166.246 140.67 169.419 139.173C174.395 136.823 178.669 132.972 180.976 127.919C183.621 122.133 183.488 115.443 183.364 109.212L183.359 108.957C183.222 102.046 182.966 95.1556 182.366 88.2677C182.139 85.6619 181.815 83.0704 181.491 80.4779C181.399 79.748 181.308 79.0181 181.219 78.2877C181.005 76.5208 180.725 74.7622 180.38 73.0166C180.276 72.4894 180.155 71.9665 180.033 71.4442C179.942 71.0512 179.851 70.6586 179.768 70.2649C179.626 70.2879 179.482 70.3008 179.334 70.3069C178.451 70.3367 177.486 70.1211 176.831 69.4934C176.579 69.6646 176.26 69.7724 175.876 69.7914C173.527 69.9075 171.155 69.8557 168.788 69.8041C167.495 69.776 166.203 69.7478 164.917 69.747C161.267 69.7449 157.614 69.747 153.961 69.7576C153.404 69.7592 152.847 69.7613 152.29 69.7635C149.196 69.7753 146.097 69.7872 143.007 69.7048C142.352 69.6872 141.693 69.6758 141.032 69.6644C138.264 69.6166 135.456 69.568 132.752 69.0665C131.626 73.0695 131.666 77.4677 134.013 81.0437C134.676 82.0519 134.138 83.2396 133.274 83.8695C132.391 84.5122 130.803 85.4977 129.444 85.5989C129.392 85.7173 129.338 85.8354 129.285 85.9533C129.206 86.13 129.126 86.3062 129.049 86.4822C128.401 87.9602 127.817 89.4474 127.408 91.0123C127.197 91.8188 127.016 92.6386 126.863 93.4635C126.876 93.6079 126.889 93.752 126.904 93.8959C126.904 93.9107 126.906 93.9253 126.908 93.9422C126.917 94.0016 126.927 94.0692 126.934 94.1073C126.953 94.2088 126.972 94.3104 126.991 94.4119C127.049 94.7245 127.108 95.0368 127.17 95.3479C127.367 96.3518 127.519 97.3642 127.627 98.3806C127.823 100.241 127.804 102.659 125.991 103.76C125.022 104.349 123.86 104.288 122.835 103.893C122.264 103.672 121.763 103.375 121.247 103.069C121.142 103.007 121.035 102.943 120.927 102.88C120.761 102.783 120.591 102.693 120.421 102.604C120.208 102.492 119.995 102.38 119.791 102.253C119.689 102.189 119.592 102.113 119.501 102.033C118.815 102.179 118.145 102.451 117.769 102.637C116.761 103.138 115.876 103.863 115.124 104.696C113.525 106.469 113.045 108.967 113.269 111.286C113.478 113.444 114.325 115.923 116.03 117.358C116.772 117.983 117.697 118.349 118.675 118.339C119.157 118.334 119.601 118.233 120.065 118.11C120.264 118.058 120.482 118.035 120.7 118.013C120.987 117.983 121.273 117.953 121.513 117.857C122.14 117.605 122.913 118.372 122.658 119.002C122.601 119.142 122.551 119.277 122.503 119.408C122.389 119.719 122.284 120.003 122.114 120.264C123.864 123.121 125.78 125.89 127.819 128.547C129.111 130.229 130.565 131.724 132.025 133.225C132.641 133.858 133.258 134.493 133.865 135.143C134.768 136.111 135.144 138.017 133.51 138.431C132.074 138.799 130.958 137.481 130.072 136.436C129.954 136.296 129.839 136.161 129.729 136.035C125.852 131.624 122.922 126.56 121.55 120.843C120.932 121.283 120.222 121.522 119.474 121.625C117.984 121.83 116.478 121.536 115.172 120.782C110.229 117.926 109.033 110.21 111.348 105.374C111.907 104.21 112.731 103.171 113.737 102.363C113.658 102.212 113.626 102.034 113.677 101.844C113.767 101.509 113.865 101.179 113.968 100.85C113.855 100.8 113.773 100.697 113.789 100.543C113.867 99.7383 113.944 98.9337 114.021 98.1291L114.063 97.6897C114.054 97.2535 114.04 96.8175 114.027 96.3814C113.997 95.3805 113.967 94.3787 113.979 93.3718C113.99 92.3004 114.027 91.2294 114.063 90.1585C114.105 88.9268 114.147 87.695 114.152 86.4627C114.166 82.4717 114.253 78.4827 114.341 74.4937C114.43 70.4514 114.518 66.409 114.53 62.3646C114.543 58.4354 114.551 54.5002 114.448 50.5733C114.446 50.5455 114.446 50.5182 114.445 50.491C114.445 50.4665 114.444 50.4419 114.444 50.4169C114.431 49.935 114.4 49.4281 114.369 48.9078C114.195 46.0354 113.998 42.7565 116.598 41.0349C117.103 40.7012 117.733 40.6969 118.282 40.9125C119.863 39.8114 121.844 39.2807 123.739 38.9742C126.533 38.5231 129.345 38.2526 132.159 37.982C132.982 37.9028 133.805 37.8236 134.628 37.7399C136.525 37.5476 138.522 37.4739 140.431 37.5161C141.425 37.5379 142.425 37.502 143.427 37.4661C144.372 37.4322 145.319 37.3982 146.263 37.4126C148.468 37.4485 150.691 37.5309 152.905 37.7127C152.956 37.7074 153.008 37.7027 153.06 37.6979C153.113 37.6932 153.166 37.6884 153.218 37.6831C156.571 37.3613 159.921 37.5315 163.273 37.7017C164.084 37.7429 164.896 37.7841 165.708 37.8184C169.675 37.9853 173.864 38.3953 177.427 40.2952C177.885 40.5391 178.273 40.8164 178.604 41.1254C179.068 41.1907 179.511 41.3223 179.908 41.5436C181.055 41.3118 182.335 41.8258 182.607 43.1571C183.002 45.1078 183.152 47.0753 182.915 49.0537C182.912 49.0786 182.909 49.1042 182.906 49.1304C182.904 49.153 182.901 49.1761 182.898 49.1996C183.377 51.0349 183.345 53.0394 182.947 54.8496C183.115 57.1368 183.211 59.4306 183.224 61.7206C183.226 62.0671 183.231 62.415 183.236 62.7637C183.254 64.0087 183.272 65.263 183.157 66.4969C183.027 67.8855 182.456 68.9843 181.557 70.0389C181.387 70.2376 181.101 70.2706 180.863 70.2224C180.801 70.2099 180.748 70.193 180.699 70.1729C181.143 71.1241 181.51 72.1228 181.87 73.0997C181.949 73.3164 182.029 73.532 182.108 73.7458C182.806 75.6184 183.482 77.5226 183.961 79.4628C184.933 83.3747 185.573 87.361 185.945 91.3745ZM118.621 109.079C118.42 108.94 118.218 108.801 117.999 108.697C117.972 108.684 116.814 108.308 117.038 108.805C117.114 108.969 116.915 109.153 116.774 109.007C116.372 108.6 116.596 108.109 116.979 107.746C117.669 107.088 118.7 107.24 119.548 107.397C120.726 107.615 121.872 108.13 122.865 108.792C123.934 109.504 125.254 110.491 125.465 111.842C125.657 113.082 124.424 114.45 123.154 113.619C122.467 113.169 121.986 112.499 121.503 111.828C121.159 111.349 120.814 110.869 120.393 110.466C119.896 109.992 119.359 109.576 118.791 109.195C118.734 109.157 118.678 109.118 118.621 109.079Z" fill="black"/>
<path fill-rule="evenodd" clip-rule="evenodd" d="M163.152 128.274C161.732 127.695 160.465 126.728 159.538 125.493C159.216 125.064 159.133 124.61 159.2 124.196C159.276 123.729 159.552 123.307 159.928 123.023C160.305 122.739 160.777 122.599 161.233 122.67C161.63 122.732 162.024 122.949 162.337 123.4L162.402 123.49C162.953 124.235 163.67 124.847 164.488 125.241C165.276 125.621 166.158 125.798 167.07 125.695C168.808 125.499 170.005 124.559 171.278 123.282C171.436 123.121 171.594 122.955 171.752 122.786C171.852 122.633 171.991 122.535 172.146 122.483C172.317 122.426 172.511 122.429 172.689 122.491C172.86 122.551 173.013 122.664 173.116 122.815C173.213 122.958 173.269 123.135 173.251 123.339C173.134 124.662 172.443 125.842 171.461 126.769C170.37 127.799 168.924 128.511 167.563 128.761C166.064 129.036 164.536 128.839 163.152 128.274V128.274ZM168.271 107.866C169.866 108.837 172.297 111.099 170.581 113.504C168.56 115.624 165.652 113.193 164.219 112.093C162.89 111.241 161.396 113.433 162.629 114.428C172.987 122.099 177.19 108.12 169.078 106.726C168.184 106.572 167.853 107.566 168.271 107.866ZM149.711 98.9431C149.887 96.7543 153.219 96.2573 153.551 98.4232C153.847 100.363 153.498 102.146 152.624 103.893C151.79 105.561 149.692 104.783 149.533 103.263C149.32 101.226 149.601 100.305 149.711 98.9431ZM175.076 97.9741C175.541 97.3654 176.212 96.9499 177.015 97.1847C179.526 97.9187 178.786 101.485 177.904 103.221C177.425 104.163 175.876 104.402 175.176 103.572C174.036 102.219 173.489 99.5159 174.94 98.1827C174.979 98.1138 175.023 98.0443 175.076 97.9741ZM152.589 89.3656L152.986 89.2962C154.213 89.0839 155.738 88.8799 156.606 89.8667C157.067 90.39 157.225 91.3627 156.606 91.8636C155.518 92.7449 154.314 92.4033 153.01 92.4779C151.935 92.5397 150.902 92.7176 149.867 93.0137C147.595 93.6632 145.744 94.8489 143.804 96.1508C143.55 96.3216 143.29 95.9959 143.411 95.7577C144.531 93.5632 146.701 91.7606 148.875 90.6618C150.036 90.0753 151.305 89.5888 152.589 89.3656ZM172.787 88.3826L173.091 88.4447C176.395 89.1356 180.687 90.5155 182.251 93.7617C182.311 94.2208 182.248 94.3192 182.197 94.3834L182.18 94.4048C182.137 94.4597 182.104 94.5354 181.905 94.5978C181.85 94.5847 181.794 94.5708 181.737 94.556C181.02 94.368 180.453 94.109 179.904 93.8402L179.308 93.5467C178.617 93.2078 177.92 92.8812 177.181 92.6401C175.605 92.1257 173.983 91.7633 172.337 91.5698C171.98 91.5279 171.636 91.4074 171.365 91.2009C171.108 91.0049 170.911 90.7334 170.821 90.3727C170.705 89.9058 170.739 89.5523 170.989 89.1311C171.177 88.8148 171.447 88.5956 171.756 88.4697C172.071 88.3413 172.43 88.3111 172.787 88.3826Z" fill="black"/>
</svg>
