<svg width="240" height="324" viewBox="0 0 240 324" fill="none" xmlns="http://www.w3.org/2000/svg">
<path fill-rule="evenodd" clip-rule="evenodd" d="M186.455 183.121C183.523 169.222 173.122 158.437 159.135 153.064C156.446 151.543 153.84 145.015 150.226 143.82C149.647 143.628 150.561 145.153 150.226 145.244C149.031 145.569 147.692 145.603 146.373 144.43C144.015 142.333 143.275 136.207 141.841 133.439C134.28 118.837 115.4 124.55 112.871 140.692C111.108 141.842 108.615 142.855 106.695 143.782C104.718 144.736 102.979 147.047 100.942 147.873C99.1244 148.61 96.1294 148.088 94.2979 148.731C85.8737 151.687 78.7388 155.417 73.145 162.975C71.9664 164.569 70.6377 166.529 69.5651 168.139C64.0354 174.507 60.1945 181.645 56.6571 189.303C46.76 211.78 44.0681 236.667 41.6529 260.885C41.7078 265.123 38.8971 276.872 43.0542 278.904C42.8057 279.162 42.8957 279.679 43.3567 279.675C53.8975 279.568 64.4138 280.512 74.791 282.347C79.7979 283.232 84.7779 284.446 89.8779 284.645C100.465 284.572 111.013 282.798 121.586 284.477C134.297 284.477 149.744 284.106 163.884 283.563C177.099 283.054 190.385 284.202 203.437 281.954C204.47 281.79 204.974 280.53 204.758 279.627C203.227 274.045 202.475 268.3 201.616 262.587C201.787 258.923 201.481 255.097 200.126 251.684C196.585 228.643 192.045 205.752 186.455 183.121Z" fill="white"/>
<path fill-rule="evenodd" clip-rule="evenodd" d="M182.19 213.406C181.912 214.761 181.521 216.116 181.001 217.399C180.5 218.637 179.746 219.747 179.227 220.971C179.157 221.135 179.043 221.26 178.905 221.355L178.948 221.688V221.688L178.988 222.021C179.247 224.267 179.538 226.508 179.791 228.754L179.913 229.877C180.41 234.567 181.193 239.233 181.802 243.911C182.398 248.491 183.004 253.071 183.652 257.644C184.322 262.359 185.005 267.068 185.801 271.764C186.137 273.748 186.488 275.73 186.854 277.71L187.136 279.225C190.043 279.925 190.838 283.978 187.878 285.475C186.534 286.151 184.808 285.988 183.701 284.925C182.55 283.818 182.503 281.82 182.236 280.32L181.978 278.926C180.053 268.442 178.383 257.837 177.602 247.206C177.401 244.46 177.232 241.713 177.122 238.963C177.018 236.376 177.068 233.79 177.028 231.204L177.014 230.498C176.953 227.74 177.004 224.986 177.076 222.228C177.084 221.892 177.099 221.556 177.116 221.218C177.019 221.104 176.949 220.968 176.92 220.837L176.881 220.664C176.786 220.218 176.894 219.696 177.236 219.377C177.384 217.498 177.579 215.621 177.631 213.745C177.636 213.59 177.857 213.595 177.87 213.745C177.995 215.342 178.244 216.944 178.493 218.544C180.097 217.255 181.282 215.129 181.981 213.349C182.032 213.22 182.22 213.267 182.19 213.406ZM144.251 138.711C144.517 139.928 145.043 141.021 145.749 142.038C146.085 142.524 146.467 142.976 146.926 143.354C147.319 143.678 147.767 143.889 148.185 144.17C148.793 144.075 149.429 144.305 149.856 144.753L149.789 144.098C149.767 143.887 150.118 143.845 150.158 144.05C152.007 153.375 153.692 162.706 155.151 172.098L155.791 176.246L156.393 180.14C157.392 186.629 158.359 193.115 159.086 199.652C160.056 208.374 160.871 217.12 161.467 225.878C162.065 234.698 162.433 243.524 162.695 252.36C162.76 254.588 162.83 256.814 162.898 259.041L163.349 256.378C163.799 253.714 164.241 251.048 164.619 248.372C165.978 238.796 167.064 229.152 167.594 219.493C168.08 210.655 167.917 201.641 165.67 193.03C165.103 190.864 164.41 188.731 163.574 186.654C162.762 184.633 161.655 182.76 160.783 180.77C159.769 178.453 159.464 176.268 159.986 173.774C160.443 171.601 161.244 169.558 161.387 167.322C161.655 163.171 160.305 159.151 158.398 155.518C157.895 154.56 157.364 153.615 156.811 152.679C155.136 149.849 153.247 147.123 151.286 144.508C151.181 144.369 151.405 144.215 151.519 144.329C153.306 146.096 155.26 147.833 156.868 149.763C157.65 150.701 158.412 151.658 159.135 152.641C167.062 153.966 173.873 158.905 178.529 165.428C183.813 172.829 186.486 181.738 188.463 190.511C190.663 200.26 192.517 210.099 194.493 219.897C196.538 230.036 198.572 240.174 200.63 250.31C201.652 255.342 202.675 260.375 203.695 265.409C204.213 267.958 204.756 270.501 205.324 273.041C205.616 274.343 205.929 275.643 206.199 276.949C206.503 278.422 206.22 279.364 205.223 280.447C204.855 280.848 204.274 280.842 203.818 280.629L203.675 280.561L203.537 280.495C202.973 280.217 202.53 279.929 202.179 279.312C201.792 278.633 201.731 277.881 201.598 277.126C201.352 275.738 201.11 274.349 200.865 272.959C200.498 270.879 200.1 268.805 199.695 266.732L197.662 256.371C197.12 253.608 196.577 250.846 196.031 248.085C194.081 238.211 192.129 228.338 190.177 218.466C188.302 208.987 186.644 199.443 184.51 190.018L184.389 189.487L184.266 188.957C182.358 180.833 179.692 172.974 174.855 166.089C171.133 160.795 165.963 156.067 159.874 153.674C160.303 154.292 160.715 154.922 161.108 155.564C163.576 159.597 165.378 164.384 164.955 169.186C164.748 171.532 163.857 173.837 163.941 176.202C164.019 178.303 165.319 180.148 166.217 181.976C168.255 186.119 169.73 190.521 170.681 195.038C172.589 204.107 172.582 213.438 171.925 222.644C171.211 232.652 169.855 242.657 168.31 252.567C167.518 257.65 166.464 262.691 165.657 267.766C165.258 270.268 164.714 272.764 164.239 275.254L164.013 276.443C163.886 277.104 163.754 277.762 163.602 278.413L163.508 278.802V278.872C163.504 279.352 163.373 279.749 163.162 280.066C162.872 280.994 162.513 281.899 162.036 282.767C161.791 283.211 161.436 283.46 161.049 283.552C160.66 284.441 159.779 285.126 158.727 285.122L144.891 285.069C136.855 285.037 128.818 284.984 120.781 284.94C118.753 284.93 116.727 284.891 114.701 284.839C112.802 284.786 110.981 284.558 109.103 284.321C106.981 284.055 105.832 282.552 106.149 280.432C106.219 279.965 106.295 279.5 106.367 279.035C105.944 279.174 105.441 279.109 105.101 278.777L104.782 278.465C104.34 278.027 103.945 277.598 103.665 277.014C103.375 276.414 103.14 275.78 102.885 275.167C102.333 273.848 101.797 272.525 101.275 271.196C100.229 268.537 99.1837 265.868 98.2116 263.181C96.2872 257.862 94.5842 252.462 93.1034 247.001C90.4625 237.257 88.5525 227.326 87.3482 217.306L87.0603 214.918L86.9766 214.212C86.52 210.329 86.1356 206.385 86.3172 202.509C86.4294 200.083 86.8053 197.638 87.7118 195.372C88.5482 193.282 89.8391 191.494 91.0665 189.625L91.207 189.41L91.3482 189.189C92.4217 187.492 93.2759 185.718 93.3187 183.657C93.362 181.565 92.753 179.53 92.072 177.572L91.9023 177.089L91.7884 176.77C90.3398 172.723 88.6912 168.734 89.2349 164.331C90.0379 157.847 93.9672 152.62 98.9111 148.59C94.5144 149.46 90.1625 151.181 86.3217 153.362C81.7856 155.94 77.7018 159.343 74.1799 163.183C67.525 170.441 62.7736 179.149 58.8844 188.14C54.813 197.549 51.794 207.408 49.5189 217.397C47.2308 227.442 45.6992 237.648 44.6532 247.895C44.1315 252.994 43.7215 258.107 43.3815 263.222C43.2083 265.842 43.0773 268.467 42.8745 271.084C42.6717 273.698 42.5806 276.353 41.9426 278.898C41.6447 280.083 39.6356 280.204 39.4203 278.898C38.9425 275.981 39.076 272.964 39.2094 270.01L39.2215 269.742C39.3527 266.8 39.5238 263.86 39.7264 260.92C40.1407 254.911 40.694 248.911 41.4165 242.93C43.9496 221.934 48.621 201.049 57.7837 181.884C62.0977 172.857 67.6351 164.086 75.3379 157.568C79.0053 154.467 83.1398 151.992 87.5954 150.2C91.5801 148.596 95.628 147.837 99.8618 147.839C101.985 146.212 104.265 144.794 106.542 143.582C106.679 143.509 106.823 143.686 106.709 143.8C106.65 143.857 106.593 143.916 106.534 143.972C106.791 143.988 107.057 144.109 107.296 144.36C108.133 145.237 108.839 146.334 109.47 147.473C110.431 148.674 111.348 149.915 112.308 151.102C113.843 153.004 115.415 154.879 117.006 156.739C119.678 159.865 122.437 162.931 125.314 165.875L125.795 166.364C127.286 167.875 128.797 169.684 130.561 170.88L130.655 170.943C131.399 171.428 131.927 171.516 132.562 170.792C133.139 170.132 133.619 169.367 134.112 168.64L134.227 168.473C136.747 164.811 139.084 161.013 141.198 157.103C142.162 155.323 143.079 153.518 143.949 151.693L144.209 151.145C144.682 150.139 145.196 149.152 145.586 148.116C145.677 147.873 145.766 147.63 145.852 147.389C144.521 146.516 143.491 144.627 143.117 143.147C142.728 141.611 142.925 140.034 143.617 138.629C143.748 138.364 144.188 138.43 144.251 138.711ZM78.5915 201.15C78.4074 206.992 78.2956 212.84 78.0207 218.678L77.9259 220.67C78.3545 221.148 78.606 221.7 78.4052 222.457C78.3273 222.746 78.0968 223.008 77.8095 223.105L77.7199 224.958C77.3122 233.295 76.8342 241.614 75.9609 249.93C74.8686 260.337 73.6052 270.727 72.3442 281.115C72.1646 282.586 71.1419 283.752 69.551 283.537C67.9414 283.319 67.2886 281.918 67.4998 280.457C68.3301 274.728 69.1285 268.994 69.828 263.245L70.6244 256.696C71.6232 248.508 72.6454 240.323 73.8231 232.162C74.3153 228.751 74.8266 225.341 75.3398 221.932L75.1604 221.7C74.4271 220.747 73.6686 219.815 72.9186 218.876C71.478 217.067 70.0562 215.273 68.7357 213.379C68.67 213.284 68.8033 213.144 68.8982 213.216C70.7489 214.584 72.5005 216.046 74.2625 217.532L75.8048 218.838C76.6921 212.948 77.571 207.055 78.3545 201.15C78.3738 201.002 78.5956 200.992 78.5915 201.15ZM105.213 145.244C104.1 146.294 102.961 147.321 101.839 148.366L101.428 148.75L101.019 149.136C99.0471 151.007 97.1578 152.954 95.5836 155.19C92.6934 159.297 90.9716 164.303 92.1735 169.317C93.1709 173.47 95.4589 177.234 96.0737 181.49C96.382 183.623 96.2322 185.766 95.4291 187.78C94.6094 189.835 93.2996 191.595 92.1228 193.449C89.5665 197.477 89.2179 201.898 89.4716 206.565C89.7378 211.439 90.2975 216.314 90.9885 221.144C92.3869 230.93 94.4953 240.614 97.2862 250.097C98.6829 254.846 100.333 259.494 101.974 264.16C102.792 266.483 103.745 268.751 104.727 271.008C105.245 272.196 105.775 273.377 106.314 274.556C106.115 272.891 106.115 271.181 106.018 269.526C105.878 267.155 105.701 264.788 105.538 262.419C105.207 257.61 104.911 252.798 104.647 247.986C103.711 230.824 103.022 213.647 103.073 196.458C103.098 187.863 103.274 179.267 103.643 170.68C103.817 166.636 104.152 162.596 104.456 158.558L104.52 157.692C104.789 154.068 105.11 150.435 105.661 146.842C105.498 146.473 105.356 146.1 105.251 145.718L105.213 145.574L105.241 145.578C105.215 145.466 105.207 145.354 105.213 145.244ZM114.843 130.475C114.866 130.375 115.007 130.384 115.033 130.475C115.66 132.588 115.438 134.913 114.898 137.039C114.606 138.191 114.192 139.309 113.691 140.387L113.516 140.764C113.087 141.682 112.604 142.628 111.769 143.2C111.42 143.439 110.797 143.454 110.448 143.2L110.27 143.065C110.241 143.042 110.212 143.019 110.184 142.995C109.859 142.722 109.698 142.12 109.848 141.723C110.235 140.698 111.112 139.945 111.718 139.032C112.255 138.221 112.73 137.365 113.125 136.475C113.976 134.55 114.359 132.506 114.843 130.475Z" fill="black"/>
<path fill-rule="evenodd" clip-rule="evenodd" d="M130.31 50.4502C139.769 50.4502 151.117 55.0375 152.082 55.1292L152.108 55.1306C152.616 55.1306 154.6 56.6424 158.059 59.6661L154.312 66.9776L154.615 67.2672C156.067 68.659 157.305 69.9276 158.283 70.9277C166.267 79.0931 167.702 111.153 165.821 122.333C163.939 133.513 160.454 144.453 144.229 144.453C128.004 144.453 109.953 134.694 107.173 131.654C105.319 129.628 103.237 128.658 100.926 128.742C100.831 128.622 100.737 128.503 100.643 128.384L100.303 128.336C97.1055 127.872 94.814 127.249 93.4293 126.465C90.7244 124.934 87.7514 116.886 87.7514 115.113C87.7514 113.358 83.312 100.59 83.2233 99.2384L83.2219 99.201C83.2219 98.0715 77.4224 92.8791 77.4224 91.2301C77.4224 89.5812 76.2534 89.6812 77.4224 83.8704L77.762 82.1634C79.006 75.9766 81.4408 65.7322 90.7244 61.2807C100.926 56.3889 120.756 50.4502 130.31 50.4502Z" fill="white"/>
<path fill-rule="evenodd" clip-rule="evenodd" d="M89.1499 61.0507C94.2378 55.6483 123.123 47.2919 137.736 49.0632L138.175 49.12C139.341 49.268 140.49 49.492 141.625 49.7963C145.291 50.6529 149.078 51.95 152.107 54.1166C154.637 55.8889 162.615 58.7834 160.263 63.42C161.135 65.0725 161.46 67.1142 160.871 68.7418C160.797 69.304 160.624 69.8218 160.402 70.3586C162.265 73.1085 163.74 76.2183 164.934 79.1761C167.02 86.6201 168.318 94.367 168.508 101.962C169.141 116.391 167.559 133.627 154.997 142.958C147.408 148.87 135.52 149.069 126.992 141.738C126.508 141.165 124.232 139.619 124.992 139.348C125.218 139.586 125.45 139.819 125.687 140.047C125.676 140.022 125.674 139.996 125.678 139.969L125.456 139.767C125.037 139.379 124.494 138.817 125.112 138.927C125.139 138.959 125.169 138.986 125.198 139.018C125.329 139.096 125.428 139.165 125.505 139.225L125.545 139.256L125.533 139.244C125.177 138.864 124.963 138.476 125.496 138.724L125.566 138.758C125.803 139.007 126.044 139.246 126.289 139.479C126.285 139.451 126.289 139.424 126.304 139.394L126.075 139.173C125.852 138.955 125.886 138.954 125.995 138.777C125.521 138.112 126.406 138.507 126.468 138.766C127.022 138.635 127.508 139.675 127.865 139.802C143.498 151.826 166.186 141.157 165.818 107.653L165.813 106.997C165.705 96.2839 164.804 85.2727 160.375 75.5747C159.944 74.6406 159.462 73.7318 158.932 72.8525C158.566 72.1931 158.175 71.5506 157.755 70.925C156.578 70.8299 155.416 70.6143 154.271 70.2804C153.878 70.1811 153.489 70.0712 153.101 69.9423C147.422 70.2521 141.87 70.5892 136.175 70.9088L134.396 71.0196C129.572 71.3298 124.583 71.8268 120.69 74.8118C116.87 77.5293 116.853 82.8881 113.583 85.8717C108.921 89.0375 108.887 91.8922 107.989 96.5576C108.055 100.074 110.493 105.184 106.02 106.664C106.774 107.741 105.722 107.224 105.64 106.846C105.631 106.848 105.623 106.85 105.616 106.85C106.289 108.101 105.3 107.313 105.213 106.912C105.16 106.897 105.107 106.859 105.054 106.806C105.732 107.902 104.637 107.134 104.702 106.935C103.392 104.922 100.698 104.609 98.7985 105.143C98.7753 105.215 98.691 105.221 98.6381 105.183C90.562 106.934 92.6457 123.659 100.922 122.042C101.276 121.97 101.268 122.14 101.338 122.156C101.147 121.654 101.686 121.859 101.68 121.964L101.713 121.962C101.739 121.96 101.728 121.957 101.748 121.964C101.563 120.937 102.603 122.425 102.521 122.486C102.553 122.467 102.589 122.456 102.621 122.452L102.585 122.355C102.412 121.895 102.427 122.086 102.428 121.822C102.298 121.497 102.289 121.639 102.319 121.427C102.775 121.074 102.91 122.146 103.062 122.224C102.801 121.86 103.008 121.564 103.254 121.761C105.118 125.683 107.526 129.368 110.638 132.272C110.978 132.54 111.323 132.804 111.679 133.054C113.003 134.207 115.033 134.949 116.272 135.97C116.272 135.987 116.264 136.008 116.252 136.029L116.28 136.055V136.055L116.309 136.082L116.74 136.289C116.866 136.397 116.98 136.518 117.082 136.651C117.19 136.775 117.284 136.913 117.365 137.059C117.405 137.236 117.316 137.31 117.147 137.234C117.073 137.209 116.999 137.179 116.925 137.152C116.93 137.158 116.932 137.162 116.936 137.166C116.96 137.203 117.124 137.584 116.935 137.522L116.913 137.513C116.809 137.475 116.706 137.433 116.604 137.393C116.725 137.543 116.834 137.705 116.932 137.843C117.035 137.951 117.098 138.077 117.124 138.221C117.12 138.301 117.075 138.335 116.995 138.325C116.873 138.284 116.752 138.242 116.632 138.198L116.666 138.263C116.751 138.431 116.872 138.712 116.657 138.618C116.473 138.561 116.296 138.496 116.118 138.424C116.103 138.454 116.074 138.464 116.015 138.437C115.451 138.236 114.906 137.991 114.384 137.701C113.925 137.367 113.463 137.04 113.002 136.708C112.569 136.448 112.151 136.158 111.752 135.833C109.08 134.107 106.741 131.914 104.885 129.471C101.782 132.16 95.5773 129.591 91.7392 127.487C88.3443 125.606 87.01 122.128 86.665 118.378C85.9477 113.33 81.8238 111.602 82.1107 100.525C82.1043 100.527 82.0978 100.527 82.0893 100.527C81.9393 100.482 81.7938 100.423 81.6564 100.347C81.5149 100.279 81.3818 100.199 81.2569 100.102L81.1027 99.8885V99.8885C81.0226 99.8441 80.9508 99.7976 80.8959 99.7511L80.8674 99.7878C80.7772 99.8967 80.8378 99.7329 80.8431 99.7004L80.5752 99.3359C79.9399 98.4682 79.243 97.4947 78.6753 96.7161L78.6574 96.7477C78.6445 96.7716 78.6377 96.7889 78.6438 96.7964C77.2927 94.8545 76.0222 92.509 75.6691 90.2382C75.2523 88.4891 75.4152 86.6867 75.7788 85.0665C77.3377 79.3928 82.4445 66.5537 89.1499 61.0507ZM125.815 139.515L125.73 139.44L125.805 139.533C125.844 139.581 125.884 139.625 125.949 139.669C125.944 139.654 125.944 139.639 125.946 139.622C125.903 139.589 125.859 139.553 125.815 139.515ZM137.672 51.9141C127.762 51.0617 118.014 53.2458 108.558 55.8896L107.905 56.0771C102.528 57.6121 96.8422 58.9933 92.298 62.2787C85.9492 67.1433 82.6708 74.8821 79.8098 82.0272C77.3116 87.3359 78.5887 93.322 82.3535 97.0289C82.7452 93.3453 83.413 89.7694 84.4566 86.2223C84.6744 85.6682 84.5097 85.4866 84.9791 85.4143C85.6881 94.9733 82.1961 102.036 89.1066 113.365C92.1052 118.71 88.634 122.621 97.1016 125.434L97.3308 125.522C99.0949 126.188 101.021 126.713 102.749 126.341L102.594 126.089C102.437 125.83 102.389 125.704 102.618 125.593C102.612 125.58 102.604 125.568 102.595 125.553C102.409 125.202 102.23 124.847 102.058 124.488C101.989 124.511 101.919 124.528 101.847 124.547C101.894 124.633 101.9 124.72 101.769 124.75C101.304 124.909 100.826 124.973 100.336 124.943L100.231 124.936C99.6782 124.902 99.3299 124.801 99.0182 124.707C98.9149 124.69 98.8114 124.674 98.7098 124.652C97.7073 124.43 96.6461 123.864 95.9593 123.304C88.1302 118.855 88.9393 103.712 98.5896 102.281C98.7875 92.7465 103.321 76.6611 110.844 67.5758C117.644 59.2188 136.209 55.5966 149.125 56.8738C149.313 56.9362 149.502 56.9991 149.69 57.0628C151.683 57.2399 153.582 58.128 155.576 58.5405C154.144 57.4671 152.52 56.7521 150.847 56.1444C147.513 54.1047 143.692 53.001 140 52.2226C139.235 52.0345 138.46 51.931 137.672 51.9141ZM98.1477 109.94C98.6665 109.658 98.6072 109.931 98.7265 109.852C102.459 109.547 106.483 112.816 108.569 115.541C108.405 115.712 107.959 115.205 107.881 115.125C107.87 115.135 107.858 115.144 107.845 115.148L107.903 115.23C108.749 116.444 107.072 115.015 106.915 114.721C106.888 114.736 106.86 114.744 106.829 114.738C106.962 114.868 107.367 115.208 107.437 115.45L107.545 115.54C108.559 116.409 108.475 117.063 107.323 115.828C107.35 115.886 107.361 115.938 107.342 115.981L107.382 116.007C107.948 116.403 108.414 117.507 107.23 116.374C107.353 117.201 106.057 115.602 106.015 115.613C103.772 113.851 100.469 112.138 97.6554 111.908L97.5586 111.897C97.0422 111.83 96.7981 111.677 96.9794 111.339C96.3434 111.188 96.4924 110.875 96.7934 110.885C96.3449 110.59 96.7486 110.308 97.0089 110.418C96.83 109.922 97.5477 110.252 97.6132 110.183C97.9856 109.609 98.086 110.088 98.1477 109.94ZM90.3245 79.2205C92.1171 78.5636 97.4121 80.53 96.9885 83.1343C96.7362 83.7322 95.9051 84.0748 95.3209 83.7373L94.5585 83.225C93.2317 82.3361 92.035 81.5566 90.6105 80.7813C89.8352 80.3965 89.5014 79.5794 90.3245 79.2205ZM100.523 75.3504L99.8311 74.8997C96.0951 72.4536 90.8136 68.7472 100.18 72.582C101.248 73.04 102.666 73.3109 103.249 74.3279C104.164 76.2024 101.756 76.3284 100.523 75.3504ZM100.943 64.3752C100.643 63.2371 104.374 64.5726 105.46 64.9248L105.625 64.9872C106.681 65.381 107.892 65.7463 108.524 66.6582C109.264 67.9183 107.766 68.1793 106.838 67.6102C104.935 66.3662 102.849 65.4276 100.943 64.3752ZM110.429 59.0735C108.33 56.7797 113.949 58.9771 114.791 59.5871L114.815 59.6051C115.443 60.0474 115.316 61.0002 114.726 61.28C113.047 61.312 111.811 59.912 110.429 59.0735ZM119.984 56.5603C116.646 54.1604 121.043 55.3019 122.571 56.2425C123.612 57.1608 122.539 58.711 119.984 56.5603Z" fill="black"/>
<path fill-rule="evenodd" clip-rule="evenodd" d="M138.835 118.841C140.016 116.896 142.536 121.66 142.803 122.479C143.04 123.205 143.197 123.948 143.276 124.7C144.192 124.906 145.144 124.906 146.083 124.726C147.478 124.458 148.331 123.708 149.544 123.064C150.381 122.618 151.437 123.14 151.873 123.879C152.385 124.748 152.059 125.65 151.385 126.298C150.107 127.527 147.592 127.809 145.924 127.483C144.968 127.296 144.092 126.937 143.319 126.416C143.314 126.514 143.31 126.611 143.303 126.708L143.288 126.876C143.16 128.239 142.785 129.953 141.727 130.84C139.992 132.294 137.85 129.497 139.536 128.044L139.589 128C140.637 127.153 140.865 124.88 140.809 123.628C140.772 122.811 140.623 121.983 140.365 121.205L140.312 121.05C140.235 120.83 139.388 118.744 139.082 119.01L139.068 119.025C138.942 119.176 138.738 119 138.835 118.841ZM148.271 107.866C149.866 108.837 152.297 111.099 150.581 113.504C148.561 115.624 145.652 113.193 144.219 112.093C142.89 111.241 141.397 113.433 142.63 114.428C152.987 122.099 157.19 108.12 149.078 106.726C148.185 106.572 147.853 107.566 148.271 107.866ZM131.235 98.8995C132.795 98.6228 134.392 99.0106 135.682 99.9232L135.78 99.9936C137.023 100.903 138.413 102.5 137.7 104.067C137.414 104.697 136.557 104.795 136.013 104.51C135.107 104.035 134.943 102.866 134.135 102.219C133.472 101.689 132.579 101.367 131.726 101.445C129.721 101.627 128.487 103.605 127.865 105.31C127.785 105.528 127.465 105.613 127.34 105.379C125.871 102.633 128.471 99.3902 131.235 98.8995ZM156.209 97.8632C159.196 97.617 162.692 100.715 161.905 103.868C161.528 105.382 159.284 105.338 158.886 103.868C158.666 103.059 158.688 102.344 158.106 101.672C157.626 101.118 156.943 100.795 156.209 100.845C155.401 100.899 154.655 101.304 154.088 101.872C153.576 102.385 153.27 103.136 152.739 103.59C152.609 103.702 152.434 103.709 152.305 103.59C151.393 102.749 151.94 100.996 152.519 100.117C153.347 98.8597 154.696 97.9881 156.209 97.8632ZM125.548 93.306C127.464 91.6093 130.945 89.9707 133.529 90.8058C135.014 91.2857 135.662 93.6801 134.004 94.4391C132.083 95.3179 129.869 94.9603 127.915 95.8712C127.094 96.2539 126.322 96.7322 125.751 97.4337C125.301 97.9866 124.843 98.7141 124.191 99.0328C124.02 99.1167 123.789 99.1188 123.651 98.9632C122.224 97.3481 124.302 94.4095 125.548 93.306ZM152.916 90.7215C154.1 90.3891 155.414 90.3958 156.617 90.6047C157.82 90.8135 159.04 91.3121 160.022 92.0393L160.136 92.1245C161.208 92.9324 162.487 94.108 162.418 95.5393C162.361 96.7345 161.104 97.5429 160.019 96.9164C159.135 96.4056 158.719 95.3822 157.97 94.7008C157.352 94.1384 156.626 93.695 155.851 93.3843C154.991 93.0392 154.129 92.8775 153.206 92.8621C152.495 92.8503 151.78 93.0836 151.082 93.1582C151.14 93.2761 150.588 93.2212 150.272 93.1166C150.038 93.0168 150.037 92.7207 150.118 92.5286C150.521 91.5769 151.985 90.9828 152.916 90.7215Z" fill="black"/>
</svg>
