<svg width="240" height="324" viewBox="0 0 240 324" fill="none" xmlns="http://www.w3.org/2000/svg">
<path fill-rule="evenodd" clip-rule="evenodd" d="M200.256 272.088C199.919 265.825 199.505 259.566 199.009 253.314C198.021 240.859 196.728 228.394 194.576 216.082C192.453 203.935 189.482 192.123 185.201 180.547C183.215 175.177 181.065 170.595 177.945 165.768C174.995 161.203 171.23 158.11 166.54 155.355C162.314 152.872 157.405 148.565 153.352 145.785C151.66 144.624 148.179 144.702 147.018 142.985C145.499 140.737 146.484 137.296 144.952 135.055C143.202 132.493 140.749 130.503 137.983 129.057C134.964 127.012 131.408 126.086 127.843 126.214C122.586 125.895 117.291 127.569 113.916 131.85C112.232 133.986 111.248 136.451 111.112 139.18C111.077 139.89 111.305 140.45 111.68 140.854C111.458 141.151 111.236 141.449 111.016 141.749C110.326 140.726 108.712 140.182 107.637 140.954C104.119 143.48 100.317 145.489 96.3035 146.962C95.3646 146.517 94.228 146.723 93.4237 147.449C93.0973 147.743 92.7511 147.994 92.3892 148.208C90.9012 148.612 89.3902 148.949 87.8568 149.209C87.3768 149.291 86.9701 149.563 86.6617 149.931C86.2047 149.503 85.5766 149.298 84.8752 149.566C76.7763 152.654 69.128 157.452 63.3145 163.952C56.8738 171.154 53.491 180.112 50.9156 189.29C48.1277 199.224 46.3461 209.407 44.8497 219.606C43.3334 229.94 41.84 240.315 40.7968 250.709C40.2096 256.559 39.9857 262.461 40.2515 268.336C40.3839 271.272 40.652 274.199 41.079 277.107C41.1785 277.788 41.2827 278.571 41.4504 279.354C40.9406 279.254 40.3334 279.686 40.4368 280.376C41.1563 285.182 46.9649 286.582 50.971 287.135C57.5239 288.04 64.1108 288.542 70.7266 288.581C77.228 288.619 83.7282 288.201 90.2161 287.828C96.8676 287.444 103.519 287.059 110.17 286.669C136.819 285.106 163.47 283.56 190.119 281.997C192.554 281.854 195.334 281.66 197.419 280.248C200.278 278.311 200.425 275.233 200.256 272.088V272.088Z" fill="white"/>
<path fill-rule="evenodd" clip-rule="evenodd" d="M70.3425 218.33C70.25 218.156 70.4647 218.001 70.6071 218.126C73.8422 220.966 75.5359 225.527 75.8911 229.743C76.2673 234.214 75.7339 238.842 75.53 243.311C75.3031 248.289 75.0992 253.268 74.8223 258.244C74.5411 263.292 74.2381 268.338 73.9785 273.387L73.3943 284.744V284.744C73.3322 285.955 73.4668 287.443 73.0024 288.573C72.2828 290.324 70.1454 290.053 69.6962 288.59L69.6821 288.541L69.6411 288.573C69.2448 287.254 69.5414 285.687 69.6086 284.324L70.2206 271.915V271.915C70.653 263.144 71.0387 254.372 71.5032 245.603L71.6611 242.68C71.8782 238.745 72.0447 234.82 72.1784 230.886L72.2218 229.575C72.3487 225.625 72.248 221.896 70.3425 218.33ZM148.767 145.517C150.57 145.345 151.931 145.943 153.567 146.573C154.28 146.847 154.955 147.164 155.639 147.492C156.495 147.903 157.045 148.629 157.572 149.396L157.854 149.81C160.05 153.028 161.526 156.74 163.193 160.243C165.142 164.341 167.11 168.43 169.018 172.547L169.959 174.576C170.43 175.59 170.899 176.605 171.361 177.623L172.16 179.395C172.962 181.192 173.682 183.093 172.538 184.947C171.475 186.671 169.59 188.005 168.097 189.338C166.852 190.45 165.606 191.562 164.36 192.674C166.936 195.254 168.664 198.502 169.681 201.985C171.124 201.384 172.887 201.268 174.379 201.008C176.469 200.643 176.725 203.808 174.753 203.77C173.296 203.741 171.588 203.89 170.094 203.583C170.353 204.728 170.542 205.89 170.662 207.055C171.289 213.162 169.917 219.304 168.487 225.213L168.369 225.698C166.815 232.094 165.342 238.506 164.024 244.954C162.702 251.417 161.514 257.906 160.459 264.417C159.386 271.044 158.626 277.708 157.809 284.371C157.686 285.379 157.051 286.243 155.938 286.243C155.01 286.243 153.949 285.377 154.066 284.371C154.908 277.116 156.103 269.898 157.29 262.693C159.335 250.284 161.909 237.983 164.869 225.762L165.386 223.634C166.718 218.115 167.927 212.428 167.259 206.735C166.714 202.099 164.777 197.156 160.947 194.277L160.831 194.19C159.936 193.534 159.592 192.279 160.473 191.415C161.034 190.865 161.595 190.315 162.157 189.766L165.528 186.474L166.207 185.809C166.774 185.255 167.343 184.705 167.93 184.172C168.285 183.85 169.247 183.235 169.317 182.704C169.363 182.358 168.953 181.75 168.787 181.431L168.026 179.894V179.894C167.594 179.018 167.176 178.136 166.754 177.255C165.879 175.43 164.993 173.61 164.137 171.776L158.999 160.762V160.762C157.55 157.654 156.258 154.374 154.363 151.501L153.99 150.942C153.678 150.47 153.402 150.016 153.205 149.439C153.016 148.885 152.778 148.276 152.427 147.802C151.607 146.691 150.038 146.061 148.725 145.828C148.535 145.794 148.604 145.532 148.767 145.517ZM109.249 142.624C109.363 142.624 109.38 142.787 109.275 142.818C107.691 143.295 106.178 144.063 104.944 145.173C104.353 145.704 103.758 146.307 103.393 147.021C103.254 147.295 103.177 147.584 103.12 147.883L103.102 147.984C103.008 148.525 102.873 148.826 102.598 149.259L102.551 149.333C100.982 151.757 99.8824 154.449 98.877 157.145L96.6874 163.023V163.023L94.4993 168.902C93.7943 170.796 93.0889 172.69 92.3837 174.584C91.9941 175.63 91.5935 176.671 91.1932 177.713C91.0199 178.164 90.8336 178.612 90.6752 179.069C90.6534 179.131 90.5841 179.507 90.5321 179.598L90.5499 179.629V179.629C90.9912 180.372 92.1682 180.993 92.8354 181.532L95.1327 183.39V183.39C96.7706 184.715 98.4507 186.003 100.039 187.387C101.037 188.256 100.416 189.812 99.3035 190.175C97.4385 190.783 95.6112 191.511 93.774 192.198C93.0319 192.476 92.2592 192.718 91.5257 193.024L91.0792 193.217C90.9048 193.296 90.9887 193.295 90.9956 193.617C91.0026 193.954 91.0983 194.306 91.1533 194.638C91.7721 198.381 92.428 202.118 93.1204 205.848C95.5694 219.039 98.4952 232.133 101.832 245.126C103.518 251.688 105.325 258.218 107.048 264.77C108.766 271.304 111.027 277.745 113.186 284.145C113.795 285.95 110.934 286.727 110.34 284.93C107.852 277.403 105.576 269.81 103.226 262.24C99.0496 248.79 95.7589 235.047 92.8485 221.272C91.4059 214.444 90.0866 207.591 88.8916 200.716C88.6654 199.414 88.4435 198.112 88.2262 196.808L87.9095 194.892C87.6924 193.525 87.5688 192.102 88.6303 191.021C89.6668 189.966 91.4463 189.592 92.8103 189.097L92.9093 189.06C93.7772 188.736 94.6514 188.424 95.5223 188.102C94.2395 187.092 92.9725 186.059 91.6928 185.05C90.6606 184.235 89.6121 183.437 88.5946 182.604C87.7556 181.917 87.0716 181.034 86.9841 179.917C86.8949 178.774 87.3842 177.715 87.7788 176.667L87.8167 176.566C88.2042 175.52 88.5927 174.474 88.9911 173.432L91.4566 166.982V166.982C93.0234 162.883 94.524 158.751 96.1719 154.685C96.8239 153.075 97.5344 151.491 98.374 149.97C98.7787 149.236 99.2129 148.518 99.6847 147.826C100.213 147.049 100.693 146.671 101.512 146.243C102.822 145.558 103.85 144.409 105.165 143.703C106.456 143.01 107.784 142.64 109.249 142.624ZM113.501 135.311C113.551 135.225 113.683 135.264 113.685 135.362C113.719 137.399 113.235 139.48 112.938 141.494C112.639 143.516 112.543 145.649 112.11 147.649C112.101 147.742 112.083 147.834 112.058 147.924L112.037 147.993V147.993C111.855 148.553 111.38 149.028 110.798 149.176C110.981 150.192 111.153 151.209 111.298 152.231C111.548 153.989 111.775 155.749 111.999 157.509L112.267 159.622C112.52 161.614 112.766 163.606 113.009 165.598C113.627 165.857 114.258 166.071 114.905 166.255C116.393 166.682 117.917 166.855 119.453 167.006C122.581 167.312 125.733 167.455 128.872 167.629L129.545 167.667C133.074 167.869 136.622 167.905 140.142 167.543C141.887 167.363 143.619 167.062 145.321 166.635C146.186 166.418 147.027 166.093 147.89 165.881C148.177 165.811 148.432 165.648 148.719 165.475C148.847 165.314 149.025 165.192 149.258 165.145L149.321 165.134V165.134L149.384 165.125L149.405 165.115L149.404 165.122C149.58 165.098 149.748 165.098 149.906 165.12C149.969 163.566 150.037 162.013 150.123 160.46C150.353 156.289 150.987 151.938 150.14 147.803C150.112 147.664 150.301 147.615 150.35 147.745C152.011 152.122 151.824 156.908 151.908 161.515C151.99 166.021 151.94 170.529 151.918 175.036C152.241 175.173 152.528 175.359 152.756 175.621C153.212 176.143 153.343 177.05 152.756 177.554C152.497 177.777 152.209 177.933 151.904 178.04C151.888 181.955 151.86 185.87 151.821 189.785C152.565 190.36 152.634 191.726 151.793 192.293C151.652 204.972 151.422 217.651 151.231 230.327L150.831 256.923V256.923C150.778 260.467 150.69 264.01 150.658 267.553L150.683 267.563V267.563L150.772 267.604C150.921 267.674 151.143 267.787 151.189 267.903C151.201 267.934 151.204 267.954 151.202 267.97C151.447 268.004 151.688 268.12 151.898 268.318C152.415 268.81 152.31 269.55 151.898 270.05L151.788 270.184V270.184C151.531 270.496 151.044 270.616 150.646 270.552C150.65 272.764 150.664 274.976 150.657 277.187C150.655 277.862 150.644 278.538 150.633 279.213L150.605 280.833C150.586 281.757 150.504 282.931 149.558 283.347C148.491 283.815 147.533 283.431 147.101 282.347C146.984 282.053 147.009 281.779 147.052 281.489C147.039 281.052 146.97 280.547 146.979 280.142L147.014 278.453V278.453C147.02 278.193 147.03 277.933 147.038 277.672L147.007 277.676V277.676C143.214 277.86 139.394 277.77 135.594 277.768L133.905 277.77C132.495 277.771 131.082 277.764 129.674 277.71L129.146 277.687C128.092 277.638 126.984 277.622 125.891 277.528C126.03 278.65 126.16 279.773 126.276 280.897C126.386 281.963 125.287 282.868 124.306 282.868C123.141 282.868 122.474 281.952 122.335 280.897C121.677 275.918 121.407 270.893 120.778 265.911C120.215 261.449 119.726 256.977 119.23 252.507L119.064 251.016C117.247 234.747 115.483 218.472 113.796 202.189L113.01 194.578C112.217 186.906 111.418 179.233 110.745 171.55C110.36 167.157 110.006 162.764 109.672 158.367C109.427 155.137 109.273 151.924 109.173 148.7C108.778 148.294 108.58 147.7 108.755 147.087C108.857 146.73 108.976 146.374 109.102 146.019C109.094 145.67 109.086 145.321 109.079 144.972C109.073 144.642 109.408 144.471 109.677 144.526C110.165 143.344 110.702 142.172 111.151 141.001C111.877 139.106 112.475 137.065 113.501 135.311ZM72.9592 155.791C80.5477 151.034 89.5807 147.611 98.6278 147.979C98.8336 147.988 98.8915 148.301 98.6779 148.349C93.8521 149.427 88.9733 150.74 84.4047 152.65C79.8227 154.567 75.4659 157.148 71.5856 160.249C64.4261 165.97 58.8613 173.413 55.1971 181.802C53.0508 186.716 51.5464 191.904 50.2327 197.094C48.8426 202.587 47.6969 208.139 46.7443 213.724C44.8627 224.757 43.7673 235.911 43.1844 247.085C42.5914 258.451 42.8358 269.825 42.4129 281.193C42.3398 283.162 39.5257 283.124 39.3827 281.193C38.4244 268.268 38.9553 255.138 39.8415 242.223C40.6384 230.612 42.0301 219.026 44.271 207.603L44.4662 206.613C46.5611 196.044 49.0879 185.219 54.1524 175.647C58.4762 167.476 65.1514 160.687 72.9592 155.791ZM178.337 206.304C178.377 206.19 178.526 206.192 178.566 206.304C179.431 208.726 179.462 211.46 179.692 214.013L179.71 214.209C179.931 216.539 180.097 218.871 180.251 221.205L180.309 222.08C180.928 231.601 181.703 241.112 182.87 250.583C184.033 260.019 185.606 269.389 187.306 278.74C187.496 279.781 187.035 280.841 185.943 281.141C184.981 281.406 183.746 280.813 183.543 279.778C182.487 274.41 181.633 269.036 180.872 263.622C179.531 254.088 178.53 244.511 177.887 234.905C177.564 230.081 177.365 225.258 177.286 220.423C177.25 218.18 177.308 215.931 177.428 213.691L177.456 213.174C177.588 210.883 177.575 208.488 178.337 206.304ZM96.3384 266.949C96.4398 266.894 96.5653 267.007 96.5011 267.112C95.0317 269.501 93.0439 271.56 91.1227 273.591C89.1141 275.713 87.1553 277.899 85.1062 279.98C83.6256 281.482 81.244 279.058 82.8065 277.679C85.0035 275.741 87.2998 273.898 89.5358 272.003L90.5137 271.174C92.3471 269.624 94.2349 268.089 96.3384 266.949ZM166.129 265.753C166.019 265.544 166.27 265.374 166.44 265.512C167.625 266.477 168.688 267.627 169.832 268.644C170.966 269.652 172.141 270.592 173.349 271.509C174.562 272.43 175.801 273.314 177.074 274.15C178.13 274.844 179.218 275.399 180.323 275.975C180.835 276.041 181.309 276.292 181.689 276.769C182.289 277.523 182.352 278.944 181.52 279.598L181.371 279.715V279.715C180.4 280.479 179.247 280.572 178.291 279.715C177.223 278.759 176.214 277.707 175.189 276.696L174.881 276.394C173.78 275.323 172.705 274.218 171.692 273.062L170.774 272.018C169.073 270.077 167.301 267.985 166.129 265.753ZM160.669 153.835C160.472 153.705 160.594 153.353 160.837 153.437L161.284 153.591C163.149 154.24 165.068 154.959 166.761 155.957C168.581 157.03 170.261 158.307 171.867 159.678C175.189 162.516 178.016 166.005 180.418 169.642C185.239 176.939 188.22 185.297 190.626 193.659C193.193 202.576 195.168 211.684 196.782 220.818C198.421 230.101 199.685 239.467 200.517 248.858C200.926 253.483 201.201 258.111 201.339 262.753C201.41 265.141 201.408 267.527 201.388 269.916C201.383 270.53 201.387 271.144 201.394 271.758L201.417 273.6C201.43 274.765 201.569 275.989 201.293 277.127C200.847 278.959 197.82 278.617 197.919 276.745C197.828 276.122 197.824 275.478 197.848 274.833C197.834 274.75 197.818 274.665 197.801 274.579C197.751 274.331 197.793 274.102 197.891 273.905C197.906 273.596 197.92 273.288 197.925 272.986C197.945 271.756 197.944 270.531 197.91 269.302C197.838 266.709 197.735 264.117 197.631 261.526C197.423 256.348 197.134 251.167 196.714 246.002C195.254 228.022 192.171 209.94 186.994 192.643C184.589 184.61 181.273 176.725 176.519 169.784C174.408 166.702 172.027 163.856 169.387 161.214C166.731 158.556 163.803 155.912 160.669 153.835ZM124.841 269.74L125.2 272.336C125.379 273.635 125.557 274.934 125.725 276.233C126.871 276.076 128.042 276.011 129.146 275.913C131.078 275.742 133.023 275.659 134.961 275.579C138.968 275.413 142.995 275.127 147.007 275.147C147.048 275.147 147.087 275.15 147.125 275.153L147.324 270.03V270.03L144.506 270.026V270.026C142.118 270.022 139.731 270.001 137.343 269.981C135.193 269.962 133.042 269.959 130.891 269.915L129.97 269.893C128.34 269.849 126.539 269.94 124.841 269.74ZM147.561 262.304C147.446 262.317 147.329 262.329 147.204 262.334C146.646 262.358 146.084 262.341 145.525 262.346C144.336 262.356 143.146 262.364 141.957 262.364C139.578 262.364 137.199 262.378 134.821 262.407C132.372 262.437 129.925 262.479 127.476 262.484C126.29 262.486 125.107 262.455 123.921 262.421C124.113 264.108 124.314 265.792 124.535 267.473C126.377 267.224 128.358 267.35 130.158 267.333L130.392 267.33C132.848 267.288 135.307 267.319 137.765 267.322C140.293 267.325 142.821 267.333 145.349 267.353L147.426 267.371V267.371L147.43 267.266V267.266C147.491 265.614 147.53 263.959 147.561 262.304ZM123.008 254.238C123.238 256.228 123.454 258.222 123.674 260.215C123.821 260.192 123.969 260.173 124.12 260.157C125.308 260.032 126.494 259.926 127.686 259.852C130.063 259.705 132.44 259.627 134.821 259.563C137.269 259.497 139.718 259.447 142.167 259.412C143.357 259.396 144.545 259.397 145.735 259.406C146.293 259.409 146.857 259.392 147.414 259.429C147.481 259.434 147.544 259.441 147.607 259.448L147.649 256.455C147.656 255.957 147.664 255.458 147.672 254.96C145.833 255.073 143.963 255.03 142.126 255.03L141.702 255.031C139.393 255.042 137.084 255.01 134.775 254.962C132.393 254.913 130.017 254.835 127.639 254.682C126.676 254.621 125.72 254.539 124.762 254.433L124.283 254.378C123.866 254.329 123.437 254.289 123.008 254.238ZM147.862 245.793C143.433 246.145 139.028 246.292 134.587 246.335L133.921 246.341C129.997 246.371 126.04 246.533 122.107 246.429C122.342 248.469 122.577 250.508 122.813 252.548C123.376 252.522 123.942 252.521 124.493 252.501C125.613 252.461 126.729 252.451 127.849 252.448C130.158 252.443 132.467 252.463 134.775 252.459C137.155 252.453 139.533 252.413 141.912 252.369C143.841 252.332 145.79 252.187 147.724 252.192L147.862 245.793V245.793ZM148.049 237.091C147.536 237.262 146.93 237.273 146.266 237.303L144.551 237.388C143.757 237.427 142.962 237.464 142.167 237.493C139.517 237.59 136.868 237.681 134.218 237.765C131.502 237.851 128.774 237.901 126.058 237.816C124.728 237.774 123.409 237.704 122.082 237.593C121.754 237.566 121.42 237.548 121.085 237.524C121.394 240.226 121.704 242.929 122.015 245.631C125.929 245.15 129.874 244.851 133.784 244.354L137.319 243.902C140.853 243.451 144.383 243.008 147.93 242.635L148.049 237.091V237.091ZM148.238 228.293C147.485 228.479 146.627 228.47 145.903 228.515L145.77 228.525C144.399 228.629 143.026 228.68 141.653 228.714C138.961 228.781 136.268 228.814 133.575 228.83L131.956 228.84C129.798 228.853 127.641 228.859 125.482 228.808C124.097 228.776 122.715 228.708 121.332 228.639C120.917 228.618 120.493 228.604 120.068 228.583C120.357 231.141 120.65 233.699 120.941 236.258C121.396 236.185 121.853 236.13 122.288 236.057C123.403 235.868 124.516 235.718 125.64 235.583C128.073 235.292 130.518 235.082 132.963 234.905C135.472 234.723 137.984 234.569 140.494 234.393L142.271 234.267C142.864 234.226 143.456 234.186 144.049 234.15C145.061 234.088 146.238 234.158 147.242 233.938C147.514 233.824 147.816 233.798 148.118 233.863L148.238 228.293V228.293ZM148.466 217.994C148.205 218.325 147.816 218.499 147.352 218.559C144.935 218.872 142.456 218.923 140.019 219.071L139.59 219.098C137.073 219.264 134.555 219.394 132.037 219.528C129.45 219.665 126.863 219.777 124.274 219.867C123.175 219.906 122.071 219.91 120.97 219.896L120.498 219.889C120.046 219.881 119.573 219.882 119.098 219.867C119.361 222.259 119.626 224.652 119.895 227.043C120.379 226.991 120.862 226.951 121.331 226.901C122.714 226.755 124.096 226.61 125.482 226.501C128.108 226.294 130.737 226.169 133.368 226.039C136.06 225.906 138.754 225.817 141.446 225.691C142.752 225.63 144.057 225.554 145.358 225.434C146.271 225.35 147.354 225.04 148.306 225.154C148.358 222.767 148.412 220.381 148.466 217.994ZM148.678 208.769C148.637 208.833 148.589 208.895 148.53 208.952C147.466 210.004 146.155 209.922 144.745 210.033L144.658 210.04C143.277 210.156 141.894 210.267 140.511 210.366C137.745 210.566 134.975 210.706 132.205 210.83C129.371 210.958 126.519 211.045 123.682 210.988C121.865 210.95 119.963 210.957 118.11 210.78C118.394 213.415 118.68 216.049 118.969 218.684C119.49 218.586 120.014 218.51 120.511 218.432C121.763 218.235 123.016 218.037 124.275 217.892C126.79 217.602 129.307 217.331 131.827 217.087C133.983 216.878 136.138 216.666 138.295 216.474L139.59 216.363C142.164 216.146 144.77 215.789 147.352 215.736C147.778 215.727 148.259 215.959 148.503 216.325C148.56 213.806 148.619 211.287 148.678 208.769ZM148.857 201.3C148.2 201.38 147.491 201.335 146.885 201.355C145.351 201.405 143.817 201.451 142.284 201.497L133.081 201.768V201.768C129.947 201.861 126.803 201.93 123.668 201.886C122.29 201.866 120.905 201.864 119.526 201.789L119.067 201.761C118.5 201.723 117.804 201.718 117.124 201.649L117.926 209.086V209.086C119.77 208.819 121.671 208.72 123.499 208.563L123.89 208.529C126.586 208.283 129.296 208.12 131.997 207.937C134.769 207.75 137.536 207.522 140.303 207.289C141.686 207.173 143.069 207.057 144.451 206.929L144.622 206.912C145.928 206.776 147.155 206.486 148.312 207.256C148.481 207.368 148.613 207.519 148.704 207.687C148.755 205.558 148.804 203.429 148.857 201.3ZM149.071 192.621C143.466 192.847 137.861 193.018 132.252 193.094C129.095 193.136 125.942 193.106 122.785 193.04C121.416 193.011 120.036 192.946 118.668 192.841L118.156 192.8C117.505 192.745 116.822 192.705 116.142 192.64C116.423 195.197 116.702 197.754 116.979 200.312C117.648 200.187 118.347 200.13 118.934 200.055L119.067 200.037C120.524 199.837 121.995 199.72 123.459 199.591C126.31 199.34 129.176 199.178 132.035 199.04C134.962 198.899 137.891 198.78 140.819 198.649L143.748 198.518C144.236 198.497 144.724 198.475 145.212 198.455C145.909 198.425 146.606 198.397 147.303 198.368C147.647 198.354 148.005 198.308 148.349 198.325L148.447 198.312C148.492 198.306 148.532 198.302 148.569 198.298C148.662 198.226 148.763 198.167 148.87 198.122L148.935 198.097L149.071 192.621ZM115.223 184.396C115.483 186.698 115.741 189.001 115.995 191.303C116.794 191.212 117.603 191.162 118.366 191.093C119.905 190.955 121.452 190.834 122.995 190.763L126.081 190.62C128.137 190.524 130.194 190.432 132.252 190.357C137.885 190.152 143.518 189.916 149.147 189.628C149.187 188.067 149.228 186.505 149.27 184.943C148.999 185.233 148.609 185.423 148.096 185.422C142.186 185.406 136.271 185.441 130.362 185.343C127.404 185.294 124.449 185.223 121.495 185.071C120.049 184.997 118.595 184.846 117.161 184.647C116.549 184.562 115.879 184.501 115.223 184.396ZM114.277 176.194C114.555 178.552 114.828 180.911 115.096 183.27C115.83 183.139 116.588 183.069 117.273 182.976C118.744 182.776 120.224 182.616 121.706 182.533C124.589 182.369 127.474 182.287 130.362 182.226C136.271 182.1 142.186 182.101 148.096 182.054C148.651 182.05 149.063 182.27 149.334 182.598C149.375 181.125 149.418 179.653 149.463 178.18C148.892 178.12 148.326 178.035 147.802 177.998C146.193 177.886 144.582 177.783 142.971 177.69C139.61 177.498 136.245 177.333 132.881 177.186C129.516 177.04 126.15 176.897 122.784 176.772L121.312 176.718C118.971 176.631 116.591 176.521 114.277 176.194ZM113.219 167.314C113.508 169.702 113.793 172.09 114.077 174.479L114.163 175.219V175.219C116.978 174.671 119.945 174.511 122.784 174.39C126.151 174.247 129.511 174.173 132.881 174.183C136.247 174.194 139.608 174.273 142.971 174.412C144.652 174.482 146.332 174.562 148.012 174.653C148.474 174.678 149.015 174.665 149.572 174.673C149.585 174.298 149.595 173.922 149.608 173.547C149.659 172.027 149.709 170.506 149.761 168.986C148.625 169.57 147.148 169.805 146.006 170.054L145.876 170.083C143.991 170.506 142.066 170.781 140.142 170.948C136.363 171.278 132.545 171.155 128.77 170.836L128.109 170.779C124.794 170.491 121.357 170.127 118.143 169.306C116.612 168.916 115.03 168.369 113.658 167.576C113.515 167.493 113.368 167.406 113.219 167.314ZM145.138 138.935C145.171 138.805 145.364 138.776 145.428 138.897C145.874 139.745 146.041 140.763 146.35 141.672C146.684 142.65 146.995 143.634 147.363 144.6C148.132 146.617 149.039 148.555 150.12 150.424C151.191 152.274 148.193 153.594 147.405 151.569C146.591 149.479 145.922 147.317 145.518 145.109C145.32 144.031 145.144 142.938 145.087 141.843C145.038 140.903 144.906 139.852 145.138 138.935Z" fill="black"/>
<path fill-rule="evenodd" clip-rule="evenodd" d="M169.522 68.4446C169.451 65.9172 165.777 64.8679 164.715 67.3709C164.649 67.4379 164.578 67.5024 164.51 67.5601C164.843 67.2749 164.148 67.7467 164.035 67.805C163.938 67.8549 163.839 67.8999 163.74 67.9464C163.058 61.5438 160.74 54.6415 154.75 51.4277C146.395 47.3748 136.742 46.5837 127.577 46.9864C122.934 47.262 117.572 48.0047 113.447 45.6549C112.162 44.9227 111.131 43.7703 109.679 43.3178C105.094 42.0769 103.014 46.7871 103.638 50.6605C101.683 50.6759 99.7427 51.7591 98.8987 53.5425C98.403 54.5979 98.4117 55.7369 97.9843 56.7962C96.673 59.4825 94.7967 61.4134 95.8575 64.6703C93.9918 66.7941 95.0555 70.0094 96.561 72.0428C97.3044 73.1004 98.1899 74.1157 98.7345 75.2995C99.2631 76.433 98.4651 77.7772 98.0211 78.8517C94.738 86.6397 94.9256 95.2165 96.6922 103.34C93.1471 104.879 92.0832 109.689 94.3949 112.718C95.1903 113.789 96.1606 114.186 97.2611 114.845C98.6538 115.612 97.5163 118.683 97.9623 120.166C98.5682 123.787 101.864 126.017 105.123 123.666C107.191 123.353 108.859 129.372 110.36 130.883C111.285 132.1 112.313 133.193 113.429 134.202C116.757 142.767 133.807 147.11 142.237 146.614C151.065 145.69 157.021 138.19 161.98 131.533C164.526 127.987 166.182 124.017 166.784 119.688C167.389 115.336 167.125 110.977 166.716 106.621C165.857 97.3643 164.501 84.0289 163.626 74.6726C166.789 74.412 169.618 71.718 169.522 68.4446V68.4446Z" fill="white"/>
<path fill-rule="evenodd" clip-rule="evenodd" d="M100.567 62.8792C100.564 62.8923 100.569 62.9022 100.572 62.9162C100.572 62.9121 100.573 62.91 100.574 62.9052C100.571 62.8946 100.569 62.8876 100.567 62.8792" fill="#4F66AF"/>
<path fill-rule="evenodd" clip-rule="evenodd" d="M100.566 63.0141C100.555 63.0018 100.538 62.9927 100.522 62.9805C100.521 62.9809 100.521 62.9813 100.521 62.9817C100.536 62.9919 100.551 63.0035 100.566 63.0141" fill="#4F66AF"/>
<path fill-rule="evenodd" clip-rule="evenodd" d="M169.019 69.6403C170.058 68.7768 171.694 69.5719 171.342 70.9936C170.959 72.542 169.3 73.6 167.931 74.2362C166.521 74.8907 165.148 75.0169 163.61 74.9455L163.591 74.9412V74.9412C164.018 76.6538 164.261 78.434 164.587 80.1569C165.002 82.3427 165.409 84.5296 165.811 86.7175C166.2 88.8322 166.691 90.9497 166.989 93.0751C167.29 95.2205 167.579 97.3674 167.875 99.5134C168.369 103.098 168.767 106.698 169.187 110.293L169.388 111.995C169.808 115.596 170.147 119.202 169.35 122.785C168.602 126.144 166.919 129.277 164.966 132.081C163.054 134.826 160.918 137.466 158.573 139.854C154.05 144.46 148.473 148.149 141.933 148.833C139.117 149.127 136.109 148.8 133.462 147.776L133.286 147.707C130.606 146.648 127.324 144.836 126.627 141.862C126.199 140.038 128.078 138.613 129.725 139.479C130.489 139.88 131.063 140.339 131.69 140.913L131.801 141.016C132.313 141.492 132.51 141.638 133.101 142.01C134.313 142.773 135.221 143.134 136.598 143.48C139.136 144.119 141.875 144.018 144.452 143.263C149.923 141.659 154.167 137.474 157.802 133.278C159.776 131 161.65 128.61 163.095 125.954C164.611 123.168 165.311 120.242 165.269 117.072C165.222 113.495 164.728 109.904 164.403 106.344C164.073 102.714 163.767 99.0861 163.498 95.4515C163.246 92.043 163.222 88.6192 163.134 85.2002L163.116 84.5591C163.065 82.7441 163.029 80.9284 162.987 79.1129C162.947 77.3026 162.803 75.4694 162.99 73.6668C163.003 73.5355 163.18 73.5023 163.223 73.6351C163.333 73.9728 163.429 74.3158 163.52 74.6608C163.534 74.6502 163.549 74.6407 163.568 74.6341C164.774 74.2199 165.883 73.3929 166.788 72.501C167.65 71.6499 168.101 70.4031 169.019 69.6403ZM103.088 44.2788C103.845 41.1685 107.251 40.4738 109.77 41.9717C110.982 42.6919 111.952 43.7307 113.083 44.5563C114.209 45.3772 115.452 46.0364 116.764 46.502C119.371 47.4268 122.121 47.7631 124.876 47.7751C131.582 47.8045 138.15 45.9193 144.866 46.1296C150.062 46.2923 155.578 47.8286 159.347 51.5864C161.377 53.6107 162.686 56.2133 163.388 58.9763C163.716 60.2676 163.96 61.5902 164.153 62.9098L164.2 63.2396C164.308 64.0109 164.481 64.8273 164.497 65.6068C164.512 66.3067 164.335 67.0393 164.239 67.7321C164.037 69.1925 161.776 69.0262 161.451 67.7321C160.711 64.7857 161.02 61.7448 160.116 58.8085C159.315 56.2046 157.761 53.928 155.509 52.3709C146.011 45.8022 133.83 51.303 123.365 50.7919C120.807 50.667 118.212 50.2716 115.799 49.3905C114.555 48.9361 113.33 48.3819 112.202 47.6849C111.168 47.0467 110.273 46.2448 109.316 45.5069L108.894 45.186C108.238 44.6924 107.122 43.9206 106.46 44.5736C106.172 44.8578 106.155 45.5005 106.16 45.9912L106.163 46.213C106.193 48.2965 106.618 50.3762 105.838 52.3891C105.483 53.3072 104.495 53.8861 103.555 53.3662L103.506 53.3383C101.519 52.1553 98.907 54.5324 100.434 56.4998L100.482 56.5593C101.341 57.6038 100.883 59.4432 99.345 59.4386L99.2896 59.4377C96.5499 59.3521 95.3343 62.7774 97.6958 64.274L97.7685 64.3188C99.6857 65.4666 98.004 68.2262 96.039 67.2787C96.2055 67.3591 95.9161 67.358 95.7504 67.5803C95.5913 67.7938 95.5795 67.9785 95.6173 68.2482C95.7321 69.0653 96.4504 69.7539 97.0322 70.2708C98.3539 71.4453 99.9923 72.2563 101.681 72.75C108.443 74.7278 115.381 72.3085 121.97 70.8474C128.84 69.3242 136.598 68.7106 142.589 73.033C142.66 73.0841 142.598 73.1985 142.519 73.1528C138.22 70.6551 132.954 70.8768 128.254 71.9008C122.092 73.2437 115.983 75.7433 109.671 76.4019C111.443 79.5311 112.185 83.227 111.711 86.8062C111.386 89.2701 110.405 91.4073 109.248 93.573L109.027 93.9858C107.995 95.9298 107.195 97.7663 107.182 100.018C107.17 102.256 103.845 102.728 103.281 100.547C102.001 95.5938 106.663 91.6925 108.565 87.6081C110.191 84.1166 110.241 80.0458 108.925 76.4708C107.441 76.5902 105.945 76.6027 104.434 76.4678C103.136 76.3518 101.801 76.1178 100.5 75.7476L99.9791 77.9371C99.2893 80.8536 98.6502 83.7681 98.4566 86.7974C98.314 89.0233 98.3216 91.2602 98.5385 93.4807C98.7261 95.3985 99.1221 97.248 99.5249 99.1204C99.8706 99.5765 100.047 100.275 99.95 100.831C102.194 101.477 103.958 103.248 104.603 105.594C104.642 105.737 104.443 105.817 104.368 105.693C102.838 103.154 98.8987 102.22 96.4068 103.897C94.0271 105.499 93.0885 108.732 94.4355 111.292C95.144 112.638 96.1946 113.584 97.5491 114.235L97.8215 114.363C98.5313 114.699 99.1829 115.066 99.6394 115.741C100.232 116.616 100.252 117.541 100.196 118.542L100.171 118.947C100.134 119.618 100.126 120.308 100.325 120.953L100.371 121.096C100.423 121.257 100.479 121.399 100.575 121.553C100.603 121.598 100.873 121.863 100.961 121.959L101.072 121.992V121.992L101.195 121.997V121.997C101.333 121.999 101.513 121.94 101.454 121.981L101.47 121.972C101.522 121.939 101.57 121.905 101.611 121.874L101.687 121.815C101.867 121.555 102.091 121.341 102.367 121.178L102.631 121.06V121.06C103.315 120.337 104.487 120.717 104.978 121.437C105.331 121.955 105.521 122.482 105.537 123.001C105.592 122.912 105.714 122.864 105.792 122.963L106.257 123.556C108.037 125.831 109.786 128.12 111.808 130.193C112.922 131.336 114.12 132.409 115.373 133.398C116.442 134.243 118.471 135.055 118.502 136.593C118.512 137.092 118.157 137.446 117.724 137.615C116.313 138.167 114.569 136.291 113.55 135.379L113.467 135.305C112.22 134.212 111.081 133.012 110.031 131.729C107.991 129.237 106.285 126.369 105.533 123.214C105.498 123.764 105.261 124.304 104.802 124.813C104.19 125.491 103.352 125.966 102.457 126.162C100.43 126.605 98.4511 125.875 97.2449 124.185C96.2255 122.757 95.9253 120.87 96.0569 119.145L96.0731 118.937C96.0916 118.661 96.1151 118.153 96.1867 117.937L95.5485 117.586V117.586C94.7659 117.169 94.0406 116.623 93.3897 116.023C90.7736 113.61 89.461 109.689 90.657 106.258C91.4051 104.111 92.9771 102.244 94.9901 101.273C94.6536 100.495 94.5411 99.5713 94.4142 98.754L94.3928 98.6188C94.1775 97.278 93.9973 95.9203 93.9287 94.5634C93.8002 92.0293 93.9563 89.4716 94.3544 86.9669C95.0009 82.8986 96.3392 78.5841 98.7925 75.1712C96.9209 74.4277 95.1982 73.3513 93.8685 71.8566C92.479 70.2947 91.5931 68.0586 92.6676 66.0751C92.9414 65.5696 93.2982 65.1445 93.7083 64.807C92.9972 63.4637 92.7671 61.876 93.2059 60.3585C93.7303 58.5443 95.154 57.1293 96.874 56.4686C96.4563 54.7497 96.7977 52.9008 98.074 51.4683C99.3399 50.0471 101.306 49.5296 103.125 49.8544C103.224 48.0262 102.649 46.0818 103.088 44.2788ZM97.9849 108.466C99.6531 107.649 101.63 107.779 103.296 108.553L103.409 108.606C105.229 109.489 107.638 111.551 107.06 113.744C106.721 115.026 105.297 115.464 104.192 114.911C103.27 114.448 103.059 113.621 102.597 112.79C102.269 112.203 101.865 111.743 101.39 111.271C100.388 110.276 99.2629 109.536 97.9849 108.945C97.8007 108.86 97.8071 108.553 97.9849 108.466ZM140.017 64.1394C139.861 64.0679 139.974 63.823 140.131 63.8678C144.323 65.0653 148.231 67.7533 150.567 71.4842C150.709 71.7119 150.731 72.0866 150.567 72.3119L150.491 72.4141C150.384 72.554 150.278 72.6573 150.077 72.6885C149.698 72.7473 149.369 72.6486 149.151 72.3119C146.851 68.7557 143.903 65.9177 140.017 64.1394ZM168.078 64.8436C168.433 64.2419 169.375 64.363 169.562 65.0376L169.589 65.0963C169.691 65.3263 169.645 65.3734 169.456 65.2433C169.923 65.6284 170.135 66.202 169.992 66.8187C169.22 70.1496 165.449 72.5281 162.161 72.2007C161.874 72.1722 161.835 71.8194 162.095 71.7142C163.36 71.2019 164.483 70.3698 165.386 69.3487C166.263 68.3562 166.632 67.2207 167.104 66.0221C167.281 65.5721 167.557 65.2481 167.945 65.0712C167.996 65.0002 168.041 64.9246 168.078 64.8436ZM149.382 62.7032L149.405 62.7046C151.094 62.9229 152.555 63.7569 153.741 64.979C154.884 66.1558 156.326 68.0976 156.202 69.8246C156.12 70.9695 154.493 71.624 153.886 70.4523C153.524 69.7532 153.442 68.9868 153.188 68.2475C152.955 67.5699 152.634 66.9266 152.249 66.3231C151.456 65.08 150.366 64.0268 149.251 63.0766C149.12 62.9654 149.211 62.7038 149.382 62.7032V62.7032ZM106.054 62.1958C105.679 61.839 106.069 61.2308 106.545 61.3512C109.058 61.9876 111.546 62.7616 114.158 62.8385C115.463 62.8768 116.761 62.7738 118.053 62.605L118.708 62.518C119.715 62.3864 120.741 62.2831 121.737 62.4902C122.401 62.6282 122.531 63.4842 122.117 63.9308C120.163 66.0398 116.393 65.8382 113.801 65.4827C110.986 65.0964 108.146 64.1897 106.054 62.1958ZM151.427 55.6218C151.255 55.3832 151.545 55.0066 151.819 55.1125C154.316 56.0779 156.932 58.5915 157.62 61.2213C157.802 61.916 156.926 62.4406 156.412 61.9249C155.454 60.9639 154.777 59.8287 153.967 58.7485C153.16 57.6717 152.216 56.7153 151.427 55.6218ZM110.514 56.7963C110.314 56.5962 110.515 56.1976 110.803 56.2994C112.429 56.8754 114.067 57.3737 115.775 57.6352C117.524 57.9028 119.29 57.6994 121.048 57.8079C121.76 57.8516 122.244 58.9587 121.453 59.3032C117.939 60.8336 113.167 59.4458 110.514 56.7963ZM115.004 53.3637C114.725 53.157 114.884 52.5897 115.264 52.748C116.812 53.3929 118.378 53.5514 120.039 53.485C120.653 53.4603 120.782 54.4251 120.184 54.5553C118.347 54.9549 116.505 54.4737 115.004 53.3637Z" fill="black"/>
<path fill-rule="evenodd" clip-rule="evenodd" d="M143.152 128.274C141.732 127.695 140.465 126.728 139.538 125.493C139.216 125.064 139.133 124.61 139.2 124.196C139.276 123.729 139.552 123.307 139.928 123.023C140.305 122.739 140.777 122.599 141.233 122.67C141.63 122.732 142.024 122.949 142.337 123.4L142.402 123.49C142.953 124.235 143.67 124.847 144.488 125.241C145.276 125.621 146.158 125.798 147.07 125.695C148.808 125.499 150.005 124.559 151.278 123.282C151.436 123.121 151.594 122.955 151.752 122.786C151.852 122.633 151.991 122.535 152.146 122.483C152.317 122.426 152.511 122.429 152.689 122.491C152.86 122.551 153.013 122.664 153.116 122.815C153.213 122.958 153.269 123.135 153.251 123.339C153.134 124.662 152.443 125.842 151.461 126.769C150.37 127.799 148.924 128.511 147.563 128.761C146.064 129.036 144.536 128.839 143.152 128.274V128.274ZM148.271 107.866C149.866 108.837 152.297 111.099 150.581 113.504C148.56 115.624 145.652 113.193 144.219 112.093C142.89 111.241 141.396 113.433 142.629 114.428C152.987 122.099 157.19 108.12 149.078 106.726C148.184 106.572 147.853 107.566 148.271 107.866ZM129.711 98.9431C129.887 96.7543 133.219 96.2573 133.551 98.4232C133.847 100.363 133.498 102.146 132.624 103.893C131.79 105.561 129.692 104.783 129.533 103.263C129.32 101.226 129.601 100.305 129.711 98.9431ZM155.076 97.9741C155.541 97.3654 156.212 96.9499 157.015 97.1847C159.526 97.9187 158.786 101.485 157.904 103.221C157.425 104.163 155.876 104.402 155.176 103.572C154.036 102.219 153.489 99.5159 154.94 98.1827C154.979 98.1138 155.023 98.0443 155.076 97.9741ZM132.589 89.3656L132.986 89.2962C134.213 89.0839 135.738 88.8799 136.606 89.8667C137.067 90.39 137.225 91.3627 136.606 91.8636C135.518 92.7449 134.314 92.4033 133.01 92.4779C131.935 92.5397 130.902 92.7176 129.867 93.0137C127.595 93.6632 125.744 94.8489 123.804 96.1508C123.55 96.3216 123.29 95.9959 123.411 95.7577C124.531 93.5632 126.701 91.7606 128.875 90.6618C130.036 90.0753 131.305 89.5888 132.589 89.3656ZM152.787 88.3826L153.091 88.4447C156.395 89.1356 160.687 90.5155 162.251 93.7617C162.311 94.2208 162.248 94.3192 162.197 94.3834L162.18 94.4048C162.137 94.4597 162.104 94.5354 161.905 94.5978C161.85 94.5847 161.794 94.5708 161.737 94.556C161.02 94.368 160.453 94.109 159.904 93.8402L159.308 93.5467C158.617 93.2078 157.92 92.8812 157.181 92.6401C155.605 92.1257 153.983 91.7633 152.337 91.5698C151.98 91.5279 151.636 91.4074 151.365 91.2009C151.108 91.0049 150.911 90.7334 150.821 90.3727C150.705 89.9058 150.739 89.5523 150.989 89.1311C151.177 88.8148 151.447 88.5956 151.756 88.4697C152.071 88.3413 152.43 88.3111 152.787 88.3826Z" fill="black"/>
<path fill-rule="evenodd" clip-rule="evenodd" d="M159.38 76.3796C160.601 75.9609 161.575 77.2314 161.34 78.3386C161.064 79.6427 159.703 80.6893 158.801 81.6084C157.854 82.5764 156.889 83.5254 155.887 84.4384C153.975 86.1844 151.994 87.8285 149.904 89.3608L149.265 89.8291C147.35 91.231 145.44 92.6003 143.389 93.8139C142.278 94.4691 141.156 95.1032 140.019 95.714C139.614 95.9317 139.119 96.2675 138.61 96.5171C140.471 97.9543 141.904 100.148 142.214 102.192C142.983 107.268 139.713 111.973 135.099 113.844C132.798 114.776 130.237 115.046 127.778 114.765C125.277 114.48 122.742 113.74 121.117 111.69C119.674 109.87 119.154 107.548 119.051 105.267C119.002 104.185 119.013 103.119 119.241 102.162C118.246 102.171 117.251 102.166 116.264 102.177C113.826 102.2 111.384 102.211 108.944 102.143C106.428 102.071 103.924 101.959 101.416 101.736C100.316 101.636 99.2213 101.473 98.1267 101.317C97.0642 101.167 95.8917 101.11 94.8987 100.674C94.8311 100.647 94.8591 100.55 94.9177 100.53C95.9762 100.188 97.1783 100.249 98.2811 100.182L99.356 100.117C100.251 100.063 101.146 100.014 102.044 99.9851C104.118 99.9169 106.19 99.9001 108.264 99.8646L109.153 99.848C111.593 99.7994 114.033 99.7719 116.473 99.6937C117.485 99.662 118.499 99.6028 119.516 99.5479C119.634 99.2792 119.807 99.0341 119.974 98.7954C120.473 98.0811 121.106 97.4513 121.764 96.8806C123.109 95.7053 124.624 94.8326 126.314 94.2472C127.989 93.669 130.439 93.3822 132.211 93.4195C133.983 93.4568 136.508 93.7068 137.319 95.156C137.404 95.3061 138.948 95.0165 139.406 94.6655C140.478 93.8477 141.53 93.0066 142.563 92.1443C144.481 90.5401 146.454 88.9613 148.271 87.2452C150.145 85.474 152.004 83.6733 153.787 81.8134C154.683 80.8814 155.577 79.9472 156.445 78.9919C157.333 78.0176 158.095 76.8171 159.38 76.3796Z" fill="black"/>
</svg>
