<svg width="259" height="324" viewBox="0 0 259 324" fill="none" xmlns="http://www.w3.org/2000/svg">
<path fill-rule="evenodd" clip-rule="evenodd" d="M245.914 194.941C248.078 193.811 250.191 192.583 252.27 191.305C253.735 190.428 252.438 188.221 250.936 189.018C250.168 189.426 249.403 189.839 248.635 190.244C249.24 189.723 249.8 189.157 250.302 188.539L250.267 188.504C252.203 186.769 249.716 183.495 247.515 184.92C245.573 186.328 243.613 187.765 241.384 188.692C236.768 190.651 231.676 190.975 226.721 191.031C224.907 190.895 223.175 191.209 221.416 191.559C222.106 188.791 223.832 186.701 224.748 184.019C225.423 181.312 221.517 179.469 220.133 182.071C219.793 182.71 219.469 183.356 219.153 184.006C216.161 186.728 211.165 186.488 208.147 189.411C206.428 190.937 205.587 193.008 205.255 195.086C205.029 196.498 205.38 197.912 204.527 199.162C200.403 204.997 193.888 214.22 190.578 220.642C188.236 205.382 181.98 186.509 175.517 172.556C173.38 168.094 170.935 163.734 167.725 159.952C168.089 158.69 166.805 156.451 165.988 157.14C163.475 154.069 159.032 153.274 155.459 151.747C150.637 149.684 146.635 145.396 144.669 140.522C142.141 131.241 135.92 130.062 127.292 130.472C119.035 130.462 112.926 133.995 111.124 142.404C107.464 148.786 98.8218 147.731 92.6044 149.42C88.0477 150.462 83.6257 152.072 79.4232 154.116C74.748 149.679 58.004 168.298 56.482 173.09C57.378 173.263 58.2685 173.473 59.151 173.727C59.9369 173.955 59.6069 175.142 58.8142 174.952C57.8278 174.715 56.8351 174.552 55.8377 174.439C55.8072 174.534 55.7806 174.629 55.7608 174.723C55.6488 174.715 55.537 174.706 55.4251 174.698C55.6733 174.827 55.9122 174.977 56.1451 175.171C56.7079 175.638 55.9752 176.541 55.3771 176.168C54.8137 175.746 54.0757 175.813 53.3999 175.671C53.3597 177.062 48.4006 175.506 47.6303 175.046C44.2068 174.617 40.6847 175.077 37.4887 173.425C33.2361 172.529 28.9515 171.539 24.7467 170.398C23.6335 170.832 22.5873 172.385 23.4715 173.525C23.9688 174.044 23.3295 174.891 22.7033 174.522C20.6031 173.285 18.9789 171.355 17.6018 169.275C16.9537 168.621 15.8031 168.762 14.9323 168.49C14.8158 168.7 14.7472 168.933 14.7482 169.172C11.0542 169.78 13.6894 173.817 15.5464 175.074C14.5613 175.716 14.5239 176.972 14.6101 178.022C14.4013 178.396 14.3316 178.859 14.5133 179.278C15.208 180.879 16.7103 182.228 17.8526 183.525C19.1139 184.958 20.2384 186.399 21.7731 187.56C27.6227 192.021 34.6818 194.515 41.9236 195.49C44.4949 195.885 48.1936 196.49 49.7857 198.665C49.3951 201.246 48.6778 203.722 48.0271 206.239C47.1172 209.581 47.1791 213.079 47.167 216.485C47.0399 216.383 46.7956 216.404 46.7593 216.599C46.5476 218.011 46.3902 219.455 45.5323 220.642C44.7801 222.848 44.2796 225.201 43.9984 227.519C42.872 238.509 42.603 249.822 45.1429 260.64C46.123 264.653 47.717 268.467 49.8888 271.979C50.5363 273.027 51.5775 273.334 52.5123 273.128C55.6412 274.754 59.5828 275.275 62.9553 274.862C74.4527 271.606 70.4466 279.447 86.567 277.046C114.392 273.5 142.513 280.468 170.279 276.377C170.963 281.661 179.915 280.145 183.025 277.912C192.349 270.977 196.979 249.023 201.658 237.886C204.875 229.108 210.261 213.56 217.314 207.67C219.429 206.015 221.986 205.144 224.544 204.44C234.091 201.979 243.674 199.652 253.239 197.259C254.861 196.86 254.57 194.092 252.835 194.27C250.533 194.505 248.223 194.719 245.914 194.941Z" fill="white"/>
<path fill-rule="evenodd" clip-rule="evenodd" d="M33.3896 193.294C32.7431 193.214 32.1093 192.983 31.4797 192.802C30.5184 192.52 29.5762 192.193 28.6487 191.819C26.7346 191.052 24.8776 190.145 23.1368 189.035C20.3248 187.241 17.8403 184.941 15.9663 182.173L15.8377 181.98C14.7679 180.349 12.7944 176.73 15.0072 175.492C13.5811 174.3 12.2332 172.159 12.3092 170.506C12.417 168.169 15.2818 168.2 16.7627 169.191C17.7325 169.84 18.4592 170.749 19.1881 171.643C19.9951 172.637 20.8571 173.583 21.7529 174.494C21.9906 174.735 22.2306 174.971 22.4748 175.204L22.7205 175.435C22.6825 175.344 22.6487 175.251 22.6191 175.156C22.1247 173.615 22.7142 171.609 24.2543 170.904C25.1968 170.471 26.1756 170.735 27.089 171.102L27.2289 171.159C28.4585 171.668 29.7029 172.119 30.9832 172.48C36.2015 173.953 41.648 174.198 46.9951 174.934C49.055 175.219 51.1529 175.578 53.2022 176.107C53.9838 172.787 55.9 169.604 57.9789 166.985C67.9338 154.458 84.3514 150.318 99.3704 147.638C100.739 147.395 101.874 149.208 102.671 148.779C104.181 147.968 105.51 146.818 106.676 145.569C109.163 142.904 110.927 139.769 112.999 136.8C114.024 135.333 116.382 136.646 115.431 138.22L114.965 138.99C113.048 142.142 110.924 145.39 108.174 147.835C106.712 149.132 105.09 150.157 103.235 150.798C101.83 151.282 99.8586 151.69 98.3205 151.22L98.136 150.951C98.197 151.041 98.2585 151.131 98.3205 151.22C102.335 157.039 107.371 161.963 112.678 166.611C118.035 171.299 123.814 175.498 129.627 179.603L130.112 179.945C139.583 173.034 147.584 164.02 153.197 153.721C152.021 153.579 150.856 152.825 149.851 152.262C148.64 151.582 147.502 150.77 146.614 149.688C144.681 147.332 144.933 144.294 144.584 141.435C144.563 141.257 144.797 141.213 144.905 141.302C145.953 142.172 146.321 143.599 146.758 144.831C147.24 146.186 147.785 147.302 148.89 148.255C149.918 149.143 151.173 149.796 152.392 150.377C153.021 150.675 156.142 151.442 156.497 152.076C161.889 150.81 167.141 152.998 171.136 156.688C174.996 160.254 177.829 164.888 180.33 169.464C182.999 174.346 185.185 179.436 187.07 184.666C188.98 189.976 190.444 195.401 191.249 200.989C191.928 205.7 192.345 210.486 192.614 215.25L192.647 215.845C196.636 209.583 200.724 203.386 204.897 197.244C203.948 194.71 204.998 192.123 206.775 190.166C208.744 188 211.467 186.994 214.072 185.823L214.414 185.668C215.67 185.095 216.921 184.464 218.006 183.606C219.049 182.777 219.816 181.636 220.915 180.873C222.512 179.761 225.411 179.998 225.485 182.426C225.523 183.76 224.95 185.222 224.426 186.421C223.832 187.776 223.032 189.004 222.081 190.132C222.037 190.185 221.989 190.226 221.94 190.259L221.904 190.282C223.218 190.5 224.542 190.675 225.892 190.737C228.616 190.861 231.368 190.661 234.035 190.086C236.764 189.498 239.409 188.543 241.864 187.211C243.962 186.074 245.906 184.603 248.289 184.257C248.508 184.223 248.73 184.202 248.958 184.189C249.339 184.168 249.719 184.616 249.569 184.992C249.487 185.199 249.4 185.404 249.305 185.611C248.481 187.427 247.217 189.188 245.641 190.525L245.519 190.627C246.075 190.434 246.622 190.219 247.161 189.976C250.328 188.549 253.201 186.393 256.596 185.527C256.756 185.485 256.919 185.446 257.082 185.411C258.132 185.184 258.685 186.326 258.068 187.108C257.969 187.235 257.87 187.359 257.766 187.484C256.252 189.365 254.58 191.111 252.738 192.679C252.106 193.216 251.456 193.736 250.792 194.232C250.513 194.443 250.232 194.649 249.948 194.852L249.808 194.951C250.139 194.716 250.467 194.478 250.792 194.232C252.871 193.602 254.92 192.856 256.925 192.03C257.722 191.702 258.341 192.51 258.425 193.173C258.709 195.397 256.241 197.005 254.635 198.075C253.025 199.148 251.253 199.964 249.438 200.619C245.949 201.881 242.284 202.454 238.625 202.967L236.848 203.215C229.813 204.199 222.466 205.375 217.418 210.851C214.589 213.92 212.675 217.732 210.924 221.484C209.175 225.231 207.639 229.078 206.181 232.946C204.67 236.948 203.354 241.025 201.956 245.068C200.671 248.781 199.137 252.446 197.617 256.074L197.378 256.646C194.151 264.356 190.298 271.618 184.928 278.056C184.042 279.119 182.612 277.61 183.43 276.557C189.047 269.312 192.956 260.763 196.182 252.235C197.65 248.355 198.88 244.381 200.291 240.48L201.131 238.162C202.252 235.073 203.383 231.987 204.563 228.921C206.056 225.043 207.698 221.211 209.576 217.504L209.775 217.114C211.614 213.537 213.799 210.013 216.806 207.306C222.218 202.433 229.419 201.264 236.383 200.338L238.573 200.049C241.517 199.658 244.469 199.226 247.332 198.438C248.984 197.986 250.598 197.407 252.115 196.608C252.719 196.291 253.309 195.942 253.879 195.562C252.252 196.04 250.602 196.43 248.923 196.737C248.101 196.887 247.287 196.999 246.476 197.077C244.387 197.284 242.314 197.276 240.174 197.164C239.992 197.153 239.933 196.868 240.128 196.832C241.618 196.567 243.11 196.235 244.596 195.876L245.042 195.767C245.05 195.52 245.147 195.257 245.35 195.008C246.09 194.108 247.494 193.647 248.468 193.011C249.489 192.345 250.478 191.627 251.42 190.857C252.282 190.153 253.11 189.409 253.906 188.632L254.145 188.397C254.066 188.475 253.986 188.554 253.906 188.632C251.756 189.625 249.717 190.899 247.471 191.686C245.686 192.313 243.814 192.736 241.925 192.886L241.808 192.895L241.691 192.903C239.72 193.045 237.736 192.988 235.794 193.414C235.577 193.463 235.509 193.171 235.704 193.089C237.4 192.383 239.164 192.11 240.947 191.781C240.985 191.641 241.082 191.516 241.251 191.436L241.708 191.218C243.066 190.565 244.333 189.907 245.462 188.847C246.459 187.911 247.29 186.816 247.913 185.603C245.418 186.15 243.227 188.042 240.958 189.105C238.486 190.265 235.87 191.098 233.183 191.572L232.877 191.624C227.855 192.462 221.816 192.355 217.317 189.743C217.173 189.659 217.277 189.467 217.425 189.49C218.701 189.699 219.964 189.946 221.228 190.166C220.98 189.94 220.87 189.534 221.156 189.209C222.29 187.908 223.188 186.421 223.761 184.794L223.871 184.476C224.135 183.721 224.582 182.549 224.126 181.868C223.691 181.219 222.666 181.308 222.054 181.583C220.78 182.158 219.932 183.593 218.859 184.459C217.689 185.406 216.358 186.108 214.995 186.736L214.707 186.867C212.35 187.927 209.832 188.82 207.979 190.692C206.982 191.698 206.124 192.956 205.837 194.365C205.706 195.012 205.706 195.678 205.879 196.318C206.016 196.819 206.304 197.128 206.139 197.637C205.923 198.294 205.161 199.081 204.768 199.666C204.311 200.343 203.857 201.021 203.403 201.699C202.497 203.056 201.594 204.417 200.692 205.776C198.888 208.498 197.103 211.233 195.332 213.977C194.756 214.87 194.182 215.764 193.61 216.659L192.753 218.003L192.3 218.711L191.528 219.926C191.555 220.038 191.553 220.157 191.517 220.26C191.385 220.635 191.139 220.892 190.832 221.078L190.778 221.11C186.269 228.239 181.832 235.414 177.351 242.56C177.113 244.741 176.889 246.924 176.694 249.107C176.253 254.049 175.951 259.003 175.854 263.963C175.807 266.364 175.999 268.78 176.103 271.179C176.154 272.323 176.223 273.467 176.314 274.61L176.38 275.42C176.469 276.534 176.52 277.639 176.12 278.701C175.765 279.633 174.683 279.842 174.043 279.132C165.692 278.796 157.334 278.54 148.976 278.381C134.016 278.094 119.05 278.138 104.088 278.428C96.5733 278.574 89.0564 278.779 81.5437 279.032C77.8423 279.155 74.1388 279.328 70.4353 279.379C68.4399 279.406 65.2995 278.679 65.1385 276.434L65.1346 276.365C64.8853 276.433 64.6275 276.488 64.3634 276.528C64.2459 276.546 64.133 276.541 64.0287 276.516L63.9768 276.503C61.0025 277.41 57.24 276.116 54.4137 275.361L54.1804 275.3C51.4825 274.596 49.3149 273.59 47.5466 271.354C44.4515 267.438 43.3952 262.179 42.8459 257.333C42.3304 252.772 42.3008 248.127 42.9283 243.574C42.5585 239.865 42.9198 236.038 43.3402 232.349C43.5473 230.525 43.7902 228.703 44.0818 226.89C44.2445 225.878 44.4578 224.876 44.6754 223.876C44.7623 223.477 44.8347 223.047 44.9448 222.631L44.9944 222.454C44.6564 222.498 44.2867 222.424 43.9296 222.228C43.0804 221.761 42.8332 220.816 42.8184 219.912C42.7719 217.185 43.0973 214.38 43.3846 211.671C43.674 208.966 44.0712 206.25 44.5909 203.578L44.7254 202.889C45.1192 200.891 45.5698 198.828 46.3635 196.95C43.3825 196.443 40.41 195.904 37.5177 194.987C36.1065 194.537 34.7163 193.977 33.3896 193.294ZM188.98 221.668C188.933 221.678 188.889 221.691 188.844 221.704C187.653 222.038 186.449 222.321 185.249 222.625C183.174 223.147 181.146 223.731 179.217 224.637C178.813 229.739 178.214 234.825 177.644 239.913L177.531 240.93C178.406 239.307 179.301 237.697 180.237 236.105C183.087 231.255 186.003 226.442 188.98 221.668ZM45.7211 222.173C45.7274 222.779 45.6007 223.409 45.5331 223.993C45.4232 224.94 45.3345 225.891 45.2225 226.837C44.9943 228.739 44.8 230.644 44.6584 232.554C44.5676 233.774 44.5084 234.998 44.4556 236.221C45.6535 231.743 47.2401 227.362 48.7486 222.974C48.4964 222.947 48.2387 222.886 47.9728 222.815L47.5252 222.694C47.2613 222.626 46.4051 222.416 45.7211 222.173ZM192.753 218.003L192.761 218.204C192.793 218.916 192.366 219.317 191.849 219.421C192.149 218.948 192.451 218.474 192.753 218.003ZM55.6826 184.246C56.9438 184.358 58.1798 184.627 59.3586 185.091L59.4724 185.136C60.3443 185.473 61.6192 185.896 61.9044 186.827C61.9847 187.091 61.7692 187.308 61.522 187.33C60.5755 187.406 59.46 186.391 58.5833 186.049C57.6072 185.668 56.5847 185.385 55.5495 185.235C53.2234 184.895 50.7981 185.153 48.6093 186C48.4805 186.051 48.4002 185.846 48.5164 185.785C50.722 184.584 53.1748 184.024 55.6826 184.246ZM28.9552 190.291C28.8093 190.162 28.6636 190.026 28.5199 189.891C27.3872 188.819 26.3842 187.568 25.6415 186.194L25.446 185.822C24.8411 184.65 24.0984 182.981 25.5199 182.137C26.3692 181.632 27.3917 181.758 28.3382 182.065C28.3995 182.084 28.4607 182.105 28.522 182.126C28.9446 182.274 29.3523 182.452 29.7157 182.621C31.2938 183.346 32.6861 184.4 34.1438 185.33C35.7234 186.339 37.283 186.983 39.106 187.36L39.2777 187.395C40.9889 187.733 42.8438 187.951 44.0375 189.359C44.3375 189.714 44.0629 190.379 43.5453 190.204C40.2453 189.09 36.753 188.845 33.7234 187.017C32.4685 186.26 31.2812 185.392 29.9988 184.675C29.3185 184.294 28.6161 183.961 27.8676 183.733L27.4587 183.613C27.2192 183.543 26.9333 183.474 26.741 183.542C26.3751 183.669 26.4919 183.865 26.6051 184.207L26.6164 184.242C27.5058 186.994 30.041 189.297 32.3903 190.821C32.9291 191.172 33.4805 191.493 34.0424 191.791C37.8464 193.82 42.1028 194.764 46.2832 195.884C46.2832 195.884 48.7002 196.559 49.501 196.813C50.3925 196.739 51.4087 197.054 52.0805 197.43C52.7333 197.796 53.2594 198.286 53.6566 198.863C53.6566 198.863 54.039 199.182 54.1087 199.677C54.3094 200.135 54.4446 200.63 54.5122 201.146C54.5502 201.448 54.4742 201.68 54.3305 201.845C54.7626 208.48 52.9712 215.077 50.9515 221.383L50.7514 222.005L50.6228 222.399C48.4446 229.084 45.9453 235.721 44.8298 242.691C44.0841 247.347 44.1073 252.165 44.6545 256.843L44.6931 257.165C45.2322 261.587 46.2695 266.548 49.0805 270.107C50.5143 271.923 52.213 272.731 54.3848 273.316L54.5038 273.347C56.4686 273.865 58.4967 274.598 60.5228 274.82C62.4031 275.025 63.9791 274.326 65.6714 273.67L65.6734 273.668C69.2376 270.513 70.8559 265.918 72.0516 261.281C75.1509 249.281 74.7664 236.824 73.0087 224.648C72.0918 218.286 70.8453 211.979 69.603 205.675C68.9819 202.524 68.3122 199.379 67.7566 196.217L67.4266 194.356C67.2445 193.322 67.0684 192.288 66.9178 191.248C66.715 189.851 66.6538 188.477 66.584 187.072C64.877 184.242 62.3988 181.911 59.5277 180.239C57.4721 179.041 55.296 178.21 53.0502 177.608C46.6298 175.877 39.6305 175.999 33.1699 174.668C30.9996 174.221 28.9394 173.558 26.8803 172.763L26.5995 172.653C25.6551 172.286 24.6918 172.081 24.2227 173.195C23.8889 173.987 24.0875 174.811 24.5882 175.477C25.8157 177.109 28.2833 177.865 30.1403 178.453C31.258 178.808 32.3988 179.089 33.5523 179.298C34.7058 179.508 35.8636 179.56 36.9706 179.968C37.3974 180.125 37.4819 180.803 36.9706 180.923C35.5678 181.251 34.1565 180.97 32.7622 180.697C31.2305 180.395 29.722 179.966 28.2558 179.423C27.9854 179.323 27.7055 179.218 27.4205 179.106L27.2058 179.021C27.4277 179.182 27.6495 179.341 27.8734 179.499C27.9326 179.541 27.8967 179.653 27.8185 179.626C24.371 178.339 21.2343 176.018 18.8042 173.271L18.6833 173.133C17.8277 172.153 15.8777 169.185 14.234 170.012C12.6906 170.787 15.3216 173.774 16.3215 174.996L16.4376 175.139C17.5742 175.169 18.6749 175.876 19.596 176.447C21.1953 177.439 22.8664 178.292 24.5693 179.091C27.9538 180.683 31.5474 181.805 34.896 183.477C34.9404 183.5 34.9066 183.557 34.8643 183.551C32.7326 183.21 30.6242 182.667 28.5643 181.993L28.4724 181.964L28.3805 181.934C27.0939 181.511 25.8242 181.034 24.5756 180.524C23.1876 179.958 21.8312 179.322 20.515 178.601C19.3235 177.95 18.001 176.777 16.6193 176.604C16.4714 176.585 16.3404 176.582 16.2263 176.593C14.6397 176.726 15.9517 179.355 16.3953 180.142C17.12 181.433 17.9946 182.625 18.9982 183.713C21.0327 185.924 23.4982 187.676 26.1665 189.039C27.077 189.504 28.0087 189.914 28.9552 190.291Z" fill="black"/>
<path fill-rule="evenodd" clip-rule="evenodd" d="M129.727 53.9492C141.723 53.9492 159.281 61.9629 160.602 69.6728C162.158 78.7587 165.614 112.924 163.732 124.104C161.851 135.285 154.514 143.546 138.289 143.546C122.064 143.546 109.953 134.694 107.173 131.655C104.392 128.616 101.023 119.158 101.023 119.158C101.023 119.158 92.1396 117.651 92.0984 110.567C92.0572 103.483 96.561 101.294 96.561 101.294C96.561 101.294 94.1303 71.9058 99.2391 64.6271C104.348 57.3483 117.731 53.9492 129.727 53.9492Z" fill="white"/>
<path fill-rule="evenodd" clip-rule="evenodd" d="M165.945 91.3745C166.602 98.516 166.849 105.719 166.976 112.888C167.098 119.681 166.501 126.765 162.632 132.573C159.25 137.654 154.099 141.342 148.363 143.333C145.099 144.468 141.484 144.888 138.037 144.992C136.256 145.045 134.47 144.969 132.7 144.785C132.477 144.762 132.253 144.742 132.029 144.722C130.53 144.588 129.043 144.455 127.95 143.322C127.606 142.965 127.61 142.232 128.12 141.999C129.089 141.558 129.746 141.511 130.809 141.657C131.69 141.777 132.573 141.872 133.46 141.934C135.362 142.067 137.276 142.071 139.177 141.925C142.672 141.657 146.246 140.67 149.419 139.173C154.395 136.823 158.669 132.972 160.976 127.919C163.621 122.133 163.488 115.443 163.364 109.212L163.359 108.957C163.222 102.046 162.966 95.1556 162.366 88.2677C162.139 85.6619 161.815 83.0704 161.491 80.4779C161.399 79.748 161.308 79.0181 161.219 78.2877C161.005 76.5208 160.725 74.7622 160.38 73.0166C160.276 72.4894 160.155 71.9665 160.033 71.4442C159.942 71.0512 159.851 70.6586 159.768 70.2649C159.626 70.2879 159.482 70.3008 159.334 70.3069C158.451 70.3367 157.486 70.1211 156.831 69.4934C156.579 69.6646 156.26 69.7724 155.876 69.7914C153.527 69.9075 151.155 69.8557 148.788 69.8041C147.495 69.776 146.203 69.7478 144.917 69.747C141.267 69.7449 137.614 69.747 133.961 69.7576C133.404 69.7592 132.847 69.7613 132.29 69.7635C129.196 69.7753 126.097 69.7872 123.007 69.7048C122.352 69.6872 121.693 69.6758 121.032 69.6644C118.264 69.6166 115.456 69.568 112.752 69.0665C111.626 73.0695 111.666 77.4677 114.013 81.0437C114.676 82.0519 114.138 83.2396 113.274 83.8695C112.391 84.5122 110.803 85.4977 109.444 85.5989C109.392 85.7173 109.338 85.8354 109.285 85.9533C109.206 86.13 109.126 86.3062 109.049 86.4822C108.401 87.9602 107.817 89.4474 107.408 91.0123C107.197 91.8188 107.016 92.6386 106.863 93.4635C106.876 93.6079 106.889 93.752 106.904 93.8959C106.904 93.9107 106.906 93.9253 106.908 93.9422C106.917 94.0016 106.927 94.0692 106.934 94.1073C106.953 94.2088 106.972 94.3104 106.991 94.4119C107.049 94.7245 107.108 95.0368 107.17 95.3479C107.367 96.3518 107.519 97.3642 107.627 98.3806C107.823 100.241 107.804 102.659 105.991 103.76C105.022 104.349 103.86 104.288 102.835 103.893C102.264 103.672 101.763 103.375 101.247 103.069C101.142 103.007 101.035 102.943 100.927 102.88C100.761 102.783 100.591 102.693 100.421 102.604C100.208 102.492 99.9952 102.38 99.7905 102.253C99.6893 102.189 99.5922 102.113 99.5013 102.033C98.8147 102.179 98.1448 102.451 97.7689 102.637C96.761 103.138 95.876 103.863 95.1236 104.696C93.5245 106.469 93.045 108.967 93.2689 111.286C93.4779 113.444 94.3253 115.923 96.03 117.358C96.7715 117.983 97.6971 118.349 98.6753 118.339C99.1567 118.334 99.6006 118.233 100.065 118.11C100.264 118.058 100.482 118.035 100.7 118.013C100.987 117.983 101.273 117.953 101.513 117.857C102.14 117.605 102.913 118.372 102.658 119.002C102.601 119.142 102.551 119.277 102.503 119.408C102.389 119.719 102.284 120.003 102.114 120.264C103.864 123.121 105.78 125.89 107.819 128.547C109.111 130.229 110.565 131.724 112.025 133.225C112.641 133.858 113.258 134.493 113.865 135.143C114.768 136.111 115.144 138.017 113.51 138.431C112.074 138.799 110.958 137.481 110.072 136.436C109.954 136.296 109.839 136.161 109.729 136.035C105.852 131.624 102.922 126.56 101.55 120.843C100.932 121.283 100.222 121.522 99.4736 121.625C97.9842 121.83 96.4781 121.536 95.1724 120.782C90.2286 117.926 89.0328 110.21 91.3483 105.374C91.9067 104.21 92.7315 103.171 93.7369 102.363C93.6576 102.212 93.6264 102.034 93.6773 101.844C93.7667 101.509 93.8649 101.179 93.968 100.85C93.8554 100.8 93.773 100.697 93.7886 100.543C93.8673 99.7383 93.9443 98.9337 94.0212 98.1291L94.0633 97.6897C94.0536 97.2535 94.0404 96.8175 94.0273 96.3814C93.997 95.3805 93.9668 94.3787 93.9786 93.3718C93.9905 92.3004 94.027 91.2294 94.0635 90.1585C94.1055 88.9268 94.1475 87.695 94.152 86.4627C94.1657 82.4717 94.2533 78.4827 94.3408 74.4937C94.4296 70.4514 94.5184 66.409 94.5302 62.3646C94.5426 58.4354 94.5511 54.5002 94.4476 50.5733C94.4465 50.5455 94.4459 50.5182 94.4454 50.491C94.4449 50.4665 94.4445 50.4419 94.4436 50.4169C94.4306 49.935 94.4 49.4281 94.3686 48.9078C94.1954 46.0354 93.9977 42.7565 96.5985 41.0349C97.1034 40.7012 97.733 40.6969 98.2823 40.9125C99.8626 39.8114 101.844 39.2807 103.739 38.9742C106.533 38.5231 109.345 38.2526 112.159 37.982C112.982 37.9028 113.805 37.8236 114.628 37.7399C116.525 37.5476 118.522 37.4739 120.431 37.5161C121.425 37.5379 122.425 37.502 123.427 37.4661C124.372 37.4322 125.319 37.3982 126.263 37.4126C128.468 37.4485 130.691 37.5309 132.905 37.7127C132.956 37.7074 133.008 37.7027 133.06 37.6979C133.113 37.6932 133.166 37.6884 133.218 37.6831C136.571 37.3613 139.921 37.5315 143.273 37.7017C144.084 37.7429 144.896 37.7841 145.708 37.8184C149.675 37.9853 153.864 38.3953 157.427 40.2952C157.885 40.5391 158.273 40.8164 158.604 41.1254C159.068 41.1907 159.511 41.3223 159.908 41.5436C161.055 41.3118 162.335 41.8258 162.607 43.1571C163.002 45.1078 163.152 47.0753 162.915 49.0537C162.912 49.0786 162.909 49.1042 162.906 49.1304C162.904 49.153 162.901 49.1761 162.898 49.1996C163.377 51.0349 163.345 53.0394 162.947 54.8496C163.115 57.1368 163.211 59.4306 163.224 61.7206C163.226 62.0671 163.231 62.415 163.236 62.7637C163.254 64.0087 163.272 65.263 163.157 66.4969C163.027 67.8855 162.456 68.9843 161.557 70.0389C161.387 70.2376 161.101 70.2706 160.863 70.2224C160.801 70.2099 160.748 70.193 160.699 70.1729C161.143 71.1241 161.51 72.1228 161.87 73.0997C161.949 73.3164 162.029 73.532 162.108 73.7458C162.806 75.6184 163.482 77.5226 163.961 79.4628C164.933 83.3747 165.573 87.361 165.945 91.3745ZM98.6208 109.079C98.4202 108.94 98.2179 108.801 97.999 108.697C97.9716 108.684 96.8138 108.308 97.0378 108.805C97.1138 108.969 96.9152 109.153 96.7737 109.007C96.3723 108.6 96.5962 108.109 96.9786 107.746C97.6692 107.088 98.7004 107.24 99.5476 107.397C100.726 107.615 101.872 108.13 102.865 108.792C103.934 109.504 105.254 110.491 105.465 111.842C105.657 113.082 104.424 114.45 103.154 113.619C102.467 113.169 101.986 112.499 101.503 111.828C101.159 111.349 100.814 110.869 100.393 110.466C99.896 109.992 99.3594 109.576 98.7913 109.195C98.7343 109.157 98.6776 109.118 98.6208 109.079Z" fill="black"/>
<path fill-rule="evenodd" clip-rule="evenodd" d="M147.453 124.138C147.777 123.574 148.523 123.052 149.206 123.132C152.265 123.491 152.26 127.201 151.079 129.367C150.031 131.287 147.864 132.415 145.695 132.25C143.416 132.077 141.474 130.736 140.619 128.604C140.054 127.193 139.793 124.588 141.297 123.641C141.324 123.623 141.37 123.627 141.393 123.653C142.113 124.492 142.142 125.751 142.773 126.685C143.36 127.554 144.272 128.271 145.34 128.382C146.137 128.465 146.945 128.177 147.257 127.46C147.425 127.073 147.406 126.862 147.343 126.596L147.285 126.364C147.085 125.552 146.995 124.934 147.453 124.138ZM148.271 107.867C149.866 108.837 152.297 111.099 150.581 113.504C148.56 115.625 145.652 113.193 144.219 112.094C142.89 111.241 141.396 113.433 142.629 114.428C152.986 122.099 157.19 108.121 149.078 106.726C148.184 106.573 147.853 107.567 148.271 107.867ZM131.423 101.215C132.403 99.745 134.638 99.9614 135.177 101.705C135.469 102.65 135.066 103.499 135.087 104.443C135.104 105.24 135.052 106.128 134.808 106.9C134.251 108.66 132.669 109.903 130.797 109.852C128.931 109.8 127.287 108.619 126.506 106.955C125.722 105.284 125.888 103.556 126.46 101.857C126.488 101.776 126.595 101.736 126.659 101.805C127.336 102.524 127.831 103.284 128.344 104.09L128.869 104.915C129.271 105.537 129.854 106.332 130.604 106.282L130.716 106.271C130.925 106.253 130.893 106.294 131.053 106.01C131.128 105.879 131.114 105.634 131.15 105.479L131.163 105.427V105.427L131.156 105.398C131.14 105.323 131.124 105.182 131.111 104.936L131.109 104.882C131.054 103.733 130.73 102.256 131.423 101.215ZM156.246 102.193C156.07 100.313 158.712 99.896 159.59 101.287C160.048 102.012 160.182 102.923 160.283 103.787L160.33 104.196C160.434 105.083 160.475 106.005 160.091 106.832C159.485 108.135 158.167 108.823 156.746 108.714C155.388 108.61 154.15 107.823 153.497 106.628C152.915 105.561 152.336 103.479 153.043 102.366C153.086 102.299 153.171 102.29 153.23 102.342C153.898 102.936 154.006 104.018 154.404 104.791C154.813 105.588 155.435 106.365 156.376 106.486C157.277 106.602 157.621 106.109 157.391 105.25C157.095 104.141 156.357 103.387 156.246 102.193ZM132.137 90.0392L132.569 89.8737C134.049 89.3143 136.082 88.6678 137.285 89.8718C138.027 90.6143 138.169 91.708 137.639 92.6141C136.997 93.7116 135.845 93.7387 134.733 93.9004C133.468 94.0842 132.182 94.4338 131.004 94.9322C129.678 95.4937 128.447 96.1937 127.241 96.9755C126.094 97.7184 124.952 98.9326 123.58 99.1615C123.524 99.1708 123.46 99.1467 123.446 99.0852C123.134 97.7431 124 96.4224 124.773 95.3754C125.708 94.1077 126.841 93.0672 128.107 92.1343C129.329 91.2338 130.726 90.583 132.137 90.0392ZM159.025 94.8108L159.157 94.7877C160.054 94.6382 160.868 94.6726 161.544 95.3838C162.061 95.9263 162.26 96.6295 162.013 97.3468C161.786 98.0086 161.278 98.6809 160.541 98.8195C158.053 99.2879 155.296 99.2105 152.795 98.8559C151.651 98.6935 150.497 98.4949 149.382 98.1817L148.869 98.033C147.939 97.7671 146.874 97.4893 146.198 96.8047C145.955 96.5587 146.095 96.2066 146.386 96.0927C147.565 95.6307 149.181 95.8765 150.439 95.8403C151.902 95.7985 153.367 95.6888 154.823 95.5377C156.245 95.3897 157.622 95.0683 159.025 94.8108Z" fill="black"/>
<path fill-rule="evenodd" clip-rule="evenodd" d="M169.071 112.228C168.37 111.288 167.112 110.053 165.839 110.12C165.676 110.128 165.615 110.305 165.713 110.424C166.129 110.933 166.698 111.295 167.115 111.814C167.609 112.429 167.965 113.17 168.197 113.92C168.534 115.009 168.627 116.241 168.327 117.349C167.798 119.301 166.125 120.732 164.3 121.462C162.494 122.185 160.32 122.432 158.612 121.373C156.091 119.808 153.952 117.553 150.783 117.509C150.041 117.498 149.519 117.838 149.208 118.323C148.895 117.855 148.379 117.525 147.656 117.516C144.103 117.476 141.452 119.923 138.47 121.448C136.454 122.479 133.847 122.159 131.768 121.478C129.806 120.836 127.677 119.546 126.938 117.509C126.529 116.384 126.621 115.071 127.04 113.962C127.316 113.233 127.741 112.529 128.268 111.956C128.814 111.362 129.532 110.988 130.092 110.424C130.206 110.309 130.116 110.13 129.965 110.12C127.589 109.959 125.444 112.797 124.996 114.856C124.554 116.883 125.213 118.906 126.546 120.453C129.257 123.599 134.277 124.636 138.184 123.712C141.347 122.964 144.35 121.241 147.656 121.488C148.381 121.542 148.901 121.24 149.215 120.782C149.529 121.254 150.053 121.562 150.783 121.491C153.864 121.193 156.614 123.376 159.605 123.909C161.986 124.333 164.558 123.761 166.598 122.477C168.731 121.136 170.232 118.984 170.331 116.419C170.388 114.943 169.955 113.416 169.071 112.228" fill="black"/>
<path fill-rule="evenodd" clip-rule="evenodd" d="M163.095 111.466C159.925 112.993 155.501 110.74 153.369 108.38C152.593 107.521 151.995 105.062 152.293 103.503C153.102 99.2796 156.14 96.7451 159.347 95.8796C163.793 94.6795 168.267 97.7196 167.745 101.307C167.251 104.707 166.501 109.639 163.095 111.466M141.514 103.354C141.26 107.956 137.566 111.984 133.15 113.177C126.036 115.163 122.52 110.16 120.928 104.771C120.769 104.235 120.397 102.601 121.396 101.198C125.322 95.6832 134.874 96.6233 139.644 98.1374C141.041 99.4734 141.612 101.402 141.514 103.354M166.54 95.4159C166.538 95.4186 166.536 95.4209 166.534 95.4237C166.517 95.4138 166.501 95.4036 166.485 95.3939C166.503 95.4015 166.522 95.4081 166.54 95.4159M172.493 95.9478C172.079 91.2622 157.383 93.0564 155.665 93.4404C150.976 94.8201 146.925 98.5737 141.682 96.9236C136.25 90.8657 117.957 92.603 114.122 95.6889C113.396 95.404 112.513 95.5568 111.578 95.8257C106.775 95.6522 84.8487 97.3085 89.3335 103.441C90.0142 103.913 90.6943 103.433 90.7131 102.46C114.093 94.0167 111.826 101.925 114.599 101.001C115.022 101.123 115.464 101.2 115.851 101.281C117.997 101.972 118.725 101.759 119.008 104.169C120.95 122.778 145.722 116.355 143.691 101.091C145.702 100.98 147.462 100.11 149.589 100.96C151.066 115.339 162.633 115.92 166.114 110.935C168.739 107.475 167.698 102.254 171.307 99.5321C172.731 100.725 172.823 96.7 172.493 95.9478" fill="black"/>
</svg>
