<svg width="40" height="40" viewBox="0 0 40 40" fill="none" xmlns="http://www.w3.org/2000/svg">
<path d="M22.5167 36.1828H17.6207C16.4875 36.1828 15.5651 35.2608 15.5651 34.1276V28.0396C12.0275 26.318 9.75635 22.7076 9.75635 18.77C9.75635 13.0836 14.3823 8.45721 20.0687 8.45721C25.7555 8.45721 30.3815 13.0832 30.3815 18.77C30.3815 22.708 28.1095 26.3184 24.5723 28.04V34.1276C24.5723 35.2608 23.6499 36.1828 22.5167 36.1828ZM20.0687 9.25721C14.8235 9.25721 10.5563 13.5244 10.5563 18.77C10.5563 22.4812 12.7447 25.8776 16.1315 27.422C16.2739 27.4868 16.3655 27.6292 16.3655 27.786V34.1276C16.3655 34.8196 16.9287 35.3828 17.6211 35.3828H22.5171C23.2091 35.3828 23.7727 34.8196 23.7727 34.1276V27.786C23.7727 27.6292 23.8643 27.4868 24.0067 27.422C27.3939 25.8776 29.5819 22.4812 29.5819 18.7696C29.5815 13.5248 25.3139 9.25721 20.0687 9.25721Z" fill="#272727"/>
<path d="M24.1724 30.1136H15.9652C15.744 30.1136 15.5652 29.9344 15.5652 29.7136C15.5652 29.4928 15.744 29.3136 15.9652 29.3136H24.1724C24.3936 29.3136 24.5724 29.4928 24.5724 29.7136C24.5724 29.9344 24.3932 30.1136 24.1724 30.1136ZM24.1724 31.7688H15.9652C15.744 31.7688 15.5652 31.5896 15.5652 31.3688C15.5652 31.148 15.744 30.9688 15.9652 30.9688H24.1724C24.3936 30.9688 24.5724 31.148 24.5724 31.3688C24.5724 31.5896 24.3932 31.7688 24.1724 31.7688ZM24.1724 33.424H15.9652C15.744 33.424 15.5652 33.2448 15.5652 33.024C15.5652 32.8032 15.744 32.624 15.9652 32.624H24.1724C24.3936 32.624 24.5724 32.8032 24.5724 33.024C24.5724 33.2448 24.3932 33.424 24.1724 33.424Z" fill="#272727"/>
<path d="M20.588 30.1136C20.562 30.1136 20.5348 30.1112 20.508 30.1056C20.2916 30.0616 20.1516 29.8504 20.1956 29.634L21.8656 21.4068L21.1824 20.9244L20.8924 21.7932C20.8436 21.9396 20.7152 22.0448 20.5616 22.0636C20.4064 22.082 20.2576 22.0112 20.1752 21.8804L19.6724 21.0864L19.3196 21.76C19.2304 21.9304 19.0312 22.0132 18.8492 21.9572L18.3548 21.8072L19.9428 29.6336C19.9864 29.85 19.8468 30.0612 19.6304 30.1052C19.412 30.15 19.2028 30.0092 19.1584 29.7928L17.4372 21.3096C17.4096 21.1716 17.456 21.0292 17.5604 20.9344C17.6648 20.84 17.8108 20.8072 17.9456 20.8476L18.7648 21.096L19.2856 20.102C19.352 19.9756 19.4804 19.8936 19.6236 19.888C19.7692 19.8848 19.9016 19.9532 19.978 20.0736L20.4 20.7408L20.5932 20.1608C20.6332 20.0408 20.7276 19.9468 20.848 19.9072C20.968 19.868 21.0996 19.888 21.2032 19.9604L22.5396 20.9032C22.6692 20.9948 22.7324 21.154 22.7012 21.3096L20.9796 29.7928C20.9412 29.9828 20.7744 30.1136 20.588 30.1136ZM20.0688 6.96243C19.8476 6.96243 19.6688 6.78323 19.6688 6.56243V4.21763C19.6688 3.99683 19.8476 3.81763 20.0688 3.81763C20.29 3.81763 20.4688 3.99683 20.4688 4.21763V6.56243C20.4688 6.78323 20.29 6.96243 20.0688 6.96243ZM34.208 19.17H31.7252C31.504 19.17 31.3252 18.9908 31.3252 18.77C31.3252 18.5492 31.504 18.37 31.7252 18.37H34.208C34.4292 18.37 34.608 18.5492 34.608 18.77C34.608 18.9908 34.4288 19.17 34.208 19.17ZM8.27517 19.17H5.79197C5.57077 19.17 5.39197 18.9908 5.39197 18.77C5.39197 18.5492 5.57077 18.37 5.79197 18.37H8.27477C8.49597 18.37 8.67477 18.5492 8.67477 18.77C8.67477 18.9908 8.49597 19.17 8.27517 19.17ZM12.0496 8.92923C11.9188 8.92923 11.7904 8.86483 11.7136 8.74683L10.4368 6.78003C10.3164 6.59483 10.3692 6.34683 10.5544 6.22683C10.7408 6.10683 10.9876 6.15963 11.108 6.34443L12.3848 8.31123C12.5052 8.49643 12.4524 8.74443 12.2672 8.86443C12.1996 8.90843 12.1244 8.92923 12.0496 8.92923ZM26.0324 8.57963C25.9576 8.57963 25.8824 8.55883 25.8148 8.51523C25.6296 8.39483 25.5768 8.14723 25.6972 7.96203L26.974 5.99523C27.0944 5.81003 27.3412 5.75763 27.5276 5.87763C27.7128 5.99803 27.7656 6.24563 27.6452 6.43083L26.3684 8.39763C26.2916 8.51523 26.1632 8.57963 26.0324 8.57963ZM30.2344 12.9624C30.1036 12.9624 29.9752 12.898 29.8984 12.78C29.778 12.5948 29.8308 12.3468 30.016 12.2268L32.0988 10.8748C32.2852 10.7552 32.532 10.8072 32.6524 10.9924C32.7728 11.1776 32.72 11.4256 32.5348 11.5456L30.452 12.8976C30.3844 12.9416 30.3088 12.9624 30.2344 12.9624ZM9.69437 12.9624C9.61957 12.9624 9.54437 12.9416 9.47677 12.898L7.39397 11.546C7.20877 11.4256 7.15597 11.178 7.27637 10.9928C7.39677 10.8076 7.64357 10.7552 7.82997 10.8752L9.91277 12.2272C10.098 12.3476 10.1508 12.5952 10.0304 12.7804C9.95397 12.8984 9.82517 12.9624 9.69437 12.9624ZM7.23397 25.7344C7.10317 25.7344 6.97477 25.6704 6.89797 25.552C6.77757 25.3668 6.83037 25.1188 7.01557 24.9988L9.09797 23.6464C9.28397 23.5264 9.53117 23.5788 9.65157 23.764C9.77197 23.9492 9.71917 24.1972 9.53397 24.3172L7.45157 25.6696C7.38397 25.7136 7.30837 25.7344 7.23397 25.7344ZM33.0416 25.7344C32.9668 25.7344 32.8916 25.7136 32.824 25.6696L30.742 24.3172C30.5568 24.1968 30.504 23.9492 30.6244 23.764C30.7448 23.5788 30.9916 23.5264 31.178 23.6468L33.26 24.9992C33.4452 25.1196 33.498 25.3672 33.3776 25.5524C33.3008 25.6704 33.1724 25.7344 33.0416 25.7344Z" fill="#272727"/>
</svg>
