<svg width="240" height="324" viewBox="0 0 240 324" fill="none" xmlns="http://www.w3.org/2000/svg">
<path fill-rule="evenodd" clip-rule="evenodd" d="M181.079 176.597C179.237 169.454 177.544 166.425 174.273 163.942C171.213 161.62 166.746 159.669 160.229 158.244C153.441 157.057 153.249 153.528 151.547 147.857C151.05 146.152 148.59 145.698 147.528 146.927C147.378 146.766 147.222 146.618 147.061 146.484C147.205 145.671 146.022 143.34 146.061 142.562C146.474 134.444 143.819 130.367 137.192 128.852C135.751 128.522 125.963 128.328 124.558 128.716C118.415 130.415 112.368 135.808 113.293 142.305C111.365 144.826 109.478 146.364 106.503 147.176C99.8825 148.017 93.2628 148.765 86.6407 149.405C73.6781 151.438 61.5246 158.301 53.218 168.309C52.4518 169.233 52.2305 170.487 52.9067 171.472C52.377 173.742 49.3953 179.246 51.7414 180.802C47.8835 190.03 39.0069 207.868 38.9903 212.965C38.9203 234.373 41.2325 262.24 62.3543 274.087C63.2 274.919 63.321 275.839 63.6872 277.076C64.6158 280.974 67.9883 283.759 71.6795 283.532C89.8634 283.936 107.476 281.717 125.66 281.61C133.679 281.563 143.323 282.76 150.289 283.557C157.256 284.355 164.288 283.65 170.973 281.61C171.537 282.498 172.676 283.015 173.833 282.76C180.763 281.383 186.367 277.111 191.249 272.442C192.74 269.728 198.566 261.995 196.25 259.304C198.349 250.428 198.24 240.892 194.51 232.441C195.039 230.892 194.075 229.189 194.51 227.59C194.825 226.432 195.631 225.953 196.037 224.807C196.608 223.194 195.987 221.029 195.344 219.383C195.08 218.563 195.829 217.68 196.037 216.843C197.023 212.894 194.764 213.242 193.136 210.602C193.16 210.594 193.584 208.71 193.582 208.719C193.831 207.374 193.207 205.65 192.662 204.527C192.293 203.768 191.505 203.293 190.721 203.38C191.51 200.7 192.508 198.47 193.582 195.887C195.48 191.336 197.883 186.977 200.609 182.857C201.726 181.17 200.226 179.216 198.42 179.101C192.572 178.729 186.789 177.887 181.079 176.597Z" fill="white"/>
<path fill-rule="evenodd" clip-rule="evenodd" d="M164.013 211.018C161.675 210.1 159.156 209.593 156.625 209.397C157.988 209.158 159.355 208.927 160.732 208.809C161.694 208.727 162.585 208.735 163.307 209.464C163.789 209.95 164.015 210.576 164.332 211.151C164.229 211.104 164.121 211.06 164.013 211.018ZM189.116 202.441C185.286 202.636 181.451 203.547 177.986 205.197C176.569 205.873 175.284 206.85 174.908 208.456C174.718 209.276 174.764 210.124 174.866 210.952C174.942 211.58 174.961 212.381 175.506 212.806C175.599 212.878 175.698 212.933 175.802 212.973C174.524 213.55 173.307 214.243 172.225 214.957C171.236 215.61 170.22 216.616 169.764 217.751C169.726 217.622 169.688 217.502 169.65 217.388C168.872 215.089 167.674 213.205 165.788 211.939C166.122 211.789 166.352 211.434 166.244 210.944C165.796 208.896 163.905 207.116 161.769 207.243C159.431 207.38 156.919 208.232 154.804 209.308C154.033 209.291 153.264 209.302 152.503 209.335C152.372 209.34 152.379 209.517 152.503 209.532C153.12 209.61 153.737 209.697 154.354 209.798C155.82 210.033 157.282 210.331 158.712 210.701C160.428 211.145 162.202 211.59 163.806 212.366C166.916 213.873 168.841 217.813 168.445 221.241C168.38 221.803 168.162 223.502 167.383 223.327C166.724 223.179 166.462 221.803 166.231 221.294C165.614 219.941 164.503 219.057 163.17 218.459C161.605 217.756 159.929 217.28 158.307 216.727C157.388 216.412 156.469 216.096 155.548 215.784C154.605 215.461 153.71 215.014 152.706 215.241C152.1 215.378 152.03 216.101 152.37 216.515C152.888 217.147 153.657 217.333 154.403 217.593C155.387 217.935 156.369 218.278 157.352 218.62C158.871 219.148 160.462 219.594 161.942 220.241L161.896 220.347C161.776 220.313 161.634 220.433 161.657 220.581C161.879 221.949 162.188 223.53 161.845 224.899C161.575 225.986 160.622 227.188 159.384 226.869C159.579 226.691 159.65 226.385 159.519 226.102C159.029 225.054 152.607 220.915 152.034 222.452C152.015 222.507 152.074 222.547 152.121 222.539C152.609 222.437 153.426 223.27 153.817 223.534C154.381 223.915 154.954 224.286 155.512 224.677C156.122 225.104 156.718 225.553 157.299 226.015C157.755 226.379 158.1 226.757 158.623 226.941C158.349 227.072 158.131 227.315 158.038 227.626C157.802 228.435 157.345 229.122 156.553 229.479C155.723 229.851 154.787 229.617 153.912 229.708C152.721 229.828 151.681 230.395 150.813 231.204C148.99 232.907 148.075 235.909 145.525 236.714C144.002 237.194 142.312 236.891 140.769 236.674C139.048 236.43 137.37 236.238 135.636 236.492C133.975 236.735 132.405 237.31 130.888 238.011C129.467 238.669 127.895 239.413 126.633 240.393C126.374 239.592 126.112 238.8 125.913 237.982C125.444 236.048 125.191 234.078 125.129 232.091C125.072 230.2 125.178 228.3 125.34 226.417C125.421 225.476 125.548 224.54 125.628 223.599C125.649 223.363 125.691 223.109 125.723 222.856C127.975 221.526 130.341 220.508 132.726 219.459C132.733 219.457 132.739 219.453 132.745 219.451C132.819 219.417 132.891 219.385 132.965 219.354C132.963 219.349 132.961 219.345 132.957 219.341C133.229 219.174 133.419 218.952 133.533 218.702C136.971 216.422 139.844 213.309 141.986 209.678C142.884 208.156 143.748 206.577 144.923 205.244C146.174 203.821 147.659 202.976 149.497 202.536C151.645 202.021 153.86 201.712 156.061 201.537C157.263 201.442 158.607 201.294 159.917 201.3C160.829 201.306 161.723 201.384 162.543 201.611C163.757 201.944 164.467 202.868 165.23 203.802C165.959 204.699 166.683 205.597 167.364 206.531C168.008 207.416 168.617 208.331 169.145 209.291C169.462 209.866 169.755 210.458 170.002 211.068C170.089 211.284 170.203 211.529 170.256 211.753C170.309 211.979 170.212 212.218 170.465 212.218C169.419 212.233 169.43 213.905 170.469 213.843C174.538 213.607 168.71 205.66 167.858 204.553C166.652 202.984 165.407 200.938 163.476 200.209C163.449 200.199 163.419 200.188 163.392 200.18C163.954 199.647 164.398 199.009 164.822 198.36C165.26 197.692 165.781 196.927 165.925 196.134C166.016 195.63 165.388 195.342 165.091 195.784C164.657 196.428 164.448 197.244 164.125 197.952C163.795 198.671 163.394 199.349 163.077 200.074C162.314 199.839 161.491 199.732 160.652 199.696C161.71 198.263 163.518 195.498 163.736 195.143C164.738 193.499 165.691 191.804 166.601 190.107C167.585 188.268 168.429 186.353 169.371 184.493C169.905 183.439 170.444 182.376 171.038 181.353C171.243 181.002 171.462 180.651 171.712 180.332C171.76 180.269 171.822 180.216 171.879 180.156C171.944 180.12 172.012 180.08 172.05 180.059C172.392 179.863 172.512 179.406 172.753 179.117C173.138 178.65 173.59 178.595 174.169 178.588C175.402 178.575 176.641 178.624 177.872 178.658C179.683 178.709 181.491 178.78 183.3 178.876C183.847 178.905 184.392 178.935 184.939 178.969C187.569 179.125 190.198 179.33 192.819 179.582C195.139 179.803 197.459 180.165 199.781 180.338C196.637 187.81 193.151 195.146 189.204 202.226C189.164 202.297 189.135 202.369 189.116 202.441ZM171.674 221.689C171.167 221.921 170.674 222.211 170.216 222.541C170.292 222.027 170.311 221.486 170.29 220.943C170.668 221.348 171.152 221.581 171.674 221.689ZM193.318 208.837C193.282 208.841 193.249 208.86 193.232 208.896C192.53 210.343 192.824 211.96 193.969 213.095C194.569 213.687 195.877 214.355 195.834 215.327C195.798 216.113 194.943 216.773 194.577 217.422C194.237 218.026 194.111 218.69 194.383 219.345C194.732 220.184 195.706 220.518 196.039 221.342C196.462 222.388 195.775 223.65 195.294 224.561C194.846 225.404 194.267 226.248 193.882 227.139C191.307 228.473 189.002 230.519 187.02 232.597C184.851 234.869 182.989 237.542 179.544 237.475C179.199 237.468 178.937 237.65 178.781 237.901C177.822 237.946 176.861 237.965 175.901 237.969C174.215 237.977 172.53 237.961 170.846 237.908C170.727 237.5 170.814 236.946 170.808 236.602C170.787 235.492 170.776 234.385 170.73 233.275C170.717 232.967 170.704 232.656 170.692 232.347C171.298 233.444 172.481 233.943 173.829 233.867C175.996 233.74 178.177 233.385 180.323 233.066C181.453 232.899 182.582 232.709 183.708 232.506C184.633 232.341 185.939 232.383 186.585 231.641C186.737 231.468 186.746 231.151 186.507 231.035C185.867 230.72 185.463 230.895 184.76 231.031C183.902 231.197 183.042 231.356 182.18 231.504C180.526 231.791 178.868 232.058 177.205 232.292C176.258 232.425 175.31 232.556 174.361 232.66C173.533 232.749 172.599 232.869 171.932 232.246C170.586 230.986 171.34 228.875 172.192 227.602C172.208 227.577 172.208 227.554 172.202 227.533C173.005 227.344 173.806 227.125 174.604 226.97C176.14 226.674 177.687 226.425 179.235 226.203C182.417 225.749 185.62 225.449 188.818 225.147C189.61 225.07 189.619 223.824 188.818 223.898C184.223 224.318 179.605 224.717 175.071 225.603C173.934 225.823 172.806 226.072 171.684 226.353C171.154 226.484 170.586 226.689 170.03 226.696C169.996 226.696 169.962 226.696 169.929 226.693C168.841 226.66 168.682 225.728 169.28 224.952C169.354 224.857 169.43 224.762 169.508 224.671C170.565 223.411 171.881 222.57 173.237 221.699C174.756 221.492 176.271 221.031 177.758 220.693C181.43 219.856 185.102 219.019 188.776 218.185C189.496 218.02 189.19 216.912 188.47 217.075C185.681 217.707 182.892 218.339 180.103 218.971L176.022 219.897C175.206 220.08 174.188 220.45 173.229 220.584C172.756 220.649 172.297 220.657 171.883 220.56C170.546 220.243 170.478 218.571 171.055 217.578C171.701 216.462 172.923 215.765 174.006 215.133C175.884 214.036 177.883 213.247 179.835 212.339C180.182 212.262 180.528 212.186 180.875 212.11C182.89 211.666 185.193 211.449 187.09 210.635C187.658 210.394 187.348 209.498 186.786 209.511C185.313 209.543 183.773 210.067 182.334 210.377C180.777 210.715 179.218 211.051 177.661 211.387C177.505 211.421 176.58 211.717 176.44 211.652C176.351 211.609 176.32 211.301 176.29 211.098C176.195 210.43 176.125 209.729 176.229 209.058C176.457 207.556 177.71 206.85 178.977 206.273C181.8 204.99 184.895 204.187 187.975 203.866C188.685 203.792 189.395 203.745 190.109 203.722C190.948 203.696 191.639 203.549 192.063 204.375C192.731 205.677 193.099 207.351 193.318 208.837ZM189.398 256.041C188.783 253.913 188.95 251.641 188.529 249.47C188.312 248.351 188.015 247.24 187.691 246.147C187.429 245.264 186.993 244.324 186.944 243.403C186.941 243.341 187.013 243.306 187.063 243.334C187.931 243.831 188.597 244.906 189.092 245.749C189.684 246.758 190.137 247.815 190.501 248.926C191.229 251.14 191.826 253.81 190.888 256.041C190.609 256.705 189.628 256.838 189.398 256.041ZM170.392 227.856C170.911 227.805 171.431 227.706 171.951 227.59C171.37 228.156 170.833 228.839 170.535 229.596C170.489 229.014 170.429 228.435 170.351 227.858C170.364 227.858 170.379 227.858 170.392 227.856ZM165.397 272.149C164.48 271.509 163.812 270.615 163.035 269.825C162.271 269.049 163.466 267.853 164.23 268.63C164.893 269.303 165.469 270.144 166.25 270.689C166.625 270.951 166.799 271.424 166.553 271.846C166.335 272.217 165.771 272.41 165.397 272.149ZM160.286 247.559C161.959 246.835 163.604 246.047 165.355 245.526C166.401 245.214 166.844 246.846 165.804 247.156C164.192 247.636 162.679 248.352 161.139 249.019C160.15 249.446 159.29 247.989 160.286 247.559ZM142.617 247.052C142.208 246.043 143.844 245.607 144.247 246.603C144.711 247.749 145.243 248.866 145.707 250.012C146.116 251.021 144.481 251.457 144.077 250.461C143.613 249.315 143.081 248.199 142.617 247.052ZM125.178 267.219C124.906 267.583 124.451 267.78 124.022 267.523C123.662 267.307 123.443 266.734 123.719 266.366C124.524 265.292 125.34 264.231 126.285 263.273C127.05 262.497 128.245 263.693 127.48 264.469C126.637 265.324 125.898 266.26 125.178 267.219ZM122.685 154.064C123.46 154.594 124.14 155.238 124.803 155.901C125.573 156.671 124.378 157.867 123.607 157.096C123.049 156.538 122.486 155.971 121.832 155.524C121.454 155.266 121.284 154.786 121.528 154.367C121.747 153.993 122.308 153.807 122.685 154.064ZM148.056 181.273C147.617 182.151 147.223 183.013 147.198 184.011C147.171 185.099 145.481 185.1 145.508 184.011C145.54 182.704 146.022 181.571 146.597 180.419C147.083 179.444 148.54 180.302 148.056 181.273ZM157.365 159.421C158.274 158.815 159.119 160.28 158.218 160.881C157.488 161.367 156.758 161.855 156.028 162.342C155.119 162.947 154.274 161.482 155.175 160.882C155.905 160.395 156.635 159.908 157.365 159.421ZM116.989 197.627C116.833 198.702 115.205 198.242 115.359 197.178C115.596 195.533 115.886 193.91 116.332 192.308C116.624 191.26 118.254 191.708 117.962 192.758C117.516 194.36 117.226 195.983 116.989 197.627ZM111.063 216.995C109.975 216.972 109.975 215.281 111.063 215.305C112.047 215.325 113.015 215.585 113.965 215.822C115.021 216.086 114.571 217.716 113.515 217.452C112.713 217.251 111.895 217.013 111.063 216.995ZM108.875 256.011C108.502 256.193 108.118 256.356 107.74 256.529C106.984 256.875 106.228 257.222 105.472 257.569C103.897 258.292 102.323 259.018 100.751 259.746C97.6027 261.204 94.4305 262.61 91.275 264.052C88.0572 265.522 84.8478 267.012 81.6424 268.51C80.1323 269.215 78.6108 269.895 77.0922 270.582C75.7937 271.169 74.1887 272.195 72.7633 272.292C72.69 272.297 72.6655 272.204 72.7073 272.157C73.2458 271.544 74.1048 271.188 74.8126 270.789C75.5355 270.382 76.272 270 77.0051 269.611C78.5334 268.801 80.0636 267.998 81.6067 267.216C84.6934 265.654 87.7859 264.102 90.8791 262.553C94.0337 260.973 97.1844 259.382 100.367 257.858C101.865 257.14 103.365 256.424 104.865 255.711C105.678 255.325 106.492 254.939 107.305 254.554C107.656 254.388 108.004 254.208 108.363 254.059C108.841 253.862 109.203 253.902 109.696 253.78C110.498 253.582 110.846 254.603 110.23 255.048C109.722 255.414 109.455 255.728 108.875 256.011ZM97.5919 273.348C97.4185 272.926 97.7816 272.413 98.1822 272.308C98.662 272.181 99.0467 272.473 99.2218 272.898C99.6852 274.026 100.345 275.06 101.195 275.934C101.954 276.715 100.759 277.911 99.9995 277.13C98.9349 276.034 98.1702 274.755 97.5919 273.348ZM89.2911 246.208C88.5206 245.437 89.7159 244.242 90.4862 245.013L92.6766 247.204C93.4471 247.975 92.2515 249.17 91.4815 248.399L89.2911 246.208ZM66.8185 242.636C65.2437 243.098 63.4069 243.523 62.3332 244.866C62.2809 244.932 62.1928 244.848 62.2242 244.782C63.5987 241.932 67.5406 240.932 70.2697 239.933C72.2001 239.227 74.1807 238.641 76.178 238.117C75.9784 235.838 76.529 233.395 76.7204 231.127C76.9247 228.705 77.0909 226.277 77.1763 223.848C77.2635 221.37 77.2847 218.875 77.2031 216.396C77.122 213.927 76.8015 211.487 76.6612 209.026C76.6477 208.788 76.979 208.777 77.0504 208.973C77.8798 211.257 78.2341 213.787 78.5041 216.196C78.7821 218.677 78.8744 221.151 78.839 223.646C78.8022 226.212 78.653 228.772 78.4483 231.329C78.3513 232.541 78.2387 233.752 78.1325 234.963C78.0513 235.888 78.0137 236.805 77.8253 237.7C79.0299 237.404 80.2373 237.125 81.4409 236.853C85.2788 235.986 89.1328 235.182 92.9546 234.245C94.8306 233.786 96.6799 233.235 98.5475 232.746C100.306 232.285 102.162 231.727 103.968 231.521C104.612 231.448 104.694 232.33 104.268 232.629C102.8 233.66 100.851 234.377 99.1561 234.954C97.455 235.533 95.6867 235.95 93.9431 236.379C90.307 237.273 86.6364 238.005 82.9713 238.767C79.3113 239.528 75.6444 240.283 72.0256 241.222C70.2828 241.674 68.546 242.128 66.8185 242.636ZM58.1889 197.402C57.2479 197.955 56.3984 196.493 57.336 195.942C58.5629 195.222 59.8704 194.68 61.1885 194.152C62.2001 193.747 62.6353 195.383 61.6379 195.783C60.4533 196.257 59.2913 196.755 58.1889 197.402ZM54.7814 260.218C53.8379 260.766 52.9877 259.304 53.9285 258.759C55.2498 257.992 56.6967 257.481 58.066 256.811C59.0401 256.333 59.8958 257.792 58.9189 258.271C57.5498 258.941 56.1027 259.452 54.7814 260.218ZM53.2489 224.561C54.1612 225.428 55.3787 225.836 56.5268 226.291C57.5278 226.688 57.0887 228.322 56.0774 227.922C54.6471 227.354 53.1902 226.836 52.0538 225.756C51.2632 225.005 52.4605 223.811 53.2489 224.561ZM63.3414 176.135C64.3443 176.529 63.9051 178.163 62.8921 177.766C61.7685 177.325 60.6083 176.989 59.4847 176.548C58.4821 176.155 58.9211 174.52 59.9341 174.918C61.0576 175.359 62.2179 175.694 63.3414 176.135ZM81.1455 156.901C82.2111 156.721 82.6649 158.35 81.5949 158.531C80.2673 158.755 78.9599 159.018 77.7008 159.505C76.6839 159.899 76.2477 158.263 77.2514 157.875C78.5108 157.387 79.8181 157.125 81.1455 156.901ZM87.0283 203.732C86.0512 203.252 86.9085 201.794 87.8812 202.272C88.9063 202.776 89.9683 203.166 91.0868 203.404C92.1518 203.631 91.6982 205.261 90.6374 205.035C89.3787 204.767 88.181 204.299 87.0283 203.732ZM92.5846 177.353C93.6367 177.064 94.0817 178.696 93.034 178.983C91.1907 179.488 89.2929 179.751 87.436 180.2C86.3778 180.457 85.9301 178.826 86.9867 178.57C88.8435 178.12 90.7415 177.858 92.5846 177.353ZM116.155 169.074C117.225 169.272 116.769 170.902 115.706 170.705C114.574 170.495 113.427 170.492 112.279 170.491C111.19 170.491 111.192 168.8 112.279 168.801C113.583 168.801 114.87 168.837 116.155 169.074ZM193.027 177.908C190.265 177.644 187.5 177.432 184.73 177.274C184.601 177.267 184.474 177.259 184.345 177.252C184.331 177.223 184.312 177.195 184.293 177.166C183.389 175.838 182.723 174.511 182.146 173.011C181.595 171.582 181.06 170.109 180.211 168.82C179.242 167.351 177.935 166.201 176.501 165.205C175.632 165.79 174.825 166.475 174.087 167.201C173.31 167.964 172.115 166.769 172.892 166.005C173.548 165.36 174.248 164.764 174.988 164.226C174.134 163.706 173.262 163.218 172.411 162.733C169.223 160.913 165.959 159.23 162.627 157.692C161.079 156.975 159.511 156.339 157.933 155.695C157.083 155.348 156.245 154.902 155.396 154.501C155.457 153.9 155.277 153.228 154.817 152.833C154.477 152.543 154.213 152.436 153.807 152.231C153.716 152.199 153.661 152.18 153.636 152.169C153.655 152.174 153.71 152.19 153.8 152.22C154.016 152.32 154.033 152.29 153.851 152.133C153.841 151.791 153.167 151.068 153.013 150.715C152.476 149.504 152.309 148.223 151.517 147.12C150.424 145.601 148.591 145.026 146.881 145.541C146.704 143.713 146.658 141.805 145.969 140.173C145.95 140.129 145.889 140.11 145.861 140.158C145.143 141.382 145.082 142.745 145.027 144.157C144.974 145.482 145.024 146.837 145.198 148.154C145.088 148.238 144.976 148.319 144.86 148.397C144.315 148.756 143.727 149.033 143.11 149.238C141.936 149.627 140.704 149.796 139.472 149.855C136.293 150.007 133.016 149.686 129.889 149.141C126.727 148.589 121.878 147.761 119.064 146.177C117.207 145.134 115.494 143.859 113.757 142.625C114.386 140.596 114.547 138.415 113.913 136.701C113.837 136.496 113.516 136.457 113.455 136.701C113.058 138.336 112.941 139.981 112.413 141.598C112.405 141.621 112.396 141.646 112.388 141.669C112.223 141.558 112.058 141.447 111.894 141.338C111.513 141.086 110.996 141.274 110.767 141.633C107.119 147.384 101.341 147.714 95.2731 148.741C88.6327 149.866 81.959 151.079 75.5745 153.279C69.4689 155.384 63.6336 158.449 59.0111 163.027C57.9647 164.063 56.9861 165.167 56.0624 166.32C56.9561 166.433 57.8424 166.608 58.7172 166.883C59.7531 167.209 59.3079 168.841 58.2679 168.514C57.1435 168.16 56.0067 167.985 54.8582 167.898C51.7173 172.197 49.2683 177.071 47.1505 181.868C43.0885 191.066 40.4445 200.862 39.2278 210.835C39.8958 210.435 40.5759 210.053 41.2729 209.698C42.2413 209.206 43.0955 210.665 42.126 211.158C41.0494 211.706 40.0036 212.31 38.9903 212.965C38.5477 217.33 38.3762 221.724 38.4801 226.11C38.7273 236.568 40.1386 247.332 43.3308 257.31C44.8963 262.207 46.971 267.064 50.0618 271.202C51.4604 273.076 53.0491 274.767 54.921 276.177C55.8273 276.862 56.7865 277.473 57.7984 277.988C59.102 278.656 60.8005 278.876 61.9245 279.821C62.2942 280.132 62.5794 280.541 62.7949 281.004C62.6703 281.883 62.6555 282.765 62.8963 283.644C62.9724 283.919 63.1794 284.143 63.4351 284.251C63.4393 284.327 63.4393 284.401 63.4393 284.472C63.4393 284.506 63.49 284.515 63.4963 284.481C63.5069 284.415 63.5174 284.35 63.528 284.282C63.6104 284.31 63.697 284.323 63.7858 284.323C66.9949 284.335 70.2081 284.256 73.4215 284.147C73.173 283.386 72.9039 282.631 72.6455 281.869C72.2946 280.835 73.9274 280.395 74.2752 281.42C74.5775 282.31 74.8936 283.193 75.1748 284.086C78.6178 283.958 82.0598 283.804 85.4956 283.691C92.8034 283.447 100.109 283.367 107.419 283.213C118.77 282.972 130.204 282.479 141.574 282.961C141.967 282.127 142.407 281.311 142.824 280.488C143.316 279.516 144.774 280.372 144.284 281.341C143.993 281.913 143.693 282.478 143.408 283.049C145.71 283.169 148.011 283.327 150.306 283.543C154.223 283.91 158.102 284.563 162.015 284.969C165.993 285.383 169.884 285.31 173.831 284.652C174.541 284.534 174.959 284.105 175.132 283.572C175.138 283.57 175.143 283.566 175.147 283.559C175.35 283.323 175.54 283.126 175.736 282.955C175.971 282.803 176.224 282.674 176.522 282.56C177.078 282.348 177.657 282.219 178.244 282.133C178.891 282.036 179.546 282.027 180.192 281.947C180.737 281.877 181.27 281.773 181.802 281.647C182.759 281.419 183.667 281.121 184.572 280.725C185.36 280.381 186.071 279.886 186.743 279.347C188.134 278.331 189.338 277.033 190.39 275.684C191.003 274.896 191.579 274.078 192.103 273.227C193.016 271.751 193.793 270.219 194.579 268.674C194.865 268.216 195.125 267.747 195.363 267.269C193.827 266.816 192.276 266.447 190.648 266.421C189.559 266.403 189.56 264.712 190.648 264.73C192.515 264.76 194.282 265.196 196.037 265.716C196.122 265.489 196.204 265.26 196.28 265.028C196.489 264.544 196.663 264.048 196.806 263.545C196.89 263.316 196.975 263.088 197.06 262.86C197.25 262.069 197.44 261.277 197.632 260.484C198.015 259.216 198.317 257.929 198.539 256.625C198.724 255.767 198.868 254.902 198.965 254.027C199.261 251.908 199.502 249.792 199.519 247.649C199.493 246.328 199.409 245.009 199.265 243.697C199.204 242.805 199.101 241.917 198.961 241.036C198.779 239.725 198.6 238.428 198.298 237.134C198.072 236.259 197.846 235.384 197.62 234.509C197.055 232.685 196.39 230.897 195.623 229.149C195.581 229.04 195.367 228.799 195.239 228.796C195.141 228.794 195.006 228.883 195.05 229.002C195.055 229.012 195.059 229.025 195.063 229.035C195.019 228.936 194.977 228.834 194.932 228.735C194.894 228.642 194.746 228.456 194.632 228.458C194.626 228.458 194.619 228.458 194.611 228.46C194.641 228.439 194.668 228.412 194.696 228.38C195.454 227.482 195.946 226.3 196.489 225.261C196.939 224.402 197.364 223.498 197.486 222.528C197.594 221.676 197.448 220.837 196.914 220.148C196.305 219.364 195.16 218.996 195.796 217.863C196.519 216.574 197.582 215.456 196.523 213.991C195.984 213.245 195.131 212.835 194.497 212.186C193.768 211.436 193.421 210.432 193.441 209.407C193.485 209.433 193.544 209.42 193.565 209.356C194.178 207.505 193.734 205.472 193.107 203.669C192.765 202.691 192.04 202.422 191.197 202.374C194.848 195.241 198.264 187.993 201.308 180.579C201.41 180.336 201.509 180.093 201.608 179.85C201.756 179.486 201.443 179.003 201.082 178.922C198.45 178.345 195.708 178.161 193.027 177.908Z" fill="black"/>
<path fill-rule="evenodd" clip-rule="evenodd" d="M163.535 85.4318C161.623 77.3681 157.443 69.8638 150.75 63.7991C130.61 43.8802 93.6253 54.6918 93.7928 84.7082C93.0705 88.2141 92.7773 91.8189 93.0164 95.3943C93.1153 96.9198 93.7753 99.0487 92.8886 100.422C90.8885 102.99 89.7261 104.883 90.4068 108.3C90.9756 111.283 93.005 113.397 95.7439 114.52C97.3865 114.992 98.945 116.019 99.5535 117.585C103.21 124.281 105.918 129.851 111.682 134.415C113.17 135.59 128.424 142.637 133.451 142.637C148.166 142.637 166.712 137.304 167.02 120.861C167.073 117.25 166.44 113.596 166.042 110.013C165.075 101.836 165.416 93.3634 163.535 85.4318Z" fill="white"/>
<path fill-rule="evenodd" clip-rule="evenodd" d="M163.204 81.3992C163.209 81.2995 163.352 81.2771 163.379 81.3756C163.926 83.3168 164.236 85.2944 164.664 87.2659C165.076 89.1649 165.465 91.0694 165.788 92.985C166.399 96.6005 166.914 100.225 167.393 103.86L167.512 104.768C168.344 111.163 169.718 117.825 168.516 124.257C167.491 129.746 164.053 134.17 159.623 137.413C155.429 140.483 150.343 142.454 145.293 143.574C139.873 144.777 133.449 145.136 129.039 141.16C127.274 139.568 129.68 136.409 131.595 137.846C136.092 141.219 141.813 140.225 146.888 138.882L147.041 138.842C151.495 137.655 155.978 135.856 159.514 132.822C163.423 129.466 165.356 124.81 165.579 119.703C165.705 116.834 165.437 113.968 165.149 111.115L165.117 110.798C164.786 107.536 164.438 104.276 164.118 101.013C163.825 98.0369 163.573 95.0439 163.44 92.0549L163.377 90.5474C163.248 87.5079 163.073 84.4241 163.204 81.3992ZM110.463 56.1445C117.781 52.3333 126.191 50.9692 134.335 52.2483C142.164 53.4779 149.349 57.5194 154.72 63.3144C157.342 66.1437 159.669 69.4165 161.156 72.9919C161.895 74.7681 162.474 76.621 162.782 78.524C162.94 79.5023 163.096 80.516 163.126 81.5078C163.153 82.4262 162.883 83.2874 162.915 84.221C162.92 84.367 162.697 84.3951 162.663 84.2552C162.408 83.2143 161.795 82.4272 161.411 81.4385C161.123 80.7003 160.797 79.9795 160.465 79.261L160.18 78.6453C159.353 76.8558 158.363 75.1399 157.384 73.43C155.413 69.9863 152.885 66.8566 149.923 64.2158C144.724 59.5792 138.054 56.5863 131.093 56.0473C123.867 55.4877 116.539 57.2106 110.368 61.0272C104.198 64.8435 99.532 70.7761 97.1096 77.6067C95.8874 81.0537 95.2124 84.6451 95.0554 88.2968C94.976 90.1453 95.0501 92.0092 95.1796 93.8541L95.244 94.7338C95.3193 95.7889 95.371 96.8398 95.2134 97.8693C96.3264 97.5221 97.493 97.3781 98.6639 97.55C100.404 97.8053 101.443 98.5188 102.224 100.074C102.264 100.155 102.183 100.236 102.102 100.196C101.09 99.6907 99.4529 99.9566 98.3814 100.221C97.2663 100.497 96.262 100.976 95.3144 101.624C93.5615 102.823 92.1874 104.679 91.8503 106.809C91.5243 108.867 92.3687 110.951 93.7872 112.425C94.5173 113.185 95.3901 113.842 96.3672 114.251C97.553 114.748 98.7268 114.732 99.776 115.553C100.425 116.06 100.268 116.927 99.8279 117.49C102.041 119.918 104.004 122.574 106.218 125.012C107.243 126.142 108.261 127.273 109.244 128.439L109.611 128.878C110.593 130.063 112.154 131.315 112.603 132.806C112.882 133.733 111.889 134.945 110.886 134.523C109.347 133.875 108.248 132.188 107.209 130.894L107.141 130.811C106.05 129.47 105.082 128.055 104.197 126.572L103.906 126.083C102.305 123.39 100.718 120.597 99.6974 117.638C99.63 117.708 99.5586 117.771 99.4834 117.824C98.0129 118.87 95.8753 118.066 94.4068 117.387C93.0205 116.746 91.7495 115.781 90.7589 114.619C88.6044 112.09 87.6112 108.816 88.3308 105.535C88.9403 102.756 90.866 100.052 93.3906 98.646C92.2253 97.304 91.7427 95.4948 91.4216 93.726C91.0117 91.4682 90.93 89.1543 91.0413 86.8647C91.2634 82.3044 92.4365 77.8092 94.2501 73.6334C97.4947 66.1615 103.231 59.9114 110.463 56.1445ZM95.061 106.004C96.5969 105.717 98.0283 105.647 99.5097 106.297C101.117 107.003 102.247 108.168 103.299 109.533C104.495 111.085 101.429 112.781 100.656 110.72L100.634 110.657C100.427 110.046 100.056 109.457 99.5861 108.914C99.4452 109.13 99.2568 109.32 99.0354 109.429C98.7673 109.561 98.3578 109.469 98.2934 109.127C98.222 108.746 98.301 108.286 98.5203 107.964L98.5503 107.92V107.92C97.4847 107.062 96.2029 106.435 95.061 106.234C94.9469 106.213 94.9482 106.026 95.061 106.004Z" fill="black"/>
<path fill-rule="evenodd" clip-rule="evenodd" d="M132.112 117.319C132.156 117.278 132.226 117.263 132.28 117.297C133.194 117.875 133.302 119.82 133.313 120.943C133.691 121.041 134.064 121.153 134.418 121.232C135.168 121.398 135.922 121.542 136.675 121.695L137.239 121.812C139.125 122.209 141.046 122.503 142.967 122.651C144.832 122.793 146.752 122.846 148.611 122.605C149.41 122.502 150.204 122.33 150.976 122.099C151.888 121.827 152.614 121.376 153.463 120.981C155.587 119.991 157.367 122.891 155.323 124.164C153.568 125.256 151.174 125.65 149.148 125.819C147.078 125.992 145.016 125.802 142.97 125.474C140.759 125.12 138.593 124.576 136.496 123.787C135.609 123.453 134.751 123.049 133.913 122.606L133.685 122.485C133.545 122.41 133.4 122.334 133.254 122.257C133.097 123.658 132.645 125.011 132.098 126.311L132.086 126.288C131.787 127.314 130.707 127.949 129.632 127.496C128.371 126.964 128.275 125.569 129.009 124.578L129.044 124.532C129.907 123.422 130.447 122.044 130.917 120.731C131.158 120.058 131.381 119.369 131.575 118.68C131.715 118.182 131.72 117.681 132.112 117.319ZM164.612 106.165C163.864 108.425 162.234 110.166 159.963 110.931C157.712 111.689 155.208 111.413 152.908 111.003C152.404 110.913 151.894 110.814 151.385 110.699C151.802 110.957 152.17 111.32 152.522 111.705C153.043 112.273 153.515 112.872 153.659 113.583C153.801 114.289 153.577 114.826 153.168 115.231C152.54 115.854 151.526 116.19 150.667 116.376C148.744 116.791 146.818 116.727 144.905 116.301C144.416 116.192 144.085 115.93 143.899 115.588C143.673 115.173 143.655 114.656 143.784 114.186C143.914 113.716 144.194 113.283 144.6 113.043C144.934 112.845 145.353 112.791 145.827 112.949C146.78 113.266 147.726 113.476 148.733 113.501C149.159 113.511 149.588 113.498 150.013 113.459C150.253 113.437 150.493 113.406 150.732 113.368C150.592 113.181 150.455 112.99 150.322 112.797C150.164 112.57 150.01 112.339 149.864 112.104C149.44 111.425 149.087 110.727 148.777 109.99C148.677 109.754 148.585 109.517 148.497 109.28C148.484 109.245 148.471 109.211 148.459 109.177C148.431 109.154 148.404 109.131 148.377 109.107C147.771 108.582 147.262 107.936 146.902 107.135C145.928 104.965 146.087 102.272 146.678 100.019C147.152 98.2131 148.197 96.5428 149.578 95.4081C149.819 95.0112 149.978 94.7704 150.173 94.5676C150.967 93.7415 152.075 93.1843 153.156 92.8454C155.57 92.0881 158.199 92.6314 160.245 94.0733C162.135 95.4046 163.614 97.4012 164.413 99.6219C165.17 101.725 165.318 104.032 164.612 106.165ZM131.73 92.4301C134.601 92.4056 137.522 93.2536 139.852 94.9505C142.081 96.5743 143.83 98.9716 143.828 101.827C143.826 104.608 142.341 107.341 140.693 109.494C138.843 111.91 136.427 113.075 133.388 113.102C131.808 113.116 130.217 112.976 128.649 112.784L127.807 112.678C126.649 112.529 125.478 112.352 124.38 111.953C119.152 110.057 118.99 103.211 120.926 98.8358C122.421 95.4575 126.205 92.163 129.978 92.5584C130.546 92.4788 131.13 92.4354 131.73 92.4301ZM136.579 95.6492C132.984 94.0349 128.616 94.5183 125.128 96.241C123.747 97.7488 122.737 99.649 122.328 101.394C121.892 103.256 121.956 105.262 122.612 107.067C123.413 109.27 125.385 109.816 127.513 110.154L128.338 110.284L128.685 110.336C130.775 110.648 133.061 110.891 135.07 110.501C137.309 110.065 138.731 108.256 139.85 106.401L139.902 106.314C141.064 104.37 142.037 102.006 141.062 99.7786C140.233 97.8855 138.423 96.4773 136.579 95.6492ZM157.799 96.2117C156.565 95.5278 155.158 95.4035 153.826 95.8613C153.253 96.0582 152.757 96.3774 152.277 96.7352L152.086 96.8802C151.495 97.3337 150.943 97.5634 150.5 98.1759L150.443 98.258C150.22 98.5919 149.829 98.7255 149.472 98.6811C149.057 99.826 148.886 101.064 148.882 102.283L148.883 102.444L148.885 102.609C148.912 104.05 149.163 105.812 150.296 106.778C151.329 107.659 152.894 107.87 154.292 107.993L155.368 108.082L155.655 108.104C157.127 108.206 158.741 108.171 159.975 107.299C161.05 106.54 161.557 105.251 161.688 103.978C161.999 100.97 160.478 97.6964 157.799 96.2117ZM130.943 96.4895C132.922 95.4784 135.301 95.7319 136.978 96.9991C136.829 97.0283 136.682 97.0655 136.536 97.1388C136.155 97.3297 135.919 97.7118 135.829 98.1184C135.728 98.5781 135.966 99.0133 136.419 99.1583C136.814 99.2842 137.282 99.3419 137.649 99.102C137.841 98.9765 137.975 98.811 138.063 98.6026L138.075 98.572L138.091 98.5495L138.097 98.539C138.098 98.535 138.091 98.5426 138.08 98.5597C138.091 98.5337 138.102 98.5077 138.112 98.4813C138.128 98.4498 138.142 98.4181 138.154 98.3854C138.176 98.367 138.195 98.3465 138.215 98.326C138.519 98.795 138.759 99.3246 138.911 99.9138C139.885 103.696 135.888 107.621 132.317 108.014C130.968 108.162 129.737 107.841 128.716 107.207C128.725 107.194 128.735 107.183 128.744 107.17C129.154 107.244 129.644 107.06 129.793 106.602C130.173 105.435 129.783 104.069 128.511 103.687C127.693 103.442 126.855 103.713 126.27 104.273C125.828 103.19 125.67 101.97 125.879 100.749C126.174 99.0255 127.213 97.4727 128.83 96.7558C129.618 96.4065 130.296 96.3331 130.943 96.4895ZM151.792 98.823L151.853 98.728C152.464 97.7862 153.634 96.6309 154.846 96.9486C155.016 96.9931 155.183 97.065 155.333 97.1582C155.999 97.0678 156.697 97.2191 157.269 97.5714L157.254 97.6109C157.251 97.6175 157.249 97.6242 157.247 97.6312C157.195 97.8603 157.225 98.0721 157.332 98.2826C157.448 98.5106 157.614 98.7269 157.838 98.8577C157.991 98.9473 158.172 98.9944 158.349 98.9908C158.609 98.9862 158.837 98.8718 159.025 98.6973C159.127 98.6026 159.198 98.4637 159.237 98.3208C159.33 98.4096 159.42 98.5085 159.505 98.6208C160.91 100.469 160.716 103.44 159.068 105.087C159.001 105.154 158.93 105.214 158.86 105.275C158.191 106.197 157.159 106.822 155.92 106.949C154.773 107.066 153.626 106.727 152.746 106.031C152.817 105.993 152.883 105.944 152.94 105.88C153.09 105.71 153.214 105.542 153.305 105.334C153.328 105.282 153.35 105.229 153.371 105.176L153.402 105.096C153.407 105.081 153.454 104.946 153.442 104.97L153.439 104.975L153.455 104.936C153.613 104.543 153.549 104.094 153.175 103.847L153.134 103.821C153.012 103.75 152.861 103.717 152.708 103.716C152.326 103.249 151.758 103.142 151.225 103.278L151.206 103.127C151.204 103.102 151.201 103.077 151.199 103.052C150.786 101.682 150.986 100.125 151.792 98.823ZM133.455 85.0324L133.592 85.0111C134.629 84.8611 135.334 85.0338 136.009 85.9203C136.33 86.3428 136.231 86.9808 136.009 87.4126C135.291 88.8078 133.316 88.5193 131.986 88.7963C130.687 89.0667 129.392 89.4346 128.176 89.9702C126.936 90.5167 125.773 91.1633 124.638 91.9015C123.611 92.5696 122.68 93.5737 121.507 93.9624C121.454 93.9799 121.391 93.9326 121.394 93.8766C121.478 92.5423 122.592 91.3175 123.455 90.3673C124.453 89.2685 125.666 88.2929 126.93 87.5173C128.235 86.7171 129.645 86.0583 131.105 85.5988C131.873 85.3568 132.66 85.1645 133.455 85.0324ZM149.252 86.8441C150.558 84.9341 153.804 85.3004 155.719 85.8108C158.12 86.4503 160.722 87.744 162.406 89.6166C163.914 91.2941 161.658 93.4735 159.962 92.0619L159.509 91.6864L159.219 91.4484C157.917 90.3845 156.628 89.4217 155.041 88.7124C153.181 87.8812 151.296 87.4762 149.329 87.0332C149.252 87.0159 149.207 86.9111 149.252 86.8441Z" fill="black"/>
<path fill-rule="evenodd" clip-rule="evenodd" d="M129.449 129.599C131.16 125.59 134.893 122.644 139.191 121.566C142.348 120.778 145.66 120.803 148.878 121.116C150.563 121.279 152.372 121.412 153.96 122.039C155.317 122.574 156.422 123.585 157.254 124.772C158.243 126.179 158.916 127.789 159.389 129.439C159.456 129.674 159.519 129.91 159.578 130.148C159.372 131.393 158.936 132.453 157.783 133.236C156.658 134 155.316 134.313 153.978 134.424C153.847 134.361 153.72 134.296 153.604 134.23C151.518 133.035 150.051 130.213 147.419 130.595C145.07 130.936 143.524 133.893 142.127 135.626C137.644 136.149 133.164 134.801 129.516 132.236C129.331 131.359 129.32 130.473 129.449 129.599M162.625 126.558C162.266 125.551 161.815 124.576 161.279 123.657C159.509 120.619 156.792 118.198 153.566 116.814C145.934 113.546 136.06 115.85 129.897 121.211C127.792 123.044 125.663 125.737 125.019 128.634C124.827 128.672 124.646 128.772 124.496 128.913C120.044 126.108 115.458 123.41 111.87 119.523C109.265 116.698 107.452 113.355 106.342 109.682C106.252 109.38 105.764 109.424 105.779 109.759C105.783 109.837 105.787 109.915 105.792 109.993C105.745 109.849 105.526 109.923 105.509 110.063C104.912 114.525 104.165 119.256 104.853 123.742C105.264 126.418 106.48 128.377 108.104 130.493C109.845 132.761 111.815 134.87 113.83 136.893C115.109 138.177 116.444 139.658 118.01 140.6C119.831 141.694 121.896 142.525 123.84 143.369C125.816 144.231 127.823 145.026 129.867 145.716C133.954 147.1 138.178 148.056 142.476 148.475C145.917 148.809 149.85 149.173 153.148 147.878C155.675 146.886 157.716 145.092 159.334 142.934C161.096 140.583 162.488 137.905 163.258 135.082C164.058 132.149 162.794 127.03 162.625 126.558" fill="black"/>
</svg>
