<svg width="31" height="31" viewBox="0 0 31 31" fill="none" xmlns="http://www.w3.org/2000/svg">
<path d="M1.03335 15.4999C1.03335 23.4896 7.5103 29.9665 15.5 29.9665C23.4897 29.9665 29.9667 23.4896 29.9667 15.4999C29.9667 7.51015 23.4897 1.0332 15.5 1.0332C7.5103 1.0332 1.03335 7.51015 1.03335 15.4999Z" fill="black"/>
<path d="M17.5667 9.29987L9.30002 17.5665V21.6999H13.4333L21.7 13.4332L17.5667 9.29987Z" fill="black"/>
<path d="M9.30002 17.5665L8.91732 17.1838L8.7588 17.3424V17.5665H9.30002ZM17.5667 9.29987L17.9494 8.91717C17.738 8.70581 17.3953 8.70581 17.184 8.91717L17.5667 9.29987ZM21.7 13.4332L22.0827 13.8159C22.2941 13.6045 22.2941 13.2619 22.0827 13.0505L21.7 13.4332ZM13.4333 21.6999V22.2411H13.6575L13.816 22.0826L13.4333 21.6999ZM9.30002 21.6999H8.7588C8.7588 21.9988 9.00111 22.2411 9.30002 22.2411V21.6999ZM15.5 29.4253C7.8092 29.4253 1.57457 23.1907 1.57457 15.4999H0.492131C0.492131 23.7885 7.21139 30.5078 15.5 30.5078V29.4253ZM29.4255 15.4999C29.4255 23.1907 23.1908 29.4253 15.5 29.4253V30.5078C23.7886 30.5078 30.5079 23.7885 30.5079 15.4999H29.4255ZM15.5 1.57442C23.1908 1.57442 29.4255 7.80906 29.4255 15.4999H30.5079C30.5079 7.21125 23.7886 0.491986 15.5 0.491986V1.57442ZM15.5 0.491986C7.21139 0.491986 0.492131 7.21125 0.492131 15.4999H1.57457C1.57457 7.80906 7.8092 1.57442 15.5 1.57442V0.491986ZM9.68271 17.9492L17.9494 9.68257L17.184 8.91717L8.91732 17.1838L9.68271 17.9492ZM17.184 9.68257L21.3173 13.8159L22.0827 13.0505L17.9494 8.91717L17.184 9.68257ZM21.3173 13.0505L13.0507 21.3172L13.816 22.0826L22.0827 13.8159L21.3173 13.0505ZM13.4333 21.1587H9.30002V22.2411H13.4333V21.1587ZM9.84123 21.6999V17.5665H8.7588V21.6999H9.84123Z" fill="white"/>
</svg>
