<svg width="32" height="32" viewBox="0 0 32 32" fill="none" xmlns="http://www.w3.org/2000/svg">
<path d="M10.2423 18.4479L9.85957 18.0652L9.70105 18.2237V18.4479H10.2423ZM18.5089 10.1812L18.8916 9.79852C18.6803 9.58716 18.3376 9.58716 18.1262 9.79852L18.5089 10.1812ZM22.6423 14.3146L23.025 14.6973C23.2363 14.4859 23.2363 14.1432 23.025 13.9319L22.6423 14.3146ZM14.3756 22.5812V23.1224H14.5998L14.7583 22.9639L14.3756 22.5812ZM10.2423 22.5812H9.70105C9.70105 22.8801 9.94336 23.1224 10.2423 23.1224V22.5812ZM16.4423 30.3067C8.75146 30.3067 2.51682 24.072 2.51682 16.3812H1.43438C1.43438 24.6698 8.15364 31.3891 16.4423 31.3891V30.3067ZM30.3677 16.3812C30.3677 24.072 24.1331 30.3067 16.4423 30.3067V31.3891C24.7309 31.3891 31.4502 24.6698 31.4502 16.3812H30.3677ZM16.4423 2.45577C24.1331 2.45577 30.3677 8.69041 30.3677 16.3812H31.4502C31.4502 8.09259 24.7309 1.37333 16.4423 1.37333V2.45577ZM16.4423 1.37333C8.15364 1.37333 1.43438 8.09259 1.43438 16.3812H2.51682C2.51682 8.69041 8.75146 2.45577 16.4423 2.45577V1.37333ZM10.625 18.8306L18.8916 10.5639L18.1262 9.79852L9.85957 18.0652L10.625 18.8306ZM18.1262 10.5639L22.2596 14.6973L23.025 13.9319L18.8916 9.79852L18.1262 10.5639ZM22.2596 13.9319L13.9929 22.1985L14.7583 22.9639L23.025 14.6973L22.2596 13.9319ZM14.3756 22.04H10.2423V23.1224H14.3756V22.04ZM10.7835 22.5812V18.4479H9.70105V22.5812H10.7835Z" fill="black"/>
</svg>
