<svg width="31" height="31" viewBox="0 0 31 31" fill="none" xmlns="http://www.w3.org/2000/svg">
<path d="M15.4999 1.03351L16.1507 0.274252C15.7762 -0.0467395 15.2236 -0.0467395 14.8491 0.274252L15.4999 1.03351ZM1.0332 13.4335L0.382412 12.6743L0.0332031 12.9736V13.4335H1.0332ZM11.3665 29.9668V30.9668C11.9188 30.9668 12.3665 30.5191 12.3665 29.9668H11.3665ZM19.6332 29.9668H18.6332C18.6332 30.5191 19.0809 30.9668 19.6332 30.9668V29.9668ZM29.9665 13.4335H30.9665V12.9736L30.6173 12.6743L29.9665 13.4335ZM3.09987 30.9668H11.3665V28.9668H3.09987V30.9668ZM30.6173 12.6743L16.1507 0.274252L14.8491 1.79276L29.3157 14.1928L30.6173 12.6743ZM14.8491 0.274252L0.382412 12.6743L1.68399 14.1928L16.1507 1.79276L14.8491 0.274252ZM12.3665 29.9668V23.7668H10.3665V29.9668H12.3665ZM18.6332 23.7668V29.9668H20.6332V23.7668H18.6332ZM19.6332 30.9668H27.8999V28.9668H19.6332V30.9668ZM30.9665 27.9002V13.4335H28.9665V27.9002H30.9665ZM0.0332031 13.4335V27.9002H2.0332V13.4335H0.0332031ZM15.4999 20.6335C17.2304 20.6335 18.6332 22.0364 18.6332 23.7668H20.6332C20.6332 20.9318 18.3349 18.6335 15.4999 18.6335V20.6335ZM15.4999 18.6335C12.6648 18.6335 10.3665 20.9318 10.3665 23.7668H12.3665C12.3665 22.0364 13.7694 20.6335 15.4999 20.6335V18.6335ZM27.8999 30.9668C29.5935 30.9668 30.9665 29.5939 30.9665 27.9002H28.9665C28.9665 28.4893 28.489 28.9668 27.8999 28.9668V30.9668ZM3.09987 28.9668C2.51077 28.9668 2.0332 28.4893 2.0332 27.9002H0.0332031C0.0332031 29.5939 1.4062 30.9668 3.09987 30.9668V28.9668Z" fill="black"/>
</svg>
