<svg width="161" height="193" viewBox="0 0 161 193" fill="none" xmlns="http://www.w3.org/2000/svg">
<g filter="url(#filter0_d_53_2039)">
<rect width="157" height="189" rx="16" fill="#E7CF8A"/>
<path fill-rule="evenodd" clip-rule="evenodd" d="M149.068 113.716C150.379 113.056 151.66 112.34 152.921 111.595C153.809 111.083 153.022 109.796 152.112 110.26C151.646 110.498 151.183 110.739 150.717 110.976C151.084 110.672 151.423 110.342 151.728 109.981L151.706 109.961C152.88 108.949 151.372 107.039 150.038 107.87C148.861 108.691 147.673 109.53 146.322 110.07C143.524 111.213 140.437 111.402 137.433 111.435C136.334 111.355 135.284 111.539 134.217 111.743C134.636 110.128 135.682 108.909 136.237 107.344C136.646 105.765 134.279 104.69 133.44 106.208C133.234 106.581 133.037 106.958 132.846 107.337C131.032 108.925 128.004 108.785 126.174 110.49C125.132 111.38 124.622 112.588 124.421 113.8C124.284 114.624 124.497 115.449 123.98 116.178C121.48 119.582 117.531 124.962 115.524 128.708C114.105 119.806 110.312 108.797 106.395 100.658C105.099 98.0548 103.617 95.5115 101.671 93.3053C101.892 92.5691 101.114 91.2631 100.618 91.665C99.095 89.8736 96.4017 89.4098 94.2358 88.5191C91.3129 87.3156 88.8869 84.8143 87.6952 81.9711C86.1628 76.5572 82.3917 75.8695 77.1616 76.1086C72.1564 76.1028 68.4533 78.1637 67.361 83.069C65.1423 86.7918 59.9036 86.1764 56.1348 87.1616C53.3726 87.7695 50.6921 88.7086 48.1446 89.901C45.3106 87.3127 35.1608 98.1738 34.2382 100.969C34.7813 101.07 35.3211 101.193 35.8561 101.341C36.3325 101.474 36.1325 102.166 35.6519 102.055C35.054 101.917 34.4522 101.822 33.8476 101.756C33.8292 101.811 33.813 101.867 33.801 101.922C33.7331 101.917 33.6654 101.912 33.5975 101.907C33.748 101.982 33.8928 102.07 34.034 102.183C34.3751 102.455 33.931 102.982 33.5684 102.765C33.2269 102.518 32.7796 102.558 32.3699 102.475C32.3455 103.286 29.3394 102.378 28.8725 102.11C26.7973 101.86 24.6622 102.128 22.7249 101.165C20.1471 100.642 17.5498 100.064 15.001 99.3988C14.3262 99.652 13.692 100.558 14.228 101.223C14.5294 101.526 14.1419 102.02 13.7623 101.804C12.4892 101.083 11.5047 99.9571 10.6699 98.7437C10.277 98.3622 9.57957 98.4445 9.05171 98.2858C8.98109 98.4083 8.9395 98.5442 8.94011 98.6836C6.70089 99.0383 8.29829 101.393 9.42396 102.126C8.82682 102.501 8.80414 103.234 8.8564 103.846C8.72983 104.064 8.68758 104.334 8.79772 104.579C9.21883 105.513 10.1295 106.3 10.8219 107.056C11.5865 107.892 12.2681 108.733 13.1984 109.41C16.7443 112.012 21.0234 113.467 25.4132 114.036C26.9719 114.266 29.214 114.619 30.1791 115.888C29.9423 117.393 29.5075 118.838 29.113 120.306C28.5615 122.256 28.599 124.296 28.5917 126.283C28.5146 126.223 28.3665 126.236 28.3445 126.349C28.2162 127.173 28.1208 128.015 27.6007 128.708C27.1448 129.995 26.8414 131.367 26.6709 132.719C25.9881 139.13 25.8251 145.729 27.3647 152.04C27.9588 154.381 28.9251 156.606 30.2416 158.654C30.6341 159.266 31.2652 159.445 31.8319 159.325C33.7285 160.273 36.1178 160.577 38.1622 160.336C45.1316 158.437 42.7032 163.011 52.4751 161.61C69.3419 159.542 86.3883 163.606 103.219 161.22C103.634 164.302 109.061 163.418 110.946 162.115C116.598 158.07 119.404 145.263 122.241 138.767C124.191 133.646 127.456 124.577 131.731 121.141C133.013 120.175 134.563 119.667 136.114 119.257C141.901 117.821 147.71 116.464 153.508 115.068C154.491 114.835 154.315 113.22 153.263 113.324C151.868 113.461 150.467 113.586 149.068 113.716Z" fill="white"/>
<path fill-rule="evenodd" clip-rule="evenodd" d="M20.24 112.755C19.8481 112.708 19.464 112.573 19.0823 112.468C18.4996 112.303 17.9284 112.113 17.3662 111.894C16.2059 111.447 15.0803 110.918 14.025 110.27C12.3205 109.224 10.8144 107.882 9.67843 106.268L9.60047 106.155C8.95199 105.204 7.75569 103.093 9.09704 102.37C8.23257 101.675 7.41551 100.426 7.46158 99.4618C7.52692 98.0986 9.2635 98.1167 10.1612 98.6947C10.7491 99.0733 11.1896 99.6036 11.6314 100.125C12.1206 100.705 12.6431 101.257 13.1861 101.788C13.3302 101.929 13.4757 102.066 13.6237 102.202L13.7727 102.337C13.7496 102.284 13.7292 102.23 13.7112 102.174C13.4115 101.275 13.7689 100.105 14.7024 99.694C15.2738 99.4414 15.8671 99.5954 16.4208 99.8095L16.5056 99.8427C17.2509 100.14 18.0052 100.403 18.7813 100.613C21.9446 101.473 25.2461 101.616 28.4874 102.045C29.7361 102.211 31.0078 102.42 32.25 102.729C32.7238 100.792 33.8853 98.9357 35.1455 97.4079C41.18 90.1005 51.1319 87.6855 60.2361 86.1222C61.0657 85.9804 61.7538 87.038 62.2369 86.7878C63.1522 86.3147 63.9578 85.6438 64.6646 84.9152C66.1722 83.3607 67.2415 81.5319 68.4975 79.8C69.1188 78.9442 70.5482 79.7102 69.9717 80.6283L69.6892 81.0775C68.5272 82.9162 67.2397 84.8108 65.5727 86.2371C64.6864 86.9937 63.7032 87.5916 62.5788 87.9655C61.7271 88.2478 60.5321 88.4858 59.5997 88.2117L59.4879 88.0548C59.5248 88.1073 59.5621 88.1597 59.5997 88.2117C62.0332 91.6061 65.0859 94.4784 68.3029 97.1897C71.5502 99.9244 75.0533 102.374 78.577 104.768L78.871 104.968C84.6121 100.937 89.4621 95.6783 92.8646 89.6706C92.1517 89.5877 91.4455 89.1479 90.8363 88.8195C90.1023 88.4228 89.4124 87.9492 88.8741 87.318C87.7024 85.9437 87.8552 84.1715 87.6436 82.5037C87.6309 82.3999 87.7727 82.3742 87.8382 82.4262C88.4735 82.9337 88.6965 83.7661 88.9614 84.4847C89.2536 85.2752 89.584 85.9262 90.2538 86.4821C90.8769 87.0001 91.6377 87.381 92.3766 87.7199C92.7579 87.8937 94.6498 88.3412 94.865 88.711C98.1335 87.9725 101.317 89.2488 103.739 91.4013C106.079 93.4815 107.796 96.1847 109.312 98.854C110.93 101.702 112.255 104.671 113.398 107.722C114.555 110.819 115.443 113.984 115.931 117.244C116.342 119.992 116.595 122.784 116.758 125.563L116.778 125.91C119.196 122.257 121.674 118.642 124.204 115.059C123.629 113.581 124.265 112.072 125.342 110.93C126.536 109.667 128.187 109.08 129.766 108.397L129.973 108.306C130.734 107.972 131.493 107.604 132.15 107.104C132.783 106.62 133.248 105.954 133.914 105.509C134.882 104.861 136.639 104.999 136.684 106.415C136.707 107.193 136.36 108.046 136.042 108.746C135.682 109.536 135.197 110.252 134.621 110.91C134.594 110.941 134.565 110.965 134.535 110.984L134.513 110.998C135.31 111.125 136.112 111.227 136.931 111.263C138.582 111.336 140.25 111.219 141.867 110.883C143.521 110.54 145.124 109.983 146.613 109.206C147.884 108.543 149.063 107.685 150.507 107.483C150.64 107.463 150.775 107.451 150.913 107.444C151.144 107.431 151.374 107.693 151.283 107.912C151.233 108.033 151.181 108.152 151.123 108.273C150.624 109.332 149.857 110.36 148.902 111.14L148.828 111.199C149.165 111.086 149.497 110.961 149.823 110.819C151.743 109.987 153.485 108.729 155.543 108.224C155.64 108.2 155.739 108.177 155.837 108.156C156.474 108.024 156.809 108.69 156.435 109.146C156.375 109.22 156.315 109.293 156.252 109.366C155.334 110.463 154.321 111.481 153.204 112.396C152.821 112.709 152.427 113.013 152.025 113.302C151.855 113.425 151.685 113.545 151.513 113.664L151.428 113.721C151.629 113.584 151.828 113.445 152.025 113.302C153.285 112.934 154.527 112.499 155.742 112.017C156.225 111.826 156.601 112.298 156.651 112.684C156.824 113.982 155.328 114.92 154.354 115.544C153.378 116.17 152.304 116.646 151.204 117.028C149.089 117.764 146.867 118.098 144.649 118.397L143.572 118.542C139.308 119.116 134.854 119.802 131.794 122.996C130.079 124.787 128.919 127.01 127.857 129.199C126.797 131.385 125.866 133.629 124.982 135.885C124.066 138.22 123.269 140.598 122.421 142.956C121.642 145.122 120.712 147.26 119.791 149.377L119.646 149.71C117.69 154.208 115.354 158.444 112.099 162.199C111.562 162.819 110.695 161.939 111.191 161.325C114.596 157.099 116.966 152.112 118.921 147.137C119.811 144.874 120.557 142.556 121.412 140.28L121.921 138.928C122.601 137.126 123.286 135.326 124.002 133.537C124.907 131.275 125.902 129.04 127.04 126.877L127.161 126.65C128.276 124.563 129.6 122.508 131.423 120.929C134.704 118.086 139.069 117.404 143.29 116.864L144.618 116.695C146.402 116.467 148.192 116.215 149.927 115.756C150.929 115.492 151.907 115.154 152.826 114.688C153.193 114.503 153.55 114.299 153.896 114.078C152.91 114.357 151.909 114.584 150.892 114.763C150.393 114.851 149.9 114.916 149.408 114.962C148.142 115.082 146.885 115.078 145.588 115.012C145.478 115.006 145.442 114.84 145.56 114.819C146.463 114.664 147.368 114.47 148.269 114.261L148.539 114.197C148.544 114.053 148.603 113.9 148.726 113.755C149.174 113.23 150.025 112.961 150.616 112.59C151.235 112.201 151.834 111.782 152.405 111.333C152.928 110.923 153.43 110.489 153.912 110.035L154.057 109.898C154.009 109.944 153.961 109.99 153.912 110.035C152.609 110.615 151.373 111.358 150.011 111.817C148.929 112.183 147.795 112.429 146.65 112.517L146.579 112.522L146.508 112.527C145.313 112.61 144.11 112.576 142.933 112.825C142.802 112.853 142.76 112.683 142.878 112.635C143.907 112.223 144.976 112.064 146.057 111.872C146.08 111.791 146.139 111.718 146.241 111.671L146.518 111.544C147.341 111.163 148.109 110.779 148.794 110.161C149.398 109.615 149.902 108.976 150.279 108.268C148.767 108.587 147.439 109.691 146.063 110.311C144.565 110.988 142.979 111.474 141.35 111.75L141.165 111.781C138.121 112.269 134.46 112.207 131.733 110.683C131.645 110.634 131.708 110.522 131.798 110.536C132.572 110.658 133.337 110.802 134.103 110.93C133.953 110.798 133.886 110.561 134.06 110.372C134.747 109.613 135.292 108.746 135.639 107.797L135.706 107.611C135.866 107.171 136.137 106.487 135.86 106.09C135.596 105.711 134.975 105.763 134.604 105.923C133.832 106.259 133.318 107.096 132.667 107.601C131.958 108.153 131.151 108.563 130.325 108.929L130.151 109.006C128.722 109.624 127.195 110.145 126.072 111.237C125.468 111.824 124.948 112.558 124.774 113.38C124.694 113.757 124.694 114.145 124.799 114.519C124.882 114.811 125.057 114.991 124.957 115.288C124.826 115.671 124.364 116.131 124.126 116.472C123.849 116.867 123.574 117.262 123.298 117.658C122.749 118.449 122.202 119.243 121.655 120.036C120.561 121.624 119.479 123.219 118.406 124.82C118.057 125.341 117.709 125.862 117.362 126.384L116.843 127.168L116.568 127.581L116.1 128.29C116.116 128.355 116.115 128.425 116.093 128.485C116.013 128.704 115.864 128.854 115.678 128.962L115.645 128.981C112.912 133.139 110.223 137.325 107.506 141.493C107.362 142.766 107.226 144.039 107.108 145.312C106.841 148.195 106.658 151.085 106.599 153.978C106.57 155.379 106.687 156.788 106.75 158.188C106.781 158.855 106.822 159.522 106.878 160.189L106.918 160.662C106.972 161.312 107.002 161.956 106.76 162.576C106.545 163.119 105.889 163.241 105.501 162.827C100.439 162.631 95.3724 162.482 90.3059 162.389C81.2375 162.222 72.1655 162.247 63.0958 162.416C58.5406 162.502 53.984 162.621 49.43 162.769C47.1863 162.84 44.9413 162.941 42.6963 162.971C41.4868 162.987 39.5831 162.563 39.4855 161.253L39.4832 161.213C39.332 161.253 39.1758 161.285 39.0157 161.308C38.9444 161.319 38.876 161.316 38.8128 161.301L38.7813 161.293C36.9784 161.822 34.6976 161.068 32.9844 160.627L32.843 160.592C31.2076 160.181 29.8936 159.594 28.8217 158.29C26.9455 156.006 26.3052 152.938 25.9722 150.111C25.6598 147.45 25.6418 144.741 26.0222 142.085C25.798 139.921 26.017 137.689 26.2719 135.537C26.3974 134.473 26.5447 133.41 26.7214 132.353C26.82 131.762 26.9493 131.178 27.0812 130.594C27.1339 130.362 27.1778 130.111 27.2445 129.868L27.2746 129.765C27.0697 129.791 26.8456 129.747 26.6292 129.633C26.1144 129.361 25.9645 128.809 25.9556 128.282C25.9274 126.691 26.1246 125.055 26.2988 123.475C26.4742 121.897 26.715 120.313 27.03 118.754L27.1116 118.352C27.3503 117.186 27.6234 115.983 28.1045 114.887C26.2975 114.592 24.4957 114.277 22.7424 113.742C21.887 113.48 21.0443 113.153 20.24 112.755ZM114.555 129.306C114.527 129.312 114.5 129.32 114.473 129.327C113.751 129.522 113.021 129.687 112.294 129.865C111.036 130.169 109.807 130.51 108.637 131.038C108.392 134.014 108.029 136.981 107.684 139.949L107.615 140.542C108.146 139.596 108.688 138.657 109.256 137.728C110.983 134.899 112.751 132.091 114.555 129.306ZM27.7151 129.601C27.7189 129.954 27.6421 130.322 27.6012 130.663C27.5345 131.215 27.4808 131.77 27.4129 132.322C27.2746 133.431 27.1568 134.542 27.0709 135.657C27.0159 136.368 26.98 137.082 26.948 137.796C27.6741 135.183 28.6359 132.628 29.5503 130.068C29.3974 130.052 29.2412 130.017 29.0801 129.975L28.8087 129.905C28.6488 129.865 28.1297 129.743 27.7151 129.601ZM116.843 127.168L116.847 127.286C116.867 127.701 116.608 127.935 116.295 127.996C116.476 127.72 116.66 127.443 116.843 127.168ZM33.7536 107.477C34.5181 107.542 35.2673 107.699 35.9819 107.97L36.0509 107.996C36.5794 108.193 37.3522 108.439 37.5251 108.982C37.5738 109.136 37.4431 109.263 37.2933 109.276C36.7195 109.32 36.0433 108.728 35.5119 108.529C34.9202 108.306 34.3004 108.141 33.6729 108.054C32.2628 107.855 30.7927 108.006 29.4659 108.5C29.3878 108.53 29.3391 108.41 29.4096 108.375C30.7466 107.674 32.2334 107.347 33.7536 107.477ZM17.552 111.003C17.4636 110.928 17.3752 110.849 17.2881 110.77C16.6015 110.144 15.9935 109.415 15.5433 108.613L15.4248 108.396C15.0581 107.713 14.6079 106.739 15.4696 106.247C15.9844 105.952 16.6043 106.026 17.178 106.205C17.2152 106.216 17.2523 106.228 17.2894 106.24C17.5456 106.327 17.7927 106.43 18.013 106.529C18.9696 106.952 19.8136 107.567 20.6972 108.109C21.6547 108.698 22.6001 109.073 23.7052 109.293L23.8093 109.314C24.8466 109.511 25.971 109.638 26.6946 110.459C26.8764 110.666 26.71 111.054 26.3962 110.952C24.3958 110.302 22.2789 110.16 20.4424 109.093C19.6817 108.652 18.962 108.145 18.1846 107.727C17.7722 107.505 17.3465 107.311 16.8927 107.178L16.6449 107.108C16.4997 107.067 16.3264 107.027 16.2098 107.066C15.988 107.14 16.0588 107.255 16.1274 107.454L16.1343 107.475C16.6734 109.08 18.2102 110.423 19.6343 111.312C19.9609 111.517 20.2951 111.704 20.6358 111.878C22.9417 113.062 25.5218 113.612 28.0559 114.266C28.0559 114.266 29.521 114.659 30.0064 114.808C30.5468 114.764 31.1628 114.948 31.57 115.167C31.9658 115.381 32.2847 115.667 32.5254 116.003C32.5254 116.003 32.7572 116.189 32.7995 116.478C32.9212 116.745 33.0031 117.034 33.0441 117.335C33.0671 117.511 33.0211 117.647 32.9339 117.743C33.1959 121.613 32.11 125.462 30.8857 129.14L30.7644 129.503L30.6864 129.733C29.366 133.632 27.851 137.504 27.1748 141.57C26.7228 144.286 26.7369 147.096 27.0686 149.825L27.092 150.013C27.4188 152.592 28.0476 155.486 29.7515 157.562C30.6207 158.622 31.6504 159.093 32.9669 159.434L33.039 159.452C34.23 159.755 35.4594 160.182 36.6876 160.312C37.8274 160.431 38.7827 160.024 39.8085 159.641L39.8098 159.64C41.9703 157.799 42.9513 155.119 43.6761 152.414C45.5548 145.414 45.3217 138.147 44.2563 131.045C43.7004 127.333 42.9448 123.654 42.1918 119.977C41.8153 118.139 41.4093 116.304 41.0725 114.46L40.8725 113.374C40.7621 112.771 40.6554 112.168 40.5641 111.561C40.4412 110.746 40.4041 109.945 40.3617 109.125C39.327 107.475 37.8248 106.115 36.0844 105.139C34.8383 104.441 33.5192 103.956 32.1579 103.605C28.266 102.595 24.0231 102.666 20.1069 101.89C18.7913 101.629 17.5424 101.242 16.2943 100.778L16.124 100.714C15.5516 100.5 14.9676 100.381 14.6833 101.03C14.4809 101.492 14.6013 101.973 14.9048 102.362C15.6489 103.314 17.1447 103.755 18.2704 104.098C18.9479 104.305 19.6394 104.469 20.3387 104.591C21.0379 104.713 21.7397 104.743 22.4108 104.981C22.6695 105.073 22.7207 105.468 22.4108 105.538C21.5604 105.73 20.7049 105.566 19.8597 105.407C18.9312 105.23 18.0168 104.98 17.128 104.663C16.9641 104.605 16.7945 104.544 16.6217 104.479L16.4916 104.429C16.6261 104.523 16.7605 104.616 16.8962 104.708C16.9321 104.732 16.9104 104.798 16.863 104.782C14.7732 104.031 12.8718 102.677 11.3987 101.075L11.3254 100.994C10.8068 100.423 9.62472 98.6912 8.62835 99.1737C7.69277 99.6257 9.28763 101.368 9.89374 102.081L9.96412 102.164C10.6531 102.182 11.3203 102.594 11.8787 102.927C12.8481 103.506 13.8611 104.004 14.8934 104.47C16.945 105.398 19.1233 106.053 21.1532 107.028C21.1801 107.042 21.1596 107.075 21.134 107.071C19.8418 106.872 18.5637 106.556 17.3151 106.163L17.2593 106.146L17.2036 106.128C16.4237 105.881 15.6541 105.603 14.8972 105.306C14.0558 104.976 13.2336 104.604 12.4357 104.184C11.7135 103.804 10.9118 103.12 10.0743 103.019C9.98461 103.008 9.9052 103.006 9.83603 103.013C8.87427 103.09 9.66958 104.624 9.93848 105.083C10.3778 105.836 10.9079 106.531 11.5163 107.166C12.7496 108.456 14.2441 109.478 15.8616 110.273C16.4135 110.544 16.9783 110.783 17.552 111.003Z" fill="black"/>
<path fill-rule="evenodd" clip-rule="evenodd" d="M78.6377 31.4703C85.9094 31.4703 96.5526 36.145 97.3534 40.6424C98.2966 45.9425 100.392 65.8723 99.2507 72.394C98.1105 78.9162 93.663 83.7351 83.8278 83.7351C73.9925 83.7351 66.6511 78.5715 64.9659 76.7987C63.2802 75.026 61.2379 69.5088 61.2379 69.5088C61.2379 69.5088 55.853 68.6297 55.8281 64.4974C55.8031 60.3651 58.5332 59.0881 58.5332 59.0881C58.5332 59.0881 57.0597 41.945 60.1566 37.6991C63.2535 33.4531 71.366 31.4703 78.6377 31.4703Z" fill="white"/>
<path fill-rule="evenodd" clip-rule="evenodd" d="M100.592 53.3018C100.99 57.4676 101.14 61.6694 101.217 65.8513C101.291 69.8139 100.929 73.9462 98.5838 77.3342C96.5337 80.2981 93.4113 82.4495 89.9343 83.6109C87.9557 84.273 85.7644 84.518 83.6749 84.5786C82.5953 84.6096 81.5126 84.5652 80.4397 84.4579C80.3045 84.4445 80.1687 84.4328 80.033 84.4211C79.1243 84.343 78.2229 84.2654 77.5604 83.6045C77.3518 83.3962 77.3542 82.9686 77.6634 82.8327C78.2508 82.5755 78.649 82.5481 79.2934 82.6332C79.8275 82.7032 80.3627 82.7587 80.9004 82.7948C82.0533 82.8724 83.2136 82.8747 84.3659 82.7896C86.4845 82.6332 88.651 82.0575 90.5744 81.1842C93.5907 79.8134 96.1815 77.567 97.58 74.6194C99.1833 71.2442 99.1027 67.3417 99.0275 63.707L99.0245 63.5582C98.9414 59.5268 98.7863 55.5074 98.4226 51.4895C98.285 49.9694 98.0886 48.4577 97.8922 46.9454C97.8364 46.5196 97.7812 46.0939 97.7273 45.6678C97.5975 44.6371 97.4278 43.6113 97.2187 42.593C97.1557 42.2855 97.0823 41.9804 97.0084 41.6758C96.9532 41.4465 96.898 41.2175 96.8477 40.9878C96.7616 41.0013 96.6743 41.0088 96.5846 41.0123C96.0494 41.0297 95.4644 40.904 95.0674 40.5378C94.9146 40.6377 94.7212 40.7005 94.4885 40.7116C93.0646 40.7794 91.6267 40.7491 90.1919 40.719C89.4081 40.7027 88.6249 40.6862 87.8454 40.6857C85.6328 40.6845 83.4185 40.6857 81.2041 40.6919C80.8664 40.6929 80.5288 40.6941 80.1912 40.6954C78.3156 40.7022 76.4371 40.7092 74.564 40.6611C74.167 40.6509 73.7675 40.6442 73.3668 40.6375C71.6889 40.6097 69.9868 40.5813 68.3477 40.2888C67.6651 42.6239 67.6894 45.1895 69.1121 47.2755C69.514 47.8636 69.1878 48.5564 68.6641 48.9239C68.1288 49.2988 67.1662 49.8736 66.3424 49.9327C66.3109 50.0017 66.2782 50.0706 66.246 50.1394C66.1982 50.2425 66.1497 50.3453 66.103 50.4479C65.7102 51.3101 65.3562 52.1776 65.1082 53.0905C64.9803 53.5609 64.8706 54.0392 64.7779 54.5204C64.7858 54.6046 64.7936 54.6886 64.8027 54.7726C64.8027 54.7812 64.8039 54.7897 64.8052 54.7996C64.8106 54.8343 64.8167 54.8737 64.8209 54.8959C64.8324 54.9551 64.844 55.0144 64.8555 55.0736C64.8906 55.2559 64.9264 55.4381 64.964 55.6196C65.0834 56.2052 65.1755 56.7958 65.241 57.3887C65.3598 58.4739 65.3483 59.8844 64.2493 60.5266C63.6619 60.8702 62.9575 60.8346 62.3362 60.6042C61.9901 60.4753 61.6864 60.3021 61.3736 60.1236C61.3099 60.0874 61.2451 60.0501 61.1796 60.0133C61.079 59.9567 60.9759 59.9042 60.8729 59.8523C60.7438 59.787 60.6148 59.7216 60.4907 59.6476C60.4293 59.6102 60.3705 59.5659 60.3154 59.5192C59.8992 59.6044 59.4931 59.7631 59.2652 59.8716C58.6543 60.1638 58.1178 60.5867 57.6617 61.0726C56.6924 62.1069 56.4017 63.5641 56.5374 64.9168C56.6641 66.1756 57.1778 67.6217 58.2112 68.4588C58.6606 68.8234 59.2217 69.0369 59.8147 69.0311C60.1065 69.0281 60.3756 68.9692 60.6571 68.8975C60.7777 68.8671 60.9099 68.8537 61.042 68.8409C61.216 68.8234 61.3894 68.8059 61.5348 68.7499C61.9149 68.6029 62.3835 69.0503 62.2289 69.4178C62.1944 69.4995 62.164 69.5782 62.1349 69.6546C62.0658 69.8361 62.0022 70.0017 61.8991 70.154C62.96 71.8206 64.1214 73.4358 65.3574 74.9857C66.1406 75.9669 67.022 76.839 67.907 77.7146C68.2804 78.0838 68.6544 78.4542 69.0223 78.8334C69.5697 79.3981 69.7976 80.5099 68.8071 80.7514C67.9367 80.9661 67.2602 80.1972 66.7231 79.5877C66.6516 79.506 66.5819 79.4272 66.5152 79.3537C64.165 76.7807 62.3889 73.8266 61.5573 70.4917C61.1826 70.7484 60.7523 70.8878 60.2986 70.9479C59.3958 71.0675 58.4828 70.896 57.6913 70.4561C54.6945 68.7901 53.9696 64.2891 55.3732 61.4681C55.7117 60.7891 56.2117 60.1831 56.8211 59.7117C56.7731 59.6236 56.7542 59.5198 56.785 59.409C56.8392 59.2136 56.8987 59.0211 56.9612 58.8291C56.893 58.8 56.843 58.7399 56.8525 58.6501C56.9002 58.1807 56.9469 57.7113 56.9935 57.242L57.019 56.9856C57.0131 56.7312 57.0051 56.4769 56.9972 56.2225C56.9788 55.6386 56.9605 55.0542 56.9676 54.4669C56.9749 53.8419 56.997 53.2171 57.0191 52.5924C57.0446 51.874 57.07 51.1554 57.0728 50.4366C57.0811 48.1085 57.1342 45.7816 57.1872 43.4546C57.241 41.0966 57.2949 38.7386 57.302 36.3793C57.3095 34.0873 57.3147 31.7918 57.2519 29.5011C57.2513 29.4849 57.2509 29.4689 57.2506 29.4531C57.2503 29.4388 57.2501 29.4244 57.2495 29.4098C57.2416 29.1287 57.2231 28.833 57.2041 28.5295C57.0991 26.854 56.9792 24.9413 58.5558 23.937C58.8618 23.7424 59.2435 23.7398 59.5765 23.8656C60.5344 23.2233 61.7355 22.9137 62.8842 22.7349C64.5778 22.4718 66.2824 22.314 67.9882 22.1561C68.4871 22.1099 68.986 22.0637 69.4849 22.0149C70.6348 21.9027 71.8453 21.8598 73.0025 21.8844C73.605 21.8971 74.2112 21.8761 74.8186 21.8552C75.3914 21.8354 75.9655 21.8156 76.5377 21.824C77.8744 21.8449 79.2219 21.893 80.564 21.9991C80.5949 21.996 80.6264 21.9932 80.6579 21.9904C80.69 21.9877 80.7222 21.9849 80.7537 21.9818C82.7862 21.7941 84.8169 21.8934 86.8488 21.9926C87.3404 22.0167 87.8326 22.0407 88.3248 22.0607C90.7296 22.1581 93.2688 22.3972 95.4286 23.5055C95.7063 23.6478 95.9415 23.8096 96.1421 23.9898C96.4234 24.0279 96.6919 24.1047 96.9326 24.2337C97.6279 24.0985 98.4038 24.3984 98.5686 25.175C98.8081 26.3129 98.899 27.4606 98.7553 28.6146C98.7535 28.6292 98.7517 28.6441 98.7499 28.6594C98.7487 28.6726 98.7469 28.686 98.745 28.6998C99.0354 29.7703 99.016 30.9396 98.7748 31.9956C98.8766 33.3298 98.9348 34.6678 98.9427 36.0037C98.9439 36.2058 98.9469 36.4087 98.9499 36.6121C98.9608 37.3384 98.9718 38.0701 98.902 38.7898C98.8232 39.5999 98.4771 40.2408 97.9322 40.856C97.8291 40.9719 97.6558 40.9912 97.5115 40.963C97.4739 40.9558 97.4418 40.9459 97.4121 40.9342C97.6812 41.489 97.9037 42.0716 98.1219 42.6415C98.1698 42.7679 98.2183 42.8936 98.2662 43.0184C98.6893 44.1107 99.0991 45.2215 99.3894 46.3533C99.9786 48.6352 100.367 50.9606 100.592 53.3018ZM59.7816 63.6294C59.66 63.5483 59.5374 63.4672 59.4047 63.4066C59.3881 63.399 58.6863 63.1796 58.8221 63.4696C58.8681 63.5652 58.7477 63.6726 58.662 63.5874C58.4187 63.35 58.5544 63.0636 58.7862 62.8518C59.2048 62.468 59.8299 62.5566 60.3435 62.6482C61.0578 62.7754 61.7525 63.0758 62.3544 63.462C63.0024 63.8773 63.8025 64.4531 63.9304 65.2411C64.0468 65.9645 63.2994 66.7625 62.5296 66.2777C62.1131 66.0152 61.8216 65.6244 61.5288 65.233C61.3202 64.9536 61.1111 64.6736 60.8559 64.4385C60.5546 64.162 60.2294 63.9193 59.885 63.6971C59.8504 63.6749 59.8161 63.6521 59.7816 63.6294Z" fill="black"/>
<path fill-rule="evenodd" clip-rule="evenodd" d="M89.3826 72.4138C89.579 72.0848 90.0312 71.7803 90.4452 71.827C92.2995 72.0364 92.2965 74.2005 91.5806 75.464C90.9453 76.584 89.6318 77.242 88.317 77.1458C86.9355 77.0449 85.7583 76.2626 85.24 75.019C84.8975 74.1959 84.7393 72.6763 85.651 72.1239C85.6674 72.1134 85.6952 72.1157 85.7092 72.1309C86.1456 72.6203 86.1632 73.3547 86.5457 73.8995C86.9015 74.4065 87.4544 74.8247 88.1018 74.8895C88.5849 74.9379 89.0747 74.7699 89.2638 74.3516C89.3656 74.1259 89.3541 74.0028 89.3159 73.8476L89.2808 73.7123C89.1595 73.2386 89.105 72.8781 89.3826 72.4138ZM89.8785 62.9224C90.8453 63.4882 92.3189 64.8077 91.2787 66.2106C90.0537 67.4479 88.2909 66.0292 87.4222 65.3881C86.6166 64.8905 85.711 66.1692 86.4584 66.7496C92.7366 71.2244 95.285 63.0705 90.3677 62.2568C89.8257 62.1675 89.6251 62.7474 89.8785 62.9224ZM79.6656 59.042C80.2596 58.1845 81.6145 58.3108 81.9412 59.3279C82.1182 59.8791 81.8739 60.3744 81.8866 60.925C81.8969 61.39 81.8654 61.908 81.7175 62.3583C81.3799 63.385 80.4209 64.11 79.2861 64.0803C78.155 64.05 77.1584 63.361 76.685 62.3904C76.2098 61.4156 76.3104 60.4076 76.6571 59.4165C76.6741 59.3693 76.739 59.346 76.7778 59.3862C77.1881 59.8056 77.4882 60.249 77.7992 60.7191L78.1174 61.2004C78.3611 61.5632 78.7145 62.027 79.1691 61.9978L79.237 61.9914C79.3637 61.9809 79.3443 62.0048 79.4413 61.8391C79.4868 61.7627 79.4783 61.6198 79.5001 61.5294L79.508 61.499L79.5037 61.4821C79.494 61.4384 79.4843 61.3561 79.4765 61.2126L79.4752 61.1811C79.4419 60.5109 79.2455 59.6493 79.6656 59.042ZM94.7127 59.6125C94.6061 58.5159 96.2076 58.2726 96.7398 59.084C97.0174 59.507 97.0987 60.0384 97.1599 60.5424L97.1884 60.781C97.2514 61.2984 97.2763 61.8362 97.0435 62.3186C96.6761 63.0787 95.8772 63.48 95.0158 63.4165C94.1926 63.3558 93.4422 62.8967 93.0464 62.1996C92.6936 61.5772 92.3426 60.3627 92.7711 59.7135C92.7972 59.6744 92.8487 59.6691 92.8845 59.6995C93.2894 60.046 93.3549 60.6771 93.5962 61.128C93.8441 61.593 94.2211 62.0462 94.7915 62.1168C95.3377 62.1845 95.5462 61.8969 95.4068 61.3958C95.2274 60.7489 94.78 60.309 94.7127 59.6125ZM80.0984 52.5228L80.3603 52.4263C81.2574 52.1 82.4898 51.7228 83.219 52.4252C83.6688 52.8583 83.7549 53.4963 83.4336 54.0248C83.0444 54.6651 82.3461 54.6809 81.672 54.7752C80.9052 54.8824 80.1257 55.0863 79.4116 55.3771C78.6078 55.7046 77.8616 56.1129 77.1306 56.569C76.4353 57.0024 75.743 57.7106 74.9113 57.8442C74.8774 57.8496 74.8386 57.8355 74.8301 57.7997C74.641 57.0168 75.1659 56.2464 75.6345 55.6356C76.2013 54.8961 76.8881 54.2892 77.6555 53.745C78.3963 53.2197 79.2431 52.84 80.0984 52.5228ZM96.3973 55.3063L96.4773 55.2928C97.0211 55.2056 97.5145 55.2256 97.9243 55.6405C98.2377 55.957 98.3583 56.3672 98.2086 56.7856C98.071 57.1716 97.763 57.5638 97.3163 57.6447C95.8081 57.9179 94.1369 57.8727 92.6208 57.6659C91.9273 57.5712 91.2278 57.4553 90.5519 57.2726L90.241 57.1859C89.6772 57.0308 89.0316 56.8687 88.6219 56.4694C88.4746 56.3259 88.5594 56.1205 88.7358 56.054C89.4505 55.7845 90.4301 55.9279 91.1927 55.9068C92.0795 55.8824 92.9676 55.8184 93.8501 55.7303C94.7121 55.6439 95.5468 55.4565 96.3973 55.3063Z" fill="black"/>
<path fill-rule="evenodd" clip-rule="evenodd" d="M102.487 65.4663C102.062 64.9179 101.299 64.1975 100.528 64.2366C100.429 64.2413 100.392 64.3445 100.451 64.4139C100.704 64.7109 101.048 64.922 101.301 65.2248C101.601 65.5835 101.817 66.0158 101.957 66.4533C102.161 67.0885 102.218 67.8072 102.036 68.4535C101.715 69.5922 100.701 70.4269 99.5949 70.8528C98.5001 71.2745 97.1823 71.4186 96.1469 70.8009C94.6188 69.8879 93.3221 68.5725 91.4012 68.5469C90.9514 68.5404 90.635 68.7388 90.4464 69.0217C90.2567 68.7487 89.9439 68.5562 89.5057 68.5509C87.3519 68.5276 85.7449 69.955 83.9373 70.8446C82.7152 71.446 81.1349 71.2594 79.8747 70.8621C78.6854 70.4876 77.3948 69.7351 76.9469 68.5469C76.6989 67.8906 76.7547 67.1247 77.0087 66.4778C77.176 66.0525 77.4336 65.6419 77.7531 65.3076C78.0841 64.9611 78.5193 64.7429 78.8587 64.4139C78.9278 64.3469 78.8733 64.2424 78.7818 64.2366C77.3415 64.1427 76.0412 65.7982 75.7697 66.9993C75.5017 68.1817 75.9012 69.3618 76.7092 70.2642C78.3526 72.0994 81.3956 72.7043 83.7639 72.1653C85.6813 71.7289 87.5016 70.7239 89.5057 70.8679C89.9451 70.8994 90.2603 70.7233 90.4507 70.4561C90.641 70.7314 90.9587 70.9111 91.4012 70.8697C93.2688 70.6959 94.9358 71.9693 96.7489 72.2802C98.1922 72.5275 99.7513 72.1939 100.988 71.4449C102.281 70.6626 103.191 69.4073 103.251 67.911C103.285 67.05 103.023 66.1593 102.487 65.4663Z" fill="black"/>
<path fill-rule="evenodd" clip-rule="evenodd" d="M98.8645 65.0218C96.9429 65.9126 94.2612 64.5983 92.9688 63.2217C92.4984 62.7206 92.136 61.2862 92.3166 60.3767C92.807 57.9131 94.6486 56.4346 96.5926 55.9298C99.2876 55.2297 102 57.0031 101.683 59.0957C101.384 61.0791 100.929 63.9561 98.8645 65.0218ZM85.7826 60.2898C85.6286 62.9743 83.3894 65.324 80.7125 66.0199C76.4002 67.1784 74.2689 64.26 73.3038 61.1164C73.2075 60.8037 72.982 59.8506 73.5875 59.0322C75.9674 55.8152 81.7576 56.3636 84.6491 57.2468C85.4959 58.0261 85.842 59.1512 85.7826 60.2898ZM100.953 55.6593C100.952 55.6608 100.95 55.6622 100.949 55.6638C100.939 55.658 100.929 55.6521 100.919 55.6464C100.93 55.6509 100.942 55.6547 100.953 55.6593ZM104.561 55.9695C104.31 53.2363 95.402 54.2829 94.3606 54.5069C91.5183 55.3117 89.0626 57.5013 85.8844 56.5388C82.5917 53.005 71.5029 54.0184 69.1782 55.8185C68.7381 55.6523 68.2029 55.7415 67.6361 55.8983C64.7246 55.7971 51.4334 56.7633 54.152 60.3406C54.5646 60.6159 54.9768 60.3359 54.9882 59.7683C69.1606 54.8431 67.7864 59.4562 69.4673 58.9172C69.7237 58.9884 69.9917 59.0333 70.2263 59.0806C71.5271 59.4837 71.9684 59.3594 72.14 60.7652C73.3172 71.6205 88.3334 67.8737 87.1022 58.9697C88.3213 58.905 89.3882 58.3975 90.6775 58.8933C91.5728 67.2811 98.5845 67.62 100.695 64.7121C102.286 62.6937 101.655 59.6482 103.842 58.0604C104.706 58.7562 104.761 56.4083 104.561 55.9695Z" fill="black"/>
<rect x="0.5" y="0.5" width="156" height="188" rx="15.5" stroke="black"/>
</g>
<defs>
<filter id="filter0_d_53_2039" x="0" y="0" width="161" height="193" filterUnits="userSpaceOnUse" color-interpolation-filters="sRGB">
<feFlood flood-opacity="0" result="BackgroundImageFix"/>
<feColorMatrix in="SourceAlpha" type="matrix" values="0 0 0 0 0 0 0 0 0 0 0 0 0 0 0 0 0 0 127 0" result="hardAlpha"/>
<feOffset dx="4" dy="4"/>
<feComposite in2="hardAlpha" operator="out"/>
<feColorMatrix type="matrix" values="0 0 0 0 0 0 0 0 0 0 0 0 0 0 0 0 0 0 0.25 0"/>
<feBlend mode="normal" in2="BackgroundImageFix" result="effect1_dropShadow_53_2039"/>
<feBlend mode="normal" in="SourceGraphic" in2="effect1_dropShadow_53_2039" result="shape"/>
</filter>
</defs>
</svg>
