<svg width="603" height="480" viewBox="0 0 603 480" fill="none" xmlns="http://www.w3.org/2000/svg">
<path d="M289.371 170.367L297.839 147.798C285.977 138.303 272.022 134.786 257.033 137.317C244.758 139.394 242.957 141.462 242.708 142.143C242.88 142.099 242.983 142.064 242.983 142.064C242.983 146.489 249.858 156.613 249.858 156.613C249.858 156.613 253.605 162.94 251.107 167.365C248.609 171.798 242.363 167.365 242.363 167.365L228.003 153.453C227.374 154.082 220.509 153.453 220.509 153.453C219.943 153.299 219.412 153.032 218.949 152.668L215.831 155.033C215.831 155.033 200.842 171.475 195.226 191.085L212.394 201.523C212.394 201.523 224.876 184.444 232.37 184.444C232.37 184.444 240.968 199.376 259.394 192.839C259.36 192.747 259.359 192.645 259.391 192.551C259.422 192.458 259.484 192.378 259.566 192.325C259.593 192.307 259.622 192.292 259.652 192.281H259.661C260.281 192.053 260.888 191.788 261.478 191.487C261.775 191.343 262.06 191.177 262.331 190.989C262.62 190.828 262.854 190.581 263.003 190.282C262.913 190.618 262.731 190.921 262.477 191.155C262.239 191.406 261.983 191.639 261.711 191.853C261.273 192.213 260.816 192.548 260.341 192.857C263.718 194.114 283.488 201.305 289.19 198.992C289.19 198.992 306.049 192.037 309.796 176.223L289.371 170.367ZM260.083 152.371C259.669 151.769 259.295 151.139 258.963 150.486C258.278 149.182 257.751 147.799 257.395 146.367C257.028 144.935 256.832 143.464 256.809 141.986C256.764 140.517 256.947 139.05 257.352 137.639C257.226 140.504 257.522 143.372 258.231 146.149C258.573 147.528 259.019 148.879 259.566 150.189C260.1 151.516 260.754 152.79 261.426 154.082C260.961 153.532 260.496 152.965 260.083 152.371V152.371ZM278.198 172.409C277.96 173.799 277.491 175.139 276.812 176.371C276.097 177.594 275.141 178.655 274.003 179.487C272.883 180.317 271.573 180.846 270.196 181.023C272.663 180.044 274.733 178.252 276.071 175.935C276.392 175.36 276.672 174.762 276.906 174.146C277.16 173.532 277.373 172.903 277.544 172.261C277.725 171.623 277.819 170.951 277.983 170.297C278.095 169.625 278.155 168.953 278.293 168.263C278.353 168.953 278.371 169.642 278.405 170.332C278.336 171.021 278.328 171.728 278.198 172.409L278.198 172.409ZM282.101 169.468C280.063 168.813 278.073 168.011 276.148 167.068C274.212 166.128 272.369 165.003 270.644 163.708C270.204 163.402 269.799 163.045 269.386 162.704C268.961 162.37 268.556 162.012 268.171 161.631C267.394 160.889 266.666 160.096 265.992 159.257C266.405 159.606 266.81 159.955 267.198 160.313C267.586 160.679 268.034 160.976 268.447 161.308C268.852 161.648 269.274 161.962 269.713 162.268C270.144 162.565 270.566 162.887 271.023 163.158C272.791 164.316 274.629 165.36 276.527 166.282C278.414 167.225 280.352 168.054 282.325 168.839C283.298 169.232 284.297 169.599 285.297 169.939C286.296 170.314 287.304 170.637 288.32 170.969C286.211 170.639 284.131 170.137 282.101 169.468L282.101 169.468Z" fill="#272727"/>
<path d="M236.784 138.22C237.08 138.469 237.415 138.665 237.775 138.8C237.941 138.867 238.121 138.893 238.298 138.874C238.476 138.856 238.646 138.794 238.795 138.694C239.344 138.177 239.7 137.484 239.803 136.731C240.093 135.183 240.221 133.609 240.186 132.033C240.195 131.652 240.18 131.27 240.141 130.891C240.089 130.542 239.97 130.206 239.793 129.901C239.63 129.608 239.402 129.356 239.128 129.166C238.854 128.975 238.541 128.85 238.212 128.8C237.901 128.783 237.59 128.852 237.314 129.001C237.017 129.178 236.747 129.399 236.515 129.658C236.024 130.209 235.617 130.833 235.311 131.508L235.299 131.533C235.263 131.611 235.206 131.677 235.134 131.724C235.063 131.771 234.98 131.796 234.894 131.797C232.924 131.893 230.949 131.695 229.036 131.209C227.118 130.729 225.287 129.947 223.608 128.892C221.94 127.841 220.402 126.592 219.027 125.171C217.649 123.753 216.448 122.17 215.451 120.456L216.206 120.45C215.653 121.493 215.162 122.57 214.737 123.673C214.307 124.782 213.939 125.915 213.635 127.066C213.324 128.215 213.104 129.388 212.978 130.574C212.855 131.757 212.834 132.949 212.916 134.137L212.906 134.089C213.37 135.957 213.036 137.774 213.42 139.541C213.732 141.32 214.167 143.076 214.722 144.793C215.273 146.503 216.008 148.146 216.913 149.693C217.359 150.45 217.892 151.151 218.5 151.782C218.81 152.071 219.141 152.336 219.49 152.575C219.835 152.794 220.212 152.954 220.608 153.05L220.546 153.039C221.791 153.126 223.045 153.186 224.29 153.218C224.913 153.237 225.535 153.241 226.148 153.225C226.456 153.218 226.757 153.198 227.052 153.172C227.187 153.149 227.344 153.137 227.461 153.108L227.629 153.066C227.657 153.049 227.618 153.058 227.636 153.079L228.36 153.071L235.6 159.966C238.006 162.272 240.427 164.562 242.819 166.883L242.741 166.819C243.943 167.651 245.289 168.246 246.709 168.572C247.341 168.762 248.013 168.759 248.643 168.564C249.273 168.368 249.833 167.989 250.251 167.474C251.053 166.298 251.432 164.88 251.326 163.455C251.258 161.956 250.944 160.479 250.396 159.085C250.13 158.377 249.82 157.687 249.469 157.019L248.245 155.06C247.428 153.721 246.637 152.367 245.909 150.974C245.166 149.586 244.495 148.159 243.899 146.7C243.241 145.238 242.851 143.667 242.748 142.064L243.067 142.292C242.552 142.46 242.003 142.491 241.473 142.382C240.943 142.273 240.45 142.028 240.04 141.671C239.301 140.932 238.789 139.991 238.568 138.963L238.572 138.974L238.561 138.929L238.555 138.906C238.551 138.891 238.553 138.874 238.561 138.86C238.569 138.846 238.582 138.836 238.598 138.831C238.613 138.827 238.629 138.829 238.643 138.836C238.657 138.844 238.668 138.857 238.673 138.872L238.686 138.916L238.69 138.927C238.956 139.896 239.491 140.766 240.233 141.434C240.608 141.727 241.05 141.918 241.519 141.989C241.987 142.059 242.465 142.006 242.908 141.835C242.966 141.813 243.031 141.815 243.087 141.841C243.144 141.867 243.188 141.915 243.21 141.974C243.218 141.995 243.223 142.016 243.225 142.038L243.226 142.064C243.418 143.581 243.86 145.055 244.533 146.424C245.175 147.834 245.889 149.208 246.673 150.542C247.454 151.88 248.257 153.207 249.098 154.509L250.4 156.487C250.793 157.19 251.141 157.918 251.443 158.666C252.075 160.172 252.454 161.774 252.564 163.407C252.701 165.13 252.238 166.847 251.257 168.262C250.717 169.012 249.941 169.553 249.057 169.795C248.211 170.015 247.327 170.038 246.472 169.862C244.866 169.511 243.343 168.85 241.985 167.914C241.962 167.899 241.941 167.882 241.921 167.864L241.907 167.849C239.512 165.532 237.146 163.183 234.765 160.851L227.645 153.829L228.368 153.821C228.243 153.918 228.105 153.996 227.959 154.053L227.668 154.123C227.478 154.163 227.32 154.169 227.145 154.193C226.813 154.215 226.486 154.228 226.165 154.227C225.522 154.229 224.887 154.209 224.254 154.175C222.987 154.107 221.733 153.991 220.473 153.86L220.462 153.859L220.411 153.85C219.936 153.717 219.486 153.507 219.078 153.228C218.693 152.945 218.33 152.633 217.992 152.293C217.368 151.6 216.826 150.836 216.375 150.018C215.5 148.405 214.798 146.702 214.281 144.938C213.739 143.193 213.319 141.411 213.024 139.607C212.958 139.153 212.895 138.699 212.857 138.239C212.818 137.768 212.835 137.313 212.815 136.865C212.803 135.976 212.699 135.091 212.504 134.224L212.499 134.204L212.494 134.176C212.391 132.961 212.394 131.74 212.502 130.526C212.613 129.315 212.801 128.112 213.063 126.924C213.328 125.737 213.659 124.566 214.054 123.417C214.449 122.26 214.914 121.129 215.447 120.03C215.48 119.962 215.531 119.904 215.594 119.863C215.656 119.821 215.728 119.797 215.803 119.793C215.878 119.789 215.952 119.805 216.019 119.84C216.086 119.874 216.142 119.926 216.182 119.99L216.203 120.024C217.234 121.615 218.429 123.09 219.769 124.424C221.099 125.766 222.583 126.942 224.188 127.927C224.597 128.155 224.985 128.425 225.404 128.632L226.663 129.252C227.086 129.452 227.533 129.588 227.968 129.761L228.624 130.007L229.301 130.18C231.109 130.668 232.977 130.885 234.846 130.822L234.43 131.111C234.789 130.337 235.27 129.626 235.854 129.008C236.165 128.688 236.524 128.418 236.917 128.209C237.348 127.996 237.828 127.91 238.305 127.96C238.757 128.036 239.185 128.217 239.556 128.489C239.928 128.761 240.231 129.117 240.444 129.528C240.654 129.921 240.788 130.351 240.84 130.795C240.869 131.21 240.872 131.627 240.848 132.043C240.829 133.663 240.618 135.275 240.218 136.843C240.053 137.675 239.603 138.42 238.948 138.949C238.761 139.061 238.549 139.124 238.332 139.133C238.114 139.143 237.898 139.098 237.702 139.004C237.332 138.834 236.995 138.602 236.703 138.316C236.697 138.311 236.692 138.304 236.688 138.296C236.685 138.289 236.683 138.281 236.683 138.272C236.682 138.264 236.683 138.256 236.686 138.248C236.689 138.24 236.693 138.233 236.699 138.227C236.709 138.215 236.724 138.208 236.74 138.207C236.756 138.205 236.772 138.21 236.784 138.22Z" fill="#272727"/>
<path d="M232.998 149.657C233.43 148.993 233.818 148.301 234.16 147.585C234.501 146.881 234.799 146.156 235.05 145.415C235.304 144.674 235.516 143.919 235.682 143.152C235.858 142.384 235.98 141.601 236.119 140.801C236.236 141.606 236.251 142.423 236.163 143.232C236.079 144.047 235.904 144.849 235.639 145.623C235.136 147.185 234.223 148.58 232.998 149.657V149.657Z" fill="#272727"/>
<path d="M212.635 131.717C213.394 131.236 214.297 131.042 215.184 131.172C215.634 131.233 216.068 131.386 216.457 131.622C216.844 131.854 217.165 132.183 217.388 132.578C217.022 132.379 216.641 132.208 216.249 132.068C215.875 131.94 215.49 131.849 215.098 131.798C214.28 131.706 213.457 131.679 212.635 131.717V131.717Z" fill="#272727"/>
<path d="M220.51 131.945C220.808 131.386 221.284 130.945 221.859 130.694C222.413 130.42 222.999 130.221 223.604 130.101C224.201 129.986 224.807 129.926 225.414 129.922C226.02 129.917 226.624 129.973 227.219 130.088C226.031 130.354 224.866 130.485 223.726 130.721C223.159 130.83 222.598 130.973 222.047 131.147C221.486 131.303 220.962 131.574 220.51 131.945V131.945Z" fill="#272727"/>
<path d="M215.165 136.765C215.408 136.757 215.638 136.653 215.807 136.476C215.975 136.299 216.07 136.063 216.07 135.817C216.07 135.57 215.975 135.334 215.807 135.157C215.638 134.98 215.408 134.876 215.165 134.868C214.922 134.876 214.692 134.98 214.524 135.157C214.355 135.334 214.261 135.57 214.261 135.817C214.261 136.063 214.355 136.299 214.524 136.476C214.692 136.653 214.922 136.757 215.165 136.765V136.765Z" fill="#272727"/>
<path d="M223.707 135.513C223.95 135.504 224.18 135.401 224.348 135.224C224.517 135.047 224.612 134.81 224.612 134.564C224.612 134.318 224.517 134.081 224.348 133.904C224.18 133.727 223.95 133.624 223.707 133.615C223.464 133.624 223.234 133.727 223.065 133.904C222.896 134.081 222.802 134.318 222.802 134.564C222.802 134.81 222.896 135.047 223.065 135.224C223.234 135.401 223.464 135.504 223.707 135.513Z" fill="#272727"/>
<path d="M216.139 138.271L215.937 139.371C215.873 139.692 215.869 140.022 215.923 140.344C215.95 140.484 216.008 140.617 216.091 140.732C216.175 140.847 216.282 140.942 216.406 141.01C216.718 141.186 217.047 141.328 217.388 141.434C217.199 141.486 217.006 141.523 216.811 141.546C216.606 141.552 216.4 141.523 216.204 141.459C215.982 141.392 215.782 141.266 215.625 141.093C215.469 140.921 215.361 140.709 215.313 140.479C215.239 140.058 215.294 139.623 215.47 139.234C215.62 138.867 215.849 138.538 216.139 138.271Z" fill="#272727"/>
<path d="M217.388 143.964C217.919 144.162 218.444 144.332 218.958 144.503C219.467 144.671 219.986 144.803 220.512 144.899C221.026 144.994 221.55 145.028 222.072 145.001C222.609 144.946 223.135 144.809 223.632 144.597C223.235 145.034 222.721 145.343 222.153 145.488C221.577 145.616 220.983 145.627 220.403 145.521C219.27 145.311 218.222 144.77 217.388 143.964V143.964Z" fill="#272727"/>
<path d="M239.822 137.413C244.755 129.157 242.743 122.098 240.431 117.857C239.64 116.412 238.536 115.166 237.202 114.213C235.868 113.26 234.339 112.624 232.729 112.354C220.509 110.314 215.515 119.926 215.515 119.926L215.827 120.24C215.827 120.24 222.383 131.942 234.87 131.31C234.87 131.31 236.725 127.09 239.229 128.748C239.632 129.027 239.962 129.403 240.187 129.842C240.413 130.281 240.527 130.77 240.521 131.265" fill="#272727"/>
<path d="M238.187 115.008C238.187 115.008 237.056 107.591 242.051 105.693C245.049 104.554 247.148 104.555 249.156 105.421C250.313 105.952 251.323 106.762 252.1 107.779C252.877 108.797 253.397 109.991 253.614 111.258C254.327 114.945 256.607 120.163 263.905 115.815C263.905 115.815 264.529 131.629 252.041 130.364C252.041 130.364 245.173 130.996 244.549 120.243C244.549 120.243 244.495 117.431 240.776 118.52" fill="#272727"/>
<path d="M297.134 149.704C300.829 151.173 304.541 152.6 308.224 154.106C311.865 155.729 315.429 157.51 318.916 159.447C322.405 161.378 325.805 163.469 329.145 165.652C330.813 166.747 332.467 167.861 334.109 168.996L338.97 172.481L338.992 172.498C342.324 175.477 345.828 178.253 349.485 180.811C350.403 181.452 351.347 182.01 352.304 182.616L353.018 183.09C353.228 183.245 353.46 183.368 353.705 183.454C354.222 183.637 354.752 183.782 355.29 183.886C357.475 184.285 359.682 184.546 361.898 184.669L361.884 184.669C362.851 184.638 363.819 184.704 364.774 184.865C365.258 184.943 365.729 185.087 366.176 185.293C366.403 185.404 366.612 185.55 366.795 185.725C366.963 185.89 367.142 186.05 367.321 186.209C368.769 187.472 370.272 188.678 371.788 189.86C373.307 191.039 374.829 192.221 376.406 193.308C376.833 193.577 377.187 193.95 377.434 194.394C377.682 194.837 377.816 195.336 377.824 195.845C377.827 196.367 377.653 196.873 377.33 197.279C377 197.666 376.579 197.963 376.105 198.143L376.187 197.951C376.329 198.352 376.409 198.774 376.422 199.201C376.439 199.631 376.369 200.059 376.216 200.461C376.063 200.867 375.812 201.228 375.486 201.511C375.167 201.791 374.804 202.016 374.413 202.177L374.505 201.964C374.858 202.896 374.888 203.923 374.588 204.874C374.394 205.343 374.083 205.753 373.686 206.063C373.288 206.374 372.818 206.574 372.321 206.644C371.827 206.692 371.329 206.633 370.86 206.47C370.391 206.308 369.961 206.045 369.6 205.701C368.912 205.072 368.191 204.483 367.439 203.934L367.741 203.626L369.436 206.341L369.859 207.02C370.027 207.294 370.099 207.618 370.065 207.938C370.041 208.244 369.949 208.541 369.794 208.805C369.64 209.069 369.428 209.294 369.174 209.462C368.668 209.772 368.071 209.893 367.486 209.805C366.935 209.739 366.396 209.593 365.885 209.373C364.866 208.961 363.932 208.359 363.133 207.599C362.404 206.765 361.866 205.778 361.56 204.708C361.063 203.823 360.372 203.065 359.541 202.493C358.732 201.865 357.812 201.397 356.831 201.115C356.382 200.955 355.899 200.921 355.433 201.019C354.968 201.116 354.537 201.34 354.188 201.668L354.164 201.691C353.633 202.26 353.328 203.007 353.305 203.79C353.287 204.603 353.458 205.408 353.804 206.142C354.206 206.926 354.526 207.751 354.756 208.603C354.871 209.069 354.887 209.554 354.804 210.027C354.695 210.526 354.416 210.97 354.017 211.282C353.65 211.564 353.241 211.786 352.805 211.938L352.493 212.049C352.435 212.067 352.404 212.084 352.322 212.103C352.239 212.125 352.152 212.134 352.065 212.128C351.786 212.099 351.522 211.986 351.308 211.803C350.636 211.183 350.115 210.415 349.785 209.557C349.517 208.755 349.177 207.979 348.769 207.24C348.345 206.53 347.816 205.891 347.199 205.345L346.964 205.145C346.862 205.057 346.771 204.956 346.694 204.845C346.559 204.652 346.443 204.446 346.347 204.231C346.162 203.817 346.022 203.384 345.928 202.939C345.809 202.101 345.608 201.276 345.328 200.478C345.037 199.692 344.658 198.942 344.199 198.243C343.749 197.522 343.272 196.82 342.766 196.136C340.831 193.339 338.216 191.095 335.174 189.622C335.161 189.617 335.149 189.61 335.138 189.603C331.104 187.025 326.993 184.554 322.801 182.243C320.705 181.087 318.584 179.975 316.43 178.936C314.291 177.862 312.07 176.966 309.788 176.256C309.78 176.254 309.774 176.248 309.77 176.241C309.765 176.234 309.764 176.225 309.766 176.217C309.769 176.209 309.774 176.202 309.781 176.198C309.788 176.194 309.797 176.193 309.805 176.195C312.107 176.859 314.352 177.711 316.518 178.742C318.702 179.732 320.844 180.814 322.953 181.955C327.18 184.224 331.319 186.65 335.395 189.191L335.359 189.172C338.503 190.648 341.218 192.921 343.239 195.773C343.762 196.463 344.256 197.173 344.723 197.904C345.21 198.639 345.611 199.428 345.918 200.256C346.209 201.082 346.42 201.934 346.546 202.801C346.631 203.2 346.758 203.588 346.924 203.959C347.003 204.136 347.098 204.306 347.209 204.465C347.254 204.53 347.306 204.59 347.365 204.643L347.618 204.857C348.285 205.446 348.859 206.136 349.319 206.902C349.744 207.665 350.099 208.466 350.379 209.294C350.669 210.048 351.122 210.726 351.705 211.278C351.816 211.376 351.95 211.441 352.094 211.466C352.122 211.474 352.135 211.462 352.153 211.463C352.198 211.451 352.242 211.436 352.286 211.42L352.575 211.317C352.945 211.188 353.292 211.001 353.604 210.763C353.881 210.52 354.078 210.196 354.168 209.836C354.259 209.476 354.238 209.096 354.11 208.748C353.887 207.94 353.584 207.156 353.206 206.409C352.821 205.58 352.636 204.67 352.665 203.754C352.697 202.796 353.086 201.885 353.755 201.207L353.731 201.23C354.151 200.797 354.694 200.509 355.284 200.405C355.851 200.316 356.43 200.352 356.981 200.512C358.038 200.818 359.028 201.325 359.898 202.007C360.335 202.336 360.745 202.701 361.124 203.098C361.535 203.497 361.867 203.971 362.104 204.495C362.378 205.492 362.868 206.415 363.538 207.196C364.283 207.906 365.149 208.472 366.094 208.868C366.554 209.073 367.04 209.21 367.539 209.277C368.007 209.358 368.488 209.271 368.899 209.031C369.09 208.907 369.25 208.74 369.368 208.543C369.485 208.347 369.557 208.125 369.577 207.896C369.606 207.682 369.562 207.464 369.451 207.279L369.034 206.595L367.368 203.862L367.365 203.858C367.339 203.815 367.328 203.765 367.334 203.715C367.34 203.665 367.363 203.619 367.398 203.583C367.433 203.548 367.48 203.526 367.529 203.521C367.578 203.516 367.628 203.527 367.67 203.555C368.432 204.119 369.162 204.727 369.856 205.376C370.171 205.689 370.549 205.93 370.964 206.083C371.379 206.236 371.822 206.298 372.262 206.263C372.696 206.207 373.109 206.038 373.46 205.772C373.81 205.506 374.086 205.152 374.261 204.745C374.538 203.876 374.516 202.937 374.199 202.082C374.186 202.041 374.188 201.997 374.205 201.957C374.222 201.918 374.253 201.886 374.291 201.869C374.649 201.725 374.981 201.523 375.274 201.27C375.565 201.022 375.79 200.704 375.928 200.345C376.19 199.606 376.186 198.797 375.916 198.06L375.914 198.053C375.902 198.018 375.904 197.978 375.919 197.944C375.935 197.91 375.963 197.882 375.997 197.868C376.427 197.71 376.81 197.446 377.113 197.099C377.399 196.744 377.555 196.299 377.554 195.841C377.549 195.375 377.428 194.919 377.203 194.513C376.978 194.107 376.656 193.765 376.267 193.517C374.685 192.409 373.175 191.217 371.661 190.025C370.159 188.82 368.649 187.627 367.179 186.376C366.997 186.217 366.815 186.058 366.637 185.886C366.47 185.731 366.281 185.602 366.075 185.503C365.646 185.311 365.194 185.179 364.731 185.109C363.793 184.96 362.844 184.905 361.896 184.943L361.881 184.943C359.649 184.842 357.426 184.6 355.224 184.219C354.667 184.116 354.119 183.972 353.583 183.787C353.301 183.69 353.036 183.551 352.795 183.374L352.107 182.93C351.172 182.348 350.186 181.778 349.265 181.146C345.57 178.608 342.027 175.851 338.655 172.887L338.677 172.904C335.413 170.614 332.177 168.292 328.865 166.086C325.553 163.88 322.18 161.765 318.718 159.81C315.262 157.846 311.714 156.04 308.103 154.392L297.11 149.762C297.107 149.761 297.103 149.758 297.1 149.755C297.097 149.752 297.095 149.749 297.093 149.745C297.092 149.741 297.091 149.737 297.091 149.733C297.091 149.729 297.092 149.725 297.093 149.721C297.095 149.717 297.097 149.714 297.1 149.711C297.103 149.708 297.106 149.705 297.11 149.704C297.114 149.702 297.118 149.701 297.122 149.701C297.126 149.701 297.13 149.702 297.134 149.703L297.134 149.704Z" fill="#272727"/>
<path d="M365.289 188.823C366.261 189.518 367.202 190.244 368.148 190.959C369.101 191.664 370.036 192.393 371.008 193.04C371.251 193.196 371.493 193.358 371.74 193.489C371.982 193.628 372.215 193.703 372.544 193.861C373.081 194.179 373.564 194.58 373.977 195.051C374.788 195.944 375.485 196.936 376.052 198.005C375.299 197.089 374.494 196.219 373.64 195.398C373.229 195.006 372.771 194.669 372.276 194.394L371.897 194.238C371.747 194.181 371.6 194.114 371.458 194.037C371.179 193.894 370.924 193.73 370.666 193.568C369.678 192.888 368.737 192.142 367.847 191.335C366.951 190.544 366.097 189.706 365.289 188.823V188.823Z" fill="#272727"/>
<path d="M362.864 191.813C363.793 192.736 364.718 193.651 365.683 194.514C366.623 195.386 367.64 196.169 368.721 196.853C368.986 197.016 369.262 197.161 369.546 197.287L370.449 197.637C371.072 197.907 371.646 198.279 372.15 198.738C373.137 199.635 373.893 200.762 374.352 202.023C374.021 201.462 373.64 200.933 373.214 200.442C372.81 199.947 372.35 199.502 371.845 199.114C371.351 198.733 370.807 198.423 370.229 198.193L369.31 197.857C368.998 197.725 368.696 197.571 368.405 197.398C367.283 196.691 366.257 195.84 365.353 194.865C364.438 193.922 363.605 192.901 362.864 191.813V191.813Z" fill="#272727"/>
<path d="M360.009 196.41C360.832 196.751 361.606 197.203 362.31 197.752C363.018 198.291 363.688 198.88 364.314 199.515C364.938 200.149 365.525 200.82 366.07 201.524C366.616 202.228 367.112 202.969 367.555 203.744C366.287 202.494 365.108 201.202 363.874 199.963C363.262 199.339 362.638 198.728 362.001 198.132C361.354 197.545 360.716 196.945 360.009 196.41Z" fill="#272727"/>
<path d="M289.192 198.998L290.617 200.88C290.624 200.89 290.627 200.903 290.625 200.915C290.623 200.927 290.617 200.939 290.607 200.947L280.546 209.16L280.444 208.701C282.92 209.412 285.241 210.593 287.282 212.182C289.331 213.746 291.14 215.608 292.651 217.708C294.176 219.793 295.446 222.057 296.433 224.452C296.942 225.637 297.389 226.849 297.773 228.082C298.161 229.266 298.656 230.411 299.25 231.503C301.591 235.95 305.085 239.666 309.356 242.251C311.51 243.482 313.814 244.424 316.208 245.054C323.455 247.092 331.201 246.197 337.809 242.558C340.04 241.421 342.191 240.129 344.247 238.692C345.272 237.972 346.299 237.204 347.382 236.508C348.463 235.811 349.571 235.168 350.706 234.579C352.976 233.405 355.331 232.409 357.751 231.599C358.939 231.22 360.103 230.767 361.236 230.242C362.355 229.7 363.424 229.059 364.432 228.328C366.454 226.843 368.278 225.1 369.859 223.142C371.469 221.189 372.915 219.103 374.182 216.906L374.176 217.084L369.7 207.223L374.515 216.918C374.529 216.945 374.535 216.974 374.535 217.004C374.534 217.034 374.527 217.064 374.513 217.09L374.509 217.096C372.067 221.566 369.016 225.845 364.875 228.948C363.844 229.727 362.748 230.412 361.599 230.995C360.447 231.556 359.261 232.044 358.05 232.457C355.689 233.296 353.396 234.317 351.189 235.511C350.09 236.113 349.004 236.736 347.962 237.422C346.917 238.102 345.917 238.86 344.873 239.603C342.782 241.085 340.593 242.418 338.32 243.593C336.037 244.779 333.638 245.722 331.163 246.408C328.668 247.084 326.093 247.409 323.51 247.373C318.336 247.252 313.271 245.843 308.761 243.27C304.329 240.553 300.713 236.662 298.301 232.016C297.683 230.865 297.172 229.657 296.775 228.41C296.423 227.197 296.007 226.004 295.531 224.835C294.615 222.489 293.421 220.264 291.975 218.209C289.155 214.014 285.071 210.856 280.333 209.209L280.306 209.2C280.262 209.186 280.222 209.159 280.191 209.124C280.161 209.088 280.141 209.045 280.133 208.998C280.125 208.952 280.13 208.904 280.147 208.86C280.164 208.816 280.193 208.778 280.23 208.75L290.549 200.87L290.54 200.937L289.192 198.998Z" fill="#272727"/>
<path d="M290.578 200.908C292.297 199.569 294.055 198.287 295.818 197.013C297.581 195.738 299.375 194.511 301.152 193.257C302.957 192.046 304.747 190.812 306.566 189.622C308.386 188.433 310.211 187.251 312.075 186.129C310.357 187.469 308.599 188.751 306.836 190.025C305.072 191.298 303.28 192.528 301.502 193.78C299.696 194.99 297.907 196.225 296.087 197.414C294.267 198.604 292.442 199.785 290.578 200.908Z" fill="#272727"/>
<path d="M280.388 208.955C275.396 212.344 270.68 216.134 266.286 220.288C261.836 224.346 257.947 228.993 254.723 234.104C253.151 236.65 251.922 239.398 251.068 242.274C250.653 243.702 250.375 245.166 250.239 246.648C250.146 248.152 250.084 249.669 250.013 251.18C249.88 257.252 250.001 263.342 250.144 269.427C250.393 281.603 250.941 293.776 251.444 305.951L253.04 342.478C252.51 336.406 252.089 330.326 251.635 324.248L250.485 306C249.782 293.83 249.253 281.649 248.897 269.457C248.792 263.358 248.707 257.258 248.879 251.145C248.961 249.613 249.032 248.084 249.137 246.549C249.289 244.996 249.589 243.462 250.034 241.968C250.925 239.003 252.23 236.182 253.912 233.592C257.267 228.478 261.292 223.849 265.876 219.832C268.14 217.811 270.484 215.892 272.908 214.075C275.324 212.253 277.81 210.526 280.388 208.955Z" fill="#272727"/>
<path d="M306.689 241.165C302.266 242.997 297.983 245.16 293.877 247.637C291.828 248.857 289.86 250.214 287.987 251.697C286.114 253.144 284.445 254.842 283.024 256.744C282.348 257.686 281.8 258.717 281.396 259.807C281.024 260.883 280.869 262.023 280.941 263.161C281.107 265.558 281.406 267.96 281.678 270.367C282.248 275.179 282.749 280.031 282.87 284.909C282.961 289.792 282.644 294.675 281.922 299.504C281.76 300.713 281.498 301.906 281.29 303.108C281.062 304.306 280.758 305.488 280.495 306.678C279.927 309.035 279.342 311.371 278.822 313.732C277.779 318.449 276.936 323.212 276.33 328.01C276.013 330.408 275.763 332.814 275.558 335.228C275.457 336.434 275.367 337.642 275.305 338.85C275.213 340.058 275.209 341.27 275.293 342.478C275.076 340.06 275.054 337.628 275.228 335.206C275.339 332.783 275.496 330.359 275.722 327.94C276.207 323.106 276.948 318.298 277.883 313.53C278.34 311.146 278.884 308.771 279.447 306.418C279.696 305.241 279.988 304.073 280.203 302.89C280.398 301.703 280.648 300.526 280.799 299.332C281.472 294.565 281.747 289.749 281.623 284.936C281.541 280.118 281.084 275.312 280.551 270.496C280.298 268.086 280.016 265.674 279.866 263.233C279.79 261.946 279.978 260.656 280.418 259.446C280.881 258.275 281.498 257.172 282.254 256.17C283.768 254.235 285.535 252.518 287.507 251.068C289.437 249.608 291.464 248.284 293.573 247.104C295.675 245.925 297.83 244.852 300.018 243.862C302.204 242.867 304.426 241.956 306.689 241.165Z" fill="#272727"/>
<path d="M324.304 246.754C327.961 251.699 331.945 256.387 336.229 260.785C340.455 265.217 345.083 269.236 350.052 272.788C355.039 276.243 360.478 279.181 366.356 280.454C369.277 281.107 372.287 281.232 375.251 280.824L377.44 280.395C378.168 280.205 378.893 280.004 379.614 279.78C381.054 279.333 382.477 278.818 383.883 278.256C389.508 275.938 394.933 273.15 400.1 269.919C405.318 266.748 410.348 263.262 415.336 259.716C420.315 256.154 425.191 252.441 430.023 248.668L437.281 243.015L440.925 240.204C441.54 239.746 442.157 239.29 442.786 238.85C443.102 238.631 443.417 238.413 443.744 238.211C444.056 237.987 444.406 237.822 444.776 237.724C444.412 237.837 444.071 238.016 443.769 238.251C443.453 238.466 443.147 238.697 442.841 238.927C442.233 239.392 441.635 239.872 441.04 240.356L437.487 243.277L430.402 249.155C425.642 253.031 420.823 256.837 415.898 260.506C410.983 264.188 405.913 267.654 400.69 270.904C395.484 274.204 390.014 277.057 384.338 279.433C382.902 279.996 381.446 280.513 379.966 280.963C379.226 281.188 378.478 281.389 377.727 281.581L375.419 282.018C372.318 282.427 369.17 282.278 366.12 281.578C363.098 280.883 360.169 279.823 357.397 278.419C354.632 277.04 351.991 275.421 349.502 273.581C339.561 266.24 331.274 256.888 324.304 246.754Z" fill="#272727"/>
<path d="M361.822 230.415C363.505 233.462 365.657 236.218 368.198 238.577C370.711 240.888 373.812 242.666 377.152 242.898C377.979 242.95 378.81 242.913 379.629 242.786C380.44 242.686 381.232 242.464 381.979 242.129C382.737 241.786 383.455 241.36 384.122 240.86C384.836 240.356 385.56 239.869 386.288 239.386C389.204 237.456 392.233 235.708 395.359 234.152C398.507 232.607 401.803 231.39 405.194 230.521C408.531 229.671 411.812 228.613 415.081 227.514C421.597 225.2 427.983 222.526 434.212 219.506C431.186 221.204 428.117 222.827 424.99 224.343C421.849 225.825 418.654 227.187 415.404 228.431C412.152 229.667 408.84 230.737 405.481 231.635C402.173 232.522 398.963 233.748 395.899 235.291C392.801 236.791 389.796 238.482 386.902 240.353C386.178 240.821 385.457 241.295 384.747 241.785C384.016 242.317 383.231 242.769 382.404 243.132C380.713 243.818 378.88 244.069 377.07 243.863C373.527 243.351 370.256 241.648 367.782 239.027C365.331 236.517 363.316 233.605 361.822 230.415V230.415Z" fill="#272727"/>
<path d="M181.631 331.671C180.863 336.57 179.373 341.325 177.209 345.775C175.043 350.328 172.152 354.488 168.65 358.087C166.849 359.911 164.852 361.525 162.696 362.899C162.151 363.241 161.606 363.587 161.033 363.888C160.471 364.207 159.9 364.514 159.309 364.784C158.725 365.067 158.126 365.319 157.515 365.549C156.911 365.796 156.294 366.013 155.668 366.197C153.152 366.983 150.534 367.381 147.901 367.379C145.292 367.354 142.702 366.927 140.219 366.112C135.338 364.741 130.759 362.439 126.729 359.33C126.237 358.928 125.711 358.578 125.253 358.136L123.873 356.827C122.96 355.953 122.107 355.018 121.317 354.028C120.906 353.55 120.524 353.047 120.174 352.522L119.083 350.98C118.447 349.894 117.823 348.798 117.248 347.686C115.09 343.164 113.767 338.28 113.343 333.276L113.168 331.408C113.137 330.785 113.139 330.161 113.124 329.537L113.068 327.661C113.063 327.036 113.108 326.414 113.126 325.79C113.148 323.25 113.439 320.721 113.993 318.244C115.165 313.246 117.279 308.525 120.22 304.34C123.156 300.171 126.675 296.457 130.666 293.315C134.65 290.137 139.036 287.514 143.708 285.518C146.071 284.513 148.518 283.721 151.019 283.151C153.555 282.554 156.146 282.227 158.75 282.176C161.513 282.112 164.261 282.607 166.834 283.632C169.389 284.685 171.705 286.256 173.639 288.249C174.133 288.719 174.547 289.253 175 289.752C175.426 290.272 175.82 290.812 176.223 291.344C176.579 291.906 176.95 292.459 177.282 293.028C177.596 293.607 177.939 294.171 178.221 294.76C179.368 297.07 180.266 299.498 180.9 302.003C182.086 306.882 182.678 311.891 182.662 316.917C182.694 321.854 182.349 326.787 181.631 331.671V331.671ZM181.137 331.597C182.523 321.953 181.355 312.11 177.753 303.073C176.127 298.801 173.591 294.945 170.325 291.78C168.758 290.368 166.95 289.258 164.989 288.505C163.015 287.804 160.928 287.49 158.838 287.58C154.313 287.761 149.852 288.724 145.647 290.427C141.339 292.132 137.261 294.384 133.513 297.131C129.755 299.894 126.364 303.138 123.425 306.781C120.448 310.397 118.146 314.531 116.629 318.982C115.895 321.236 115.429 323.571 115.24 325.937C115.18 326.535 115.093 327.134 115.055 327.734L114.985 329.537C114.973 330.138 114.944 330.741 114.946 331.343L115.035 333.143C115.233 337.954 116.476 342.661 118.675 346.929C120.952 351.098 124.274 354.586 128.305 357.04C132.308 359.432 136.682 361.12 141.242 362.03C150.075 364.412 159.169 361.395 166.552 355.664C170.324 352.76 173.554 349.198 176.09 345.144C178.69 341.036 180.409 336.421 181.137 331.597V331.597Z" fill="#272727"/>
<path d="M175.869 279.047C175.852 279.466 175.835 279.876 175.818 280.295C175.731 282.573 175.688 284.877 175.645 287.199C175.594 289.52 175.559 291.868 175.456 294.259C174.959 293.175 174.519 292.065 174.138 290.934C173.733 289.817 173.388 288.682 173.078 287.53C172.442 285.235 171.952 282.9 171.614 280.54C171.334 278.637 171.159 276.72 171.088 274.797C168.986 276.489 166.773 278.035 164.464 279.423C162.149 280.837 159.759 282.122 157.305 283.271C154.852 284.447 152.319 285.442 149.725 286.247C151.689 284.319 153.713 282.547 155.738 280.784C157.762 279.039 159.795 277.319 161.811 275.626C163.818 273.925 165.816 272.231 167.686 270.512C168.616 269.648 169.512 268.767 170.313 267.894C170.666 267.501 171.002 267.091 171.295 266.707C171.767 266.479 172.269 266.321 172.785 266.236C173.244 266.174 173.71 266.214 174.152 266.352C174.594 266.49 175.001 266.723 175.346 267.036C175.69 267.348 175.964 267.733 176.148 268.163C176.332 268.592 176.422 269.058 176.412 269.526C176.402 272.046 176.195 274.562 175.792 277.049C175.662 277.712 175.689 278.397 175.869 279.047V279.047Z" fill="#272727"/>
<path d="M124.638 356.265C124.597 356.265 124.556 356.257 124.519 356.241C124.481 356.225 124.446 356.202 124.417 356.173C124.388 356.143 124.365 356.108 124.35 356.07C124.334 356.032 124.326 355.991 124.326 355.949V302.103C124.326 302.019 124.359 301.939 124.418 301.88C124.476 301.821 124.556 301.788 124.638 301.788C124.721 301.788 124.8 301.821 124.858 301.88C124.917 301.939 124.95 302.019 124.95 302.103V355.949C124.95 355.991 124.942 356.032 124.926 356.07C124.911 356.108 124.888 356.143 124.859 356.173C124.83 356.202 124.795 356.225 124.757 356.241C124.72 356.257 124.679 356.265 124.638 356.265Z" fill="#272727"/>
<path d="M140.539 364.463C140.498 364.463 140.458 364.455 140.42 364.439C140.382 364.423 140.348 364.4 140.319 364.371C140.29 364.341 140.267 364.307 140.251 364.268C140.235 364.23 140.227 364.189 140.227 364.147V289.872C140.227 289.831 140.235 289.789 140.251 289.751C140.266 289.712 140.289 289.677 140.318 289.648C140.347 289.618 140.382 289.595 140.42 289.579C140.458 289.563 140.498 289.555 140.539 289.555C140.581 289.555 140.621 289.563 140.659 289.579C140.697 289.595 140.732 289.618 140.761 289.648C140.79 289.677 140.813 289.712 140.828 289.751C140.844 289.789 140.852 289.831 140.852 289.872V364.147C140.852 364.189 140.844 364.23 140.828 364.268C140.812 364.307 140.789 364.341 140.76 364.371C140.731 364.4 140.697 364.423 140.659 364.439C140.621 364.455 140.58 364.463 140.539 364.463V364.463Z" fill="#272727"/>
<path d="M155.91 364.463C155.869 364.463 155.829 364.455 155.791 364.439C155.753 364.423 155.718 364.4 155.689 364.371C155.66 364.341 155.637 364.307 155.622 364.268C155.606 364.23 155.598 364.189 155.598 364.147V285.051C155.598 284.968 155.632 284.888 155.69 284.829C155.749 284.77 155.828 284.737 155.91 284.737C155.993 284.737 156.072 284.77 156.13 284.829C156.189 284.888 156.222 284.968 156.222 285.051V364.147C156.222 364.189 156.214 364.23 156.198 364.268C156.183 364.307 156.16 364.341 156.131 364.371C156.102 364.4 156.067 364.423 156.03 364.439C155.992 364.455 155.951 364.463 155.91 364.463V364.463Z" fill="#272727"/>
<path d="M171.845 352.815C171.804 352.815 171.763 352.807 171.725 352.791C171.687 352.775 171.653 352.752 171.624 352.723C171.595 352.693 171.572 352.659 171.556 352.62C171.54 352.582 171.532 352.541 171.532 352.499V289.872C171.532 289.831 171.54 289.789 171.556 289.751C171.571 289.712 171.594 289.677 171.623 289.648C171.652 289.618 171.687 289.595 171.725 289.579C171.763 289.563 171.803 289.555 171.845 289.555C171.886 289.555 171.926 289.563 171.964 289.579C172.002 289.595 172.037 289.618 172.066 289.648C172.095 289.677 172.118 289.712 172.133 289.751C172.149 289.789 172.157 289.831 172.157 289.872V352.499C172.157 352.541 172.149 352.582 172.133 352.62C172.117 352.659 172.094 352.693 172.065 352.723C172.036 352.752 172.002 352.775 171.964 352.791C171.926 352.807 171.886 352.815 171.845 352.815Z" fill="#272727"/>
<path d="M179.689 303.976H123.303C123.261 303.976 123.221 303.968 123.183 303.952C123.145 303.937 123.11 303.913 123.081 303.884C123.052 303.854 123.028 303.82 123.013 303.781C122.997 303.743 122.989 303.701 122.989 303.66C122.989 303.618 122.997 303.577 123.013 303.538C123.028 303.5 123.052 303.465 123.081 303.436C123.11 303.406 123.145 303.383 123.183 303.367C123.221 303.351 123.261 303.343 123.303 303.344H179.689C179.771 303.344 179.85 303.377 179.908 303.437C179.966 303.496 179.999 303.576 179.999 303.66C179.999 303.743 179.966 303.823 179.908 303.883C179.85 303.942 179.771 303.975 179.689 303.976V303.976Z" fill="#272727"/>
<path d="M182.1 319.861H115.058C114.976 319.86 114.897 319.827 114.839 319.767C114.781 319.708 114.748 319.628 114.748 319.544C114.748 319.461 114.781 319.381 114.839 319.321C114.897 319.262 114.976 319.229 115.058 319.228H182.1C182.182 319.229 182.261 319.262 182.319 319.321C182.377 319.381 182.41 319.461 182.41 319.544C182.41 319.628 182.377 319.708 182.319 319.767C182.261 319.827 182.182 319.86 182.1 319.861V319.861Z" fill="#272727"/>
<path d="M179.918 336.657H114.504C114.421 336.657 114.342 336.623 114.284 336.564C114.226 336.505 114.193 336.425 114.193 336.341C114.193 336.257 114.226 336.177 114.284 336.118C114.342 336.059 114.421 336.025 114.504 336.025H179.918C179.959 336.025 180 336.033 180.038 336.048C180.076 336.064 180.111 336.087 180.14 336.117C180.169 336.146 180.192 336.181 180.208 336.22C180.224 336.258 180.232 336.299 180.232 336.341C180.232 336.383 180.224 336.424 180.208 336.462C180.192 336.501 180.169 336.536 180.14 336.565C180.111 336.595 180.076 336.618 180.038 336.634C180 336.649 179.959 336.657 179.918 336.657V336.657Z" fill="#272727"/>
<path d="M172.634 351.842H120.581C120.54 351.842 120.499 351.834 120.461 351.819C120.423 351.803 120.388 351.779 120.359 351.75C120.33 351.721 120.307 351.686 120.291 351.647C120.275 351.609 120.267 351.568 120.267 351.526C120.267 351.484 120.275 351.443 120.291 351.405C120.307 351.366 120.33 351.331 120.359 351.302C120.388 351.272 120.423 351.249 120.461 351.233C120.499 351.218 120.54 351.21 120.581 351.21H172.634C172.676 351.21 172.716 351.218 172.754 351.233C172.792 351.249 172.827 351.272 172.856 351.302C172.885 351.331 172.909 351.366 172.924 351.405C172.94 351.443 172.948 351.484 172.948 351.526C172.948 351.568 172.94 351.609 172.924 351.647C172.909 351.686 172.885 351.721 172.856 351.75C172.827 351.779 172.792 351.803 172.754 351.819C172.716 351.834 172.676 351.842 172.634 351.842V351.842Z" fill="#272727"/>
<path d="M245.898 346.937C246.108 345.857 246.436 344.803 246.876 343.796C247.29 342.754 247.966 341.84 248.837 341.145L249.186 340.906L249.581 340.748C249.845 340.642 250.125 340.582 250.409 340.572C250.975 340.55 251.538 340.667 252.05 340.912C253.085 341.374 253.932 342.181 254.452 343.199C255.309 345.204 256.675 346.943 258.41 348.24C260.16 349.493 262.321 350.012 264.44 349.689C266.56 349.366 268.474 348.224 269.782 346.504C271.042 344.778 272.512 342.863 274.754 342.164C275.313 341.994 275.904 341.957 276.481 342.055C277.057 342.154 277.603 342.385 278.076 342.732C278.977 343.477 279.552 344.55 279.679 345.72C279.909 347.954 279.655 350.212 278.934 352.336L278.943 352.299C278.706 354.204 278.78 356.136 279.162 358.018C279.36 358.951 279.704 359.847 280.181 360.671C280.668 361.524 281.038 362.439 281.283 363.392C281.8 365.307 281.687 367.339 280.964 369.184C280.629 370.111 280.108 370.957 279.433 371.67C278.759 372.383 277.946 372.947 277.047 373.326C276.133 373.662 275.17 373.841 274.199 373.856C273.232 373.853 272.268 373.746 271.324 373.537C270.85 373.446 270.382 373.328 269.922 373.182C269.456 373.057 268.997 372.907 268.546 372.733C268.085 372.577 267.642 372.39 267.201 372.243C266.749 372.102 266.289 371.985 265.825 371.893C262.054 371.289 258.212 371.289 254.441 371.893C253.497 372.032 252.551 372.159 251.614 372.345C250.673 372.506 249.738 372.696 248.806 372.91C246.943 373.315 245.066 373.77 243.179 374.116C239.402 374.846 235.577 375.301 231.736 375.479C227.867 375.744 223.982 375.316 220.259 374.215C219.33 373.897 218.434 373.486 217.584 372.989C216.736 372.466 215.968 371.819 215.305 371.07C214.661 370.295 214.165 369.404 213.844 368.444C213.545 367.484 213.392 366.485 213.39 365.479L213.42 365.615C213.28 365.184 213.227 364.729 213.262 364.276C213.297 363.823 213.42 363.382 213.624 362.978C214.007 362.217 214.526 361.535 215.156 360.966C216.394 359.882 217.783 358.988 219.278 358.313C222.243 356.999 225.172 355.774 228.125 354.5C234.016 351.966 239.94 349.445 245.898 346.937ZM245.947 346.977C240.115 349.609 234.245 352.235 228.335 354.854C225.398 356.169 222.407 357.467 219.505 358.797C218.071 359.465 216.742 360.342 215.559 361.401C214.993 361.923 214.528 362.548 214.186 363.242C213.864 363.892 213.793 364.642 213.988 365.342L213.995 365.361C214.009 365.399 214.017 365.439 214.018 365.479C214.023 366.416 214.167 367.346 214.446 368.24C214.743 369.12 215.199 369.936 215.792 370.647C216.411 371.342 217.127 371.941 217.917 372.427C218.728 372.898 219.583 373.288 220.469 373.589C222.27 374.173 224.131 374.543 226.016 374.694C227.91 374.866 229.813 374.916 231.714 374.845C235.528 374.69 239.325 374.259 243.079 373.556C244.965 373.232 246.819 372.807 248.705 372.421C249.644 372.218 250.587 372.038 251.537 371.887C252.481 371.711 253.436 371.595 254.388 371.467C258.204 370.909 262.082 370.951 265.886 371.593C266.36 371.692 266.829 371.815 267.29 371.963C267.757 372.124 268.197 372.314 268.644 372.469C269.086 372.644 269.538 372.796 269.996 372.924C270.449 373.071 270.91 373.192 271.376 373.285C272.302 373.498 273.247 373.612 274.196 373.624C275.142 373.617 276.08 373.451 276.972 373.132C277.85 372.772 278.642 372.226 279.294 371.53C279.946 370.834 280.444 370.005 280.754 369.098C281.438 367.298 281.526 365.322 281.004 363.467C280.757 362.543 280.387 361.657 279.904 360.833C279.403 359.985 279.037 359.062 278.82 358.098C278.407 356.175 278.312 354.197 278.537 352.242L278.541 352.22L278.546 352.205C279.222 350.144 279.449 347.959 279.212 345.8C279.096 344.759 278.582 343.806 277.779 343.146C277.367 342.85 276.893 342.654 276.393 342.575C275.894 342.495 275.384 342.533 274.901 342.686C273.912 343.031 273.015 343.605 272.282 344.361C271.515 345.125 270.815 345.954 270.188 346.839C268.793 348.64 266.765 349.825 264.528 350.147C262.291 350.469 260.018 349.904 258.182 348.569C256.412 347.222 255.025 345.425 254.16 343.36C253.683 342.4 252.895 341.634 251.928 341.191C251.459 340.958 250.943 340.838 250.421 340.841C250.162 340.844 249.905 340.892 249.662 340.983L249.295 341.118L248.964 341.334C248.106 341.989 247.431 342.859 247.007 343.858C246.544 344.856 246.189 345.902 245.947 346.977Z" fill="#272727"/>
<path d="M255.363 353.637C254.169 352.077 252.748 350.709 251.15 349.58C250.364 349.031 249.535 348.548 248.67 348.138C247.801 347.698 246.878 347.374 245.922 346.957C246.956 346.842 248.003 346.928 249.005 347.21C251.061 347.761 252.863 349.018 254.104 350.768C254.734 351.615 255.164 352.596 255.363 353.637V353.637Z" fill="#272727"/>
<path d="M239.343 349.875C240.34 350.095 241.305 350.444 242.214 350.914C243.132 351.367 244.001 351.917 244.807 352.553C245.639 353.197 246.36 353.976 246.94 354.858C247.239 355.313 247.46 355.816 247.594 356.345C247.733 356.873 247.704 357.432 247.513 357.942C247.337 356.99 246.865 356.12 246.167 355.459C245.501 354.771 244.789 354.132 244.034 353.546C242.523 352.325 240.904 351.215 239.343 349.875Z" fill="#272727"/>
<path d="M232.431 352.914C233.469 353.026 234.482 353.306 235.433 353.744C236.401 354.162 237.307 354.713 238.126 355.382C238.961 356.063 239.67 356.889 240.217 357.823C240.754 358.763 241.018 359.838 240.977 360.924C240.559 360.016 240.034 359.162 239.413 358.382C238.78 357.65 238.086 356.975 237.339 356.364C235.836 355.117 234.157 354.082 232.431 352.914Z" fill="#272727"/>
<path d="M213.704 365.479C213.773 364.938 213.948 364.417 214.217 363.946C214.485 363.445 214.934 363.068 215.469 362.893C216.015 362.748 216.593 362.778 217.122 362.979C217.656 363.14 218.154 363.405 218.588 363.759C219.025 364.111 219.405 364.532 219.712 365.006C219.993 365.474 220.241 365.961 220.454 366.465C220.922 367.384 221.553 368.209 222.316 368.898C223.893 370.234 225.8 371.106 227.832 371.422C229.884 371.745 231.968 371.797 234.033 371.575L233.975 371.583C237.72 370.842 241.483 370.231 245.264 369.752C247.159 369.527 249.061 369.338 250.977 369.227L252.418 369.17L253.87 369.181C254.356 369.194 254.849 369.246 255.337 369.278C255.821 369.35 256.371 369.452 256.803 369.539C258.631 369.872 260.488 370.023 262.346 369.988C264.231 369.983 266.115 369.877 267.989 369.671C269.865 369.468 271.729 369.16 273.572 368.75C274.493 368.541 275.397 368.267 276.279 367.93C277.174 367.618 278.007 367.148 278.74 366.541C277.281 367.805 275.546 368.7 273.679 369.151C271.845 369.702 269.973 370.115 268.079 370.388C266.186 370.672 264.278 370.854 262.366 370.935C260.427 371.059 258.481 370.958 256.565 370.633C254.741 370.324 252.884 370.26 251.044 370.444C249.169 370.565 247.29 370.764 245.415 371C241.665 371.474 237.915 372.068 234.192 372.734L234.175 372.737L234.135 372.742C231.965 372.941 229.779 372.834 227.638 372.424C225.46 371.997 223.44 370.973 221.796 369.464C220.998 368.685 220.347 367.764 219.877 366.747C219.692 366.253 219.481 365.77 219.243 365.299C218.993 364.854 218.674 364.452 218.299 364.108C217.923 363.761 217.485 363.491 217.007 363.314C216.546 363.102 216.032 363.04 215.535 363.138C215.05 363.325 214.624 363.641 214.302 364.053C213.98 364.465 213.773 364.958 213.704 365.479Z" fill="#272727"/>
<path d="M271.666 358.053C271.203 356.213 268.033 355.442 264.584 356.332C261.135 357.221 258.715 359.434 259.177 361.274C259.639 363.114 263.518 365.296 266.258 362.995C269.449 360.317 272.128 359.893 271.666 358.053Z" fill="#272727"/>
<path d="M452.805 242.086C451.779 242.448 450.716 242.694 449.636 242.818C448.539 242.983 447.419 242.854 446.386 242.443L446.006 242.259L445.672 241.994C445.448 241.817 445.256 241.602 445.104 241.359C444.799 240.875 444.614 240.324 444.565 239.753C444.435 238.614 444.694 237.465 445.298 236.497C446.573 234.734 447.364 232.662 447.592 230.489C447.775 228.326 447.126 226.174 445.779 224.485C444.433 222.795 442.493 221.699 440.367 221.424C438.26 221.196 435.886 220.878 434.158 219.271C433.73 218.868 433.4 218.37 433.193 217.817C432.985 217.263 432.907 216.669 432.963 216.079C433.142 214.916 433.765 213.871 434.698 213.169C436.485 211.839 438.536 210.92 440.709 210.476L440.673 210.488C442.416 209.731 444.024 208.69 445.434 207.406C446.129 206.761 446.718 206.008 447.179 205.175C447.659 204.318 448.252 203.531 448.94 202.836C450.309 201.417 452.097 200.488 454.034 200.188C454.993 200.013 455.977 200.041 456.925 200.27C457.873 200.499 458.764 200.924 459.542 201.52C460.29 202.149 460.929 202.9 461.432 203.742C461.918 204.589 462.314 205.485 462.613 206.416C462.776 206.876 462.911 207.345 463.02 207.821C463.148 208.292 463.252 208.769 463.332 209.251C463.432 209.733 463.497 210.215 463.594 210.675C463.703 211.141 463.836 211.602 463.992 212.055C465.383 215.657 467.324 219.015 469.744 222.006C470.34 222.761 470.926 223.524 471.558 224.25C472.17 224.991 472.804 225.714 473.458 226.419C474.745 227.843 476.08 229.254 477.329 230.729C479.859 233.663 482.18 236.776 484.272 240.045C486.453 243.293 488.052 246.906 488.996 250.717C489.194 251.69 489.297 252.681 489.303 253.675C489.285 254.681 489.123 255.679 488.82 256.637C488.485 257.592 487.977 258.476 487.321 259.242C486.655 259.988 485.881 260.627 485.025 261.137L485.126 261.041C484.829 261.381 484.469 261.659 484.066 261.857C483.663 262.055 483.225 262.17 482.777 262.195C481.936 262.246 481.092 262.136 480.29 261.873C478.74 261.339 477.277 260.576 475.946 259.61C473.329 257.682 470.806 255.74 468.228 253.802C463.093 249.933 457.952 246.027 452.805 242.086ZM452.814 242.024C458.003 245.792 463.206 249.597 468.424 253.44C471.028 255.343 473.644 257.302 476.244 259.167C477.537 260.083 478.956 260.801 480.455 261.301C481.187 261.532 481.954 261.623 482.718 261.571C483.435 261.524 484.109 261.207 484.607 260.683L484.619 260.667C484.645 260.636 484.674 260.609 484.708 260.587C485.504 260.11 486.224 259.514 486.843 258.818C487.443 258.114 487.908 257.302 488.214 256.425C488.492 255.533 488.641 254.604 488.655 253.668C488.647 252.72 488.547 251.776 488.356 250.849C487.943 248.98 487.318 247.165 486.494 245.441C485.683 243.699 484.764 242.01 483.743 240.384C481.684 237.128 479.398 234.026 476.903 231.1C475.674 229.614 474.375 228.208 473.093 226.755C472.445 226.037 471.816 225.301 471.207 224.549C470.58 223.811 469.999 223.036 469.408 222.268C467.004 219.214 465.081 215.802 463.706 212.153C463.55 211.688 463.418 211.216 463.311 210.738C463.212 210.248 463.152 209.768 463.058 209.299C462.984 208.823 462.885 208.352 462.762 207.887C462.659 207.416 462.529 206.953 462.373 206.498C462.086 205.581 461.705 204.697 461.236 203.861C460.752 203.037 460.137 202.301 459.414 201.682C458.664 201.097 457.798 200.681 456.876 200.462C455.954 200.244 454.996 200.228 454.067 200.416C452.188 200.727 450.461 201.648 449.145 203.042C448.483 203.725 447.915 204.496 447.457 205.334C446.988 206.201 446.387 206.988 445.675 207.664C444.246 208.997 442.609 210.08 440.83 210.871L440.81 210.878L440.794 210.882C438.697 211.332 436.721 212.238 435.002 213.536C434.174 214.163 433.622 215.095 433.465 216.13C433.422 216.64 433.495 217.153 433.679 217.63C433.864 218.107 434.154 218.534 434.528 218.878C435.322 219.569 436.264 220.063 437.278 220.322C438.317 220.606 439.377 220.799 440.448 220.9C442.686 221.21 444.72 222.384 446.125 224.177C447.53 225.97 448.197 228.243 447.987 230.522C447.734 232.75 446.905 234.871 445.583 236.671C445.007 237.573 444.753 238.649 444.864 239.719C444.902 240.246 445.061 240.757 445.328 241.212C445.46 241.438 445.631 241.638 445.832 241.804L446.132 242.057L446.483 242.237C447.474 242.656 448.557 242.807 449.623 242.673C450.706 242.573 451.776 242.355 452.814 242.024V242.024Z" fill="#272727"/>
<path d="M453.729 230.426C453.004 232.258 452.556 234.191 452.402 236.159C452.332 237.123 452.34 238.092 452.427 239.056C452.492 240.038 452.682 241.008 452.81 242.055C452.189 241.209 451.734 240.251 451.468 239.232C450.898 237.157 451.058 234.945 451.921 232.976C452.324 231.998 452.942 231.126 453.729 230.426Z" fill="#272727"/>
<path d="M458.62 246.332C458.303 245.349 458.113 244.329 458.054 243.297C457.976 242.265 458.005 241.228 458.139 240.202C458.267 239.149 458.567 238.126 459.025 237.172C459.262 236.681 459.578 236.234 459.961 235.849C460.341 235.461 460.831 235.204 461.363 235.113C460.641 235.748 460.138 236.6 459.928 237.545C459.678 238.474 459.494 239.42 459.376 240.376C459.1 242.314 458.972 244.29 458.62 246.332Z" fill="#272727"/>
<path d="M464.702 250.839C464.272 249.875 463.999 248.848 463.891 247.796C463.758 246.738 463.77 245.667 463.926 244.613C464.083 243.539 464.429 242.502 464.948 241.552C465.477 240.607 466.26 239.833 467.205 239.32C466.643 240.145 466.181 241.035 465.83 241.972C465.527 242.895 465.303 243.843 465.16 244.806C464.857 246.749 464.823 248.74 464.702 250.839Z" fill="#272727"/>
<path d="M484.866 260.862C484.371 261.074 483.839 261.185 483.301 261.188C482.739 261.207 482.192 261.005 481.772 260.625C481.372 260.221 481.106 259.701 481.01 259.137C480.877 258.589 480.851 258.02 480.933 257.461C481.013 256.901 481.18 256.356 481.428 255.849C481.684 255.367 481.974 254.903 482.295 254.462C482.842 253.588 483.226 252.62 483.427 251.605C483.768 249.552 483.547 247.443 482.79 245.507C482.028 243.55 481.019 241.702 479.787 240.009L479.822 240.055C477.298 237.156 474.877 234.175 472.558 231.111C471.409 229.568 470.287 228.001 469.224 226.382L468.448 225.151L467.723 223.876C467.489 223.445 467.284 222.988 467.064 222.545C466.881 222.085 466.69 221.553 466.546 221.131C465.906 219.364 465.096 217.665 464.127 216.058C463.17 214.413 462.128 212.82 461.006 211.285C459.885 209.747 458.681 208.273 457.399 206.869C456.757 206.17 456.066 205.518 455.333 204.917C454.615 204.293 453.794 203.802 452.907 203.468C454.721 204.105 456.359 205.169 457.688 206.573C459.083 207.898 460.381 209.326 461.571 210.844C462.769 212.356 463.889 213.931 464.924 215.562C466.009 217.195 466.906 218.948 467.598 220.787C468.256 222.538 469.14 224.193 470.227 225.709C471.278 227.287 472.396 228.829 473.545 230.349C475.844 233.388 478.244 236.366 480.693 239.284L480.704 239.297L480.729 239.33C481.995 241.126 483.008 243.092 483.741 245.17C484.478 247.29 484.627 249.574 484.172 251.773C483.912 252.865 483.457 253.899 482.828 254.824C482.5 255.235 482.195 255.665 481.915 256.11C481.662 256.554 481.481 257.036 481.378 257.537C481.271 258.041 481.263 258.561 481.354 259.068C481.406 259.578 481.614 260.059 481.948 260.444C482.352 260.773 482.837 260.986 483.35 261.06C483.864 261.133 484.388 261.065 484.866 260.862V260.862Z" fill="#272727"/>
<path d="M449.252 213.942C447.918 215.276 448.864 218.437 451.364 221.002C453.865 223.568 456.973 224.566 458.306 223.232C459.64 221.898 459.538 217.405 456.194 216.172C452.3 214.736 450.586 212.608 449.252 213.942Z" fill="#272727"/>
<path d="M212.454 201.548C211.773 203.979 210.899 206.351 209.84 208.64C208.832 210.951 207.684 213.191 206.54 215.432C204.208 219.891 201.732 224.268 199.165 228.587C196.581 232.896 193.995 237.204 191.268 241.42L187.171 247.738L182.947 253.973L182.921 253.469C183.668 254.521 184.193 255.717 184.463 256.984C184.757 258.204 184.935 259.451 184.994 260.706C185.061 261.958 185.003 263.214 184.823 264.455C184.73 265.081 184.584 265.698 184.387 266.298C184.277 266.602 184.145 266.896 183.99 267.179C183.824 267.447 183.644 267.706 183.453 267.955C182.752 268.919 182.347 270.071 182.29 271.267C182.275 271.563 182.287 271.859 182.323 272.153C182.356 272.415 182.453 272.753 182.498 273.051C182.606 273.665 182.683 274.284 182.728 274.907C182.832 276.156 182.768 277.414 182.538 278.646C182.425 279.278 182.21 279.887 181.902 280.449C181.543 281.013 181.001 281.433 180.37 281.638C179.748 281.829 179.088 281.856 178.453 281.717C177.817 281.578 177.227 281.278 176.738 280.845C176.257 280.401 175.891 279.843 175.674 279.222C175.456 278.601 175.393 277.934 175.49 277.282C175.869 274.856 176.058 272.404 176.057 269.948C176.101 269.383 176.01 268.817 175.79 268.296C175.562 267.8 175.202 267.378 174.751 267.076C174.287 266.793 173.756 266.64 173.214 266.632C172.672 266.625 172.137 266.763 171.665 267.033C169.573 268.13 167.787 269.744 166.473 271.725L166.465 271.736C166.411 271.81 166.339 271.869 166.256 271.906C166.172 271.943 166.08 271.957 165.99 271.947C165.899 271.936 165.813 271.901 165.74 271.846C165.667 271.791 165.61 271.717 165.575 271.632C164.018 268.207 162.974 264.567 162.475 260.832C162.245 258.904 162.408 256.95 162.953 255.088C163.237 254.144 163.66 253.249 164.207 252.432C164.474 252.022 164.768 251.631 165.089 251.262L165.579 250.724C165.727 250.559 165.872 250.415 166.013 250.241C167.146 248.823 168.204 247.347 169.185 245.817C170.195 244.286 171.177 242.729 172.143 241.163C174.096 238.07 175.775 234.808 177.161 231.416C177.864 229.715 178.443 228.01 179.072 226.24C179.704 224.488 180.392 222.755 181.156 221.053C181.912 219.343 182.77 217.68 183.725 216.074C184.207 215.267 184.73 214.486 185.29 213.733C185.82 212.974 186.367 212.28 186.829 211.486C188.694 208.325 190.277 205.002 191.557 201.555C192.896 198.118 194.115 194.623 195.165 191.077C195.168 191.069 195.171 191.062 195.176 191.055C195.181 191.049 195.188 191.043 195.195 191.039C195.202 191.035 195.21 191.033 195.218 191.032C195.226 191.031 195.234 191.032 195.242 191.034C195.258 191.038 195.271 191.049 195.279 191.063C195.287 191.078 195.29 191.094 195.286 191.11C194.378 194.704 193.315 198.254 192.097 201.761C190.899 205.29 189.39 208.703 187.59 211.958C187.119 212.769 186.608 213.555 186.058 214.314C185.53 215.049 185.039 215.812 184.588 216.598C183.683 218.183 182.874 219.823 182.164 221.507C181.443 223.191 180.795 224.91 180.202 226.648C179.629 228.377 179.038 230.185 178.325 231.902C176.925 235.365 175.226 238.697 173.248 241.859C172.282 243.438 171.3 245.008 170.284 246.56C169.275 248.14 168.172 249.657 166.981 251.101C166.83 251.283 166.648 251.464 166.486 251.639L166.042 252.117C165.755 252.441 165.491 252.784 165.252 253.145C164.762 253.859 164.383 254.643 164.126 255.472C163.615 257.17 163.452 258.957 163.649 260.722C163.828 262.528 164.185 264.311 164.715 266.045C165.228 267.802 165.832 269.531 166.523 271.225L165.625 271.131C166.37 270.107 167.215 269.161 168.147 268.308C169.076 267.428 170.149 266.716 171.317 266.204C171.93 265.933 172.589 265.788 173.258 265.777C173.952 265.784 174.629 266.005 175.197 266.411C175.758 266.807 176.2 267.354 176.472 267.99C176.718 268.615 176.815 269.289 176.755 269.96C176.699 272.438 176.451 274.909 176.015 277.349C175.904 277.919 175.94 278.508 176.121 279.06C176.301 279.612 176.619 280.107 177.044 280.497C177.469 280.887 177.986 281.159 178.545 281.287C179.105 281.414 179.687 281.393 180.236 281.225C180.778 281.055 181.244 280.7 181.555 280.22C181.839 279.703 182.039 279.143 182.148 278.561C182.386 277.369 182.453 276.148 182.345 274.937C182.295 274.329 182.213 273.725 182.101 273.126C182.049 272.814 181.966 272.56 181.913 272.211C181.87 271.893 181.854 271.572 181.865 271.252C181.913 269.967 182.334 268.724 183.075 267.68C183.797 266.727 184.227 265.579 184.311 264.38C184.451 263.174 184.473 261.956 184.375 260.746C184.284 259.538 184.079 258.341 183.763 257.172C183.487 256.027 182.986 254.951 182.29 254.008C182.234 253.938 182.2 253.852 182.195 253.763C182.19 253.673 182.213 253.583 182.261 253.508L182.264 253.503L190.35 240.821C193 236.565 195.711 232.348 198.309 228.059C200.89 223.762 203.469 219.463 205.918 215.089C208.29 210.682 210.751 206.284 212.333 201.516L212.335 201.511C212.34 201.495 212.351 201.482 212.365 201.475C212.38 201.467 212.397 201.466 212.412 201.471C212.428 201.476 212.441 201.486 212.449 201.501C212.456 201.515 212.458 201.532 212.454 201.548L212.454 201.548Z" fill="#272727"/>
<path d="M311.176 237.724C313.173 235.532 315.116 233.296 317.004 231.017C318.888 228.734 320.739 226.424 322.487 224.035C324.272 221.674 325.92 219.214 327.518 216.722C329.094 214.213 330.528 211.619 331.856 208.955C330.75 211.726 329.437 214.408 327.927 216.977C326.404 219.538 324.74 222.012 322.986 224.415C321.187 226.783 319.335 229.111 317.365 231.334C315.409 233.568 313.343 235.7 311.176 237.724V237.724Z" fill="#272727"/>
<path d="M349.164 229.397C348.969 227.387 348.622 225.395 348.126 223.438C347.651 221.486 347.019 219.577 346.237 217.729C345.887 216.788 345.427 215.899 345.005 214.99C344.515 214.118 344.06 213.224 343.513 212.385C342.449 210.678 341.257 209.057 339.948 207.535C341.441 208.901 342.772 210.439 343.914 212.117C345.065 213.797 346.037 215.597 346.812 217.485C347.586 219.373 348.182 221.33 348.592 223.33C349.014 225.323 349.205 227.359 349.164 229.397Z" fill="#272727"/>
</svg>
